<svg width="41" height="41" viewBox="0 0 41 41" fill="none" xmlns="http://www.w3.org/2000/svg">
<circle cx="20.3125" cy="20.8945" r="19.5" fill="white" stroke="url(#paint0_linear_1169_1111)"/>
<path d="M15.7627 10.6157C14.4044 10.2709 12.9807 10.4172 11.8653 11.0415C10.729 11.6763 9.93222 12.8022 9.89303 14.3081C9.83295 16.6618 10.3776 19.82 12.5405 23.5268C14.6761 27.1878 17.0336 29.3821 18.9902 30.6856C20.2258 31.5098 21.5907 31.532 22.757 30.9952C23.9064 30.4662 24.839 29.4095 25.3236 28.0995C25.444 27.7736 25.4923 27.4255 25.4653 27.0792C25.4382 26.7329 25.3364 26.3965 25.1668 26.0933L23.9208 23.8703C23.5378 23.1861 22.9213 22.6626 22.1841 22.3954C21.4469 22.1283 20.6382 22.1353 19.9058 22.4153L19.0359 22.7483C18.614 22.909 18.2261 22.8345 18.0067 22.6177C17.2687 21.8928 16.741 20.9093 16.502 19.8487C16.4263 19.5144 16.5804 19.1199 16.9487 18.8417L17.7337 18.2487C18.3683 17.7698 18.8064 17.0759 18.9658 16.297C19.1253 15.5182 18.9951 14.7079 18.5996 14.0182L17.3301 11.8043C17.1618 11.5113 16.9364 11.255 16.6671 11.0508C16.3979 10.8467 16.0903 10.6987 15.7627 10.6157ZM11.1992 14.3434C11.2253 13.3325 11.7373 12.6102 12.5027 12.1818C13.289 11.7416 14.3626 11.6071 15.4414 11.8814C15.5995 11.9213 15.748 11.9926 15.8779 12.0912C16.0078 12.1897 16.1166 12.3133 16.1977 12.4548L17.4659 14.6686C17.7031 15.0823 17.7813 15.5683 17.6859 16.0355C17.5904 16.5026 17.3279 16.919 16.9474 17.2064L16.1624 17.7994C15.4832 18.3114 15.013 19.1891 15.2272 20.1361C15.5172 21.4187 16.1585 22.6347 17.0911 23.5503C17.7729 24.219 18.7446 24.2582 19.5022 23.9682L20.3721 23.6352C20.8115 23.4669 21.2969 23.4625 21.7394 23.6227C22.1819 23.7829 22.5519 24.0971 22.7818 24.5077L24.0266 26.732C24.1833 27.0115 24.2094 27.3459 24.0984 27.6463C23.7196 28.6716 23.0078 29.4409 22.2111 29.8079C21.4313 30.1671 20.5497 30.1566 19.7151 29.5989C17.9244 28.4051 15.7053 26.3584 13.6677 22.8685C11.6289 19.3681 11.1456 16.4502 11.2005 14.3434M22.9007 18.954C22.9007 19.1272 22.8319 19.2933 22.7094 19.4158C22.587 19.5383 22.4208 19.6071 22.2476 19.6071C22.0744 19.6071 21.9083 19.5383 21.7859 19.4158C21.6634 19.2933 21.5946 19.1272 21.5946 18.954C21.5946 18.7808 21.6634 18.6147 21.7859 18.4922C21.9083 18.3698 22.0744 18.301 22.2476 18.301C22.4208 18.301 22.587 18.3698 22.7094 18.4922C22.8319 18.6147 22.9007 18.7808 22.9007 18.954ZM24.2068 17.6479C24.2068 17.8211 24.138 17.9872 24.0156 18.1097C23.8931 18.2322 23.727 18.301 23.5538 18.301C23.3806 18.301 23.2145 18.2322 23.092 18.1097C22.9695 17.9872 22.9007 17.8211 22.9007 17.6479C22.9007 17.4747 22.9695 17.3086 23.092 17.1861C23.2145 17.0636 23.3806 16.9948 23.5538 16.9948C23.727 16.9948 23.8931 17.0636 24.0156 17.1861C24.138 17.3086 24.2068 17.4747 24.2068 17.6479ZM25.5129 16.3418C25.5129 16.515 25.4441 16.6811 25.3217 16.8036C25.1992 16.926 25.0331 16.9948 24.8599 16.9948C24.6867 16.9948 24.5206 16.926 24.3981 16.8036C24.2756 16.6811 24.2068 16.515 24.2068 16.3418C24.2068 16.1686 24.2756 16.0025 24.3981 15.88C24.5206 15.7575 24.6867 15.6887 24.8599 15.6887C25.0331 15.6887 25.1992 15.7575 25.3217 15.88C25.4441 16.0025 25.5129 16.1686 25.5129 16.3418ZM30.0844 18.301C29.9112 18.301 29.7451 18.2322 29.6226 18.1097C29.5001 17.9872 29.4313 17.8211 29.4313 17.6479V12.6912L26.6284 15.4954C26.5677 15.5561 26.4957 15.6043 26.4165 15.6372C26.3372 15.6701 26.2523 15.6871 26.1665 15.6871C26.0807 15.6872 25.9957 15.6703 25.9164 15.6376C25.8371 15.6048 25.765 15.5567 25.7043 15.4961C25.6436 15.4354 25.5954 15.3634 25.5625 15.2842C25.5296 15.2049 25.5126 15.12 25.5126 15.0342C25.5125 14.9484 25.5294 14.8634 25.5622 14.7841C25.5949 14.7048 25.643 14.6327 25.7036 14.572L28.5079 11.7677H23.5538C23.3806 11.7677 23.2145 11.6989 23.092 11.5765C22.9695 11.454 22.9007 11.2879 22.9007 11.1147C22.9007 10.9415 22.9695 10.7754 23.092 10.6529C23.2145 10.5304 23.3806 10.4616 23.5538 10.4616H30.0844C30.2576 10.4616 30.4237 10.5304 30.5462 10.6529C30.6686 10.7754 30.7374 10.9415 30.7374 11.1147V17.6453C30.7374 17.8185 30.6686 17.9846 30.5462 18.1071C30.4237 18.2295 30.2576 18.2984 30.0844 18.2984" fill="url(#paint1_linear_1169_1111)"/>
<defs>
<linearGradient id="paint0_linear_1169_1111" x1="0.3125" y1="20.8945" x2="40.3125" y2="20.8945" gradientUnits="userSpaceOnUse">
<stop stop-color="#32ABB1"/>
<stop offset="1" stop-color="#3286BD"/>
</linearGradient>
<linearGradient id="paint1_linear_1169_1111" x1="9.88867" y1="20.896" x2="30.7374" y2="20.896" gradientUnits="userSpaceOnUse">
<stop stop-color="#32ABB1"/>
<stop offset="1" stop-color="#3286BD"/>
</linearGradient>
</defs>
</svg>
