<svg width="29" height="33" viewBox="0 0 29 33" fill="none" xmlns="http://www.w3.org/2000/svg">
<path d="M19.1719 19.234C20.5561 19.7124 21.803 20.3791 22.9124 21.234C24.0218 22.089 24.9684 23.0865 25.7522 24.2265C26.5359 25.3664 27.1364 26.6031 27.5537 27.9365C27.971 29.2698 28.1797 30.6694 28.1797 32.135H26.2254C26.2254 30.4658 25.9303 28.9187 25.3399 27.4937C24.7496 26.0688 23.9251 24.827 22.8666 23.7684C21.808 22.7099 20.5714 21.8905 19.1566 21.3104C17.7418 20.7302 16.1896 20.43 14.5 20.4096C13.4109 20.4096 12.3625 20.547 11.3549 20.8218C10.3472 21.0966 9.41083 21.4834 8.54567 21.9821C7.68051 22.4809 6.89169 23.0865 6.17921 23.799C5.46672 24.5115 4.86111 25.3003 4.36237 26.1654C3.86364 27.0306 3.47177 27.9721 3.18678 28.9899C2.90178 30.0078 2.76438 31.0561 2.77455 32.135H0.820312C0.820312 30.6694 1.03406 29.2698 1.46155 27.9365C1.88904 26.6031 2.49465 25.3715 3.27838 24.2417C4.06211 23.1119 5.0087 22.1246 6.11814 21.2798C7.22758 20.435 8.47442 19.7582 9.85868 19.2493C9.06477 18.8218 8.35228 18.3027 7.72123 17.692C7.09017 17.0813 6.55581 16.4044 6.11814 15.6614C5.68047 14.9184 5.33949 14.1194 5.09521 13.2644C4.85093 12.4094 4.72879 11.5341 4.72879 10.6384C4.72879 9.28467 4.98325 8.01747 5.49217 6.83678C6.00109 5.6561 6.6983 4.61791 7.58382 3.72221C8.46933 2.82652 9.50244 2.1293 10.6831 1.63056C11.8638 1.13182 13.1361 0.877366 14.5 0.867188C15.8537 0.867188 17.1209 1.12165 18.3016 1.63056C19.4823 2.13948 20.5205 2.8367 21.4162 3.72221C22.3119 4.60773 23.0091 5.64083 23.5078 6.82152C24.0066 8.0022 24.261 9.2745 24.2712 10.6384C24.2712 11.5341 24.1542 12.4043 23.9201 13.2491C23.686 14.0939 23.345 14.8878 22.8971 15.6309C22.4493 16.3739 21.9149 17.0507 21.294 17.6614C20.6732 18.2721 19.9658 18.7963 19.1719 19.234ZM6.68304 10.6384C6.68304 11.7173 6.8866 12.73 7.29374 13.6766C7.70087 14.6232 8.26068 15.4477 8.97316 16.15C9.68565 16.8523 10.5152 17.4121 11.4618 17.8294C12.4084 18.2467 13.4211 18.4554 14.5 18.4554C15.5789 18.4554 16.5916 18.2518 17.5382 17.8447C18.4848 17.4375 19.3093 16.8777 20.0116 16.1652C20.7139 15.4527 21.2737 14.6232 21.691 13.6766C22.1083 12.73 22.317 11.7173 22.317 10.6384C22.317 9.55949 22.1134 8.54674 21.7063 7.60016C21.2991 6.65357 20.7393 5.82913 20.0268 5.12682C19.3144 4.42452 18.4848 3.86471 17.5382 3.4474C16.5916 3.03008 15.5789 2.82143 14.5 2.82143C13.4211 2.82143 12.4084 3.025 11.4618 3.43213C10.5152 3.83926 9.69073 4.39907 8.98843 5.11155C8.28612 5.82404 7.72632 6.65357 7.309 7.60016C6.89169 8.54674 6.68304 9.55949 6.68304 10.6384Z" fill="url(#paint0_linear_1169_1096)"/>
<defs>
<linearGradient id="paint0_linear_1169_1096" x1="0.820312" y1="16.5011" x2="28.1797" y2="16.5011" gradientUnits="userSpaceOnUse">
<stop stop-color="#32ABB1"/>
<stop offset="1" stop-color="#3286BD"/>
</linearGradient>
</defs>
</svg>
