<svg width="84" height="83" viewBox="0 0 84 83" fill="none" xmlns="http://www.w3.org/2000/svg">
<rect width="84" height="83" rx="41.5" fill="url(#paint0_linear_1169_1137)"/>
<path d="M45.8339 24.4966C45.8355 25.2554 45.6115 25.9976 45.1904 26.6289C44.7694 27.2602 44.1703 27.7522 43.4691 28.0424C42.768 28.3326 41.9964 28.4079 41.2524 28.2588C40.5083 28.1097 39.8254 27.7429 39.2902 27.2049C38.9344 26.849 38.6522 26.4265 38.4597 25.9615C38.2672 25.4965 38.1681 24.9981 38.1682 24.4948C38.1683 23.9916 38.2676 23.4932 38.4602 23.0283C38.6529 22.5634 38.9353 22.141 39.2912 21.7852C39.6472 21.4294 40.0697 21.1471 40.5347 20.9546C40.9997 20.7621 41.4981 20.6631 42.0013 20.6632C42.5046 20.6633 43.0029 20.7625 43.4679 20.9552C43.9328 21.1479 44.3552 21.4303 44.711 21.7862C45.4298 22.5049 45.836 23.4779 45.836 24.4945M53.3339 28.3258C53.8447 28.3377 54.3527 28.2474 54.8281 28.0601C55.3035 27.8729 55.7366 27.5925 56.1021 27.2355C56.4676 26.8784 56.758 26.4519 56.9562 25.9811C57.1545 25.5102 57.2566 25.0044 57.2566 24.4935C57.2566 23.9826 57.1545 23.4768 56.9562 23.0059C56.758 22.535 56.4676 22.1085 56.1021 21.7515C55.7366 21.3945 55.3035 21.1141 54.8281 20.9268C54.3527 20.7396 53.8447 20.6493 53.3339 20.6612C52.3173 20.6612 51.3423 21.0651 50.6234 21.784C49.9045 22.5028 49.5006 23.4779 49.5006 24.4945C49.5006 25.5112 49.9045 26.4862 50.6234 27.2051C51.3423 27.924 52.3173 28.3258 53.3339 28.3258ZM34.5006 24.4966C34.5021 25.2554 34.2782 25.9976 33.8571 26.6289C33.4361 27.2602 32.837 27.7522 32.1358 28.0424C31.4346 28.3326 30.6631 28.4079 29.919 28.2588C29.175 28.1097 28.492 27.7429 27.9569 27.2049C27.6011 26.8491 27.3188 26.4268 27.1263 25.9619C26.9337 25.497 26.8346 24.9988 26.8346 24.4956C26.8346 23.9924 26.9337 23.4941 27.1263 23.0293C27.3188 22.5644 27.6011 22.142 27.9569 21.7862C28.3127 21.4304 28.7351 21.1482 29.1999 20.9556C29.6648 20.763 30.1631 20.6639 30.6662 20.6639C31.1694 20.6639 31.6677 20.763 32.1325 20.9556C32.5974 21.1482 33.0198 21.4304 33.3756 21.7862C34.0944 22.5049 34.4985 23.4779 34.4985 24.4945M45.8339 35.8216C45.8387 36.3313 45.7417 36.8369 45.5486 37.3086C45.3555 37.7803 45.0703 38.2088 44.7095 38.5689C44.3487 38.929 43.9197 39.2135 43.4476 39.4058C42.9755 39.598 42.4698 39.6941 41.9601 39.6884C41.4504 39.6827 40.947 39.5754 40.4793 39.3727C40.0116 39.17 39.5891 38.876 39.2364 38.5079C38.8838 38.1398 38.6081 37.7051 38.4256 37.2292C38.2431 36.7532 38.1574 36.2457 38.1735 35.7362C38.2052 34.7342 38.6284 33.7845 39.3523 33.0909C40.0762 32.3974 41.0431 32.0152 42.0456 32.0264C43.048 32.0375 44.0062 32.4412 44.7144 33.1507C45.4227 33.8603 45.8246 34.8191 45.8339 35.8216ZM53.3339 39.6529C53.8447 39.6648 54.3527 39.5745 54.8281 39.3872C55.3035 39.2 55.7366 38.9196 56.1021 38.5626C56.4676 38.2055 56.758 37.779 56.9562 37.3081C57.1545 36.8373 57.2566 36.3315 57.2566 35.8206C57.2566 35.3097 57.1545 34.8039 56.9562 34.333C56.758 33.8621 56.4676 33.4356 56.1021 33.0786C55.7366 32.7215 55.3035 32.4412 54.8281 32.2539C54.3527 32.0667 53.8447 31.9764 53.3339 31.9883C52.3173 31.9883 51.3423 32.3921 50.6234 33.111C49.9045 33.8299 49.5006 34.805 49.5006 35.8216C49.5006 36.8383 49.9045 37.8133 50.6234 38.5322C51.3423 39.2511 52.3173 39.6549 53.3339 39.6549M34.5006 35.8216C34.5011 36.58 34.2766 37.3215 33.8554 37.9521C33.4341 38.5828 32.8352 39.0743 32.1345 39.3643C31.4338 39.6543 30.6627 39.7298 29.919 39.5813C29.1753 39.4328 28.4924 39.0669 27.9569 38.5299C27.5121 38.0841 27.1841 37.5355 27.002 36.9327C26.8198 36.3299 26.789 35.6915 26.9123 35.0739C27.0356 34.4564 27.3093 33.8788 27.709 33.3922C28.1088 32.9056 28.6223 32.525 29.2042 32.2842C29.7861 32.0434 30.4183 31.9497 31.045 32.0115C31.6717 32.0732 32.2736 32.2885 32.7972 32.6383C33.3209 32.988 33.7503 33.4615 34.0474 34.0167C34.3445 34.572 34.5002 35.1919 34.5006 35.8216ZM45.8339 47.1508C45.8375 47.7184 45.7149 48.2797 45.4749 48.794C45.2349 49.3084 44.8836 49.763 44.4463 50.1249C44.009 50.4868 43.4968 50.7469 42.9466 50.8865C42.3964 51.0261 41.8221 51.0417 41.2652 50.932C40.5528 50.7928 39.8946 50.4541 39.3672 49.9554C38.8397 49.4568 38.4647 48.8186 38.2857 48.1152C38.1067 47.4117 38.1311 46.6719 38.3561 45.9818C38.5811 45.2917 38.9974 44.6796 39.5566 44.2168C40.1157 43.754 40.7948 43.4595 41.5149 43.3675C42.2349 43.2755 42.9662 43.3898 43.6238 43.6972C44.2814 44.0045 44.8382 44.4923 45.2294 45.1036C45.6207 45.715 45.8303 46.4249 45.8339 47.1508ZM45.8339 58.4966C45.8348 59.0637 45.7097 59.624 45.4676 60.1368C45.2256 60.6497 44.8726 61.1024 44.4342 61.4622C43.9959 61.822 43.4831 62.08 42.9329 62.2174C42.3826 62.3549 41.8088 62.3684 41.2527 62.257C40.51 62.1084 39.8279 61.7431 39.2926 61.2073C38.7573 60.6714 38.3928 59.9889 38.245 59.2461C38.0973 58.5032 38.1729 57.7332 38.4623 57.0332C38.7518 56.3333 39.2421 55.7348 39.8714 55.3133C40.4485 54.9278 41.1193 54.7063 41.8124 54.6722C42.5055 54.6381 43.1949 54.7929 43.8069 55.1199C44.419 55.4468 44.9308 55.9338 45.2878 56.5289C45.6448 57.124 45.8335 57.8027 45.8339 58.4966ZM57.1673 47.1508C57.1709 47.7184 57.0482 48.2797 56.8082 48.794C56.5682 49.3084 56.2169 49.763 55.7796 50.1249C55.3424 50.4868 54.8301 50.7469 54.2799 50.8865C53.7298 51.0261 53.1554 51.0417 52.5985 50.932C52.0418 50.8231 51.5161 50.5921 51.0595 50.2554C50.6029 49.9188 50.2267 49.485 49.958 48.9853C49.6894 48.4857 49.535 47.9326 49.5059 47.3661C49.4769 46.7995 49.574 46.2336 49.7902 45.7091C50.1279 44.8903 50.7386 44.2137 51.5187 43.7943C52.2988 43.3749 53.2 43.2386 54.0692 43.4084C54.9384 43.5783 55.722 44.0439 56.2868 44.7261C56.8516 45.4084 57.1627 46.2651 57.1673 47.1508ZM34.5006 47.1508C34.5063 47.9104 34.2859 48.6545 33.8675 49.2885C33.4491 49.9225 32.8516 50.4177 32.1509 50.7112C31.4503 51.0047 30.6782 51.0832 29.9329 50.9366C29.1875 50.7901 28.5026 50.4252 27.9652 49.8883C27.5182 49.4441 27.1877 48.8966 27.0028 48.2942C26.8179 47.6919 26.7843 47.0532 26.905 46.4348C27.0258 45.8163 27.2971 45.2372 27.695 44.7486C28.0929 44.26 28.6051 43.877 29.1863 43.6336C29.7675 43.3902 30.3998 43.2937 31.0271 43.3529C31.6544 43.412 32.2575 43.6249 32.783 43.9726C33.3084 44.3204 33.74 44.7924 34.0396 45.3467C34.3392 45.901 34.4976 46.5207 34.5006 47.1508Z" fill="white"/>
<defs>
<linearGradient id="paint0_linear_1169_1137" x1="0" y1="41.5" x2="84" y2="41.5" gradientUnits="userSpaceOnUse">
<stop stop-color="#32ABB1"/>
<stop offset="1" stop-color="#3286BD"/>
</linearGradient>
</defs>
</svg>
