<svg width="32" height="32" viewBox="0 0 32 32" fill="none" xmlns="http://www.w3.org/2000/svg">
<path d="M11.1628 24.0454V20.3047H8.57951C8.23694 20.3047 7.9084 20.1686 7.66616 19.9264C7.42393 19.6841 7.28784 19.3556 7.28784 19.013V9.97135C7.28784 9.62878 7.42393 9.30024 7.66616 9.05801C7.9084 8.81577 8.23694 8.67969 8.57951 8.67969H22.7878C23.1304 8.67969 23.459 8.81577 23.7012 9.05801C23.9434 9.30024 24.0795 9.62878 24.0795 9.97135V19.013C24.0795 19.3556 23.9434 19.6841 23.7012 19.9264C23.459 20.1686 23.1304 20.3047 22.7878 20.3047H15.6837L11.7144 24.274C11.6692 24.3193 11.6116 24.3501 11.5489 24.3626C11.4862 24.3751 11.4212 24.3687 11.3621 24.3442C11.303 24.3197 11.2526 24.2783 11.2171 24.2251C11.1816 24.1718 11.1627 24.1093 11.1628 24.0454Z" stroke="white"/>
<path d="M11.1628 16.4297H20.2045M11.1628 12.5547H20.2045" stroke="white" stroke-linecap="round"/>
</svg>
