<svg width="25" height="25" viewBox="0 0 25 25" fill="none" xmlns="http://www.w3.org/2000/svg">
<path d="M7.15679 9.2494C6.9128 7.65367 8.04885 6.21791 9.78432 5.69108C10.0925 5.5976 10.425 5.62416 10.714 5.76535C11.0031 5.90654 11.2269 6.15171 11.3398 6.45085L11.8963 7.92344C11.9858 8.16031 12.0019 8.41828 11.9424 8.66426C11.883 8.91023 11.7507 9.133 11.5627 9.30398L9.90728 10.8089C9.82548 10.8832 9.76453 10.9772 9.73041 11.0818C9.69628 11.1864 9.69014 11.2979 9.7126 11.4056L9.72732 11.4716L9.76831 11.6373C9.80481 11.7769 9.85989 11.9737 9.93737 12.2085C10.0911 12.6751 10.3363 13.3022 10.7014 13.9287C11.0664 14.5551 11.4916 15.0794 11.8221 15.4444C11.9943 15.6343 12.1742 15.8172 12.3613 15.9928L12.4125 16.0398C12.4953 16.1125 12.5957 16.1627 12.7039 16.1855C12.8121 16.2083 12.9244 16.2029 13.0298 16.1699L15.1726 15.5015C15.416 15.4257 15.6768 15.4236 15.9214 15.4957C16.1661 15.5677 16.3834 15.7105 16.5456 15.9059L17.5593 17.1258C17.982 17.6336 17.932 18.38 17.446 18.8288C16.1178 20.0557 14.2914 20.3077 13.0209 19.2947C11.4639 18.0494 10.1511 16.531 9.14777 14.8154C8.13711 13.1003 7.46166 11.2124 7.15679 9.2494ZM11.0542 11.4887L12.4285 10.2396C12.8046 9.89761 13.069 9.45207 13.1879 8.96012C13.3068 8.46818 13.2747 7.95224 13.0958 7.47849L12.5387 6.00591C12.3114 5.40426 11.8611 4.91118 11.2797 4.62718C10.6983 4.34317 10.0295 4.28963 9.40969 4.47747C7.25477 5.13188 5.52442 7.04687 5.89073 9.43918C6.21955 11.5604 6.94888 13.6012 8.04053 15.4546C9.12266 17.3047 10.5386 18.942 12.2178 20.2849C14.123 21.8019 16.6679 21.2846 18.3195 19.7581C18.7923 19.3216 19.0793 18.7228 19.1218 18.0838C19.1643 17.4448 18.9591 16.8138 18.5481 16.3197L17.5344 15.0997C17.21 14.709 16.7752 14.4233 16.2858 14.2792C15.7964 14.1351 15.2747 14.1392 14.7877 14.2911L13.0093 14.8458C12.9297 14.7647 12.8518 14.682 12.7756 14.5977C12.41 14.197 12.0866 13.7604 11.8105 13.2946C11.5414 12.8246 11.3215 12.3286 11.1541 11.8144C11.1186 11.7067 11.0853 11.5984 11.0542 11.4894" fill="white"/>
</svg>
