<svg width="46" height="47" viewBox="0 0 46 47" fill="none" xmlns="http://www.w3.org/2000/svg">
<circle cx="23.0781" cy="23.5" r="22.9219" fill="url(#paint0_linear_1169_1105)"/>
<path d="M26.7829 24.4513C27.8806 24.8306 28.8693 25.3593 29.7491 26.0373C30.6289 26.7153 31.3795 27.5063 32.001 28.4102C32.6225 29.3142 33.0987 30.2949 33.4296 31.3522C33.7605 32.4095 33.926 33.5193 33.926 34.6816H32.3763C32.3763 33.3579 32.1422 32.1311 31.6741 31.0011C31.206 29.8711 30.5522 28.8864 29.7128 28.047C28.8734 27.2076 27.8927 26.5579 26.7708 26.0978C25.6489 25.6378 24.4181 25.3997 23.0782 25.3835C22.2146 25.3835 21.3833 25.4925 20.5842 25.7104C19.7852 25.9283 19.0426 26.235 18.3565 26.6305C17.6705 27.026 17.045 27.5063 16.48 28.0712C15.915 28.6362 15.4348 29.2617 15.0393 29.9478C14.6438 30.6339 14.333 31.3805 14.107 32.1876C13.881 32.9947 13.7721 33.826 13.7801 34.6816H12.2305C12.2305 33.5193 12.4 32.4095 12.739 31.3522C13.0779 30.2949 13.5582 29.3182 14.1797 28.4223C14.8012 27.5264 15.5518 26.7435 16.4316 26.0736C17.3113 25.4037 18.3 24.867 19.3977 24.4634C18.7682 24.1244 18.2032 23.7128 17.7028 23.2285C17.2024 22.7442 16.7786 22.2075 16.4316 21.6183C16.0845 21.0291 15.8141 20.3955 15.6204 19.7175C15.4267 19.0395 15.3298 18.3454 15.3298 17.6351C15.3298 16.5616 15.5316 15.5568 15.9352 14.6205C16.3387 13.6842 16.8916 12.861 17.5938 12.1507C18.296 11.4404 19.1152 10.8876 20.0515 10.4921C20.9878 10.0966 21.9967 9.89479 23.0782 9.88672C24.1517 9.88672 25.1566 10.0885 26.0928 10.4921C27.0291 10.8956 27.8524 11.4485 28.5626 12.1507C29.2729 12.8529 29.8258 13.6721 30.2213 14.6084C30.6168 15.5447 30.8186 16.5536 30.8266 17.6351C30.8266 18.3454 30.7338 19.0355 30.5482 19.7054C30.3625 20.3753 30.0921 21.0049 29.737 21.5941C29.3819 22.1833 28.9581 22.72 28.4658 23.2043C27.9734 23.6886 27.4125 24.1042 26.7829 24.4513ZM16.8795 17.6351C16.8795 18.4907 17.0409 19.2938 17.3638 20.0444C17.6866 20.795 18.1306 21.4488 18.6955 22.0057C19.2605 22.5626 19.9183 23.0065 20.669 23.3375C21.4196 23.6684 22.2227 23.8338 23.0782 23.8338C23.9338 23.8338 24.7369 23.6724 25.4875 23.3496C26.2381 23.0267 26.8919 22.5828 27.4488 22.0178C28.0057 21.4528 28.4496 20.795 28.7806 20.0444C29.1115 19.2938 29.2769 18.4907 29.2769 17.6351C29.2769 16.7796 29.1155 15.9765 28.7927 15.2258C28.4698 14.4752 28.0259 13.8215 27.4609 13.2645C26.8959 12.7076 26.2381 12.2637 25.4875 11.9328C24.7369 11.6019 23.9338 11.4364 23.0782 11.4364C22.2227 11.4364 21.4196 11.5978 20.669 11.9207C19.9183 12.2435 19.2646 12.6874 18.7076 13.2524C18.1507 13.8174 17.7068 14.4752 17.3759 15.2258C17.045 15.9765 16.8795 16.7796 16.8795 17.6351Z" fill="white"/>
<defs>
<linearGradient id="paint0_linear_1169_1105" x1="0.15625" y1="23.5" x2="46" y2="23.5" gradientUnits="userSpaceOnUse">
<stop stop-color="#32ABB1"/>
<stop offset="1" stop-color="#3286BD"/>
</linearGradient>
</defs>
</svg>
