<svg width="43" height="43" viewBox="0 0 43 43" fill="none" xmlns="http://www.w3.org/2000/svg">
<circle cx="21.0234" cy="21.9688" r="21" fill="url(#paint0_linear_359_1559)"/>
<path d="M15.9405 28.3854L11.8568 31.5938V14.6354C11.8568 14.3923 11.9534 14.1591 12.1253 13.9872C12.2972 13.8153 12.5303 13.7188 12.7734 13.7188H29.2734C29.5166 13.7188 29.7497 13.8153 29.9216 13.9872C30.0935 14.1591 30.1901 14.3923 30.1901 14.6354V27.4688C30.1901 27.7119 30.0935 27.945 29.9216 28.1169C29.7497 28.2888 29.5166 28.3854 29.2734 28.3854H15.9405ZM15.3062 26.5521H28.3568V15.5521H13.6901V27.8217L15.3062 26.5521ZM20.1068 20.1354H21.9401V21.9688H20.1068V20.1354ZM16.4401 20.1354H18.2734V21.9688H16.4401V20.1354ZM23.7734 20.1354H25.6068V21.9688H23.7734V20.1354Z" fill="white"/>
<defs>
<linearGradient id="paint0_linear_359_1559" x1="0.0234375" y1="21.9688" x2="42.0234" y2="21.9688" gradientUnits="userSpaceOnUse">
<stop stop-color="#32ABB1"/>
<stop offset="1" stop-color="#3286BD"/>
</linearGradient>
</defs>
</svg>
