<svg width="43" height="43" viewBox="0 0 43 43" fill="none" xmlns="http://www.w3.org/2000/svg">
<circle cx="21.0234" cy="21.9688" r="21" fill="#DBFFF3"/>
<path d="M29.5104 27.109L25.4454 23.413C25.2534 23.2381 25.0009 23.1448 24.7412 23.1528C24.4816 23.1609 24.2353 23.2696 24.0544 23.456L21.6614 25.917C21.0854 25.807 19.9274 25.446 18.7354 24.257C17.5434 23.064 17.1824 21.903 17.0754 21.331L19.5344 18.937C19.7209 18.7561 19.8296 18.5098 19.8376 18.2502C19.8456 17.9906 19.7523 17.738 19.5774 17.546L15.8824 13.482C15.7075 13.2893 15.4643 13.1725 15.2046 13.1562C14.9449 13.14 14.689 13.2256 14.4914 13.395L12.3214 15.256C12.1486 15.4295 12.0454 15.6604 12.0314 15.905C12.0164 16.155 11.7304 22.077 16.3224 26.671C20.3284 30.676 25.3464 30.969 26.7284 30.969C26.9304 30.969 27.0544 30.963 27.0874 30.961C27.3318 30.9466 27.5623 30.843 27.7354 30.67L29.5954 28.499C29.7655 28.302 29.8517 28.0464 29.8358 27.7867C29.82 27.527 29.7032 27.2838 29.5104 27.109Z" fill="#0FA373"/>
</svg>
