<svg width="65" height="65" viewBox="0 0 65 65" fill="none" xmlns="http://www.w3.org/2000/svg">
<circle opacity="0.3" cx="32.5" cy="32.5" r="32.5" fill="#B9F6E0"/>
<path d="M41.8735 47.7246C44.8857 47.7246 47.3363 45.2506 47.3363 42.2097C47.3363 39.3272 45.0921 36.9593 42.2592 36.7607C41.2819 33.9676 38.6365 32.0645 35.6302 32.0645H29.3869C25.5141 32.0645 22.3633 35.2153 22.3633 39.0881V41.4293H36.4666C36.43 41.6843 36.4106 41.9448 36.4106 42.2097C36.4106 45.2506 38.8612 47.7246 41.8735 47.7246ZM41.8735 38.3077C44.025 38.3077 45.7755 40.0582 45.7755 42.2097C45.7755 44.39 44.025 46.1638 41.8735 46.1638C39.7219 46.1638 37.9714 44.39 37.9714 42.2097C37.9714 40.0582 39.7219 38.3077 41.8735 38.3077ZM23.9241 39.8685V39.0881C23.9241 36.0759 26.3747 33.6253 29.3869 33.6253H35.6302C37.8265 33.6253 39.7745 34.9309 40.6329 36.8891C38.999 37.27 37.6445 38.3862 36.9384 39.8685H23.9241Z" fill="url(#paint0_linear_1255_1603)"/>
<path d="M41.152 39.8945L40.3008 40.7458L41.3283 41.7733L40.3008 42.8009L41.152 43.6521L42.1795 42.6245L43.207 43.6521L44.0583 42.8009L43.0308 41.7733L44.0583 40.7458L43.207 39.8945L42.1795 40.9221L41.152 39.8945Z" fill="url(#paint1_linear_1255_1603)"/>
<path d="M32.5097 32.0637C35.5219 32.0637 37.9726 29.613 37.9726 26.6008C37.9726 23.5599 35.5219 21.0859 32.5097 21.0859C29.4975 21.0859 27.0469 23.5599 27.0469 26.6008C27.0469 29.613 29.4975 32.0637 32.5097 32.0637ZM32.5097 30.5028C30.3581 30.5028 28.6077 28.7524 28.6077 26.6008C28.6077 24.4206 30.3581 22.6468 32.5097 22.6468C34.6613 22.6468 36.4118 24.4206 36.4118 26.6008C36.4118 28.7524 34.6613 30.5028 32.5097 30.5028Z" fill="url(#paint2_linear_1255_1603)"/>
<defs>
<linearGradient id="paint0_linear_1255_1603" x1="46.8247" y1="53.3868" x2="22.3879" y2="51.3017" gradientUnits="userSpaceOnUse">
<stop stop-color="#32ABB1"/>
<stop offset="0.990045" stop-color="#3286BD"/>
</linearGradient>
<linearGradient id="paint1_linear_1255_1603" x1="43.9813" y1="45.0107" x2="40.2883" y2="44.8131" gradientUnits="userSpaceOnUse">
<stop stop-color="#32ABB1"/>
<stop offset="0.990045" stop-color="#3286BD"/>
</linearGradient>
<linearGradient id="paint2_linear_1255_1603" x1="37.7487" y1="36.0328" x2="27.0103" y2="35.461" gradientUnits="userSpaceOnUse">
<stop stop-color="#32ABB1"/>
<stop offset="0.990045" stop-color="#3286BD"/>
</linearGradient>
</defs>
</svg>
