<svg width="53" height="49" viewBox="0 0 53 49" fill="none" xmlns="http://www.w3.org/2000/svg">
<rect width="53" height="49" rx="10" fill="#E5F3FC"/>
<path d="M29.6067 13.4401C29.6078 13.9561 29.4555 14.4608 29.1692 14.8901C28.8829 15.3194 28.4755 15.6539 27.9987 15.8512C27.5219 16.0486 26.9972 16.0998 26.4913 15.9984C25.9853 15.897 25.5209 15.6476 25.157 15.2818C24.915 15.0397 24.7231 14.7524 24.5922 14.4362C24.4613 14.12 24.394 13.7811 24.3941 13.4389C24.3941 13.0967 24.4616 12.7578 24.5926 12.4416C24.7236 12.1255 24.9157 11.8382 25.1577 11.5963C25.3997 11.3544 25.6871 11.1625 26.0033 11.0315C26.3195 10.9006 26.6583 10.8333 27.0006 10.8334C27.3428 10.8334 27.6817 10.9009 27.9978 11.0319C28.314 11.163 28.6012 11.355 28.8432 11.597C29.3319 12.0858 29.6082 12.7473 29.6082 13.4387M34.7067 16.0439C35.0541 16.052 35.3995 15.9906 35.7228 15.8633C36.046 15.736 36.3406 15.5453 36.5891 15.3025C36.8376 15.0597 37.0351 14.7697 37.1699 14.4495C37.3047 14.1293 37.3742 13.7854 37.3742 13.438C37.3742 13.0905 37.3047 12.7466 37.1699 12.4264C37.0351 12.1062 36.8376 11.8162 36.5891 11.5734C36.3406 11.3306 36.046 11.14 35.7228 11.0126C35.3995 10.8853 35.0541 10.8239 34.7067 10.832C34.0154 10.832 33.3524 11.1066 32.8635 11.5955C32.3747 12.0843 32.1001 12.7473 32.1001 13.4387C32.1001 14.13 32.3747 14.793 32.8635 15.2819C33.3524 15.7707 34.0154 16.0439 34.7067 16.0439ZM21.9001 13.4401C21.9011 13.9561 21.7488 14.4608 21.4625 14.8901C21.1762 15.3194 20.7688 15.6539 20.292 15.8512C19.8152 16.0486 19.2906 16.0998 18.7846 15.9984C18.2787 15.897 17.8143 15.6476 17.4503 15.2818C17.2084 15.0398 17.0165 14.7526 16.8855 14.4365C16.7546 14.1204 16.6872 13.7815 16.6872 13.4394C16.6872 13.0972 16.7546 12.7584 16.8855 12.4423C17.0165 12.1262 17.2084 11.839 17.4503 11.597C17.6923 11.3551 17.9795 11.1631 18.2956 11.0322C18.6117 10.9013 18.9505 10.8339 19.2927 10.8339C19.6349 10.8339 19.9737 10.9013 20.2898 11.0322C20.6059 11.1631 20.8931 11.3551 21.1351 11.597C21.6238 12.0858 21.8987 12.7473 21.8987 13.4387M29.6067 21.1411C29.61 21.4877 29.544 21.8315 29.4127 22.1522C29.2814 22.473 29.0874 22.7644 28.8421 23.0093C28.5968 23.2541 28.3051 23.4476 27.9841 23.5783C27.663 23.709 27.3191 23.7744 26.9726 23.7705C26.626 23.7666 26.2836 23.6936 25.9656 23.5558C25.6476 23.418 25.3602 23.2181 25.1204 22.9678C24.8806 22.7175 24.6932 22.4219 24.5691 22.0982C24.445 21.7746 24.3867 21.4295 24.3977 21.083C24.4192 20.4016 24.707 19.7559 25.1992 19.2842C25.6915 18.8126 26.349 18.5527 27.0306 18.5603C27.7123 18.5679 28.3639 18.8424 28.8455 19.3249C29.3271 19.8074 29.6004 20.4594 29.6067 21.1411ZM34.7067 23.7463C35.0541 23.7544 35.3995 23.693 35.7228 23.5657C36.046 23.4384 36.3406 23.2477 36.5891 23.0049C36.8376 22.7621 37.0351 22.4721 37.1699 22.1519C37.3047 21.8317 37.3742 21.4878 37.3742 21.1404C37.3742 20.793 37.3047 20.449 37.1699 20.1288C37.0351 19.8086 36.8376 19.5186 36.5891 19.2758C36.3406 19.033 36.046 18.8424 35.7228 18.7151C35.3995 18.5877 35.0541 18.5263 34.7067 18.5344C34.0154 18.5344 33.3524 18.8091 32.8635 19.2979C32.3747 19.7867 32.1001 20.4498 32.1001 21.1411C32.1001 21.8324 32.3747 22.4954 32.8635 22.9843C33.3524 23.4731 34.0154 23.7478 34.7067 23.7478M21.9001 21.1411C21.9004 21.6568 21.7477 22.161 21.4613 22.5898C21.1749 23.0187 20.7676 23.3529 20.2911 23.5501C19.8146 23.7473 19.2903 23.7987 18.7846 23.6977C18.2789 23.5967 17.8145 23.3479 17.4503 22.9828C17.1479 22.6796 16.9249 22.3065 16.801 21.8966C16.6771 21.4867 16.6562 21.0526 16.74 20.6327C16.8239 20.2127 17.01 19.8199 17.2818 19.4891C17.5536 19.1582 17.9028 18.8994 18.2985 18.7357C18.6942 18.5719 19.1241 18.5082 19.5503 18.5502C19.9764 18.5922 20.3857 18.7386 20.7418 18.9764C21.0979 19.2142 21.3899 19.5362 21.5919 19.9138C21.7939 20.2913 21.8998 20.7129 21.9001 21.1411ZM29.6067 28.8449C29.6092 29.2309 29.5258 29.6126 29.3626 29.9623C29.1994 30.3121 28.9605 30.6212 28.6631 30.8673C28.3658 31.1134 28.0175 31.2903 27.6433 31.3852C27.2692 31.4802 26.8787 31.4907 26.5 31.4162C26.0156 31.3215 25.568 31.0912 25.2093 30.7521C24.8507 30.413 24.5956 29.979 24.4739 29.5007C24.3522 29.0224 24.3688 28.5193 24.5218 28.05C24.6748 27.5807 24.9579 27.1645 25.3381 26.8498C25.7184 26.5351 26.1802 26.3348 26.6698 26.2723C27.1594 26.2097 27.6567 26.2875 28.1038 26.4965C28.551 26.7055 28.9296 27.0371 29.1957 27.4529C29.4617 27.8686 29.6043 28.3513 29.6067 28.8449ZM29.6067 36.5601C29.6073 36.9457 29.5222 37.3267 29.3576 37.6754C29.193 38.0242 28.953 38.332 28.6549 38.5767C28.3569 38.8214 28.0081 38.9968 27.634 39.0903C27.2599 39.1837 26.8696 39.1929 26.4915 39.1172C25.9864 39.0161 25.5226 38.7677 25.1587 38.4033C24.7947 38.0389 24.5468 37.5749 24.4463 37.0697C24.3458 36.5646 24.3972 36.041 24.594 35.565C24.7909 35.089 25.1243 34.6821 25.5522 34.3954C25.9446 34.1333 26.4008 33.9827 26.8721 33.9595C27.3434 33.9363 27.8122 34.0415 28.2284 34.2639C28.6446 34.4862 28.9926 34.8174 29.2354 35.222C29.4781 35.6267 29.6065 36.0882 29.6067 36.5601ZM37.3134 28.8449C37.3158 29.2309 37.2324 29.6126 37.0693 29.9623C36.9061 30.3121 36.6671 30.6212 36.3698 30.8673C36.0725 31.1134 35.7241 31.2903 35.35 31.3852C34.9759 31.4802 34.5854 31.4907 34.2067 31.4162C33.8281 31.3421 33.4706 31.185 33.1601 30.9561C32.8496 30.7272 32.5938 30.4322 32.4111 30.0924C32.2284 29.7527 32.1234 29.3766 32.1037 28.9913C32.084 28.6061 32.15 28.2212 32.297 27.8646C32.5266 27.3078 32.9419 26.8477 33.4724 26.5625C34.0028 26.2773 34.6156 26.1846 35.2067 26.3001C35.7978 26.4156 36.3306 26.7323 36.7147 27.1962C37.0987 27.6601 37.3103 28.2427 37.3134 28.8449ZM21.9001 28.8449C21.9039 29.3615 21.7541 29.8675 21.4696 30.2986C21.185 30.7297 20.7787 31.0665 20.3023 31.266C19.8259 31.4656 19.3008 31.5189 18.794 31.4193C18.2872 31.3196 17.8214 31.0715 17.456 30.7064C17.1521 30.4044 16.9273 30.0321 16.8015 29.6225C16.6758 29.2129 16.653 28.7786 16.7351 28.358C16.8172 27.9375 17.0017 27.5437 17.2723 27.2114C17.5428 26.8792 17.8911 26.6188 18.2864 26.4532C18.6816 26.2877 19.1115 26.2221 19.5381 26.2623C19.9647 26.3026 20.3748 26.4473 20.7321 26.6838C21.0894 26.9203 21.3829 27.2412 21.5866 27.6181C21.7903 27.9951 21.898 28.4165 21.9001 28.8449Z" fill="#32ABB1"/>
</svg>
