<svg width="34" height="34" viewBox="0 0 34 34" fill="none" xmlns="http://www.w3.org/2000/svg">
<circle cx="16.5234" cy="17.4688" r="16.5" fill="white"/>
<g clip-path="url(#clip0_248_1429)">
<path d="M24.3984 8.28125H17.8359C17.1141 8.28125 16.5234 8.87187 16.5234 9.59375V13.5312C16.5234 14.2531 17.1141 14.8438 17.8359 14.8438H19.4109L20.5266 16.8125L21.6422 16.1562L20.1328 13.5312H17.8359V9.59375H24.3984V13.5312H22.4297V14.8438H24.3984C25.1203 14.8438 25.7109 14.2531 25.7109 13.5312V9.59375C25.7109 8.87187 25.1203 8.28125 24.3984 8.28125ZM15.6703 27.3125L14.5547 26.6562L16.8516 22.7188H20.4609C21.1828 22.7188 21.7734 22.1281 21.7734 21.4062V18.125H23.0859V21.4062C23.0859 22.85 21.9047 24.0312 20.4609 24.0312H17.5734L15.6703 27.3125Z" fill="url(#paint0_linear_248_1429)"/>
<path d="M12.5859 18.7812C12.9484 18.7812 13.2422 18.4874 13.2422 18.125C13.2422 17.7626 12.9484 17.4688 12.5859 17.4688C12.2235 17.4688 11.9297 17.7626 11.9297 18.125C11.9297 18.4874 12.2235 18.7812 12.5859 18.7812Z" fill="url(#paint1_linear_248_1429)"/>
<path d="M15.2109 18.7812C15.5734 18.7812 15.8672 18.4874 15.8672 18.125C15.8672 17.7626 15.5734 17.4688 15.2109 17.4688C14.8485 17.4688 14.5547 17.7626 14.5547 18.125C14.5547 18.4874 14.8485 18.7812 15.2109 18.7812Z" fill="url(#paint2_linear_248_1429)"/>
<path d="M17.8359 18.7812C18.1984 18.7812 18.4922 18.4874 18.4922 18.125C18.4922 17.7626 18.1984 17.4688 17.8359 17.4688C17.4735 17.4688 17.1797 17.7626 17.1797 18.125C17.1797 18.4874 17.4735 18.7812 17.8359 18.7812Z" fill="url(#paint3_linear_248_1429)"/>
<path d="M13.8984 24.0312H9.96094C8.51719 24.0312 7.33594 22.85 7.33594 21.4062V14.8438C7.33594 13.4 8.51719 12.2188 9.96094 12.2188H15.2109V13.5312H9.96094C9.23906 13.5312 8.64844 14.1219 8.64844 14.8438V21.4062C8.64844 22.1281 9.23906 22.7188 9.96094 22.7188H13.8984V24.0312Z" fill="url(#paint4_linear_248_1429)"/>
</g>
<defs>
<linearGradient id="paint0_linear_248_1429" x1="14.5547" y1="17.7969" x2="25.7109" y2="17.7969" gradientUnits="userSpaceOnUse">
<stop stop-color="#32ABB1"/>
<stop offset="1" stop-color="#3286BD"/>
</linearGradient>
<linearGradient id="paint1_linear_248_1429" x1="11.9297" y1="18.125" x2="13.2422" y2="18.125" gradientUnits="userSpaceOnUse">
<stop stop-color="#32ABB1"/>
<stop offset="1" stop-color="#3286BD"/>
</linearGradient>
<linearGradient id="paint2_linear_248_1429" x1="14.5547" y1="18.125" x2="15.8672" y2="18.125" gradientUnits="userSpaceOnUse">
<stop stop-color="#32ABB1"/>
<stop offset="1" stop-color="#3286BD"/>
</linearGradient>
<linearGradient id="paint3_linear_248_1429" x1="17.1797" y1="18.125" x2="18.4922" y2="18.125" gradientUnits="userSpaceOnUse">
<stop stop-color="#32ABB1"/>
<stop offset="1" stop-color="#3286BD"/>
</linearGradient>
<linearGradient id="paint4_linear_248_1429" x1="7.33594" y1="18.125" x2="15.2109" y2="18.125" gradientUnits="userSpaceOnUse">
<stop stop-color="#32ABB1"/>
<stop offset="1" stop-color="#3286BD"/>
</linearGradient>
<clipPath id="clip0_248_1429">
<rect width="21" height="21" fill="white" transform="translate(6.02344 6.96875)"/>
</clipPath>
</defs>
</svg>
