<svg width="33" height="33" viewBox="0 0 33 33" fill="none" xmlns="http://www.w3.org/2000/svg">
<circle cx="16.5" cy="16.5" r="16.5" fill="white"/>
<path d="M21.7947 16.3291C21.7945 15.211 21.3503 14.1388 20.5597 13.3483C19.7691 12.5577 18.6969 12.1134 17.5789 12.1132M24.6847 16.0341C24.6847 15.1482 24.5102 14.2711 24.1712 13.4527C23.8322 12.6343 23.3353 11.8907 22.7089 11.2643C22.0824 10.638 21.3388 10.1412 20.5204 9.80226C19.7019 9.46334 18.8247 9.28895 17.9389 9.28906M17.4447 23.8449C17.1947 23.7307 16.9456 23.6166 16.6964 23.4807C15.4742 22.7902 14.3514 21.9369 13.3589 20.9441C12.0728 19.7329 11.0161 18.2993 10.2397 16.7124C9.8244 15.86 9.54384 14.9483 9.40806 14.0099C9.22488 13.0617 9.32995 12.0803 9.70973 11.1924C9.94402 10.8107 10.227 10.4611 10.5514 10.1524C10.6831 10.0051 10.8431 9.88591 11.022 9.80199C11.2008 9.71808 11.3948 9.67116 11.5922 9.66406C12.0031 9.72573 12.3756 9.94073 12.6322 10.2666C13.1939 10.8907 13.7964 11.4524 14.3889 12.0449C14.6222 12.2449 14.7681 12.5282 14.7947 12.8349C14.7847 13.0932 14.6856 13.3391 14.5139 13.5316C14.3164 13.7816 14.0772 14.0099 13.8489 14.2482C13.7108 14.3812 13.6052 14.5442 13.5402 14.7245C13.4751 14.9049 13.4525 15.0977 13.4739 15.2882C13.6172 15.7341 13.8631 16.1407 14.1914 16.4741C14.5853 17.0115 14.9981 17.5349 15.4289 18.0432C16.2324 18.9701 17.1842 19.7572 18.2456 20.3724C18.3925 20.4834 18.5663 20.5534 18.7491 20.5754C18.9319 20.5973 19.1173 20.5704 19.2864 20.4974C19.6389 20.2999 19.9531 20.0391 20.2114 19.7282C20.4352 19.456 20.7556 19.2807 21.1056 19.2391C21.4172 19.2557 21.7106 19.3891 21.9272 19.6141C22.2072 19.8524 22.4464 20.1332 22.7064 20.3932C22.9664 20.6532 23.1747 20.8407 23.3931 21.0791C23.6547 21.3102 23.9006 21.5563 24.1306 21.8174C24.3089 22.0482 24.3947 22.3382 24.3697 22.6282C24.2769 22.9755 24.0768 23.2846 23.7981 23.5116C23.4055 23.9197 22.9286 24.2373 22.4007 24.4421C21.8728 24.6469 21.3065 24.734 20.7414 24.6974C19.5972 24.6339 18.4762 24.3442 17.4447 23.8449Z" stroke="url(#paint0_linear_248_1428)" stroke-width="1.5" stroke-miterlimit="10" stroke-linecap="round"/>
<defs>
<linearGradient id="paint0_linear_248_1428" x1="9.32031" y1="16.9973" x2="24.6847" y2="16.9973" gradientUnits="userSpaceOnUse">
<stop stop-color="#32ABB1"/>
<stop offset="1" stop-color="#3286BD"/>
</linearGradient>
</defs>
</svg>
