<svg width="21" height="21" viewBox="0 0 21 21" fill="none" xmlns="http://www.w3.org/2000/svg">
<path d="M18.375 1.3125H11.8125C11.0906 1.3125 10.5 1.90312 10.5 2.625V6.5625C10.5 7.28438 11.0906 7.875 11.8125 7.875H13.3875L14.5031 9.84375L15.6187 9.1875L14.1094 6.5625H11.8125V2.625H18.375V6.5625H16.4062V7.875H18.375C19.0969 7.875 19.6875 7.28438 19.6875 6.5625V2.625C19.6875 1.90312 19.0969 1.3125 18.375 1.3125ZM9.64687 20.3438L8.53125 19.6875L10.8281 15.75H14.4375C15.1594 15.75 15.75 15.1594 15.75 14.4375V11.1562H17.0625V14.4375C17.0625 15.8813 15.8812 17.0625 14.4375 17.0625H11.55L9.64687 20.3438Z" fill="url(#paint0_linear_273_2921)"/>
<path d="M6.5625 11.8125C6.92494 11.8125 7.21875 11.5187 7.21875 11.1562C7.21875 10.7938 6.92494 10.5 6.5625 10.5C6.20006 10.5 5.90625 10.7938 5.90625 11.1562C5.90625 11.5187 6.20006 11.8125 6.5625 11.8125Z" fill="url(#paint1_linear_273_2921)"/>
<path d="M9.1875 11.8125C9.54994 11.8125 9.84375 11.5187 9.84375 11.1562C9.84375 10.7938 9.54994 10.5 9.1875 10.5C8.82506 10.5 8.53125 10.7938 8.53125 11.1562C8.53125 11.5187 8.82506 11.8125 9.1875 11.8125Z" fill="url(#paint2_linear_273_2921)"/>
<path d="M11.8125 11.8125C12.1749 11.8125 12.4688 11.5187 12.4688 11.1562C12.4688 10.7938 12.1749 10.5 11.8125 10.5C11.4501 10.5 11.1562 10.7938 11.1562 11.1562C11.1562 11.5187 11.4501 11.8125 11.8125 11.8125Z" fill="url(#paint3_linear_273_2921)"/>
<path d="M7.875 17.0625H3.9375C2.49375 17.0625 1.3125 15.8813 1.3125 14.4375V7.875C1.3125 6.43125 2.49375 5.25 3.9375 5.25H9.1875V6.5625H3.9375C3.21562 6.5625 2.625 7.15312 2.625 7.875V14.4375C2.625 15.1594 3.21562 15.75 3.9375 15.75H7.875V17.0625Z" fill="url(#paint4_linear_273_2921)"/>
<defs>
<linearGradient id="paint0_linear_273_2921" x1="8.53125" y1="10.8281" x2="19.6875" y2="10.8281" gradientUnits="userSpaceOnUse">
<stop stop-color="#32ABB1"/>
<stop offset="1" stop-color="#3286BD"/>
</linearGradient>
<linearGradient id="paint1_linear_273_2921" x1="5.90625" y1="11.1562" x2="7.21875" y2="11.1562" gradientUnits="userSpaceOnUse">
<stop stop-color="#32ABB1"/>
<stop offset="1" stop-color="#3286BD"/>
</linearGradient>
<linearGradient id="paint2_linear_273_2921" x1="8.53125" y1="11.1562" x2="9.84375" y2="11.1562" gradientUnits="userSpaceOnUse">
<stop stop-color="#32ABB1"/>
<stop offset="1" stop-color="#3286BD"/>
</linearGradient>
<linearGradient id="paint3_linear_273_2921" x1="11.1562" y1="11.1562" x2="12.4688" y2="11.1562" gradientUnits="userSpaceOnUse">
<stop stop-color="#32ABB1"/>
<stop offset="1" stop-color="#3286BD"/>
</linearGradient>
<linearGradient id="paint4_linear_273_2921" x1="1.3125" y1="11.1562" x2="9.1875" y2="11.1562" gradientUnits="userSpaceOnUse">
<stop stop-color="#32ABB1"/>
<stop offset="1" stop-color="#3286BD"/>
</linearGradient>
</defs>
</svg>
