<svg width="13" height="15" viewBox="0 0 13 15" fill="none" xmlns="http://www.w3.org/2000/svg">
<path d="M8.71987 8.81104C9.3776 9.04053 9.97005 9.36035 10.4972 9.77051C11.0244 10.1807 11.4741 10.6592 11.8465 11.2061C12.2189 11.7529 12.5043 12.3462 12.7026 12.9858C12.9009 13.6255 13 14.2969 13 15H12.0714C12.0714 14.1992 11.9312 13.457 11.6507 12.7734C11.3702 12.0898 10.9784 11.4941 10.4754 10.9863C9.97247 10.4785 9.38486 10.0854 8.71261 9.80713C8.04036 9.52881 7.30283 9.38477 6.5 9.375C5.98251 9.375 5.48438 9.44092 5.00558 9.57275C4.52679 9.70459 4.08185 9.89014 3.67076 10.1294C3.25967 10.3687 2.88486 10.6592 2.54632 11.001C2.20778 11.3428 1.92001 11.7212 1.68304 12.1362C1.44606 12.5513 1.25986 13.0029 1.12444 13.4912C0.989025 13.9795 0.923735 14.4824 0.928571 15H0C0 14.2969 0.101562 13.6255 0.304688 12.9858C0.507812 12.3462 0.795573 11.7554 1.16797 11.2134C1.54036 10.6714 1.99014 10.1978 2.5173 9.79248C3.04446 9.38721 3.6369 9.0625 4.29464 8.81836C3.91741 8.61328 3.57887 8.36426 3.27902 8.07129C2.97917 7.77832 2.72526 7.45361 2.5173 7.09717C2.30934 6.74072 2.14732 6.35742 2.03125 5.94727C1.91518 5.53711 1.85714 5.11719 1.85714 4.6875C1.85714 4.03809 1.97805 3.43018 2.21987 2.86377C2.46168 2.29736 2.79297 1.79932 3.21373 1.36963C3.63449 0.939941 4.12537 0.605469 4.68638 0.366211C5.2474 0.126953 5.85193 0.00488281 6.5 0C7.14323 0 7.74535 0.12207 8.30636 0.366211C8.86737 0.610352 9.36068 0.944824 9.78627 1.36963C10.2119 1.79443 10.5432 2.29004 10.7801 2.85645C11.0171 3.42285 11.138 4.0332 11.1429 4.6875C11.1429 5.11719 11.0872 5.53467 10.976 5.93994C10.8648 6.34521 10.7028 6.72607 10.49 7.08252C10.2772 7.43896 10.0233 7.76367 9.72824 8.05664C9.43322 8.34961 9.0971 8.60107 8.71987 8.81104ZM2.78571 4.6875C2.78571 5.20508 2.88244 5.69092 3.07589 6.14502C3.26935 6.59912 3.53534 6.99463 3.87388 7.33154C4.21243 7.66846 4.60658 7.93701 5.05636 8.13721C5.50614 8.3374 5.98735 8.4375 6.5 8.4375C7.01265 8.4375 7.49386 8.33984 7.94364 8.14453C8.39341 7.94922 8.78516 7.68066 9.11886 7.33887C9.45257 6.99707 9.71856 6.59912 9.91685 6.14502C10.1151 5.69092 10.2143 5.20508 10.2143 4.6875C10.2143 4.16992 10.1176 3.68408 9.92411 3.22998C9.73065 2.77588 9.46466 2.38037 9.12612 2.04346C8.78757 1.70654 8.39341 1.43799 7.94364 1.23779C7.49386 1.0376 7.01265 0.9375 6.5 0.9375C5.98735 0.9375 5.50614 1.03516 5.05636 1.23047C4.60658 1.42578 4.21484 1.69434 3.88114 2.03613C3.54743 2.37793 3.28144 2.77588 3.08315 3.22998C2.88486 3.68408 2.78571 4.16992 2.78571 4.6875Z" fill="url(#paint0_linear_273_2942)"/>
<defs>
<linearGradient id="paint0_linear_273_2942" x1="0" y1="7.5" x2="13" y2="7.5" gradientUnits="userSpaceOnUse">
<stop stop-color="#32ABB1"/>
<stop offset="1" stop-color="#3286BD"/>
</linearGradient>
</defs>
</svg>
