<svg width="25" height="25" viewBox="0 0 25 25" fill="none" xmlns="http://www.w3.org/2000/svg">
<path fill-rule="evenodd" clip-rule="evenodd" d="M12.2647 2.43387C14.2182 0.480377 17.3854 0.480377 19.3389 2.43387C21.2332 4.32816 21.2906 7.36375 19.5107 9.32757L19.3385 9.50847L10.1389 18.6981C8.96687 19.8701 7.06667 19.8701 5.89467 18.6981C4.76954 17.573 4.72454 15.7767 5.76002 14.5975L5.89508 14.4535L14.3851 5.97345C14.7758 5.58316 15.409 5.58353 15.7993 5.97428C16.1596 6.33498 16.187 6.90223 15.8817 7.29434L15.7985 7.3885L7.30888 15.8681C6.91792 16.259 6.91792 16.8929 7.30888 17.2839C7.66977 17.6448 8.23763 17.6725 8.63066 17.3668L8.72505 17.2835L17.9247 8.09387C19.0971 6.92143 19.0971 5.02052 17.9247 3.84808C16.7991 2.72254 15.0022 2.67752 13.823 3.71302L13.6789 3.84808L4.48888 13.0381C2.53496 14.992 2.53496 18.1599 4.48888 20.1139C6.3836 22.0086 9.41986 22.066 11.3838 20.2861L11.5647 20.1139L20.7547 10.9239C21.1452 10.5333 21.7784 10.5333 22.1689 10.9239C22.5294 11.2844 22.5571 11.8516 22.2521 12.2439L22.1689 12.3381L12.9789 21.5281C10.2439 24.2631 5.80964 24.2631 3.07467 21.5281C0.401853 18.8553 0.341107 14.5595 2.89243 11.8129L3.07467 11.6239L12.2647 2.43387Z" fill="url(#paint0_linear_170_22088)"/>
<defs>
<linearGradient id="paint0_linear_170_22088" x1="1.02344" y1="12.4688" x2="22.0234" y2="12.4688" gradientUnits="userSpaceOnUse">
<stop stop-color="#32ABB1"/>
<stop offset="1" stop-color="#3286BD"/>
</linearGradient>
</defs>
</svg>
