<svg width="17" height="16" viewBox="0 0 17 16" fill="none" xmlns="http://www.w3.org/2000/svg">
<path d="M3.8484 8.96953L8.7484 13.8695C8.9484 14.0695 9.0444 14.3029 9.0364 14.5695C9.0284 14.8362 8.92407 15.0695 8.7234 15.2695C8.5234 15.4529 8.29007 15.5489 8.0234 15.5575C7.75674 15.5662 7.5234 15.4702 7.3234 15.2695L0.723402 8.66953C0.623402 8.56953 0.552402 8.4612 0.510402 8.34453C0.468402 8.22786 0.448069 8.10286 0.449402 7.96953C0.450736 7.8362 0.471735 7.7112 0.512402 7.59453C0.553069 7.47786 0.623736 7.36953 0.724402 7.26953L7.3244 0.669531C7.50774 0.486198 7.73707 0.394531 8.0124 0.394531C8.28774 0.394531 8.52507 0.486198 8.7244 0.669531C8.9244 0.869531 9.0244 1.1072 9.0244 1.38253C9.0244 1.65786 8.9244 1.8952 8.7244 2.09453L3.8484 6.96953H15.0234C15.3067 6.96953 15.5444 7.06553 15.7364 7.25753C15.9284 7.44953 16.0241 7.68686 16.0234 7.96953C16.0227 8.2522 15.9267 8.48986 15.7354 8.68253C15.5441 8.8752 15.3067 8.97086 15.0234 8.96953H3.8484Z" fill="url(#paint0_linear_170_22099)"/>
<defs>
<linearGradient id="paint0_linear_170_22099" x1="0.449341" y1="7.9763" x2="16.0234" y2="7.9763" gradientUnits="userSpaceOnUse">
<stop stop-color="#32ABB1"/>
<stop offset="1" stop-color="#3286BD"/>
</linearGradient>
</defs>
</svg>
