<svg width="51" height="51" viewBox="0 0 51 51" fill="none" xmlns="http://www.w3.org/2000/svg">
<path d="M50.0234 25.9687C50.0234 39.7749 38.8304 50.9687 25.0234 50.9687C11.2165 50.9683 0.0238968 39.7757 0.0234375 25.9687C0.0234375 12.1626 11.2164 0.96875 25.0234 0.96875C38.8305 0.96875 50.0234 12.1616 50.0234 25.9687Z" fill="url(#paint0_linear_374_1577)"/>
<path d="M30.774 25.1667C30.7737 23.8251 30.2406 22.5385 29.2919 21.5898C28.3433 20.6411 27.0566 20.108 25.715 20.1077M34.242 24.8127C34.242 23.7497 34.0326 22.6972 33.6258 21.7151C33.2189 20.733 32.6227 19.8407 31.871 19.0891C31.1193 18.3375 30.2269 17.7413 29.2447 17.3346C28.2626 16.9279 27.21 16.7186 26.147 16.7188M25.554 34.1857C25.254 34.0487 24.955 33.9118 24.656 33.7488C23.1893 32.9201 21.842 31.8961 20.651 30.7048C19.1077 29.2513 17.8396 27.531 16.908 25.6267C16.4096 24.6039 16.0729 23.5099 15.91 22.3837C15.6902 21.2459 15.8163 20.0683 16.272 19.0027C16.5531 18.5447 16.8927 18.1252 17.282 17.7548C17.44 17.578 17.632 17.435 17.8467 17.3343C18.0613 17.2336 18.2941 17.1773 18.531 17.1688C19.024 17.2428 19.471 17.5008 19.779 17.8918C20.453 18.6408 21.176 19.3148 21.887 20.0258C22.167 20.2658 22.342 20.6058 22.374 20.9738C22.362 21.2838 22.243 21.5788 22.037 21.8098C21.8 22.1098 21.513 22.3838 21.239 22.6698C21.0733 22.8293 20.9465 23.0249 20.8685 23.2413C20.7905 23.4577 20.7633 23.6892 20.789 23.9178C20.961 24.4528 21.256 24.9407 21.65 25.3407C22.1227 25.9857 22.618 26.6137 23.135 27.2238C24.0992 28.336 25.2414 29.2806 26.515 30.0187C26.6913 30.1519 26.8998 30.236 27.1192 30.2623C27.3386 30.2887 27.5611 30.2564 27.764 30.1688C28.187 29.9318 28.564 29.6188 28.874 29.2458C29.1426 28.919 29.527 28.7087 29.947 28.6587C30.321 28.6787 30.673 28.8388 30.933 29.1088C31.269 29.3948 31.556 29.7318 31.868 30.0438C32.18 30.3558 32.43 30.5808 32.692 30.8668C33.006 31.1441 33.301 31.4394 33.577 31.7528C33.791 32.0298 33.894 32.3777 33.864 32.7257C33.7525 33.1425 33.5125 33.5134 33.178 33.7857C32.7069 34.2755 32.1347 34.6566 31.5012 34.9024C30.8676 35.1481 30.1881 35.2527 29.51 35.2087C28.137 35.1326 26.7917 34.7849 25.554 34.1857Z" stroke="white" stroke-width="1.5" stroke-miterlimit="10" stroke-linecap="round"/>
<defs>
<linearGradient id="paint0_linear_374_1577" x1="0.0234375" y1="25.9687" x2="50.0234" y2="25.9687" gradientUnits="userSpaceOnUse">
<stop stop-color="#32ABB1"/>
<stop offset="1" stop-color="#3286BD"/>
</linearGradient>
</defs>
</svg>
