<svg width="57" height="45" viewBox="0 0 57 45" fill="none" xmlns="http://www.w3.org/2000/svg">
<rect x="0.0234375" y="0.96875" width="56" height="44" rx="14" fill="url(#paint0_linear_170_22084)"/>
<path d="M23.1416 14.1015C23.9145 13.8637 24.7511 13.9477 25.4609 14.3349L36.1602 20.1708C37.6146 20.9643 38.1508 22.7866 37.3574 24.2411C37.0816 24.7468 36.6658 25.1626 36.1602 25.4384L25.4609 31.2744C24.0064 32.0677 22.1841 31.5316 21.3906 30.0771C21.0035 29.3673 20.9196 28.5314 21.1572 27.7587L22.6816 22.8046L21.1572 17.8505C20.6701 16.2672 21.5584 14.589 23.1416 14.1015ZM24.5029 16.0908C24.2664 15.9618 23.988 15.9335 23.7305 16.0126C23.2403 16.1635 22.95 16.657 23.041 17.1494L23.0684 17.2626L24.5176 21.9716H29.7734C30.3257 21.9716 30.7734 22.4193 30.7734 22.9716C30.7734 23.4844 30.387 23.907 29.8897 23.9648L29.7734 23.9716H24.4141L23.0684 28.3466C22.9892 28.6041 23.0176 28.8826 23.1465 29.1191C23.3921 29.5692 23.9332 29.7557 24.3975 29.5683L24.5029 29.5185L35.2031 23.6826C35.3715 23.5906 35.5097 23.4516 35.6016 23.2831C35.847 22.833 35.7106 22.2771 35.3018 21.9882L35.2031 21.9267L24.5029 16.0908Z" fill="white"/>
<defs>
<linearGradient id="paint0_linear_170_22084" x1="0.0234375" y1="22.9688" x2="56.0234" y2="22.9688" gradientUnits="userSpaceOnUse">
<stop stop-color="#32ABB1"/>
<stop offset="1" stop-color="#3286BD"/>
</linearGradient>
</defs>
</svg>
