<svg width="22" height="23" viewBox="0 0 22 23" fill="none" xmlns="http://www.w3.org/2000/svg">
<g clip-path="url(#clip0_1_2146)">
<path d="M10.7793 10.4922C9.85104 10.4922 8.9608 10.13 8.30442 9.48537C7.64805 8.84071 7.2793 7.96637 7.2793 7.05469C7.2793 6.14301 7.64805 5.26866 8.30442 4.62401C8.9608 3.97935 9.85104 3.61719 10.7793 3.61719C11.7076 3.61719 12.5978 3.97935 13.2542 4.62401C13.9105 5.26866 14.2793 6.14301 14.2793 7.05469C14.2793 7.96637 13.9105 8.84071 13.2542 9.48537C12.5978 10.13 11.7076 10.4922 10.7793 10.4922ZM10.7793 4.99219C9.6173 4.99219 8.6793 5.91344 8.6793 7.05469C8.6793 8.19594 9.6173 9.11719 10.7793 9.11719C11.9413 9.11719 12.8793 8.19594 12.8793 7.05469C12.8793 5.91344 11.9413 4.99219 10.7793 4.99219Z" fill="#808080"/>
<path d="M19.1793 15.9922C18.7873 15.9922 18.4793 15.6897 18.4793 15.3047C18.4793 14.9197 18.7873 14.6172 19.1793 14.6172C19.5713 14.6172 19.8793 14.3147 19.8793 13.9297C19.8793 13.018 19.5105 12.1437 18.8542 11.499C18.1978 10.8544 17.3076 10.4922 16.3793 10.4922H14.9793C14.5873 10.4922 14.2793 10.1897 14.2793 9.80469C14.2793 9.41969 14.5873 9.11719 14.9793 9.11719C16.1413 9.11719 17.0793 8.19594 17.0793 7.05469C17.0793 5.91344 16.1413 4.99219 14.9793 4.99219C14.5873 4.99219 14.2793 4.68969 14.2793 4.30469C14.2793 3.91969 14.5873 3.61719 14.9793 3.61719C15.9076 3.61719 16.7978 3.97935 17.4542 4.62401C18.1105 5.26866 18.4793 6.14301 18.4793 7.05469C18.4793 7.90719 18.1713 8.67719 17.6393 9.28219C19.7253 9.83219 21.2793 11.7022 21.2793 13.9297C21.2793 15.0709 20.3413 15.9922 19.1793 15.9922ZM2.3793 15.9922C1.2173 15.9922 0.279297 15.0709 0.279297 13.9297C0.279297 11.7022 1.8193 9.83219 3.9193 9.28219C3.4013 8.67719 3.0793 7.90719 3.0793 7.05469C3.0793 6.14301 3.44805 5.26866 4.10442 4.62401C4.7608 3.97935 5.65104 3.61719 6.5793 3.61719C6.9713 3.61719 7.2793 3.91969 7.2793 4.30469C7.2793 4.68969 6.9713 4.99219 6.5793 4.99219C5.4173 4.99219 4.4793 5.91344 4.4793 7.05469C4.4793 8.19594 5.4173 9.11719 6.5793 9.11719C6.9713 9.11719 7.2793 9.41969 7.2793 9.80469C7.2793 10.1897 6.9713 10.4922 6.5793 10.4922H5.1793C4.25104 10.4922 3.3608 10.8544 2.70442 11.499C2.04805 12.1437 1.6793 13.018 1.6793 13.9297C1.6793 14.3147 1.9873 14.6172 2.3793 14.6172C2.7713 14.6172 3.0793 14.9197 3.0793 15.3047C3.0793 15.6897 2.7713 15.9922 2.3793 15.9922ZM14.9793 20.1172H6.5793C5.4173 20.1172 4.4793 19.1959 4.4793 18.0547V16.6797C4.4793 14.0259 6.6773 11.8672 9.3793 11.8672H12.1793C14.8813 11.8672 17.0793 14.0259 17.0793 16.6797V18.0547C17.0793 19.1959 16.1413 20.1172 14.9793 20.1172ZM9.3793 13.2422C8.45104 13.2422 7.5608 13.6044 6.90442 14.249C6.24805 14.8937 5.8793 15.768 5.8793 16.6797V18.0547C5.8793 18.4397 6.1873 18.7422 6.5793 18.7422H14.9793C15.3713 18.7422 15.6793 18.4397 15.6793 18.0547V16.6797C15.6793 15.768 15.3105 14.8937 14.6542 14.249C13.9978 13.6044 13.1076 13.2422 12.1793 13.2422H9.3793Z" fill="#808080"/>
</g>
<defs>
<clipPath id="clip0_1_2146">
<rect width="21" height="22" fill="white" transform="translate(0.279297 0.867188)"/>
</clipPath>
</defs>
</svg>
