<svg width="19" height="19" viewBox="0 0 19 19" fill="none" xmlns="http://www.w3.org/2000/svg">
<g clip-path="url(#clip0_1_2173)">
<path d="M0.974609 4.96638C1.37832 3.81181 2.96747 1.50781 6.0879 1.50781C9.99004 1.50781 12.2298 4.82496 11.5458 7.92996C10.9543 10.6222 9.2739 11.5608 8.53332 12.2024C7.45075 13.141 7.45075 13.906 7.05861 15.1441C6.83104 15.8602 6.04289 16.8811 4.94232 17.0084C4.14518 17.0984 3.18732 16.7191 2.16004 15.4141M17.6375 13.447C17.6375 14.7134 17.1344 15.928 16.2389 16.8235C15.3433 17.719 14.1288 18.2221 12.8623 18.2221M15.4299 13.357C15.4299 14.0379 15.1594 14.691 14.6779 15.1725C14.1964 15.654 13.5433 15.9245 12.8623 15.9245M13.2943 12.6421C13.2936 12.9583 13.1677 13.2614 12.9441 13.485C12.7205 13.7086 12.4174 13.8346 12.1012 13.8352" stroke="#808080" stroke-width="1.3" stroke-linecap="round" stroke-linejoin="round"/>
<path d="M3.29514 6.64874C3.52914 6.07017 4.36228 4.94388 5.82799 5.05446C7.29371 5.16374 8.55114 6.64874 8.03299 8.02446C7.51356 9.40274 6.82828 8.97588 6.20471 9.9016C5.58114 10.8286 5.81385 12.6877 4.42656 12.9655C3.56256 13.1377 3.10742 12.6415 3.10742 12.6415" stroke="#808080" stroke-width="1.3" stroke-linecap="round" stroke-linejoin="round"/>
</g>
<defs>
<clipPath id="clip0_1_2173">
<rect width="18" height="18" fill="white" transform="translate(0.279297 0.867188)"/>
</clipPath>
</defs>
</svg>
