<svg width="20" height="20" viewBox="0 0 20 20" fill="none" xmlns="http://www.w3.org/2000/svg">
<path d="M9.77669 7.99219C10.4066 7.99219 11.0107 8.24241 11.4561 8.68781C11.9015 9.13321 12.1517 9.7373 12.1517 10.3672C12.1517 10.9971 11.9015 11.6012 11.4561 12.0466C11.0107 12.492 10.4066 12.7422 9.77669 12.7422C9.1468 12.7422 8.54271 12.492 8.09731 12.0466C7.65191 11.6012 7.40169 10.9971 7.40169 10.3672C7.40169 9.7373 7.65191 9.13321 8.09731 8.68781C8.54271 8.24241 9.1468 7.99219 9.77669 7.99219ZM9.77669 4.42969C13.735 4.42969 17.1154 6.89177 18.485 10.3672C17.1154 13.8426 13.735 16.3047 9.77669 16.3047C5.81836 16.3047 2.43794 13.8426 1.06836 10.3672C2.43794 6.89177 5.81836 4.42969 9.77669 4.42969ZM2.79419 10.3672C3.43406 11.6737 4.42764 12.7744 5.66199 13.5443C6.89633 14.3142 8.32192 14.7224 9.77669 14.7224C11.2315 14.7224 12.6571 14.3142 13.8914 13.5443C15.1257 12.7744 16.1193 11.6737 16.7592 10.3672C16.1193 9.06069 15.1257 7.95993 13.8914 7.19003C12.6571 6.42013 11.2315 6.01198 9.77669 6.01198C8.32192 6.01198 6.89633 6.42013 5.66199 7.19003C4.42764 7.95993 3.43406 9.06069 2.79419 10.3672Z" fill="#808080"/>
</svg>
