<svg width="19" height="19" viewBox="0 0 19 19" fill="none" xmlns="http://www.w3.org/2000/svg">
<g clip-path="url(#clip0_1_2368)">
<path d="M15.8183 3.79502C16.0746 3.9406 16.3705 4.02424 16.6857 4.02424C17.6573 4.02424 18.4478 3.23375 18.4478 2.26214C18.4478 1.29049 17.6573 0.5 16.6857 0.5C15.7141 0.5 14.9236 1.29049 14.9236 2.26214C14.9236 2.53277 14.9851 2.78927 15.0946 3.01863L13.1924 4.45916C12.9113 4.26924 12.5727 4.15825 12.2086 4.15825C11.8533 4.15825 11.5224 4.26432 11.2453 4.44594L9.38044 2.92005C9.45336 2.72694 9.49354 2.51793 9.49354 2.29961C9.49354 1.328 8.70305 0.537512 7.73144 0.537512C6.75982 0.537512 5.96934 1.328 5.96934 2.29961C5.96934 2.54588 6.02031 2.78045 6.11197 2.99353L3.67578 5.55638C3.54064 5.52309 3.39955 5.50505 3.25429 5.50505C2.28268 5.50505 1.49219 6.29554 1.49219 7.26716C1.49219 8.23877 2.28268 9.02926 3.25429 9.02926C4.2259 9.02926 5.01639 8.23877 5.01639 7.26716C5.01639 6.83104 4.85678 6.43174 4.59336 6.1237L6.80465 3.79745C7.07409 3.96479 7.39158 4.06175 7.73144 4.06175C8.10146 4.06175 8.445 3.94686 8.72882 3.75125L10.5747 5.26156C10.4923 5.46522 10.4465 5.68748 10.4465 5.92036C10.4465 6.89197 11.2369 7.68246 12.2086 7.68246C13.1802 7.68246 13.9707 6.89197 13.9707 5.92036C13.9707 5.6962 13.9282 5.48192 13.8515 5.28455L15.8183 3.79502ZM16.6857 1.55588C17.0751 1.55588 17.392 1.87268 17.392 2.26214C17.392 2.65153 17.0752 2.96832 16.6857 2.96832C16.2963 2.96832 15.9795 2.65153 15.9795 2.26214C15.9795 1.87271 16.2963 1.55588 16.6857 1.55588ZM3.25429 7.97338C2.8649 7.97338 2.54807 7.65658 2.54807 7.26716C2.54807 6.87773 2.86486 6.56094 3.25429 6.56094C3.64368 6.56094 3.96051 6.87773 3.96051 7.26716C3.96051 7.65658 3.64368 7.97338 3.25429 7.97338ZM7.73144 3.00583C7.34205 3.00583 7.02522 2.68904 7.02522 2.29961C7.02522 1.91019 7.34201 1.59343 7.73144 1.59343C8.12086 1.59343 8.43766 1.91022 8.43766 2.29961C8.43766 2.689 8.12083 3.00583 7.73144 3.00583ZM12.2086 6.6265C11.8192 6.6265 11.5024 6.30971 11.5024 5.92032C11.5024 5.53093 11.8192 5.2141 12.2086 5.2141C12.598 5.2141 12.9148 5.53089 12.9148 5.92032C12.9148 6.30975 12.598 6.6265 12.2086 6.6265Z" fill="#32AAB1"/>
<path d="M16.6559 7.30469C15.7063 7.30469 14.9336 8.07735 14.9336 9.02703V18.4972H18.3783V9.02703C18.3783 8.07735 17.6056 7.30469 16.6559 7.30469ZM17.3224 17.4413H15.9895V9.02703C15.9895 8.65957 16.2884 8.36061 16.6559 8.36061C17.0234 8.36061 17.3224 8.65957 17.3224 9.02703L17.3224 17.4413Z" fill="#32AAB1"/>
<path d="M12.2067 11.625C11.257 11.625 10.4844 12.3976 10.4844 13.3474V18.5036H13.9291V13.3473C13.9291 12.3976 13.1564 11.625 12.2067 11.625ZM12.8732 17.4476H11.5403V13.3473C11.5403 12.9799 11.8392 12.6809 12.2067 12.6809C12.5742 12.6809 12.8731 12.9799 12.8731 13.3473L12.8732 17.4476Z" fill="#32AAB1"/>
<path d="M7.70284 8.71875C6.75313 8.71875 5.98047 9.49138 5.98047 10.4411V18.5034H9.42522V10.4411C9.42522 9.49141 8.65259 8.71875 7.70284 8.71875ZM8.36934 17.4474H7.03639V10.4411C7.03639 10.0736 7.33536 9.77467 7.70284 9.77467C8.07033 9.77467 8.3693 10.0736 8.3693 10.4411V17.4474H8.36934Z" fill="#32AAB1"/>
<path d="M3.25753 13.2029C2.30782 13.2029 1.53516 13.9755 1.53516 14.9252V18.5H4.97987V14.9252C4.97987 13.9755 4.20721 13.2029 3.25753 13.2029ZM3.92395 17.4441H2.59107V14.9252C2.59107 14.5577 2.89004 14.2588 3.25753 14.2588C3.62498 14.2588 3.92395 14.5577 3.92395 14.9252V17.4441Z" fill="#32AAB1"/>
</g>
<defs>
<clipPath id="clip0_1_2368">
<rect width="18" height="18" fill="white" transform="translate(0.96875 0.5)"/>
</clipPath>
</defs>
</svg>
