<svg width="20" height="22" viewBox="0 0 20 22" fill="none" xmlns="http://www.w3.org/2000/svg">
<path d="M15.5095 9.64386V17.7849C15.5095 18.317 15.2981 18.8274 14.9219 19.2037C14.5456 19.58 14.0352 19.7914 13.503 19.7914H4.13932C3.60716 19.7914 3.0968 19.58 2.72051 19.2037C2.34421 18.8274 2.13281 18.317 2.13281 17.7849V4.40812C2.13281 3.87596 2.34421 3.3656 2.72051 2.9893C3.0968 2.61301 3.60716 2.40161 4.13932 2.40161H8.2673C8.62195 2.40166 8.96206 2.54255 9.21287 2.7933L15.1179 8.69829C15.3686 8.9491 15.5095 9.28921 15.5095 9.64386Z" stroke="#2D83C3" stroke-width="1.78356" stroke-linejoin="round"/>
<path d="M8.82075 2.73608V7.75236C8.82075 8.10713 8.96168 8.44738 9.21254 8.69824C9.4634 8.9491 9.80365 9.09003 10.1584 9.09003H15.1747M5.47656 12.4342H12.1649M5.47656 15.7784H12.1649" stroke="#2D83C3" stroke-width="1.33767" stroke-linecap="round" stroke-linejoin="round"/>
</svg>
