<svg width="31" height="31" viewBox="0 0 31 31" fill="none" xmlns="http://www.w3.org/2000/svg">
<circle opacity="0.1" cx="15.5" cy="15.5" r="15.5" fill="#B81717"/>
<path fill-rule="evenodd" clip-rule="evenodd" d="M16.0008 9.59687C14.5686 9.59687 13.1951 10.1658 12.1824 11.1785C11.1697 12.1912 10.6008 13.5647 10.6008 14.9969C10.6008 16.429 11.1697 17.8026 12.1824 18.8153C13.1951 19.8279 14.5686 20.3969 16.0008 20.3969C17.433 20.3969 18.8065 19.8279 19.8192 18.8153C20.8319 17.8026 21.4008 16.429 21.4008 14.9969C21.4008 13.5647 20.8319 12.1912 19.8192 11.1785C18.8065 10.1658 17.433 9.59687 16.0008 9.59687ZM8.80078 14.9969C8.80078 13.0873 9.55935 11.256 10.9096 9.90571C12.2599 8.55544 14.0912 7.79688 16.0008 7.79688C17.9103 7.79688 19.7417 8.55544 21.092 9.90571C22.4422 11.256 23.2008 13.0873 23.2008 14.9969C23.2008 16.9064 22.4422 18.7378 21.092 20.088C19.7417 21.4383 17.9103 22.1969 16.0008 22.1969C14.0912 22.1969 12.2599 21.4383 10.9096 20.088C9.55935 18.7378 8.80078 16.9064 8.80078 14.9969Z" fill="#F32424"/>
<path fill-rule="evenodd" clip-rule="evenodd" d="M21.0915 9.90413C21.2602 10.0729 21.355 10.3018 21.355 10.5404C21.355 10.7791 21.2602 11.008 21.0915 11.1767L12.1815 20.0867C12.0117 20.2507 11.7844 20.3414 11.5484 20.3393C11.3125 20.3373 11.0867 20.2426 10.9199 20.0758C10.753 19.9089 10.6583 19.6832 10.6563 19.4472C10.6542 19.2112 10.7449 18.9839 10.9089 18.8141L19.8189 9.90413C19.9877 9.73541 20.2165 9.64062 20.4552 9.64062C20.6938 9.64062 20.9227 9.73541 21.0915 9.90413Z" fill="#F32424"/>
</svg>
