<svg width="15" height="15" viewBox="0 0 15 15" fill="none" xmlns="http://www.w3.org/2000/svg">
<path fill-rule="evenodd" clip-rule="evenodd" d="M8.71289 3.95446C7.30662 3.80758 5.88946 3.79663 4.48109 3.92176L3.54055 4.00559C3.16314 4.03944 2.80815 4.19947 2.53287 4.45986C2.25759 4.72026 2.07809 5.06582 2.02333 5.44076C1.79951 6.97045 1.79951 8.52456 2.02333 10.0542C2.07822 10.4292 2.25784 10.7748 2.53322 11.0352C2.80859 11.2956 3.16367 11.4556 3.54115 11.4894L4.48168 11.5727C5.89004 11.698 7.30719 11.6872 8.71349 11.5406L9.07495 11.5025C9.43376 11.4649 9.77113 11.3135 10.0378 11.0705C10.3044 10.8274 10.4864 10.5055 10.5571 10.1518L12.3686 11.1137C12.4336 11.1482 12.5062 11.1661 12.5799 11.1658C12.6535 11.1655 12.7259 11.1469 12.7906 11.1117C12.8553 11.0766 12.9103 11.0259 12.9507 10.9643C12.9911 10.9028 13.0156 10.8321 13.022 10.7588L13.0368 10.5899C13.2019 8.69837 13.2019 6.79605 13.0368 4.9045L13.022 4.73566C13.0155 4.66226 12.991 4.59161 12.9505 4.53003C12.9101 4.46844 12.855 4.41783 12.7902 4.38273C12.7254 4.34763 12.653 4.32913 12.5793 4.32889C12.5056 4.32864 12.433 4.34666 12.368 4.38132L10.5571 5.34326C10.4864 4.98948 10.3044 4.66757 10.0378 4.42455C9.77113 4.18154 9.43376 4.03015 9.07495 3.99251L8.71289 3.95446ZM4.56075 4.80997C5.91153 4.68931 7.27081 4.69987 8.61955 4.84148L8.98102 4.87953C9.15763 4.89823 9.32301 4.97516 9.4511 5.09818C9.57918 5.22121 9.6627 5.38335 9.6885 5.55907C9.90134 7.0103 9.90134 8.48412 9.6885 9.93594C9.6627 10.1117 9.57918 10.2738 9.4511 10.3968C9.32301 10.5199 9.15763 10.5968 8.98102 10.6155L8.61955 10.6535C7.27081 10.7951 5.91153 10.8057 4.56075 10.685L3.62022 10.6006C3.44246 10.5848 3.27523 10.5095 3.14548 10.387C3.01573 10.2644 2.93102 10.1018 2.90501 9.92524C2.6937 8.48111 2.6937 7.01391 2.90501 5.56977C2.9308 5.39307 3.01542 5.23022 3.1452 5.10756C3.27499 4.9849 3.44234 4.90959 3.62022 4.8938L4.56075 4.80997ZM10.6736 6.29093C10.7622 7.26 10.7622 8.23501 10.6736 9.20408L12.1879 10.0085C12.2962 8.50311 12.2962 6.99191 12.1879 5.48654L10.6736 6.29093Z" fill="#808080"/>
</svg>
