<svg width="15" height="14" viewBox="0 0 15 14" fill="none" xmlns="http://www.w3.org/2000/svg">
<path d="M8.46024 2.74145C8.47443 2.6884 8.49893 2.63866 8.53235 2.59508C8.56577 2.55151 8.60745 2.51494 8.655 2.48747C8.70256 2.46001 8.75506 2.44218 8.8095 2.43501C8.86395 2.42785 8.91927 2.43148 8.97232 2.4457C9.74726 2.64789 10.4543 3.053 11.0206 3.61932C11.5869 4.18563 11.992 4.89267 12.1942 5.66761C12.2085 5.72065 12.2121 5.77598 12.2049 5.83042C12.1977 5.88487 12.1799 5.93737 12.1525 5.98493C12.125 6.03248 12.0884 6.07416 12.0448 6.10758C12.0013 6.14099 11.9515 6.1655 11.8985 6.17969C11.8632 6.18898 11.8268 6.19372 11.7903 6.1938C11.6982 6.19379 11.6087 6.16336 11.5356 6.10724C11.4626 6.05111 11.4101 5.97242 11.3864 5.88341C11.2215 5.2508 10.8909 4.67361 10.4286 4.21133C9.96632 3.74906 9.38913 3.41843 8.75651 3.25353C8.70341 3.23939 8.65362 3.21493 8.60999 3.18154C8.56635 3.14814 8.52973 3.10647 8.50221 3.05891C8.47469 3.01135 8.45682 2.95883 8.44962 2.90436C8.44242 2.84989 8.44603 2.79453 8.46024 2.74145ZM8.33849 4.92562C9.05906 5.11791 9.52202 5.58087 9.71431 6.30144C9.73803 6.39045 9.79049 6.46913 9.86353 6.52526C9.93657 6.58139 10.0261 6.61182 10.1182 6.61182C10.1547 6.61174 10.1911 6.607 10.2264 6.59771C10.2794 6.58352 10.3292 6.55902 10.3728 6.5256C10.4163 6.49218 10.4529 6.4505 10.4804 6.40295C10.5078 6.35539 10.5257 6.30289 10.5328 6.24845C10.54 6.194 10.5364 6.13868 10.5221 6.08563C10.2546 5.08447 9.55546 4.38532 8.55429 4.11779C8.44717 4.08917 8.33306 4.10428 8.23708 4.1598C8.1411 4.21531 8.07109 4.30668 8.04248 4.4138C8.01386 4.52093 8.02897 4.63503 8.08448 4.73102C8.14 4.827 8.23137 4.897 8.33849 4.92562ZM12.6201 9.90793C12.5269 10.616 12.1792 11.2659 11.6419 11.7363C11.1045 12.2067 10.4143 12.4654 9.7002 12.4641C5.55132 12.4641 2.17579 9.08861 2.17579 4.93973C2.17451 4.22558 2.43323 3.53539 2.90363 2.99806C3.37404 2.46073 4.02395 2.11301 4.732 2.01984C4.91104 1.99797 5.09236 2.0346 5.24888 2.12426C5.40539 2.21391 5.52872 2.35178 5.60044 2.51728L6.70402 4.98101V4.98728C6.75893 5.11397 6.78161 5.25228 6.77003 5.38987C6.75845 5.52746 6.71297 5.66004 6.63766 5.77577C6.62825 5.78988 6.61833 5.80294 6.60787 5.81601L5.51997 7.10561C5.91134 7.9009 6.74321 8.72545 7.54895 9.11787L8.82078 8.03571C8.83326 8.0252 8.84635 8.01543 8.85997 8.00645C8.97561 7.92932 9.10864 7.88225 9.24705 7.86947C9.38545 7.8567 9.52486 7.87864 9.65265 7.93329L9.65944 7.93643L12.1211 9.03949C12.2869 9.11095 12.4251 9.23417 12.515 9.39071C12.605 9.54725 12.6418 9.7287 12.6201 9.90793ZM11.7903 9.80342H11.7846L9.32868 8.7035L8.05632 9.78566C8.04401 9.79615 8.0311 9.80592 8.01766 9.81492C7.89735 9.89518 7.75828 9.94287 7.61403 9.95331C7.46978 9.96375 7.32529 9.93659 7.19467 9.87449C6.21598 9.4016 5.24042 8.43335 4.76701 7.46511C4.70432 7.33545 4.67619 7.19179 4.68534 7.04806C4.6945 6.90433 4.74063 6.7654 4.81926 6.64474C4.8281 6.63055 4.83806 6.6171 4.84904 6.6045L5.93799 5.31334L4.84068 2.85745C4.84047 2.85537 4.84047 2.85326 4.84068 2.85118C4.33396 2.91728 3.86872 3.16583 3.53207 3.55028C3.19542 3.93473 3.01046 4.42872 3.01183 4.93973C3.01377 6.713 3.71906 8.41309 4.97295 9.66698C6.22684 10.9209 7.92693 11.6262 9.7002 11.6281C10.2109 11.6298 10.7048 11.4455 11.0894 11.1096C11.4741 10.7737 11.7233 10.3092 11.7903 9.8029V9.80342Z" fill="#808080"/>
</svg>
