<svg width="13" height="12" viewBox="0 0 13 12" fill="none" xmlns="http://www.w3.org/2000/svg">
<g clip-path="url(#clip0_47_3328)">
<path d="M11.8406 4.1434V7.80829C11.8407 8.09711 11.784 8.38313 11.6735 8.65C11.5631 8.91687 11.4011 9.15936 11.1969 9.36361C10.9927 9.56787 10.7503 9.72988 10.4834 9.84039C10.2166 9.9509 9.93059 10.0077 9.64177 10.0077H8.1757L6.96646 11.2169C6.93348 11.2518 6.89372 11.2797 6.8496 11.2987C6.80549 11.3177 6.75795 11.3275 6.70991 11.3275C6.66187 11.3275 6.61434 11.3177 6.57022 11.2987C6.52611 11.2797 6.48634 11.2518 6.45336 11.2169L5.24412 10.0077H3.77695C3.48815 10.0077 3.20218 9.95078 2.93537 9.84024C2.66856 9.7297 2.42614 9.56769 2.22195 9.36345C2.01776 9.15921 1.85581 8.91675 1.74534 8.64991C1.63487 8.38308 1.57805 8.09709 1.57813 7.80829V4.1434C1.57813 3.56024 1.80979 3.00096 2.22215 2.5886C2.6345 2.17624 3.19378 1.94458 3.77695 1.94458H9.64121C10.2244 1.94458 10.7837 2.17624 11.196 2.5886C11.6084 3.00096 11.8406 3.56024 11.8406 4.1434Z" stroke="#808080" stroke-width="0.624248" stroke-linecap="round" stroke-linejoin="round"/>
<path d="M4.14355 5.22217C4.23261 5.22217 4.32104 5.23987 4.40332 5.27393C4.48557 5.30799 4.56008 5.35846 4.62305 5.42139C4.68598 5.48432 4.73641 5.5589 4.77051 5.64111C4.80458 5.72338 4.82224 5.81183 4.82227 5.90088C4.82227 5.98997 4.8046 6.07833 4.77051 6.16064C4.73641 6.24297 4.68605 6.31737 4.62305 6.38037C4.56004 6.44337 4.48564 6.49373 4.40332 6.52783C4.32101 6.56192 4.23265 6.57959 4.14355 6.57959C3.96366 6.57955 3.79127 6.50757 3.66406 6.38037C3.53692 6.25314 3.46484 6.08075 3.46484 5.90088C3.46489 5.72099 3.53686 5.54859 3.66406 5.42139C3.79127 5.29418 3.96367 5.22221 4.14355 5.22217ZM6.70898 5.22217C6.79802 5.22217 6.88648 5.23988 6.96875 5.27393C7.05107 5.30802 7.12645 5.35838 7.18945 5.42139C7.25225 5.48426 7.3019 5.55903 7.33594 5.64111C7.37002 5.72338 7.38767 5.81184 7.3877 5.90088C7.3877 5.98998 7.37004 6.07832 7.33594 6.16064C7.30192 6.24276 7.25224 6.31747 7.18945 6.38037C7.12645 6.44337 7.05107 6.49373 6.96875 6.52783C6.88645 6.56191 6.79806 6.57959 6.70898 6.57959C6.52911 6.57953 6.35668 6.50756 6.22949 6.38037C6.10237 6.25314 6.03027 6.08074 6.03027 5.90088C6.03032 5.721 6.1023 5.54859 6.22949 5.42139C6.35669 5.29419 6.52911 5.22222 6.70898 5.22217ZM9.27441 5.22217C9.36344 5.22217 9.45192 5.23989 9.53418 5.27393C9.6165 5.30802 9.69188 5.35838 9.75488 5.42139C9.81769 5.48426 9.86732 5.55903 9.90137 5.64111C9.93544 5.72338 9.9531 5.81183 9.95312 5.90088C9.95312 5.98998 9.93546 6.07833 9.90137 6.16064C9.86735 6.24276 9.81768 6.31746 9.75488 6.38037C9.69188 6.44338 9.6165 6.49373 9.53418 6.52783C9.45189 6.5619 9.36348 6.57959 9.27441 6.57959C9.09456 6.57952 8.9221 6.50755 8.79492 6.38037C8.66781 6.25315 8.5957 6.08073 8.5957 5.90088C8.59575 5.72101 8.66775 5.54859 8.79492 5.42139C8.9221 5.2942 9.09456 5.22224 9.27441 5.22217Z" stroke="#808080" stroke-width="0.624248" stroke-linecap="round" stroke-linejoin="round"/>
</g>
<defs>
<clipPath id="clip0_47_3328">
<rect width="12.485" height="11.5932" fill="white" transform="translate(0.242188 0.233643)"/>
</clipPath>
</defs>
</svg>
