<svg width="15" height="16" viewBox="0 0 15 16" fill="none" xmlns="http://www.w3.org/2000/svg">
<path d="M3.55183 12.1628C3.61396 12.2251 3.6878 12.2746 3.7691 12.3084C3.8504 12.3421 3.93756 12.3595 4.02559 12.3595C4.11362 12.3595 4.20078 12.3421 4.28208 12.3084C4.36337 12.2746 4.43721 12.2251 4.49935 12.1628L10.4905 6.17167V10.3519C10.4905 10.5293 10.5609 10.6994 10.6863 10.8248C10.8118 10.9503 10.9819 11.0207 11.1593 11.0207C11.3367 11.0207 11.5068 10.9503 11.6322 10.8248C11.7577 10.6994 11.8281 10.5293 11.8281 10.3519V4.55531C11.8281 4.37792 11.7577 4.2078 11.6322 4.08237C11.5068 3.95694 11.3367 3.88647 11.1593 3.88647H5.3627C5.18532 3.88647 5.0152 3.95694 4.88976 4.08237C4.76433 4.2078 4.69387 4.37792 4.69387 4.55531C4.69387 4.7327 4.76433 4.90282 4.88976 5.02825C5.0152 5.15368 5.18532 5.22415 5.3627 5.22415H9.54293L3.55183 11.2164C3.48964 11.2785 3.44031 11.3522 3.40665 11.4334C3.37299 11.5146 3.35567 11.6017 3.35567 11.6896C3.35567 11.7775 3.37299 11.8645 3.40665 11.9457C3.44031 12.0269 3.48964 12.1007 3.55183 12.1628Z" fill="#16A34A"/>
</svg>
