<svg width="28" height="28" viewBox="0 0 28 28" fill="none" xmlns="http://www.w3.org/2000/svg">
<path d="M15.9436 5.70721C15.9733 5.59616 16.0246 5.49206 16.0945 5.40084C16.1645 5.30962 16.2517 5.23308 16.3513 5.17559C16.4508 5.1181 16.5607 5.08079 16.6747 5.06579C16.7886 5.05078 16.9045 5.05838 17.0155 5.08815C18.6376 5.51137 20.1175 6.35935 21.3029 7.54475C22.4883 8.73015 23.3363 10.2101 23.7595 11.8322C23.7893 11.9432 23.7969 12.059 23.7819 12.173C23.7669 12.287 23.7296 12.3969 23.6721 12.4964C23.6146 12.596 23.5381 12.6832 23.4468 12.7531C23.3556 12.8231 23.2515 12.8744 23.1405 12.9041C23.0666 12.9235 22.9905 12.9335 22.9141 12.9336C22.7213 12.9336 22.5338 12.8699 22.3809 12.7524C22.2281 12.6349 22.1183 12.4702 22.0686 12.2839C21.7234 10.9597 21.0314 9.75158 20.0637 8.78395C19.0961 7.81633 17.8879 7.12426 16.5638 6.77909C16.4526 6.7495 16.3484 6.69829 16.2571 6.62839C16.1657 6.5585 16.0891 6.47127 16.0315 6.37172C15.9739 6.27217 15.9365 6.16223 15.9214 6.04821C15.9063 5.93419 15.9139 5.81831 15.9436 5.70721ZM15.6888 10.2791C17.197 10.6816 18.1661 11.6506 18.5686 13.1589C18.6183 13.3452 18.7281 13.5099 18.8809 13.6274C19.0338 13.7449 19.2213 13.8086 19.4141 13.8086C19.4905 13.8085 19.5666 13.7985 19.6405 13.7791C19.7515 13.7494 19.8556 13.6981 19.9468 13.6281C20.0381 13.5582 20.1146 13.471 20.1721 13.3714C20.2296 13.2719 20.2669 13.162 20.2819 13.048C20.2969 12.934 20.2893 12.8182 20.2595 12.7072C19.6995 10.6116 18.2361 9.14815 16.1405 8.58815C15.9162 8.52825 15.6774 8.55987 15.4765 8.67607C15.2756 8.79227 15.1291 8.98352 15.0691 9.20776C15.0092 9.43199 15.0409 9.67083 15.1571 9.87175C15.2733 10.0727 15.4645 10.2192 15.6888 10.2791ZM24.6509 20.708C24.4559 22.1901 23.7281 23.5505 22.6033 24.5351C21.4786 25.5197 20.0339 26.0613 18.5391 26.0586C9.8547 26.0586 2.78907 18.993 2.78907 10.3086C2.78639 8.81378 3.32795 7.36908 4.31259 6.24435C5.29724 5.11961 6.65763 4.39176 8.1397 4.19674C8.51447 4.15098 8.894 4.22765 9.22162 4.41532C9.54924 4.60298 9.80738 4.89156 9.95751 5.23799L12.2675 10.395V10.4081C12.3824 10.6733 12.4299 10.9629 12.4057 11.2509C12.3814 11.5389 12.2862 11.8164 12.1286 12.0586C12.1089 12.0881 12.0881 12.1155 12.0663 12.1428L9.78907 14.8422C10.6083 16.5069 12.3495 18.2328 14.0361 19.0542L16.6983 16.7891C16.7244 16.7671 16.7518 16.7466 16.7803 16.7278C17.0224 16.5664 17.3008 16.4679 17.5905 16.4411C17.8802 16.4144 18.172 16.4603 18.4395 16.5747L18.4538 16.5813L23.6064 18.8902C23.9535 19.0398 24.2427 19.2977 24.431 19.6254C24.6193 19.953 24.6965 20.3328 24.6509 20.708ZM22.9141 20.4892H22.902L17.7614 18.1869L15.0981 20.4521C15.0724 20.474 15.0453 20.4945 15.0172 20.5133C14.7654 20.6813 14.4743 20.7811 14.1723 20.803C13.8704 20.8248 13.5679 20.768 13.2945 20.638C11.2459 19.6481 9.20392 17.6214 8.21298 15.5947C8.08176 15.3233 8.02288 15.0226 8.04204 14.7217C8.0612 14.4209 8.15776 14.1301 8.32235 13.8775C8.34086 13.8478 8.36171 13.8197 8.3847 13.7933L10.6641 11.0906L8.3672 5.95002C8.36676 5.94566 8.36676 5.94126 8.3672 5.9369C7.30654 6.07526 6.33269 6.59551 5.62802 7.40024C4.92336 8.20497 4.53621 9.23898 4.53907 10.3086C4.54313 14.0204 6.01942 17.579 8.64405 20.2036C11.2687 22.8283 14.8273 24.3046 18.5391 24.3086C19.6081 24.3123 20.6418 23.9265 21.447 23.2234C22.2522 22.5202 22.7737 21.5479 22.9141 20.4881V20.4892Z" fill="#808080"/>
</svg>
