<svg width="16" height="16" viewBox="0 0 16 16" fill="none" xmlns="http://www.w3.org/2000/svg">
<path d="M4.00495 3.95857C3.9426 4.0207 3.89313 4.09454 3.85937 4.17584C3.82561 4.25713 3.80823 4.3443 3.80823 4.43232C3.80823 4.52035 3.82561 4.60752 3.85937 4.68881C3.89313 4.77011 3.9426 4.84395 4.00495 4.90608L9.99606 10.8972L5.81583 10.8972C5.63844 10.8972 5.46832 10.9677 5.34289 11.0931C5.21746 11.2185 5.14699 11.3886 5.14699 11.566C5.14699 11.7434 5.21746 11.9135 5.34289 12.039C5.46832 12.1644 5.63844 12.2349 5.81583 12.2349L11.6124 12.2349C11.7898 12.2349 11.9599 12.1644 12.0854 12.039C12.2108 11.9135 12.2813 11.7434 12.2813 11.566L12.2813 5.76944C12.2813 5.59205 12.2108 5.42193 12.0854 5.2965C11.9599 5.17107 11.7898 5.1006 11.6124 5.1006C11.435 5.1006 11.2649 5.17107 11.1395 5.2965C11.014 5.42193 10.9436 5.59205 10.9436 5.76944L10.9436 9.94967L4.95136 3.95857C4.88924 3.89638 4.81548 3.84705 4.73428 3.81339C4.65308 3.77973 4.56605 3.7624 4.47815 3.7624C4.39026 3.7624 4.30323 3.77973 4.22203 3.81339C4.14083 3.84705 4.06707 3.89638 4.00495 3.95857Z" fill="#ED1F34"/>
</svg>
