<svg width="31" height="31" viewBox="0 0 31 31" fill="none" xmlns="http://www.w3.org/2000/svg">
<circle opacity="0.1" cx="15.5" cy="15.5" r="15.5" fill="#D97C1E"/>
<path d="M23.2308 8.37792L16.1872 6.03008C16.0665 5.98997 15.9366 5.98997 15.8158 6.03008L8.77233 8.37792C8.53274 8.4578 8.37109 8.6821 8.37109 8.93473V13.6407C8.37106 20.3763 14.3665 24 16.0015 24C17.1747 24 23.632 20.8112 23.632 13.6407V8.93469C23.632 8.6821 23.4704 8.45776 23.2308 8.37792ZM21.2842 13.642C21.2842 18.742 16.8695 21.4817 16.0015 21.4827V8.48062C16.1767 8.48097 20.7163 10.0128 20.8825 10.0681C21.1221 10.1477 21.2841 10.3722 21.2841 10.625L21.2842 13.642Z" fill="#D97C1E"/>
</svg>
