<svg width="18" height="18" viewBox="0 0 18 18" fill="none" xmlns="http://www.w3.org/2000/svg">
<circle cx="9.26116" cy="9.4057" r="8.45452" fill="#3AAAC3"/>
<g clip-path="url(#clip0_280_1180)">
<path d="M12.2412 6.01904H6.24196C5.78758 6.01904 5.41797 6.38865 5.41797 6.84303V11.4024C5.41797 11.8568 5.78758 12.2264 6.24196 12.2264H8.54887L9.08318 12.7607C9.12694 12.8045 9.18423 12.8263 9.24159 12.8263C9.29894 12.8263 9.35629 12.8044 9.39999 12.7607L9.9343 12.2264H12.2412C12.6955 12.2264 13.0652 11.8568 13.0652 11.4024V6.84303C13.0652 6.38865 12.6956 6.01904 12.2412 6.01904ZM12.6171 11.4024C12.6171 11.6097 12.4485 11.7783 12.2412 11.7783H9.84154C9.78208 11.7783 9.72514 11.8019 9.68307 11.844L9.24159 12.2855L8.8001 11.844C8.75809 11.8019 8.70109 11.7783 8.6417 11.7783H6.24196C6.03466 11.7783 5.86605 11.6097 5.86605 11.4024V6.84303C5.86605 6.63574 6.03466 6.46712 6.24196 6.46712H12.2412C12.4485 6.46712 12.6171 6.63574 12.6171 6.84303V11.4024Z" fill="white"/>
<path d="M10.7816 8.04126C10.1855 8.04126 9.70051 8.52621 9.70051 9.12231C9.70051 9.3586 9.77694 9.57722 9.90606 9.75534H8.57185C8.70097 9.57728 8.7774 9.3586 8.7774 9.12231C8.7774 8.52621 8.29238 8.04126 7.69629 8.04126C7.10019 8.04126 6.61523 8.52621 6.61523 9.12231C6.61523 9.71847 7.10019 10.2034 7.69629 10.2034H10.7816C11.3777 10.2034 11.8627 9.71847 11.8627 9.12231C11.8627 8.52621 11.3777 8.04126 10.7816 8.04126ZM7.06331 9.12231C7.06331 8.7733 7.34727 8.48934 7.69629 8.48934C8.04536 8.48934 8.32932 8.7733 8.32932 9.12231C8.32932 9.47138 8.04536 9.75534 7.69629 9.75534C7.34727 9.75528 7.06331 9.47138 7.06331 9.12231ZM10.7816 9.75528C10.4326 9.75528 10.1486 9.47132 10.1486 9.12231C10.1486 8.77324 10.4326 8.48928 10.7816 8.48928C11.1307 8.48928 11.4147 8.77324 11.4147 9.12231C11.4147 9.47138 11.1307 9.75528 10.7816 9.75528Z" fill="white"/>
</g>
<defs>
<clipPath id="clip0_280_1180">
<rect width="7.64722" height="7.64722" fill="white" transform="translate(5.43115 5.58252)"/>
</clipPath>
</defs>
</svg>
