<svg width="14" height="13" viewBox="0 0 14 13" fill="none" xmlns="http://www.w3.org/2000/svg">
<path d="M13.6035 9.8635L8.94244 1.2826C8.59064 0.69037 7.96932 0.33667 7.28046 0.33667C6.59159 0.33667 5.97028 0.69037 5.61848 1.2826C5.61583 1.28713 5.61359 1.29166 5.61094 1.29619L0.965368 9.84994C0.606031 10.4547 0.599235 11.1809 0.946859 11.7924C1.29528 12.4043 1.92298 12.7693 2.62696 12.7693H11.9082C12.6122 12.7693 13.2657 12.4043 13.6141 11.7924C13.9617 11.1809 13.9549 10.4546 13.6035 9.8635ZM6.50742 4.2657C6.50742 3.83874 6.85352 3.49266 7.28046 3.49266C7.70742 3.49266 8.0535 3.83876 8.0535 4.2657V7.3579C8.0535 7.78481 7.7074 8.13094 7.28046 8.13094C6.85352 8.13094 6.50742 7.78478 6.50742 7.3579V4.2657ZM7.28046 11.2232C6.64104 11.2232 6.12087 10.703 6.12087 10.0636C6.12087 9.42416 6.64102 8.90401 7.28046 8.90401C7.91987 8.90401 8.44002 9.42416 8.44002 10.0636C8.44005 10.703 7.9199 11.2232 7.28046 11.2232Z" fill="#E33629"/>
</svg>
