<svg width="35" height="35" viewBox="0 0 35 35" fill="none" xmlns="http://www.w3.org/2000/svg">
<path d="M7.06189 10.4195L12.97 8.74193C13.264 8.65847 13.4669 8.38995 13.4669 8.08432V6.62758C13.4669 5.9394 15.0381 4.93985 17.5001 4.93985C19.9621 4.93985 21.5333 5.93947 21.5333 6.62758V8.08438C21.5333 8.39002 21.7362 8.65847 22.0302 8.742L27.9383 10.4196C28.0001 10.4372 28.0629 10.4457 28.125 10.4457C28.3476 10.4457 28.5613 10.3366 28.6907 10.1458C30.1142 8.0474 29.8409 5.52296 27.9596 3.39281C26.9943 2.29981 25.4482 1.40998 23.4888 0.819492C21.7095 0.28335 19.6386 0 17.5 0C15.3613 0 13.2905 0.283418 11.5114 0.819492C9.55202 1.40998 8.00607 2.29981 7.0407 3.39281C5.15938 5.52289 4.88601 8.04733 6.3096 10.1458C6.47503 10.3897 6.77827 10.5 7.06189 10.4195ZM8.06534 4.29789C9.66201 2.4902 13.2771 1.36719 17.5 1.36719C21.7229 1.36719 25.3382 2.49013 26.9349 4.29789C27.5839 5.03275 28.896 6.89268 27.8095 8.96178L22.9005 7.56786V6.62758C22.9005 5.72503 22.2747 4.91333 21.1384 4.34205C20.1515 3.8459 18.8594 3.57267 17.5001 3.57267C16.1408 3.57267 14.8487 3.8459 13.8618 4.34205C12.7255 4.91333 12.0997 5.72503 12.0997 6.62758V7.56786L7.19068 8.96178C6.10424 6.89268 7.41633 5.03269 8.06534 4.29789Z" fill="url(#paint0_linear_210_10389)"/>
<path d="M19.2971 29.4713C19.8711 28.9697 20.2344 28.2326 20.2344 27.4121C20.2344 25.9044 19.0077 24.6777 17.5 24.6777C15.9923 24.6777 14.7657 25.9044 14.7657 27.4121C14.7657 28.2326 15.1289 28.9697 15.7029 29.4713C13.9523 30.1833 12.7148 31.9029 12.7148 33.9062V34.3164C12.7148 34.694 13.021 35 13.3984 35H21.6016C21.979 35 22.2852 34.694 22.2852 34.3164V33.9062C22.2852 31.903 21.0477 30.1833 19.2971 29.4713ZM17.5 26.0449C18.2539 26.0449 18.8672 26.6582 18.8672 27.4121C18.8672 28.166 18.2539 28.7793 17.5 28.7793C16.7462 28.7793 16.1329 28.166 16.1329 27.4121C16.1329 26.6582 16.7461 26.0449 17.5 26.0449ZM14.0928 33.6328C14.2326 31.8755 15.7073 30.4883 17.5 30.4883C19.2927 30.4883 20.7674 31.8754 20.9072 33.6328H14.0928Z" fill="url(#paint1_linear_210_10389)"/>
<path d="M8.3596 29.4713C8.93361 28.9697 9.29688 28.2326 9.29688 27.4121C9.29688 25.9044 8.07023 24.6777 6.5625 24.6777C5.05477 24.6777 3.82812 25.9044 3.82812 27.4121C3.82812 28.2326 4.19132 28.9697 4.7654 29.4713C3.01479 30.1833 1.77734 31.903 1.77734 33.9062V34.3164C1.77734 34.694 2.08346 35 2.46094 35H10.6641C11.0415 35 11.3477 34.694 11.3477 34.3164V33.9062C11.3477 31.903 10.1102 30.1833 8.3596 29.4713ZM6.5625 26.0449C7.31637 26.0449 7.92969 26.6582 7.92969 27.4121C7.92969 28.166 7.31637 28.7793 6.5625 28.7793C5.80863 28.7793 5.19531 28.166 5.19531 27.4121C5.19531 26.6582 5.80856 26.0449 6.5625 26.0449ZM3.15533 33.6328C3.29513 31.8755 4.76984 30.4883 6.5625 30.4883C8.35516 30.4883 9.82987 31.8754 9.96967 33.6328H3.15533Z" fill="url(#paint2_linear_210_10389)"/>
<path d="M30.2346 29.4713C30.8087 28.9697 31.1719 28.2326 31.1719 27.4121C31.1719 25.9044 29.9453 24.6777 28.4376 24.6777C26.9298 24.6777 25.7031 25.9044 25.7031 27.4121C25.7031 28.2326 26.0663 28.9697 26.6404 29.4713C24.8898 30.1833 23.6523 31.903 23.6523 33.9062V34.3164C23.6523 34.694 23.9585 35 24.3359 35H32.5391C32.9165 35 33.2227 34.694 33.2227 34.3164V33.9062C33.2227 31.903 31.9852 30.1833 30.2346 29.4713ZM28.4376 26.0449C29.1914 26.0449 29.8047 26.6582 29.8047 27.4121C29.8047 28.166 29.1914 28.7793 28.4376 28.7793C27.6836 28.7793 27.0703 28.166 27.0703 27.4121C27.0703 26.6582 27.6836 26.0449 28.4376 26.0449ZM25.0303 33.6328C25.1701 31.8755 26.6448 30.4883 28.4375 30.4883C30.2302 30.4883 31.7049 31.8754 31.8447 33.6328H25.0303Z" fill="url(#paint3_linear_210_10389)"/>
<path d="M16.8164 9.05664V22.2842C16.8164 22.6618 17.1225 22.9678 17.5 22.9678C17.8775 22.9678 18.1836 22.6618 18.1836 22.2842V9.05664C18.1836 8.67909 17.8775 8.37305 17.5 8.37305C17.1225 8.37305 16.8164 8.67909 16.8164 9.05664Z" fill="url(#paint4_linear_210_10389)"/>
<path d="M13.7402 11.791V16.3027H6.5625C6.18502 16.3027 5.87891 16.6088 5.87891 16.9863V22.2842C5.87891 22.6618 6.18502 22.9678 6.5625 22.9678C6.93998 22.9678 7.24609 22.6618 7.24609 22.2842V17.6699H14.4238C14.8013 17.6699 15.1074 17.3639 15.1074 16.9863V11.791C15.1074 11.4135 14.8013 11.1074 14.4238 11.1074C14.0463 11.1074 13.7402 11.4135 13.7402 11.791Z" fill="url(#paint5_linear_210_10389)"/>
<path d="M28.4375 22.9678C28.815 22.9678 29.1211 22.6618 29.1211 22.2842V16.9863C29.1211 16.6088 28.815 16.3027 28.4375 16.3027H21.2598V11.791C21.2598 11.4135 20.9537 11.1074 20.5762 11.1074C20.1987 11.1074 19.8926 11.4135 19.8926 11.791V16.9863C19.8926 17.3639 20.1987 17.6699 20.5762 17.6699H27.7539V22.2842C27.7539 22.6618 28.06 22.9678 28.4375 22.9678Z" fill="url(#paint6_linear_210_10389)"/>
<defs>
<linearGradient id="paint0_linear_210_10389" x1="5.40723" y1="5.22283" x2="29.593" y2="5.22283" gradientUnits="userSpaceOnUse">
<stop stop-color="#32ABB1"/>
<stop offset="1" stop-color="#3286BD"/>
</linearGradient>
<linearGradient id="paint1_linear_210_10389" x1="12.7148" y1="29.8389" x2="22.2852" y2="29.8389" gradientUnits="userSpaceOnUse">
<stop stop-color="#32ABB1"/>
<stop offset="1" stop-color="#3286BD"/>
</linearGradient>
<linearGradient id="paint2_linear_210_10389" x1="1.77734" y1="29.8389" x2="11.3477" y2="29.8389" gradientUnits="userSpaceOnUse">
<stop stop-color="#32ABB1"/>
<stop offset="1" stop-color="#3286BD"/>
</linearGradient>
<linearGradient id="paint3_linear_210_10389" x1="23.6523" y1="29.8389" x2="33.2227" y2="29.8389" gradientUnits="userSpaceOnUse">
<stop stop-color="#32ABB1"/>
<stop offset="1" stop-color="#3286BD"/>
</linearGradient>
<linearGradient id="paint4_linear_210_10389" x1="16.8164" y1="15.6704" x2="18.1836" y2="15.6704" gradientUnits="userSpaceOnUse">
<stop stop-color="#32ABB1"/>
<stop offset="1" stop-color="#3286BD"/>
</linearGradient>
<linearGradient id="paint5_linear_210_10389" x1="5.87891" y1="17.0376" x2="15.1074" y2="17.0376" gradientUnits="userSpaceOnUse">
<stop stop-color="#32ABB1"/>
<stop offset="1" stop-color="#3286BD"/>
</linearGradient>
<linearGradient id="paint6_linear_210_10389" x1="19.8926" y1="17.0376" x2="29.1211" y2="17.0376" gradientUnits="userSpaceOnUse">
<stop stop-color="#32ABB1"/>
<stop offset="1" stop-color="#3286BD"/>
</linearGradient>
</defs>
</svg>
