<svg width="26" height="26" viewBox="0 0 26 26" fill="none" xmlns="http://www.w3.org/2000/svg">
<path d="M20.2866 16.1246C20.3746 16.1502 20.4633 16.1624 20.5505 16.1624C20.9596 16.1624 21.3365 15.8943 21.4565 15.4818C21.6856 14.6934 21.8018 13.8744 21.8018 13.0474C21.8018 12.5261 21.3793 12.1035 20.858 12.1035C20.3367 12.1035 19.9141 12.5261 19.9141 13.0474C19.9141 13.696 19.8231 14.3378 19.6437 14.9548C19.4982 15.4553 19.7861 15.9791 20.2866 16.1246Z" fill="url(#paint0_linear_170_19813)"/>
<path d="M24.8285 23.4698L2.55319 1.19442C2.18461 0.825794 1.58699 0.825841 1.21837 1.19442C0.849737 1.563 0.849737 2.16062 1.21837 2.52924L8.06813 9.37901V13.0467C8.06813 15.7791 10.2911 18.002 13.0234 18.002C14.0355 18.002 15.0054 17.6985 15.8246 17.1355L17.1941 18.505C16.0111 19.4033 14.5763 19.8898 13.0706 19.8898C13.0628 19.8898 13.0549 19.8899 13.047 19.89C13.0392 19.8899 13.0313 19.8898 13.0234 19.8898C9.25019 19.8898 6.18039 16.82 6.18039 13.0467C6.18039 12.5254 5.75782 12.1028 5.23652 12.1028C4.71522 12.1028 4.29265 12.5254 4.29265 13.0467C4.29265 17.542 7.70762 21.2547 12.0796 21.7268V23.1933H9.29516C8.77386 23.1933 8.35129 23.6159 8.35129 24.1372C8.35129 24.6585 8.77386 25.081 9.29516 25.081H16.8461C17.3674 25.081 17.79 24.6585 17.79 24.1372C17.79 23.6159 17.3674 23.1933 16.8461 23.1933H13.9673V21.7321C15.6457 21.5611 17.2236 20.9114 18.5388 19.8497L23.4937 24.8046C23.678 24.9889 23.9195 25.081 24.1611 25.081C24.4027 25.081 24.6442 24.9889 24.8285 24.8046C25.1972 24.436 25.1972 23.8383 24.8285 23.4698ZM13.0234 16.1143C11.332 16.1143 9.95587 14.7382 9.95587 13.0467V11.2667L14.4518 15.7626C14.016 15.9923 13.5282 16.1143 13.0234 16.1143Z" fill="url(#paint1_linear_170_19813)"/>
<path d="M9.00401 4.82389C9.46708 5.06335 10.0366 4.88223 10.2761 4.41921C10.7909 3.42399 11.844 2.80571 13.0244 2.80571C14.7159 2.80571 16.092 4.18183 16.092 5.87329V11.6781C16.092 12.1994 16.5146 12.622 17.0359 12.622C17.5572 12.622 17.9797 12.1994 17.9797 11.6781V5.87329C17.9797 3.14093 15.7568 0.917969 13.0244 0.917969C11.1354 0.917969 9.4398 1.9272 8.59937 3.55189C8.35987 4.0149 8.54104 4.58439 9.00401 4.82389Z" fill="url(#paint2_linear_170_19813)"/>
<defs>
<linearGradient id="paint0_linear_170_19813" x1="21.7568" y1="17.6299" x2="19.5943" y2="17.5673" gradientUnits="userSpaceOnUse">
<stop stop-color="#32ABB1"/>
<stop offset="0.990045" stop-color="#3286BD"/>
</linearGradient>
<linearGradient id="paint1_linear_170_19813" x1="24.61" y1="33.8176" x2="0.861606" y2="32.5469" gradientUnits="userSpaceOnUse">
<stop stop-color="#32ABB1"/>
<stop offset="0.990045" stop-color="#3286BD"/>
</linearGradient>
<linearGradient id="paint2_linear_170_19813" x1="17.7854" y1="16.8537" x2="8.45299" y2="16.449" gradientUnits="userSpaceOnUse">
<stop stop-color="#32ABB1"/>
<stop offset="0.990045" stop-color="#3286BD"/>
</linearGradient>
</defs>
</svg>
