<svg width="30" height="26" viewBox="0 0 30 26" fill="none" xmlns="http://www.w3.org/2000/svg">
<path d="M19.9624 8.52514C19.6401 8.84746 19.6401 9.37041 19.9624 9.69273C20.1822 9.91249 20.3772 10.1501 20.5465 10.4025C21.0578 11.165 21.3326 12.0617 21.3326 13.0005C21.3326 13.9393 21.0578 14.836 20.5465 15.5987C20.3772 15.8509 20.1822 16.0885 19.9624 16.3082C19.6401 16.6308 19.6401 17.1535 19.9624 17.4758C20.1237 17.6371 20.3351 17.7177 20.5465 17.7177C20.7576 17.7177 20.969 17.6371 21.1303 17.4758C22.3256 16.2805 22.984 14.691 22.984 13.0005C22.984 11.3099 22.3256 9.72047 21.1303 8.52492C20.8079 8.20259 20.285 8.20259 19.9624 8.52514Z" fill="url(#paint0_linear_313_1481)"/>
<path d="M25.4564 4.19894C25.1341 3.8764 24.6111 3.8764 24.2888 4.19894C23.9662 4.52126 23.9662 5.04399 24.2888 5.36653C24.4933 5.57124 24.6879 5.78239 24.8726 5.99893C28.3027 10.0191 28.3027 15.9807 24.8726 20.0008C24.6879 20.2174 24.4933 20.4285 24.2888 20.633C23.9662 20.9555 23.9662 21.4783 24.2888 21.8008C24.4498 21.9621 24.6612 22.0425 24.8726 22.0425C25.0837 22.0425 25.2951 21.9621 25.4564 21.8008C27.8073 19.4499 29.1019 16.3243 29.1019 12.9998C29.1019 9.67524 27.8073 6.54961 25.4564 4.19894Z" fill="url(#paint1_linear_313_1481)"/>
<path d="M15.5314 1.18336C14.5049 0.712026 13.3347 0.876521 12.4778 1.61299L6.27171 6.94608H1.74367C1.2876 6.94608 0.917969 7.31572 0.917969 7.77179V18.227C0.917969 18.6829 1.2876 19.0527 1.74367 19.0527H6.27171L12.4778 24.3858C13.0109 24.8441 13.6652 25.0808 14.3309 25.0808C14.7352 25.0808 15.1435 24.9935 15.5314 24.8155C16.5582 24.3439 17.1959 23.3492 17.1959 22.2194V3.77938C17.1959 2.64942 16.5582 1.65492 15.5314 1.18336ZM15.5445 22.2194C15.5445 22.7033 15.282 23.1127 14.8422 23.3146C14.4025 23.5165 13.9211 23.4487 13.5542 23.1333L7.40339 17.8479V8.15088L13.5542 2.8653C13.9211 2.55008 14.4027 2.48234 14.8422 2.68425C15.282 2.88616 15.5445 3.29557 15.5445 3.77938V22.2194ZM2.56937 8.59749H5.75199V17.4013H2.56937V8.59749Z" fill="url(#paint2_linear_313_1481)"/>
<defs>
<linearGradient id="paint0_linear_313_1481" x1="22.9171" y1="21.129" x2="19.7018" y2="21.0695" gradientUnits="userSpaceOnUse">
<stop stop-color="#32ABB1"/>
<stop offset="0.990045" stop-color="#3286BD"/>
</linearGradient>
<linearGradient id="paint1_linear_313_1481" x1="28.9984" y1="28.5816" x2="24.017" y2="28.5071" gradientUnits="userSpaceOnUse">
<stop stop-color="#32ABB1"/>
<stop offset="0.990045" stop-color="#3286BD"/>
</linearGradient>
<linearGradient id="paint2_linear_313_1481" x1="16.8624" y1="33.8173" x2="0.838897" y2="33.2397" gradientUnits="userSpaceOnUse">
<stop stop-color="#32ABB1"/>
<stop offset="0.990045" stop-color="#3286BD"/>
</linearGradient>
</defs>
</svg>
