<svg width="40" height="41" viewBox="0 0 40 41" fill="none" xmlns="http://www.w3.org/2000/svg">
<g clip-path="url(#clip0_1_34614)">
<path d="M16.75 40.1406H8.625C5.93725 40.1406 3.75 37.8973 3.75 35.1406V5.14062C3.75 2.38396 5.93725 0.140625 8.625 0.140625H31.375C34.0627 0.140625 36.25 2.38396 36.25 5.14062V13.474C36.25 14.3956 35.522 15.1406 34.625 15.1406C33.728 15.1406 33 14.3956 33 13.474V5.14062C33 4.22062 32.2704 3.47396 31.375 3.47396H8.625C7.72962 3.47396 7 4.22062 7 5.14062V35.1406C7 36.0606 7.72962 36.8073 8.625 36.8073H16.75C17.647 36.8073 18.375 37.5523 18.375 38.474C18.375 39.3956 17.647 40.1406 16.75 40.1406Z" fill="url(#paint0_linear_1_34614)"/>
<path d="M15.5312 15.1406H13.0938C11.5256 15.1406 10.25 13.8323 10.25 12.224V8.05729C10.25 6.44896 11.5256 5.14062 13.0938 5.14062H15.5312C16.204 5.14062 16.75 5.70063 16.75 6.39062C16.75 7.08062 16.204 7.64062 15.5312 7.64062H13.0938C12.8695 7.64062 12.6875 7.82729 12.6875 8.05729V12.224C12.6875 12.454 12.8695 12.6406 13.0938 12.6406H15.5312C16.204 12.6406 16.75 13.2006 16.75 13.8906C16.75 14.5806 16.204 15.1406 15.5312 15.1406Z" fill="url(#paint1_linear_1_34614)"/>
<path d="M28.5312 10.974H28.125V9.30729H28.5312C29.204 9.30729 29.75 8.74729 29.75 8.05729C29.75 7.36729 29.204 6.80729 28.5312 6.80729H28.125V6.39062C28.125 5.70063 27.579 5.14062 26.9062 5.14062C26.2335 5.14062 25.6875 5.70063 25.6875 6.39062V6.80729H24.0625V6.39062C24.0625 5.70063 23.5165 5.14062 22.8438 5.14062C22.171 5.14062 21.625 5.70063 21.625 6.39062V6.80729H21.2188C20.546 6.80729 20 7.36729 20 8.05729C20 8.74729 20.546 9.30729 21.2188 9.30729H21.625V10.974H21.2188C20.546 10.974 20 11.534 20 12.224C20 12.914 20.546 13.474 21.2188 13.474H21.625V13.8906C21.625 14.5806 22.171 15.1406 22.8438 15.1406C23.5165 15.1406 24.0625 14.5806 24.0625 13.8906V13.474H25.6875V13.8906C25.6875 14.5806 26.2335 15.1406 26.9062 15.1406C27.579 15.1406 28.125 14.5806 28.125 13.8906V13.474H28.5312C29.204 13.474 29.75 12.914 29.75 12.224C29.75 11.534 29.204 10.974 28.5312 10.974ZM24.0625 10.974V9.30729H25.6875V10.974H24.0625Z" fill="url(#paint2_linear_1_34614)"/>
<path d="M28.9375 18.4741C23.1135 18.4741 18.375 23.3341 18.375 29.3075C18.375 35.2808 23.1135 40.1408 28.9375 40.1408C34.7615 40.1408 39.5 35.2808 39.5 29.3075C39.5 23.3341 34.7615 18.4741 28.9375 18.4741ZM33 30.9741H30.5625V33.4741C30.5625 34.3941 29.8345 35.1408 28.9375 35.1408C28.0405 35.1408 27.3125 34.3941 27.3125 33.4741V30.9741H24.875C23.978 30.9741 23.25 30.2275 23.25 29.3075C23.25 28.3875 23.978 27.6408 24.875 27.6408H27.3125V25.1408C27.3125 24.2208 28.0405 23.4741 28.9375 23.4741C29.8345 23.4741 30.5625 24.2208 30.5625 25.1408V27.6408H33C33.897 27.6408 34.625 28.3875 34.625 29.3075C34.625 30.2275 33.897 30.9741 33 30.9741Z" fill="url(#paint3_linear_1_34614)"/>
</g>
<defs>
<linearGradient id="paint0_linear_1_34614" x1="20" y1="0.140625" x2="20" y2="40.1406" gradientUnits="userSpaceOnUse">
<stop stop-color="#32ABB1"/>
<stop offset="1" stop-color="#3286BD"/>
</linearGradient>
<linearGradient id="paint1_linear_1_34614" x1="13.5" y1="5.14062" x2="13.5" y2="15.1406" gradientUnits="userSpaceOnUse">
<stop stop-color="#32ABB1"/>
<stop offset="1" stop-color="#3286BD"/>
</linearGradient>
<linearGradient id="paint2_linear_1_34614" x1="24.875" y1="5.14062" x2="24.875" y2="15.1406" gradientUnits="userSpaceOnUse">
<stop stop-color="#32ABB1"/>
<stop offset="1" stop-color="#3286BD"/>
</linearGradient>
<linearGradient id="paint3_linear_1_34614" x1="28.9375" y1="18.4741" x2="28.9375" y2="40.1408" gradientUnits="userSpaceOnUse">
<stop stop-color="#32ABB1"/>
<stop offset="1" stop-color="#3286BD"/>
</linearGradient>
<clipPath id="clip0_1_34614">
<rect width="39" height="40" fill="white" transform="translate(0.5 0.140625)"/>
</clipPath>
</defs>
</svg>
