<svg width="44" height="32" viewBox="0 0 44 32" fill="none" xmlns="http://www.w3.org/2000/svg">
<path d="M17.1912 6.38086H4.59323C4.11462 6.38086 3.72656 6.76104 3.72656 7.23086C3.72656 7.70068 4.11462 8.08086 4.59323 8.08086H17.1912C17.6698 8.08086 18.0579 7.70068 18.0579 7.23086C18.0579 6.76104 17.6698 6.38086 17.1912 6.38086Z" fill="#2D83C3"/>
<path d="M24.351 6.38086H22.8686C22.39 6.38086 22.002 6.76104 22.002 7.23086C22.002 7.70068 22.39 8.08086 22.8686 8.08086H24.351C24.8296 8.08086 25.2177 7.70068 25.2177 7.23086C25.2177 6.76104 24.8296 6.38086 24.351 6.38086Z" fill="#2D83C3"/>
<path d="M28.8676 6.38086H27.3852C26.9066 6.38086 26.5186 6.76104 26.5186 7.23086C26.5186 7.70068 26.9066 8.08086 27.3852 8.08086H28.8676C29.3462 8.08086 29.7343 7.70068 29.7343 7.23086C29.7343 6.76104 29.3462 6.38086 28.8676 6.38086Z" fill="#2D83C3"/>
<path d="M33.3842 6.38086H31.9018C31.4232 6.38086 31.0352 6.76104 31.0352 7.23086C31.0352 7.70068 31.4232 8.08086 31.9018 8.08086H33.3842C33.8628 8.08086 34.2509 7.70068 34.2509 7.23086C34.2509 6.76104 33.8628 6.38086 33.3842 6.38086Z" fill="#2D83C3"/>
<path d="M17.1912 18.0127H4.59323C4.11462 18.0127 3.72656 18.3929 3.72656 18.8627C3.72656 19.3325 4.11462 19.7127 4.59323 19.7127H17.1912C17.6698 19.7127 18.0579 19.3325 18.0579 18.8627C18.0579 18.3929 17.6698 18.0127 17.1912 18.0127Z" fill="#2D83C3"/>
<path d="M24.351 18.0127H22.8686C22.39 18.0127 22.002 18.3929 22.002 18.8627C22.002 19.3325 22.39 19.7127 22.8686 19.7127H24.351C24.8296 19.7127 25.2177 19.3325 25.2177 18.8627C25.2177 18.3929 24.8296 18.0127 24.351 18.0127Z" fill="#2D83C3"/>
<path d="M28.8676 18.0127H27.3852C26.9066 18.0127 26.5186 18.3929 26.5186 18.8627C26.5186 19.3325 26.9066 19.7127 27.3852 19.7127H28.8676C29.3462 19.7127 29.7343 19.3325 29.7343 18.8627C29.7343 18.3929 29.3462 18.0127 28.8676 18.0127Z" fill="#2D83C3"/>
<path d="M37.6441 17.981V13.0465V1.41543C37.6441 0.945605 37.2561 0.56543 36.7774 0.56543H1.19967C0.721061 0.56543 0.333008 0.945605 0.333008 1.41543V13.0465V24.6784C0.333008 25.1482 0.721061 25.5284 1.19967 25.5284H29.9492C30.3777 28.8531 33.2732 31.4344 36.7774 31.4344C40.5759 31.4344 43.6663 28.4038 43.6663 24.6784C43.6663 21.2415 41.034 18.4013 37.6441 17.981ZM2.06634 2.26543H35.9108V12.1965H2.06634V2.26543ZM2.06634 13.8965H35.9108V17.981C32.8054 18.366 30.3417 20.7827 29.9492 23.8284H2.06634V13.8965ZM36.7774 29.7344C33.9345 29.7344 31.6219 27.4666 31.6219 24.6784C31.6219 21.8901 33.9345 19.6215 36.7774 19.6215C39.6203 19.6215 41.933 21.8901 41.933 24.6784C41.933 27.4666 39.6203 29.7344 36.7774 29.7344Z" fill="#2D83C3"/>
<path d="M39.2564 23.8283H37.6445V22.247C37.6445 21.7771 37.2564 21.397 36.7778 21.397C36.2992 21.397 35.9112 21.7771 35.9112 22.247V23.8283H34.2993C33.8207 23.8283 33.4326 24.2084 33.4326 24.6783C33.4326 25.1481 33.8207 25.5283 34.2993 25.5283H35.9112V27.1087C35.9112 27.5786 36.2992 27.9587 36.7778 27.9587C37.2564 27.9587 37.6445 27.5786 37.6445 27.1087V25.5283H39.2564C39.735 25.5283 40.123 25.1481 40.123 24.6783C40.123 24.2084 39.735 23.8283 39.2564 23.8283Z" fill="#2D83C3"/>
</svg>
