<svg width="18" height="19" viewBox="0 0 18 19" fill="none" xmlns="http://www.w3.org/2000/svg">
<g opacity="0.8">
<path d="M2.25 1.78906H1.125V16.4141C1.125 16.7124 1.24353 16.9986 1.4545 17.2096C1.66548 17.4205 1.95163 17.5391 2.25 17.5391H16.875V16.4141H2.25V1.78906Z" fill="#3F8CFF"/>
<path d="M16.875 5.72656H12.9375V6.85156H14.9569L10.6875 11.1209L8.27437 8.70219C8.22208 8.64947 8.15987 8.60762 8.09132 8.57906C8.02278 8.5505 7.94926 8.5358 7.875 8.5358C7.80074 8.5358 7.72722 8.5505 7.65868 8.57906C7.59013 8.60762 7.52792 8.64947 7.47563 8.70219L3.375 12.8084L4.16812 13.6016L7.875 9.89469L10.2881 12.3134C10.3404 12.3662 10.4026 12.408 10.4712 12.4366C10.5397 12.4651 10.6132 12.4798 10.6875 12.4798C10.7618 12.4798 10.8353 12.4651 10.9038 12.4366C10.9724 12.408 11.0346 12.3662 11.0869 12.3134L15.75 7.64469V9.66406H16.875V5.72656Z" fill="#3F8CFF"/>
</g>
</svg>
