<svg width="55" height="55" viewBox="0 0 55 55" fill="none" xmlns="http://www.w3.org/2000/svg">
<circle opacity="0.1" cx="27.2548" cy="27.3315" r="27.0385" fill="#7185F5"/>
<path d="M40.5059 21.2782V30.5559C40.5062 31.2871 40.3625 32.0111 40.0829 32.6867C39.8033 33.3623 39.3934 33.9762 38.8764 34.4932C38.3595 35.0103 37.7457 35.4204 37.0702 35.7002C36.3947 35.98 35.6707 36.1239 34.9395 36.1237H31.2282L28.167 39.1849C28.0835 39.2733 27.9828 39.3438 27.8712 39.3919C27.7595 39.4401 27.6391 39.4649 27.5175 39.4649C27.3959 39.4649 27.2756 39.4401 27.1639 39.3919C27.0522 39.3438 26.9516 39.2733 26.8681 39.1849L23.8069 36.1237H20.0927C19.3616 36.1237 18.6377 35.9797 17.9622 35.6998C17.2868 35.42 16.6731 35.0099 16.1562 34.4928C15.6393 33.9758 15.2293 33.362 14.9497 32.6865C14.67 32.011 14.5262 31.287 14.5264 30.5559V21.2782C14.5264 19.802 15.1128 18.3861 16.1567 17.3423C17.2006 16.2984 18.6164 15.7119 20.0927 15.7119H34.9381C36.4144 15.7119 37.8302 16.2984 38.8741 17.3423C39.918 18.3861 40.5059 19.802 40.5059 21.2782Z" stroke="#575A8B" stroke-width="1.8723" stroke-linecap="round" stroke-linejoin="round"/>
<path d="M27.5167 26.6606C27.6385 26.6606 27.7591 26.6367 27.8717 26.59C27.9842 26.5434 28.0864 26.4751 28.1726 26.389C28.2587 26.3029 28.327 26.2006 28.3736 26.0881C28.4202 25.9756 28.4442 25.855 28.4442 25.7332C28.4442 25.6114 28.4202 25.4907 28.3736 25.3782C28.327 25.2657 28.2587 25.1634 28.1726 25.0773C28.0864 24.9912 27.9842 24.9229 27.8717 24.8763C27.7591 24.8297 27.6385 24.8057 27.5167 24.8057C27.2708 24.8057 27.0348 24.9034 26.8609 25.0773C26.687 25.2513 26.5893 25.4872 26.5893 25.7332C26.5893 25.9791 26.687 26.215 26.8609 26.389C27.0348 26.5629 27.2708 26.6606 27.5167 26.6606ZM34.0113 26.6606C34.1331 26.6606 34.2537 26.6367 34.3662 26.59C34.4787 26.5434 34.581 26.4751 34.6671 26.389C34.7532 26.3029 34.8215 26.2006 34.8681 26.0881C34.9148 25.9756 34.9387 25.855 34.9387 25.7332C34.9387 25.6114 34.9148 25.4907 34.8681 25.3782C34.8215 25.2657 34.7532 25.1634 34.6671 25.0773C34.581 24.9912 34.4787 24.9229 34.3662 24.8763C34.2537 24.8297 34.1331 24.8057 34.0113 24.8057C33.7653 24.8057 33.5294 24.9034 33.3554 25.0773C33.1815 25.2513 33.0838 25.4872 33.0838 25.7332C33.0838 25.9791 33.1815 26.215 33.3554 26.389C33.5294 26.5629 33.7653 26.6606 34.0113 26.6606ZM21.0222 26.6606C21.144 26.6606 21.2646 26.6367 21.3771 26.59C21.4897 26.5434 21.5919 26.4751 21.678 26.389C21.7642 26.3029 21.8325 26.2006 21.8791 26.0881C21.9257 25.9756 21.9497 25.855 21.9497 25.7332C21.9497 25.6114 21.9257 25.4907 21.8791 25.3782C21.8325 25.2657 21.7642 25.1634 21.678 25.0773C21.5919 24.9912 21.4897 24.9229 21.3771 24.8763C21.2646 24.8297 21.144 24.8057 21.0222 24.8057C20.7762 24.8057 20.5403 24.9034 20.3664 25.0773C20.1924 25.2513 20.0947 25.4872 20.0947 25.7332C20.0947 25.9791 20.1924 26.215 20.3664 26.389C20.5403 26.5629 20.7762 26.6606 21.0222 26.6606Z" stroke="#575A8B" stroke-width="1.8723" stroke-linecap="round" stroke-linejoin="round"/>
</svg>
