<svg width="55" height="55" viewBox="0 0 55 55" fill="none" xmlns="http://www.w3.org/2000/svg">
<circle opacity="0.1" cx="27.312" cy="27.3315" r="27.0385" fill="#F4639C"/>
<path d="M19.3582 30.6958C20.9213 30.6958 22.1885 29.4286 22.1885 27.8655C22.1885 26.3023 20.9213 25.0352 19.3582 25.0352C17.795 25.0352 16.5278 26.3023 16.5278 27.8655C16.5278 29.4286 17.795 30.6958 19.3582 30.6958Z" stroke="#F34C4C" stroke-width="2.32232" stroke-linecap="round" stroke-linejoin="round"/>
<path d="M34.4539 22.2017C36.017 22.2017 37.2842 20.9345 37.2842 19.3713C37.2842 17.8082 36.017 16.541 34.4539 16.541C32.8907 16.541 31.6235 17.8082 31.6235 19.3713C31.6235 20.9345 32.8907 22.2017 34.4539 22.2017Z" stroke="#F34C4C" stroke-width="2.32232" stroke-linecap="round" stroke-linejoin="round"/>
<path d="M34.4539 39.1899C36.017 39.1899 37.2842 37.9228 37.2842 36.3596C37.2842 34.7965 36.017 33.5293 34.4539 33.5293C32.8907 33.5293 31.6235 34.7965 31.6235 36.3596C31.6235 37.9228 32.8907 39.1899 34.4539 39.1899Z" stroke="#F34C4C" stroke-width="2.32232" stroke-linecap="round" stroke-linejoin="round"/>
<path d="M21.8257 29.2498L31.9877 34.9658M31.9877 20.7588L21.8257 26.4749" stroke="#F34C4C" stroke-width="2.32232" stroke-linecap="round" stroke-linejoin="round"/>
</svg>
