<svg width="55" height="55" viewBox="0 0 55 55" fill="none" xmlns="http://www.w3.org/2000/svg">
<circle opacity="0.1" cx="27.434" cy="27.3315" r="27.0385" fill="#F4639C"/>
<path d="M19.4802 30.6958C21.0434 30.6958 22.3106 29.4286 22.3106 27.8655C22.3106 26.3023 21.0434 25.0352 19.4802 25.0352C17.9171 25.0352 16.6499 26.3023 16.6499 27.8655C16.6499 29.4286 17.9171 30.6958 19.4802 30.6958Z" stroke="#F34C4C" stroke-width="2.32232" stroke-linecap="round" stroke-linejoin="round"/>
<path d="M34.5759 22.2017C36.1391 22.2017 37.4063 20.9345 37.4063 19.3713C37.4063 17.8082 36.1391 16.541 34.5759 16.541C33.0128 16.541 31.7456 17.8082 31.7456 19.3713C31.7456 20.9345 33.0128 22.2017 34.5759 22.2017Z" stroke="#F34C4C" stroke-width="2.32232" stroke-linecap="round" stroke-linejoin="round"/>
<path d="M34.5759 39.1899C36.1391 39.1899 37.4063 37.9228 37.4063 36.3596C37.4063 34.7965 36.1391 33.5293 34.5759 33.5293C33.0128 33.5293 31.7456 34.7965 31.7456 36.3596C31.7456 37.9228 33.0128 39.1899 34.5759 39.1899Z" stroke="#F34C4C" stroke-width="2.32232" stroke-linecap="round" stroke-linejoin="round"/>
<path d="M21.9478 29.2498L32.1098 34.9658M32.1098 20.7588L21.9478 26.4749" stroke="#F34C4C" stroke-width="2.32232" stroke-linecap="round" stroke-linejoin="round"/>
</svg>
