<svg width="21" height="22" viewBox="0 0 21 22" fill="none" xmlns="http://www.w3.org/2000/svg">
<g opacity="0.58" clip-path="url(#clip0_1310_8787)">
<path d="M18.3887 2.17969H17.4512V0.539062H15.8887V2.17969H5.57617V0.539062H4.01367V2.17969H3.07617C1.78383 2.17969 0.732422 3.28366 0.732422 4.64062V19.0781C0.732422 20.4351 1.78383 21.5391 3.07617 21.5391H18.3887C19.681 21.5391 20.7324 20.4351 20.7324 19.0781V4.64062C20.7324 3.28366 19.681 2.17969 18.3887 2.17969ZM19.1699 19.0781C19.1699 19.5304 18.8195 19.8984 18.3887 19.8984H3.07617C2.64539 19.8984 2.29492 19.5304 2.29492 19.0781V8.25H19.1699V19.0781ZM19.1699 6.60938H2.29492V4.64062C2.29492 4.1883 2.64539 3.82031 3.07617 3.82031H4.01367V5.46094H5.57617V3.82031H15.8887V5.46094H17.4512V3.82031H18.3887C18.8195 3.82031 19.1699 4.1883 19.1699 4.64062V6.60938Z" fill="black"/>
<path d="M5.26367 9.96875H3.70117V11.6094H5.26367V9.96875Z" fill="black"/>
<path d="M8.38867 9.96875H6.82617V11.6094H8.38867V9.96875Z" fill="black"/>
<path d="M11.5137 9.96875H9.95117V11.6094H11.5137V9.96875Z" fill="black"/>
<path d="M14.6387 9.96875H13.0762V11.6094H14.6387V9.96875Z" fill="black"/>
<path d="M17.7637 9.96875H16.2012V11.6094H17.7637V9.96875Z" fill="black"/>
<path d="M5.26367 13.25H3.70117V14.8906H5.26367V13.25Z" fill="black"/>
<path d="M8.38867 13.25H6.82617V14.8906H8.38867V13.25Z" fill="black"/>
<path d="M11.5137 13.25H9.95117V14.8906H11.5137V13.25Z" fill="black"/>
<path d="M14.6387 13.25H13.0762V14.8906H14.6387V13.25Z" fill="black"/>
<path d="M5.26367 16.5312H3.70117V18.1719H5.26367V16.5312Z" fill="black"/>
<path d="M8.38867 16.5312H6.82617V18.1719H8.38867V16.5312Z" fill="black"/>
<path d="M11.5137 16.5312H9.95117V18.1719H11.5137V16.5312Z" fill="black"/>
<path d="M14.6387 16.5312H13.0762V18.1719H14.6387V16.5312Z" fill="black"/>
<path d="M17.7637 13.25H16.2012V14.8906H17.7637V13.25Z" fill="black"/>
</g>
<defs>
<clipPath id="clip0_1310_8787">
<rect width="20" height="21" fill="white" transform="translate(0.732422 0.539062)"/>
</clipPath>
</defs>
</svg>
