<svg width="54" height="54" viewBox="0 0 54 54" fill="none" xmlns="http://www.w3.org/2000/svg">
<rect width="54" height="54" rx="27" fill="#3290BA"/>
<rect width="54" height="54" rx="27" stroke="white"/>
<path d="M32.7112 40C28.1533 40 23.286 38.3252 19.4803 34.5196C15.681 30.7203 14 25.8562 14 21.2888C14 17.2634 17.2567 14 21.2888 14C21.6003 14 21.8803 14.1896 21.996 14.4788L25.2596 22.6377C25.4158 23.0283 25.2259 23.4716 24.8353 23.6278L21.2503 25.0618C21.5039 29.1861 24.8145 32.4966 28.9382 32.7498L30.3722 29.1648C30.5281 28.7749 30.9712 28.5842 31.3624 28.7405L39.5211 32.004C39.8103 32.1197 40 32.3997 40 32.7112C40 36.7366 36.7433 40 32.7112 40Z" fill="white"/>
</svg>
