<svg width="22" height="25" viewBox="0 0 22 25" fill="none" xmlns="http://www.w3.org/2000/svg">
<path d="M19.6541 0H3.03331C2.62882 0 2.30089 0.327932 2.30089 0.732426V2.91755H1.48243C1.07793 2.91755 0.75 3.24548 0.75 3.64997C0.75 4.05447 1.07793 4.3824 1.48243 4.3824H2.30089V6.43319H1.48243C1.07793 6.43319 0.75 6.76112 0.75 7.16562C0.75 7.57011 1.07793 7.89804 1.48243 7.89804H2.30089V9.94884H1.48243C1.07793 9.94884 0.75 10.2768 0.75 10.6813C0.75 11.0858 1.07793 11.4137 1.48243 11.4137H2.30089V13.4645H1.48243C1.07793 13.4645 0.75 13.7924 0.75 14.1969C0.75 14.6014 1.07793 14.9293 1.48243 14.9293H2.30089V16.9801H1.48243C1.07793 16.9801 0.75 17.3081 0.75 17.7126C0.75 18.1171 1.07793 18.445 1.48243 18.445H2.30089V20.4958H1.48243C1.07793 20.4958 0.75 20.8237 0.75 21.2282C0.75 21.6327 1.07793 21.9606 1.48243 21.9606H2.30089V24.2676C2.30089 24.6721 2.62882 25 3.03331 25H19.6541C20.8656 25 21.8513 24.0143 21.8513 22.8027V2.19728C21.8513 0.985699 20.8656 0 19.6541 0ZM20.3865 22.8027C20.3865 23.2066 20.0579 23.5351 19.6541 23.5351H3.76574V21.9606H4.72541C5.12991 21.9606 5.45784 21.6327 5.45784 21.2282C5.45784 20.8237 5.12991 20.4958 4.72541 20.4958H3.76574V18.445H4.72541C5.12991 18.445 5.45784 18.1171 5.45784 17.7126C5.45784 17.3081 5.12991 16.9801 4.72541 16.9801H3.76574V14.9293H4.72541C5.12991 14.9293 5.45784 14.6014 5.45784 14.1969C5.45784 13.7924 5.12991 13.4645 4.72541 13.4645H3.76574V11.4137H4.72541C5.12991 11.4137 5.45784 11.0858 5.45784 10.6813C5.45784 10.2768 5.12991 9.94884 4.72541 9.94884H3.76574V7.89804H4.72541C5.12991 7.89804 5.45784 7.57011 5.45784 7.16562C5.45784 6.76112 5.12991 6.43319 4.72541 6.43319H3.76574V4.3824H4.72541C5.12991 4.3824 5.45784 4.05447 5.45784 3.64997C5.45784 3.24548 5.12991 2.91755 4.72541 2.91755H3.76574V1.46485H19.6541C20.0579 1.46485 20.3865 1.79342 20.3865 2.19728V22.8027Z" fill="#484C52"/>
<path d="M14.9812 12.2938C15.501 11.694 15.8166 10.9127 15.8166 10.0586C15.8166 8.17389 14.2833 6.64062 12.3987 6.64062C10.514 6.64062 8.98067 8.17389 8.98067 10.0586C8.98067 10.9128 9.2963 11.6941 9.81613 12.2938C8.494 12.8469 7.5625 14.1535 7.5625 15.6739V17.1214C7.5625 17.5259 7.89043 17.8539 8.29493 17.8539H16.5023C16.9068 17.8539 17.2348 17.5259 17.2348 17.1214V15.6739C17.2348 14.1535 16.3033 12.8468 14.9812 12.2938ZM12.3987 8.10543C13.4756 8.10543 14.3518 8.98161 14.3518 10.0586C14.3518 11.1355 13.4756 12.0117 12.3987 12.0117C11.3217 12.0117 10.4455 11.1355 10.4455 10.0586C10.4455 8.98165 11.3217 8.10543 12.3987 8.10543ZM15.77 16.389H9.02735V15.6739C9.02735 14.4623 10.0131 13.4766 11.2246 13.4766H13.5726C14.7842 13.4766 15.7699 14.4623 15.7699 15.6739V16.389H15.77Z" fill="#484C52"/>
</svg>
