<svg width="25" height="24" viewBox="0 0 25 24" fill="none" xmlns="http://www.w3.org/2000/svg">
<path fill-rule="evenodd" clip-rule="evenodd" d="M4.76525 15.4645C5.70293 14.5268 6.9747 14 8.30078 14H16.3008C17.6269 14 18.8986 14.5268 19.8363 15.4645C20.774 16.4021 21.3008 17.6739 21.3008 19V21C21.3008 21.5523 20.8531 22 20.3008 22C19.7485 22 19.3008 21.5523 19.3008 21V19C19.3008 18.2044 18.9847 17.4413 18.4221 16.8787C17.8595 16.3161 17.0964 16 16.3008 16H8.30078C7.50513 16 6.74207 16.3161 6.17946 16.8787C5.61685 17.4413 5.30078 18.2044 5.30078 19V21C5.30078 21.5523 4.85307 22 4.30078 22C3.7485 22 3.30078 21.5523 3.30078 21V19C3.30078 17.6739 3.82757 16.4021 4.76525 15.4645Z" fill="url(#paint0_linear_1250_1616)"/>
<path fill-rule="evenodd" clip-rule="evenodd" d="M12.3008 4C10.6439 4 9.30078 5.34315 9.30078 7C9.30078 8.65685 10.6439 10 12.3008 10C13.9576 10 15.3008 8.65685 15.3008 7C15.3008 5.34315 13.9576 4 12.3008 4ZM7.30078 7C7.30078 4.23858 9.53936 2 12.3008 2C15.0622 2 17.3008 4.23858 17.3008 7C17.3008 9.76142 15.0622 12 12.3008 12C9.53936 12 7.30078 9.76142 7.30078 7Z" fill="url(#paint1_linear_1250_1616)"/>
<defs>
<linearGradient id="paint0_linear_1250_1616" x1="20.932" y1="24.8925" x2="3.4438" y2="22.7871" gradientUnits="userSpaceOnUse">
<stop offset="0.990045" stop-color="#484C52"/>
</linearGradient>
<linearGradient id="paint1_linear_1250_1616" x1="17.0959" y1="15.6157" x2="7.26755" y2="15.0898" gradientUnits="userSpaceOnUse">
<stop offset="0.990045" stop-color="#484C52"/>
</linearGradient>
</defs>
</svg>
