<svg width="27" height="27" viewBox="0 0 27 27" fill="none" xmlns="http://www.w3.org/2000/svg">
<g clip-path="url(#clip0_2167_2308)">
<path d="M20.0244 16.7675C19.1334 15.8766 17.6837 15.8765 16.7927 16.7675L14.8805 18.6797C14.6198 18.9404 14.2105 18.9791 13.9072 18.7717C11.8488 17.3644 10.0915 15.607 8.68411 13.5486C8.47677 13.2453 8.51552 12.8361 8.77623 12.5753L10.6883 10.6632C11.5794 9.77222 11.5793 8.32251 10.6883 7.43151L7.8157 4.55886C6.92474 3.6679 5.47499 3.66785 4.58398 4.55886L2.01242 7.13042C0.926715 8.21613 0.602629 9.84727 1.18671 11.286C2.62047 14.8176 4.60917 17.8699 7.0975 20.3583C9.58588 22.8467 12.6382 24.8353 16.1698 26.2691C17.6085 26.8532 19.2397 26.5291 20.3254 25.4434L22.8969 22.8718C23.7879 21.9808 23.7879 20.5311 22.8969 19.6401L20.0244 16.7675ZM5.66125 5.63614C5.95827 5.33912 6.44151 5.33917 6.73848 5.63614L9.61112 8.50878C9.90809 8.8058 9.90814 9.28898 9.61112 9.586L9.07248 10.1246L5.12262 6.17477L5.66125 5.63614ZM19.2482 24.3662C18.5964 25.018 17.613 25.2108 16.7429 24.8575C10.0674 22.1474 5.30848 17.3885 2.59833 10.713C2.24505 9.84285 2.43791 8.85948 3.08969 8.2077L4.04539 7.25199L7.99526 11.2019L7.69895 11.4982C6.92037 12.2767 6.80581 13.5007 7.42651 14.4085C8.94106 16.6237 10.8322 18.5149 13.0474 20.0294C13.9552 20.6501 15.1792 20.5356 15.9578 19.757L16.2541 19.4607L20.2039 23.4105L19.2482 24.3662ZM21.8197 21.7946L21.2811 22.3333L17.3312 18.3834L17.8699 17.8448C18.1669 17.5477 18.6501 17.5478 18.9471 17.8448L21.8197 20.7174C22.1168 21.0144 22.1168 21.4976 21.8197 21.7946Z" fill="#484C52"/>
<path d="M24.1069 2.58596H17.313L18.044 1.85502C18.3415 1.55754 18.3415 1.07527 18.044 0.777795C17.7465 0.480318 17.2642 0.480318 16.9668 0.777795L14.9355 2.80905C14.638 3.10652 14.638 3.58879 14.9355 3.88627L16.9668 5.91752C17.2642 6.21499 17.7465 6.21499 18.044 5.91752C18.3415 5.62004 18.3415 5.13777 18.044 4.84029L17.313 4.1094H24.1069C24.8069 4.1094 25.3764 4.67891 25.3764 5.37893V12.4883C25.3764 12.909 25.7175 13.25 26.1382 13.25C26.5588 13.25 26.8999 12.909 26.8999 12.4883V5.37893C26.8999 3.83889 25.6469 2.58596 24.1069 2.58596Z" fill="#484C52"/>
</g>
<defs>
<clipPath id="clip0_2167_2308">
<rect width="26" height="26" fill="white" transform="translate(0.899902 0.554688)"/>
</clipPath>
</defs>
</svg>
