<svg width="26" height="26" viewBox="0 0 26 26" fill="none" xmlns="http://www.w3.org/2000/svg">
<g clip-path="url(#clip0_2167_2317)">
<path d="M25.5996 10.4481C25.5996 8.20361 24.5219 6.10176 22.565 4.52983C20.647 2.98916 18.1045 2.14062 15.4062 2.14062C12.708 2.14062 10.1655 2.98916 8.24751 4.52983C7.29658 5.29375 6.55396 6.18296 6.04097 7.15264C4.97686 7.49312 3.99844 8.00796 3.16143 8.68032C1.50947 10.0074 0.599609 11.7836 0.599609 13.6818C0.599609 15.4126 1.36523 17.0564 2.76245 18.3399L2.62471 23.343C2.61797 23.5871 2.75825 23.8114 2.98057 23.9124C3.06089 23.9488 3.14629 23.9666 3.2311 23.9666C3.38096 23.9666 3.52886 23.911 3.64336 23.8052L7.20747 20.5071C7.85117 20.6304 8.51279 20.6929 9.17881 20.6929C11.4055 20.6929 13.5062 20.0042 15.1088 18.752C15.2078 18.7542 15.3068 18.7558 15.4063 18.7558C16.4076 18.7558 17.3942 18.6382 18.3441 18.406L21.4634 21.2924C21.5779 21.3983 21.7258 21.4538 21.8757 21.4538C21.9604 21.4538 22.0459 21.436 22.1262 21.3996C22.3486 21.2987 22.4888 21.0744 22.4821 20.8303L22.3636 16.5232C24.4246 14.9551 25.5996 12.7575 25.5996 10.4481ZM9.17886 19.4791C8.49292 19.4791 7.81294 19.4044 7.15801 19.2571C6.96299 19.2133 6.75928 19.2681 6.61274 19.4038L3.87744 21.935L3.98325 18.0901C3.98828 17.9066 3.91001 17.7306 3.77026 17.6115C2.5082 16.536 1.81313 15.1404 1.81313 13.6818C1.81313 11.5586 3.27114 9.69863 5.44023 8.68872C5.29043 9.26011 5.21289 9.84893 5.21289 10.448C5.21289 12.6925 6.29063 14.7943 8.24751 16.3663C9.62251 17.4708 11.3184 18.2194 13.1625 18.5549C12.0132 19.139 10.6458 19.4791 9.17886 19.4791ZM21.3972 15.7273C21.2319 15.8445 21.1361 16.0364 21.1416 16.239L21.2292 19.4222L18.9248 17.2898C18.8112 17.1847 18.6635 17.1284 18.5126 17.1284C18.459 17.1284 18.4049 17.1354 18.3519 17.15C17.4062 17.4101 16.4151 17.5419 15.4062 17.5419C10.4547 17.5419 6.42632 14.3596 6.42632 10.448C6.42632 6.53638 10.4547 3.3541 15.4062 3.3541C20.3578 3.3541 24.3861 6.53643 24.3861 10.448C24.3861 12.4559 23.2967 14.3801 21.3972 15.7273Z" fill="#484C52"/>
<path d="M15.4906 8.64844C14.4032 8.64844 13.5186 9.53306 13.5186 10.6205C13.5186 11.7079 14.4032 12.5925 15.4906 12.5925C16.578 12.5925 17.4626 11.7079 17.4626 10.6205C17.4626 9.53306 16.578 8.64844 15.4906 8.64844ZM15.4906 11.3789C15.0723 11.3789 14.7321 11.0387 14.7321 10.6205C14.7321 10.2022 15.0724 9.86201 15.4906 9.86201C15.9088 9.86201 16.249 10.2022 16.249 10.6205C16.249 11.0387 15.9088 11.3789 15.4906 11.3789Z" fill="#484C52"/>
<path d="M20.6483 8.64844C19.5609 8.64844 18.6763 9.53306 18.6763 10.6205C18.6763 11.7079 19.5609 12.5925 20.6483 12.5925C21.7357 12.5925 22.6203 11.7079 22.6203 10.6205C22.6203 9.53306 21.7357 8.64844 20.6483 8.64844ZM20.6483 11.3789C20.23 11.3789 19.8898 11.0387 19.8898 10.6205C19.8898 10.2022 20.2301 9.86201 20.6483 9.86201C21.0665 9.86201 21.4067 10.2022 21.4067 10.6205C21.4067 11.0387 21.0666 11.3789 20.6483 11.3789Z" fill="#484C52"/>
<path d="M10.3333 8.64844C9.246 8.64844 8.36133 9.53306 8.36133 10.6205C8.36133 11.7079 9.246 12.5925 10.3333 12.5925C11.4207 12.5925 12.3054 11.7079 12.3054 10.6205C12.3054 9.53306 11.4208 8.64844 10.3333 8.64844ZM10.3333 11.3789C9.91509 11.3789 9.5749 11.0387 9.5749 10.6205C9.5749 10.2022 9.91514 9.86201 10.3333 9.86201C10.7516 9.86201 11.0918 10.2022 11.0918 10.6205C11.0918 11.0387 10.7516 11.3789 10.3333 11.3789Z" fill="#484C52"/>
</g>
<defs>
<clipPath id="clip0_2167_2317">
<rect width="25" height="25" fill="white" transform="translate(0.599609 0.554688)"/>
</clipPath>
</defs>
</svg>
