<svg width="22" height="21" viewBox="0 0 22 21" fill="none" xmlns="http://www.w3.org/2000/svg">
<path fill-rule="evenodd" clip-rule="evenodd" d="M2.955 0.664062H19.045C19.478 0.664062 19.875 0.664062 20.197 0.707062C20.553 0.755062 20.928 0.867063 21.237 1.17706C21.546 1.48706 21.659 1.86106 21.707 2.21706C21.75 2.54006 21.75 2.93706 21.75 3.36906V3.45906C21.75 3.89206 21.75 4.28906 21.707 4.61106C21.659 4.96706 21.547 5.34206 21.237 5.65106C20.944 5.94506 20.59 6.06106 20.25 6.11306V11.4701C20.25 13.3081 20.25 14.7641 20.097 15.9031C19.939 17.0751 19.607 18.0241 18.859 18.7731C18.11 19.5211 17.161 19.8531 15.989 20.0111C14.849 20.1641 13.394 20.1641 11.556 20.1641H10.444C8.606 20.1641 7.15 20.1641 6.011 20.0111C4.839 19.8531 3.89 19.5211 3.141 18.7731C2.393 18.0241 2.061 17.0751 1.903 15.9031C1.75 14.7631 1.75 13.3081 1.75 11.4701V6.11406C1.41 6.06206 1.056 5.94606 0.763 5.65206C0.453 5.34306 0.341 4.96806 0.293 4.61206C0.25 4.28906 0.25 3.89206 0.25 3.46006V3.37006C0.25 2.93706 0.25 2.54006 0.293 2.21806C0.341 1.86206 0.453 1.48706 0.763 1.17806C1.073 0.869062 1.447 0.756062 1.803 0.708062C2.126 0.665062 2.523 0.664062 2.955 0.664062ZM3.25 6.16506V11.4141C3.25 13.3211 3.252 14.6761 3.39 15.7041C3.525 16.7091 3.779 17.2891 4.202 17.7121C4.625 18.1351 5.205 18.3891 6.211 18.5241C7.239 18.6621 8.593 18.6641 10.5 18.6641H11.5C13.407 18.6641 14.762 18.6621 15.79 18.5241C16.795 18.3891 17.375 18.1351 17.798 17.7121C18.221 17.2891 18.475 16.7091 18.61 15.7031C18.748 14.6761 18.75 13.3211 18.75 11.4141V6.16406L3.25 6.16506ZM1.823 2.23706L1.826 2.23606L1.836 2.23106C1.88994 2.21195 1.94603 2.19952 2.003 2.19406C2.213 2.16606 2.507 2.16406 3 2.16406H19C19.493 2.16406 19.787 2.16606 19.997 2.19406C20.0576 2.2003 20.1171 2.21442 20.174 2.23606L20.177 2.23706L20.178 2.24006L20.183 2.25006C20.192 2.27206 20.207 2.32006 20.22 2.41706C20.248 2.62706 20.25 2.92106 20.25 3.41406C20.25 3.90706 20.248 4.20106 20.22 4.41106C20.2138 4.47164 20.1996 4.53114 20.178 4.58806L20.177 4.59106L20.174 4.59206L20.164 4.59706C20.1101 4.61618 20.054 4.6286 19.997 4.63406C19.787 4.66206 19.493 4.66406 19 4.66406H3C2.507 4.66406 2.213 4.66206 2.003 4.63406C1.94242 4.62782 1.88292 4.6137 1.826 4.59206L1.823 4.59106L1.822 4.58806L1.817 4.57806C1.79789 4.52412 1.78546 4.46803 1.78 4.41106C1.752 4.20106 1.75 3.90706 1.75 3.41406C1.75 2.92106 1.752 2.62706 1.78 2.41706C1.78624 2.35649 1.80036 2.29698 1.822 2.24006L1.823 2.23706ZM9.478 8.16406H12.522C12.736 8.16406 12.932 8.16406 13.098 8.17506C13.276 8.18706 13.471 8.21506 13.67 8.29706C14.098 8.47506 14.44 8.81606 14.617 9.24406C14.699 9.44306 14.727 9.63806 14.739 9.81606C14.75 9.98106 14.75 10.1781 14.75 10.3921V10.4361C14.75 10.6501 14.75 10.8461 14.739 11.0121C14.727 11.1901 14.699 11.3851 14.617 11.5841C14.4394 12.0128 14.0987 12.3534 13.67 12.5311C13.471 12.6131 13.276 12.6411 13.098 12.6531C12.933 12.6641 12.736 12.6641 12.522 12.6641H9.478C9.264 12.6641 9.068 12.6641 8.902 12.6531C8.70596 12.6439 8.51274 12.6026 8.33 12.5311C7.90125 12.3534 7.56061 12.0128 7.383 11.5841C7.31142 11.4013 7.27021 11.2081 7.261 11.0121C7.25119 10.8202 7.24752 10.6281 7.25 10.4361V10.3921C7.25 10.1781 7.25 9.98206 7.261 9.81606C7.273 9.63806 7.301 9.44306 7.383 9.24406C7.56061 8.81532 7.90125 8.47468 8.33 8.29706C8.529 8.21506 8.724 8.18706 8.902 8.17506C9.067 8.16406 9.264 8.16406 9.478 8.16406ZM8.901 9.68406C8.84254 9.70955 8.79604 9.75641 8.771 9.81506C8.76489 9.84915 8.76055 9.88353 8.758 9.91806C8.75021 10.0833 8.74754 10.2487 8.75 10.4141C8.75 10.6571 8.75 10.8021 8.758 10.9101C8.762 10.9771 8.768 11.0051 8.77 11.0131C8.79549 11.0715 8.84235 11.118 8.901 11.1431C8.93509 11.1492 8.96946 11.1535 9.004 11.1561C9.112 11.1641 9.257 11.1641 9.5 11.1641H12.5C12.743 11.1641 12.888 11.1641 12.996 11.1561C13.0305 11.1538 13.0649 11.1498 13.099 11.1441C13.1575 11.1186 13.204 11.0717 13.229 11.0131C13.2351 10.979 13.2395 10.9446 13.242 10.9101C13.25 10.8021 13.25 10.6571 13.25 10.4141C13.25 10.1711 13.25 10.0261 13.242 9.91806C13.2398 9.88354 13.2358 9.84916 13.23 9.81506C13.2045 9.75661 13.1576 9.7101 13.099 9.68506C13.0649 9.67895 13.0305 9.67461 12.996 9.67206C12.8308 9.66427 12.6654 9.6616 12.5 9.66406H9.5C9.257 9.66406 9.112 9.66406 9.004 9.67206C8.96948 9.67428 8.9351 9.67828 8.901 9.68406Z" fill="url(#paint0_linear_33_19664)"/>
<defs>
<linearGradient id="paint0_linear_33_19664" x1="0.25" y1="10.4141" x2="21.75" y2="10.4141" gradientUnits="userSpaceOnUse">
<stop stop-color="#32ABB1"/>
<stop offset="1" stop-color="#3286BD"/>
</linearGradient>
</defs>
</svg>
