<svg width="22" height="21" viewBox="0 0 22 21" fill="none" xmlns="http://www.w3.org/2000/svg">
<path fill-rule="evenodd" clip-rule="evenodd" d="M2.955 0.94043H19.045C19.478 0.94043 19.875 0.94043 20.197 0.98343C20.553 1.03143 20.928 1.14343 21.237 1.45343C21.546 1.76343 21.659 2.13743 21.707 2.49343C21.75 2.81643 21.75 3.21343 21.75 3.64543V3.73543C21.75 4.16843 21.75 4.56543 21.707 4.88743C21.659 5.24343 21.547 5.61843 21.237 5.92743C20.944 6.22143 20.59 6.33743 20.25 6.38943V11.7464C20.25 13.5844 20.25 15.0404 20.097 16.1794C19.939 17.3514 19.607 18.3004 18.859 19.0494C18.11 19.7974 17.161 20.1294 15.989 20.2874C14.849 20.4404 13.394 20.4404 11.556 20.4404H10.444C8.606 20.4404 7.15 20.4404 6.011 20.2874C4.839 20.1294 3.89 19.7974 3.141 19.0494C2.393 18.3004 2.061 17.3514 1.903 16.1794C1.75 15.0394 1.75 13.5844 1.75 11.7464V6.39043C1.41 6.33843 1.056 6.22243 0.763 5.92843C0.453 5.61943 0.341 5.24443 0.293 4.88843C0.25 4.56543 0.25 4.16843 0.25 3.73643V3.64643C0.25 3.21343 0.25 2.81643 0.293 2.49443C0.341 2.13843 0.453 1.76343 0.763 1.45443C1.073 1.14543 1.447 1.03243 1.803 0.98443C2.126 0.94143 2.523 0.94043 2.955 0.94043ZM3.25 6.44143V11.6904C3.25 13.5974 3.252 14.9524 3.39 15.9804C3.525 16.9854 3.779 17.5654 4.202 17.9884C4.625 18.4114 5.205 18.6654 6.211 18.8004C7.239 18.9384 8.593 18.9404 10.5 18.9404H11.5C13.407 18.9404 14.762 18.9384 15.79 18.8004C16.795 18.6654 17.375 18.4114 17.798 17.9884C18.221 17.5654 18.475 16.9854 18.61 15.9794C18.748 14.9524 18.75 13.5974 18.75 11.6904V6.44043L3.25 6.44143ZM1.823 2.51343L1.826 2.51243L1.836 2.50743C1.88994 2.48832 1.94603 2.47589 2.003 2.47043C2.213 2.44243 2.507 2.44043 3 2.44043H19C19.493 2.44043 19.787 2.44243 19.997 2.47043C20.0576 2.47667 20.1171 2.49079 20.174 2.51243L20.177 2.51343L20.178 2.51643L20.183 2.52643C20.192 2.54843 20.207 2.59643 20.22 2.69343C20.248 2.90343 20.25 3.19743 20.25 3.69043C20.25 4.18343 20.248 4.47743 20.22 4.68743C20.2138 4.74801 20.1996 4.80751 20.178 4.86443L20.177 4.86743L20.174 4.86843L20.164 4.87343C20.1101 4.89254 20.054 4.90497 19.997 4.91043C19.787 4.93843 19.493 4.94043 19 4.94043H3C2.507 4.94043 2.213 4.93843 2.003 4.91043C1.94242 4.90419 1.88292 4.89007 1.826 4.86843L1.823 4.86743L1.822 4.86443L1.817 4.85443C1.79789 4.80048 1.78546 4.7444 1.78 4.68743C1.752 4.47743 1.75 4.18343 1.75 3.69043C1.75 3.19743 1.752 2.90343 1.78 2.69343C1.78624 2.63285 1.80036 2.57335 1.822 2.51643L1.823 2.51343ZM9.478 8.44043H12.522C12.736 8.44043 12.932 8.44043 13.098 8.45143C13.276 8.46343 13.471 8.49143 13.67 8.57343C14.098 8.75143 14.44 9.09243 14.617 9.52043C14.699 9.71943 14.727 9.91443 14.739 10.0924C14.75 10.2574 14.75 10.4544 14.75 10.6684V10.7124C14.75 10.9264 14.75 11.1224 14.739 11.2884C14.727 11.4664 14.699 11.6614 14.617 11.8604C14.4394 12.2892 14.0987 12.6298 13.67 12.8074C13.471 12.8894 13.276 12.9174 13.098 12.9294C12.933 12.9404 12.736 12.9404 12.522 12.9404H9.478C9.264 12.9404 9.068 12.9404 8.902 12.9294C8.70596 12.9202 8.51274 12.879 8.33 12.8074C7.90125 12.6298 7.56061 12.2892 7.383 11.8604C7.31142 11.6777 7.27021 11.4845 7.261 11.2884C7.25119 11.0966 7.24752 10.9045 7.25 10.7124V10.6684C7.25 10.4544 7.25 10.2584 7.261 10.0924C7.273 9.91443 7.301 9.71943 7.383 9.52043C7.56061 9.09168 7.90125 8.75104 8.33 8.57343C8.529 8.49143 8.724 8.46343 8.902 8.45143C9.067 8.44043 9.264 8.44043 9.478 8.44043ZM8.901 9.96043C8.84254 9.98592 8.79604 10.0328 8.771 10.0914C8.76489 10.1255 8.76055 10.1599 8.758 10.1944C8.75021 10.3596 8.74754 10.5251 8.75 10.6904C8.75 10.9334 8.75 11.0784 8.758 11.1864C8.762 11.2534 8.768 11.2814 8.77 11.2894C8.79549 11.3479 8.84235 11.3944 8.901 11.4194C8.93509 11.4255 8.96946 11.4299 9.004 11.4324C9.112 11.4404 9.257 11.4404 9.5 11.4404H12.5C12.743 11.4404 12.888 11.4404 12.996 11.4324C13.0305 11.4302 13.0649 11.4262 13.099 11.4204C13.1575 11.3949 13.204 11.3481 13.229 11.2894C13.2351 11.2553 13.2395 11.221 13.242 11.1864C13.25 11.0784 13.25 10.9334 13.25 10.6904C13.25 10.4474 13.25 10.3024 13.242 10.1944C13.2398 10.1599 13.2358 10.1255 13.23 10.0914C13.2045 10.033 13.1576 9.98647 13.099 9.96143C13.0649 9.95532 13.0305 9.95098 12.996 9.94843C12.8308 9.94064 12.6654 9.93797 12.5 9.94043H9.5C9.257 9.94043 9.112 9.94043 9.004 9.94843C8.96948 9.95065 8.9351 9.95465 8.901 9.96043Z" fill="url(#paint0_linear_630_863)"/>
<defs>
<linearGradient id="paint0_linear_630_863" x1="0.25" y1="10.6904" x2="21.75" y2="10.6904" gradientUnits="userSpaceOnUse">
<stop stop-color="#4E71E7"/>
<stop offset="1" stop-color="#44A8E4"/>
</linearGradient>
</defs>
</svg>
