<svg width="35" height="36" viewBox="0 0 35 36" fill="none" xmlns="http://www.w3.org/2000/svg">
<circle cx="17.5" cy="17.6055" r="17.5" fill="#32AAB1"/>
<path fill-rule="evenodd" clip-rule="evenodd" d="M11.2959 8.98047H24.7042C25.0651 8.98047 25.3959 8.98047 25.6642 9.0163C25.9609 9.0563 26.2734 9.14964 26.5309 9.40797C26.7884 9.6663 26.8826 9.97797 26.9226 10.2746C26.9584 10.5438 26.9584 10.8746 26.9584 11.2346V11.3096C26.9584 11.6705 26.9584 12.0013 26.9226 12.2696C26.8826 12.5663 26.7892 12.8788 26.5309 13.1363C26.2867 13.3813 25.9917 13.478 25.7084 13.5213V17.9855C25.7084 19.5171 25.7084 20.7305 25.5809 21.6796C25.4492 22.6563 25.1726 23.4471 24.5492 24.0713C23.9251 24.6946 23.1342 24.9713 22.1576 25.103C21.2076 25.2305 19.9951 25.2305 18.4634 25.2305H17.5367C16.0051 25.2305 14.7917 25.2305 13.8426 25.103C12.8659 24.9713 12.0751 24.6946 11.4509 24.0713C10.8276 23.4471 10.5509 22.6563 10.4192 21.6796C10.2917 20.7296 10.2917 19.5171 10.2917 17.9855V13.5221C10.0084 13.4788 9.71341 13.3821 9.46925 13.1371C9.21091 12.8796 9.11758 12.5671 9.07758 12.2705C9.04175 12.0013 9.04175 11.6705 9.04175 11.3105V11.2355C9.04175 10.8746 9.04175 10.5438 9.07758 10.2755C9.11758 9.9788 9.21091 9.6663 9.46925 9.4088C9.72758 9.1513 10.0392 9.05714 10.3359 9.01714C10.6051 8.9813 10.9359 8.98047 11.2959 8.98047ZM11.5417 13.5646V17.9388C11.5417 19.528 11.5434 20.6571 11.6584 21.5138C11.7709 22.3513 11.9826 22.8346 12.3351 23.1871C12.6876 23.5396 13.1709 23.7513 14.0092 23.8638C14.8659 23.9788 15.9942 23.9805 17.5834 23.9805H18.4167C20.0059 23.9805 21.1351 23.9788 21.9917 23.8638C22.8292 23.7513 23.3126 23.5396 23.6651 23.1871C24.0176 22.8346 24.2292 22.3513 24.3417 21.513C24.4567 20.6571 24.4584 19.528 24.4584 17.9388V13.5638L11.5417 13.5646ZM10.3526 10.2913L10.3551 10.2905L10.3634 10.2863C10.4084 10.2704 10.4551 10.26 10.5026 10.2555C10.6776 10.2321 10.9226 10.2305 11.3334 10.2305H24.6667C25.0776 10.2305 25.3226 10.2321 25.4976 10.2555C25.5481 10.2607 25.5976 10.2724 25.6451 10.2905L25.6476 10.2913L25.6484 10.2938L25.6526 10.3021C25.6601 10.3205 25.6726 10.3605 25.6834 10.4413C25.7067 10.6163 25.7084 10.8613 25.7084 11.2721C25.7084 11.683 25.7067 11.928 25.6834 12.103C25.6782 12.1534 25.6664 12.203 25.6484 12.2505L25.6476 12.253L25.6451 12.2538L25.6367 12.258C25.5918 12.2739 25.5451 12.2843 25.4976 12.2888C25.3226 12.3121 25.0776 12.3138 24.6667 12.3138H11.3334C10.9226 12.3138 10.6776 12.3121 10.5026 12.2888C10.4521 12.2836 10.4025 12.2718 10.3551 12.2538L10.3526 12.253L10.3517 12.2505L10.3476 12.2421C10.3317 12.1972 10.3213 12.1504 10.3167 12.103C10.2934 11.928 10.2917 11.683 10.2917 11.2721C10.2917 10.8613 10.2934 10.6163 10.3167 10.4413C10.3219 10.3908 10.3337 10.3412 10.3517 10.2938L10.3526 10.2913ZM16.7317 15.2305H19.2684C19.4467 15.2305 19.6101 15.2305 19.7484 15.2396C19.8967 15.2496 20.0592 15.273 20.2251 15.3413C20.5817 15.4896 20.8667 15.7738 21.0142 16.1305C21.0826 16.2963 21.1059 16.4588 21.1159 16.6071C21.1251 16.7446 21.1251 16.9088 21.1251 17.0871V17.1238C21.1251 17.3021 21.1251 17.4655 21.1159 17.6038C21.1059 17.7521 21.0826 17.9146 21.0142 18.0805C20.8662 18.4378 20.5824 18.7216 20.2251 18.8696C20.0592 18.938 19.8967 18.9613 19.7484 18.9713C19.6109 18.9805 19.4467 18.9805 19.2684 18.9805H16.7317C16.5534 18.9805 16.3901 18.9805 16.2517 18.9713C16.0884 18.9636 15.9274 18.9293 15.7751 18.8696C15.4178 18.7216 15.1339 18.4378 14.9859 18.0805C14.9263 17.9282 14.8919 17.7672 14.8842 17.6038C14.8761 17.4439 14.873 17.2839 14.8751 17.1238V17.0871C14.8751 16.9088 14.8751 16.7455 14.8842 16.6071C14.8942 16.4588 14.9176 16.2963 14.9859 16.1305C15.1339 15.7732 15.4178 15.4893 15.7751 15.3413C15.9409 15.273 16.1034 15.2496 16.2517 15.2396C16.3892 15.2305 16.5534 15.2305 16.7317 15.2305ZM16.2509 16.4971C16.2022 16.5184 16.1634 16.5574 16.1426 16.6063C16.1375 16.6347 16.1339 16.6634 16.1317 16.6921C16.1253 16.8298 16.123 16.9677 16.1251 17.1055C16.1251 17.308 16.1251 17.4288 16.1317 17.5188C16.1351 17.5746 16.1401 17.598 16.1417 17.6046C16.163 17.6533 16.202 17.6921 16.2509 17.713C16.2793 17.7181 16.308 17.7217 16.3367 17.7238C16.4267 17.7305 16.5476 17.7305 16.7501 17.7305H19.2501C19.4526 17.7305 19.5734 17.7305 19.6634 17.7238C19.6922 17.722 19.7208 17.7186 19.7492 17.7138C19.798 17.6926 19.8367 17.6535 19.8576 17.6046C19.8627 17.5762 19.8663 17.5476 19.8684 17.5188C19.8751 17.4288 19.8751 17.308 19.8751 17.1055C19.8751 16.903 19.8751 16.7821 19.8684 16.6921C19.8666 16.6634 19.8632 16.6347 19.8584 16.6063C19.8372 16.5576 19.7981 16.5188 19.7492 16.498C19.7208 16.4929 19.6922 16.4893 19.6634 16.4871C19.5257 16.4806 19.3879 16.4784 19.2501 16.4805H16.7501C16.5476 16.4805 16.4267 16.4805 16.3367 16.4871C16.308 16.489 16.2793 16.4923 16.2509 16.4971Z" fill="white"/>
</svg>
