<svg width="69" height="69" viewBox="0 0 69 69" fill="none" xmlns="http://www.w3.org/2000/svg">
<circle cx="34.0234" cy="34.9688" r="34" fill="#0E8435"/>
<path d="M23.1259 31.9226C21.8205 29.3964 22.9086 26.3605 25.5089 24.5043C25.9706 24.1748 26.5406 24.032 27.1025 24.105C27.6645 24.178 28.1761 24.4612 28.5329 24.897L30.2907 27.0417C30.5733 27.3868 30.7453 27.8083 30.7845 28.2523C30.8238 28.6964 30.7284 29.1426 30.5108 29.5339L28.5947 32.9776C28.4999 33.1476 28.4511 33.3388 28.453 33.5326C28.4549 33.7264 28.5075 33.9161 28.6056 34.0831L28.6673 34.185L28.829 34.4385C28.9685 34.651 29.1712 34.9484 29.4327 35.2968C29.9518 35.989 30.7142 36.8978 31.6761 37.738C32.638 38.5783 33.6428 39.214 34.3998 39.6373C34.7942 39.8573 35.1974 40.0614 35.6085 40.2492L35.7205 40.2987C35.8996 40.3734 36.0954 40.4007 36.2888 40.3779C36.4822 40.355 36.6667 40.2829 36.8241 40.1684L40.0246 37.8468C40.3882 37.5831 40.8224 37.433 41.2712 37.4155C41.7201 37.3981 42.1633 37.5142 42.5439 37.7489L44.9227 39.2146C45.914 39.8243 46.2507 41.0983 45.692 42.121C44.1656 44.9165 41.2589 46.3651 38.568 45.3893C35.2682 44.187 32.2223 42.3916 29.582 40.0925C26.9297 37.7987 24.7397 35.0277 23.1259 31.9226ZM30.8917 33.4668L32.4826 30.6082C32.9178 29.8257 33.1085 28.9332 33.03 28.0452C32.9516 27.1571 32.6077 26.314 32.0423 25.6239L30.2835 23.4795C29.5655 22.6032 28.5365 22.0336 27.4062 21.8868C26.2759 21.74 25.1294 22.027 24.2005 22.6894C20.9719 24.9946 19.1615 29.165 21.1194 32.952C22.8622 36.3076 25.2282 39.3034 28.0935 41.7826C30.9412 44.2618 34.2261 46.1977 37.7849 47.4941C41.8187 48.9539 45.7755 46.658 47.673 43.1804C48.2166 42.1858 48.3586 41.0248 48.0698 39.9343C47.7811 38.8437 47.0835 37.906 46.1194 37.3125L43.7406 35.8468C42.9792 35.3772 42.0926 35.145 41.1947 35.1799C40.2967 35.2149 39.4283 35.5154 38.7009 36.043L36.0447 37.9699C35.8661 37.8793 35.6895 37.7851 35.5149 37.6872C34.6791 37.2242 33.8936 36.6774 33.1705 36.0553C32.4569 35.4223 31.8106 34.7183 31.2418 33.9541C31.1219 33.7944 31.0053 33.6323 30.8921 33.4678" fill="white"/>
</svg>
