<svg width="69" height="69" viewBox="0 0 69 69" fill="none" xmlns="http://www.w3.org/2000/svg">
<circle cx="34.0234" cy="34.9688" r="34" fill="#D93025"/>
<path d="M44.2251 30.0952C46.8441 31.2028 47.9487 34.2328 47.1363 37.3226C46.9919 37.8711 46.645 38.3454 46.1663 38.6486C45.6876 38.9518 45.1131 39.0611 44.5601 38.9543L41.8373 38.4292C41.3993 38.3447 40.9976 38.1305 40.6835 37.8142C40.3694 37.4978 40.1574 37.0938 40.0745 36.6538L39.3458 32.7809C39.3099 32.5896 39.2252 32.4114 39.0998 32.2636C38.9745 32.1158 38.8127 32.0036 38.6305 31.9378L38.5179 31.899L38.2316 31.8075C37.9884 31.7333 37.6424 31.6342 37.2185 31.5335C36.3768 31.3332 35.2096 31.122 33.9327 31.0911C32.6559 31.0601 31.4768 31.2138 30.6242 31.3724C30.1802 31.4554 29.7397 31.5563 29.3036 31.6748L29.1858 31.7083C29.0003 31.7653 28.8323 31.8696 28.6982 32.0108C28.5641 32.152 28.4684 32.3254 28.4205 32.5141L27.4444 36.3456C27.3333 36.7808 27.0956 37.1739 26.7616 37.4743C26.4276 37.7747 26.0126 37.9688 25.5699 38.0317L22.8038 38.4258C21.6518 38.5909 20.5782 37.8266 20.3539 36.6831C19.74 33.5578 21.0486 30.5854 23.7415 29.615C27.0474 28.4295 30.5373 27.8624 34.0373 27.9417C37.5433 28.0095 40.9989 28.7397 44.2251 30.0952ZM37.2669 33.8735L37.8715 37.0886C38.0372 37.9685 38.4613 38.7766 39.0895 39.4093C39.7176 40.0419 40.5212 40.4702 41.3971 40.6393L44.1205 41.1635C45.2329 41.3781 46.3883 41.1581 47.3512 40.5482C48.3141 39.9384 49.0121 38.9846 49.3027 37.8814C50.3111 34.0446 49.0364 29.6806 45.1096 28.0208C41.624 26.5552 37.8893 25.7646 34.101 25.6906C30.3264 25.6053 26.5628 26.2173 22.9978 27.496C18.9628 28.9529 17.3887 33.2481 18.1533 37.1353C18.3713 38.2476 19.0046 39.231 19.9239 39.8848C20.8432 40.5387 21.9791 40.8136 23.0999 40.6534L25.866 40.2594C26.7517 40.1336 27.5818 39.7452 28.2499 39.1442C28.918 38.5431 29.3935 37.7568 29.6155 36.886L30.4256 33.7061C30.6208 33.6616 30.8169 33.6211 31.0137 33.5847C31.9524 33.4063 32.906 33.3244 33.8596 33.3404C34.8131 33.3708 35.7602 33.4989 36.6862 33.7227C36.8805 33.7688 37.0737 33.8189 37.2659 33.873" fill="white"/>
</svg>
