<svg width="19" height="19" viewBox="0 0 19 19" fill="none" xmlns="http://www.w3.org/2000/svg">
<path d="M16.0211 15.2451C15.9269 15.6673 15.6933 16.0456 15.3581 16.3191C14.9918 16.6906 14.5553 16.9856 14.074 17.1869C13.5928 17.3883 13.0763 17.492 12.5546 17.4921H12.3108C11.2158 17.4326 10.1437 17.1555 9.15705 16.6768H9.14955C8.9208 16.5703 8.68455 16.4638 8.4558 16.3341C7.30411 15.6883 6.24776 14.8857 5.31705 13.9491C4.10922 12.8146 3.11806 11.4697 2.39205 9.98008C2.00622 9.16374 1.74868 8.29273 1.62855 7.39783C1.4519 6.46108 1.55816 5.49295 1.9338 4.61683C2.17095 4.22156 2.46059 3.86027 2.7948 3.54283C2.94519 3.37276 3.12905 3.23556 3.33489 3.13981C3.54072 3.04405 3.7641 2.9918 3.99105 2.98633C4.23788 3.01361 4.47683 3.08964 4.69403 3.21002C4.91123 3.3304 5.10235 3.49273 5.2563 3.68758C5.59905 4.06033 6.01755 4.44883 6.36105 4.80733L6.83355 5.27233C7.11105 5.51833 7.2828 5.86183 7.31355 6.23233C7.31355 6.57208 7.1883 6.89983 6.96255 7.15408C6.81635 7.3319 6.66115 7.50212 6.49755 7.66408L6.3453 7.82383C6.2568 7.90633 6.1893 8.00833 6.1473 8.12158C6.1098 8.23308 6.0948 8.34733 6.1023 8.46433C6.22305 8.78758 6.4128 9.08158 6.6573 9.32533C7.03905 9.84283 7.42005 10.2928 7.80855 10.7803C8.51127 11.5961 9.34523 12.2889 10.2761 12.8301C10.3713 12.8998 10.4808 12.9463 10.5971 12.9666C10.6976 12.9741 10.7996 12.9591 10.8941 12.9216C11.1603 12.7648 11.3966 12.5638 11.5946 12.3268C11.8608 12.0008 12.2431 11.7905 12.6611 11.7403C13.0633 11.7459 13.447 11.9103 13.7283 12.1978C13.8806 12.3268 14.0478 12.5023 14.2083 12.6703L14.4363 12.9058L14.6726 13.1346L15.0768 13.5456C15.3178 13.7596 15.5438 13.9883 15.7548 14.2318C15.9663 14.5243 16.0616 14.8866 16.0211 15.2451ZM13.2866 10.0258C13.1355 10.0243 12.991 9.96355 12.8842 9.85671C12.7773 9.74987 12.7166 9.60542 12.7151 9.45433C12.7158 9.02291 12.6315 8.59558 12.4667 8.19685C12.302 7.79812 12.0602 7.43584 11.7551 7.13078C11.45 6.82572 11.0878 6.58389 10.689 6.41916C10.2903 6.25443 9.86297 6.17004 9.43155 6.17083C9.27998 6.17083 9.13462 6.11062 9.02744 6.00344C8.92026 5.89626 8.86005 5.7509 8.86005 5.59933C8.86005 5.44776 8.92026 5.30239 9.02744 5.19522C9.13462 5.08804 9.27998 5.02783 9.43155 5.02783C10.0131 5.02694 10.5891 5.14083 11.1266 5.36296C11.664 5.5851 12.1523 5.91112 12.5635 6.32234C12.9748 6.73355 13.3008 7.22188 13.5229 7.75933C13.7451 8.29678 13.8589 8.87278 13.8581 9.45433C13.8583 9.52943 13.8436 9.60384 13.815 9.67327C13.7863 9.74269 13.7442 9.80577 13.6911 9.85888C13.638 9.91199 13.5749 9.95408 13.5055 9.98273C13.4361 10.0114 13.3617 10.026 13.2866 10.0258Z" fill="#32ABB1"/>
<path d="M15.93 9.75894C15.7791 9.75738 15.6347 9.69677 15.5279 9.59009C15.4211 9.48341 15.3603 9.33914 15.3585 9.18819C15.3597 8.45311 15.2159 7.72502 14.9354 7.04557C14.6549 6.36612 14.2432 5.74865 13.7238 5.22849C13.2044 4.70833 12.5875 4.2957 11.9085 4.01419C11.2295 3.73268 10.5016 3.58784 9.76652 3.58794C9.68977 3.59072 9.61326 3.57801 9.54154 3.55056C9.46982 3.52311 9.40437 3.48149 9.34909 3.42818C9.29382 3.37487 9.24985 3.31097 9.21982 3.24029C9.18979 3.16961 9.17432 3.09361 9.17432 3.01681C9.17432 2.94002 9.18979 2.86401 9.21982 2.79334C9.24985 2.72266 9.29382 2.65876 9.34909 2.60545C9.40437 2.55214 9.46982 2.51052 9.54154 2.48307C9.61326 2.45562 9.68977 2.44291 9.76652 2.44569C10.6516 2.44569 11.528 2.62014 12.3456 2.95908C13.1632 3.29801 13.906 3.79478 14.5315 4.42097C15.157 5.04717 15.653 5.79052 15.991 6.60851C16.329 7.4265 16.5025 8.3031 16.5015 9.18819C16.5017 9.26329 16.4871 9.3377 16.4584 9.40712C16.4298 9.47655 16.3877 9.53963 16.3346 9.59274C16.2815 9.64585 16.2184 9.68794 16.149 9.71659C16.0795 9.74524 16.0051 9.75914 15.93 9.75894Z" fill="#32ABB1"/>
</svg>
