<svg width="31" height="32" viewBox="0 0 31 32" fill="none" xmlns="http://www.w3.org/2000/svg">
<path d="M16.9843 6.37194C17.0163 6.25257 17.0714 6.14066 17.1466 6.0426C17.2218 5.94455 17.3156 5.86227 17.4226 5.80047C17.5296 5.73867 17.6477 5.69856 17.7702 5.68243C17.8927 5.6663 18.0172 5.67447 18.1365 5.70647C19.8802 6.16142 21.4711 7.07296 22.7454 8.34721C24.0196 9.62147 24.9312 11.2124 25.3861 12.9561C25.4181 13.0754 25.4263 13.1999 25.4102 13.3224C25.394 13.4449 25.3539 13.563 25.2921 13.67C25.2303 13.777 25.1481 13.8708 25.05 13.946C24.9519 14.0212 24.84 14.0763 24.7207 14.1083C24.6412 14.1292 24.5594 14.1398 24.4773 14.14C24.27 14.14 24.0686 14.0715 23.9042 13.9452C23.7398 13.819 23.6218 13.6419 23.5684 13.4416C23.1974 12.0182 22.4534 10.7195 21.4133 9.67931C20.3731 8.63915 19.0744 7.8952 17.651 7.52416C17.5315 7.49235 17.4195 7.43731 17.3213 7.36217C17.2231 7.28703 17.1407 7.19327 17.0788 7.08626C17.0169 6.97924 16.9766 6.86107 16.9604 6.7385C16.9442 6.61593 16.9523 6.49137 16.9843 6.37194ZM16.7104 11.2865C18.3317 11.7192 19.3734 12.7609 19.8061 14.3822C19.8595 14.5825 19.9775 14.7595 20.1418 14.8858C20.3062 15.0121 20.5077 15.0806 20.7149 15.0806C20.7971 15.0804 20.8789 15.0698 20.9583 15.0489C21.0777 15.0169 21.1896 14.9618 21.2876 14.8866C21.3857 14.8114 21.468 14.7176 21.5298 14.6106C21.5916 14.5036 21.6317 14.3855 21.6478 14.263C21.6639 14.1405 21.6558 14.016 21.6238 13.8966C21.0218 11.6439 19.4487 10.0708 17.196 9.46882C16.9549 9.40443 16.6982 9.43843 16.4822 9.56334C16.2662 9.68825 16.1087 9.89384 16.0443 10.1349C15.9799 10.3759 16.0139 10.6327 16.1388 10.8486C16.2638 11.0646 16.4693 11.2221 16.7104 11.2865ZM26.3444 22.4971C26.1347 24.0903 25.3523 25.5527 24.1433 26.6111C22.9342 27.6696 21.3812 28.2517 19.7743 28.2488C10.439 28.2488 2.84376 20.6536 2.84376 11.3183C2.84088 9.71137 3.42303 8.15837 4.48148 6.94933C5.53993 5.74029 7.0023 4.95789 8.59546 4.74825C8.99833 4.69905 9.4063 4.78147 9.75848 4.9832C10.1107 5.18493 10.3881 5.49515 10.5495 5.86755L13.0327 11.4111V11.4252C13.1562 11.7103 13.2073 12.0215 13.1812 12.3311C13.1552 12.6407 13.0528 12.939 12.8834 13.1994C12.8622 13.2312 12.8399 13.2606 12.8163 13.29L10.3685 16.1917C11.2491 17.9811 13.1209 19.8365 14.9338 20.7194L17.7956 18.2845C17.8237 18.2608 17.8531 18.2389 17.8838 18.2186C18.1439 18.0451 18.4433 17.9392 18.7547 17.9104C19.0661 17.8817 19.3798 17.9311 19.6674 18.054L19.6826 18.0611L25.2215 20.5431C25.5946 20.7039 25.9056 20.9811 26.108 21.3334C26.3103 21.6856 26.3933 22.0939 26.3444 22.4971ZM24.4773 22.262H24.4644L18.9384 19.7871L16.0755 22.222C16.0478 22.2456 16.0187 22.2676 15.9885 22.2879C15.7178 22.4685 15.4048 22.5758 15.0803 22.5992C14.7557 22.6227 14.4306 22.5616 14.1367 22.4219C11.9345 21.3579 9.73945 19.1792 8.67423 17.0006C8.53318 16.7088 8.46988 16.3856 8.49048 16.0622C8.51108 15.7388 8.61487 15.4262 8.7918 15.1547C8.81169 15.1228 8.83411 15.0925 8.85882 15.0641L11.3091 12.1589L8.84001 6.63295C8.83954 6.62826 8.83954 6.62353 8.84001 6.61884C7.69985 6.76757 6.653 7.32683 5.89551 8.19187C5.13803 9.05692 4.72186 10.1684 4.72494 11.3183C4.72929 15.3083 6.31625 19.1336 9.13762 21.955C11.959 24.7763 15.7843 26.3633 19.7743 26.3677C20.9235 26.3716 22.0347 25.9569 22.9002 25.201C23.7658 24.4452 24.3264 23.4 24.4773 22.2608V22.262Z" fill="white"/>
</svg>
