<svg width="25" height="26" viewBox="0 0 25 26" fill="none" xmlns="http://www.w3.org/2000/svg">
<path d="M19.3682 16.1754C19.4561 16.201 19.5449 16.2132 19.6321 16.2132C20.0412 16.2132 20.418 15.9451 20.538 15.5326C20.7672 14.7442 20.8834 13.9251 20.8834 13.0982C20.8834 12.5769 20.4608 12.1543 19.9395 12.1543C19.4182 12.1543 18.9956 12.5769 18.9956 13.0982C18.9956 13.7468 18.9047 14.3885 18.7253 15.0056C18.5798 15.5061 18.8676 16.0299 19.3682 16.1754Z" fill="white"/>
<path d="M23.9101 23.5205L1.63473 1.2452C1.26615 0.876575 0.668538 0.876622 0.299909 1.2452C-0.0687197 1.61379 -0.0687197 2.2114 0.299909 2.58003L7.14967 9.42979V13.0975C7.14967 15.8298 9.37263 18.0528 12.105 18.0528C13.117 18.0528 14.0869 17.7493 14.9061 17.1862L16.2757 18.5558C15.0926 19.4541 13.6578 19.9405 12.1522 19.9405C12.1443 19.9405 12.1364 19.9406 12.1286 19.9408C12.1208 19.9406 12.1129 19.9405 12.105 19.9405C8.33173 19.9405 5.26193 16.8707 5.26193 13.0975C5.26193 12.5762 4.83936 12.1536 4.31806 12.1536C3.79676 12.1536 3.37419 12.5762 3.37419 13.0975C3.37419 17.5928 6.78916 21.3055 11.1611 21.7776V23.2441H8.3767C7.8554 23.2441 7.43283 23.6667 7.43283 24.188C7.43283 24.7093 7.8554 25.1318 8.3767 25.1318H15.9277C16.449 25.1318 16.8715 24.7093 16.8715 24.188C16.8715 23.6667 16.449 23.2441 15.9277 23.2441H13.0489V21.7828C14.7273 21.6119 16.3052 20.9621 17.6204 19.9005L22.5753 24.8554C22.7595 25.0397 23.0011 25.1318 23.2427 25.1318C23.4842 25.1318 23.7258 25.0397 23.9101 24.8554C24.2787 24.4868 24.2787 23.8891 23.9101 23.5205ZM12.105 16.1651C10.4135 16.1651 9.03741 14.7889 9.03741 13.0975V11.3175L13.5333 15.8134C13.0976 16.0431 12.6098 16.1651 12.105 16.1651Z" fill="white"/>
<path d="M8.08556 4.87468C8.54862 5.11414 9.1181 4.93301 9.35761 4.46999C9.87244 3.47477 10.9256 2.85649 12.106 2.85649C13.7974 2.85649 15.1736 4.23261 15.1736 5.92407V11.7289C15.1736 12.2502 15.5961 12.6727 16.1174 12.6727C16.6387 12.6727 17.0613 12.2502 17.0613 11.7289V5.92407C17.0613 3.19171 14.8383 0.96875 12.106 0.96875C10.217 0.96875 8.52134 1.97798 7.68092 3.60267C7.44141 4.06568 7.62259 4.63517 8.08556 4.87468Z" fill="white"/>
</svg>
