<svg width="17" height="17" viewBox="0 0 17 17" fill="none" xmlns="http://www.w3.org/2000/svg">
<g clip-path="url(#clip0_170_21354)">
<path d="M3.02344 0.96875C2.75822 0.96875 2.50387 1.07411 2.31633 1.26164C2.12879 1.44918 2.02344 1.70353 2.02344 1.96875V15.9688C2.02344 16.234 2.12879 16.4883 2.31633 16.6759C2.50387 16.8634 2.75822 16.9688 3.02344 16.9688H6.02344V13.4688C6.02344 13.3361 6.07612 13.209 6.16988 13.1152C6.26365 13.0214 6.39083 12.9688 6.52344 12.9688H9.52344C9.65605 12.9688 9.78322 13.0214 9.87699 13.1152C9.97076 13.209 10.0234 13.3361 10.0234 13.4688V16.9688H13.0234C13.2887 16.9688 13.543 16.8634 13.7305 16.6759C13.9181 16.4883 14.0234 16.234 14.0234 15.9688V1.96875C14.0234 1.70353 13.9181 1.44918 13.7305 1.26164C13.543 1.07411 13.2887 0.96875 13.0234 0.96875H3.02344ZM4.02344 3.46875C4.02344 3.33614 4.07612 3.20896 4.16988 3.1152C4.26365 3.02143 4.39083 2.96875 4.52344 2.96875H5.52344C5.65605 2.96875 5.78322 3.02143 5.87699 3.1152C5.97076 3.20896 6.02344 3.33614 6.02344 3.46875V4.46875C6.02344 4.60136 5.97076 4.72854 5.87699 4.8223C5.78322 4.91607 5.65605 4.96875 5.52344 4.96875H4.52344C4.39083 4.96875 4.26365 4.91607 4.16988 4.8223C4.07612 4.72854 4.02344 4.60136 4.02344 4.46875V3.46875ZM7.02344 3.46875C7.02344 3.33614 7.07612 3.20896 7.16988 3.1152C7.26365 3.02143 7.39083 2.96875 7.52344 2.96875H8.52344C8.65605 2.96875 8.78322 3.02143 8.87699 3.1152C8.97076 3.20896 9.02344 3.33614 9.02344 3.46875V4.46875C9.02344 4.60136 8.97076 4.72854 8.87699 4.8223C8.78322 4.91607 8.65605 4.96875 8.52344 4.96875H7.52344C7.39083 4.96875 7.26365 4.91607 7.16988 4.8223C7.07612 4.72854 7.02344 4.60136 7.02344 4.46875V3.46875ZM10.5234 2.96875H11.5234C11.656 2.96875 11.7832 3.02143 11.877 3.1152C11.9708 3.20896 12.0234 3.33614 12.0234 3.46875V4.46875C12.0234 4.60136 11.9708 4.72854 11.877 4.8223C11.7832 4.91607 11.656 4.96875 11.5234 4.96875H10.5234C10.3908 4.96875 10.2637 4.91607 10.1699 4.8223C10.0761 4.72854 10.0234 4.60136 10.0234 4.46875V3.46875C10.0234 3.33614 10.0761 3.20896 10.1699 3.1152C10.2637 3.02143 10.3908 2.96875 10.5234 2.96875ZM4.02344 6.46875C4.02344 6.33614 4.07612 6.20896 4.16988 6.1152C4.26365 6.02143 4.39083 5.96875 4.52344 5.96875H5.52344C5.65605 5.96875 5.78322 6.02143 5.87699 6.1152C5.97076 6.20896 6.02344 6.33614 6.02344 6.46875V7.46875C6.02344 7.60136 5.97076 7.72854 5.87699 7.8223C5.78322 7.91607 5.65605 7.96875 5.52344 7.96875H4.52344C4.39083 7.96875 4.26365 7.91607 4.16988 7.8223C4.07612 7.72854 4.02344 7.60136 4.02344 7.46875V6.46875ZM7.52344 5.96875H8.52344C8.65605 5.96875 8.78322 6.02143 8.87699 6.1152C8.97076 6.20896 9.02344 6.33614 9.02344 6.46875V7.46875C9.02344 7.60136 8.97076 7.72854 8.87699 7.8223C8.78322 7.91607 8.65605 7.96875 8.52344 7.96875H7.52344C7.39083 7.96875 7.26365 7.91607 7.16988 7.8223C7.07612 7.72854 7.02344 7.60136 7.02344 7.46875V6.46875C7.02344 6.33614 7.07612 6.20896 7.16988 6.1152C7.26365 6.02143 7.39083 5.96875 7.52344 5.96875ZM10.0234 6.46875C10.0234 6.33614 10.0761 6.20896 10.1699 6.1152C10.2637 6.02143 10.3908 5.96875 10.5234 5.96875H11.5234C11.656 5.96875 11.7832 6.02143 11.877 6.1152C11.9708 6.20896 12.0234 6.33614 12.0234 6.46875V7.46875C12.0234 7.60136 11.9708 7.72854 11.877 7.8223C11.7832 7.91607 11.656 7.96875 11.5234 7.96875H10.5234C10.3908 7.96875 10.2637 7.91607 10.1699 7.8223C10.0761 7.72854 10.0234 7.60136 10.0234 7.46875V6.46875ZM4.52344 8.96875H5.52344C5.65605 8.96875 5.78322 9.02143 5.87699 9.1152C5.97076 9.20896 6.02344 9.33614 6.02344 9.46875V10.4688C6.02344 10.6014 5.97076 10.7285 5.87699 10.8223C5.78322 10.9161 5.65605 10.9688 5.52344 10.9688H4.52344C4.39083 10.9688 4.26365 10.9161 4.16988 10.8223C4.07612 10.7285 4.02344 10.6014 4.02344 10.4688V9.46875C4.02344 9.33614 4.07612 9.20896 4.16988 9.1152C4.26365 9.02143 4.39083 8.96875 4.52344 8.96875ZM7.02344 9.46875C7.02344 9.33614 7.07612 9.20896 7.16988 9.1152C7.26365 9.02143 7.39083 8.96875 7.52344 8.96875H8.52344C8.65605 8.96875 8.78322 9.02143 8.87699 9.1152C8.97076 9.20896 9.02344 9.33614 9.02344 9.46875V10.4688C9.02344 10.6014 8.97076 10.7285 8.87699 10.8223C8.78322 10.9161 8.65605 10.9688 8.52344 10.9688H7.52344C7.39083 10.9688 7.26365 10.9161 7.16988 10.8223C7.07612 10.7285 7.02344 10.6014 7.02344 10.4688V9.46875ZM10.5234 8.96875H11.5234C11.656 8.96875 11.7832 9.02143 11.877 9.1152C11.9708 9.20896 12.0234 9.33614 12.0234 9.46875V10.4688C12.0234 10.6014 11.9708 10.7285 11.877 10.8223C11.7832 10.9161 11.656 10.9688 11.5234 10.9688H10.5234C10.3908 10.9688 10.2637 10.9161 10.1699 10.8223C10.0761 10.7285 10.0234 10.6014 10.0234 10.4688V9.46875C10.0234 9.33614 10.0761 9.20896 10.1699 9.1152C10.2637 9.02143 10.3908 8.96875 10.5234 8.96875Z" fill="url(#paint0_linear_170_21354)"/>
</g>
<defs>
<linearGradient id="paint0_linear_170_21354" x1="2.02344" y1="8.96875" x2="14.0234" y2="8.96875" gradientUnits="userSpaceOnUse">
<stop stop-color="#32ABB1"/>
<stop offset="1" stop-color="#3286BD"/>
</linearGradient>
<clipPath id="clip0_170_21354">
<rect width="16" height="16" fill="white" transform="translate(0.0234375 0.96875)"/>
</clipPath>
</defs>
</svg>
