<svg width="33" height="32" viewBox="0 0 33 32" fill="none" xmlns="http://www.w3.org/2000/svg">
<path d="M10.6411 3.38719C8.97705 2.96479 7.23305 3.14399 5.86665 3.90879C4.47465 4.68639 3.49865 6.06559 3.45065 7.91039C3.37705 10.7936 4.04425 14.6624 6.69385 19.2032C9.30985 23.688 12.1979 26.376 14.5947 27.9728C16.1083 28.9824 17.7803 29.0096 19.2091 28.352C20.6171 27.704 21.7595 26.4096 22.3531 24.8048C22.5006 24.4056 22.5598 23.9792 22.5267 23.5549C22.4935 23.1307 22.3688 22.7186 22.1611 22.3472L20.6347 19.624C20.1654 18.7859 19.4103 18.1446 18.5072 17.8173C17.6042 17.49 16.6135 17.4987 15.7163 17.8416L14.6507 18.2496C14.1339 18.4464 13.6587 18.3552 13.3899 18.0896C12.4859 17.2016 11.8395 15.9968 11.5467 14.6976C11.4539 14.288 11.6427 13.8048 12.0939 13.464L13.0555 12.7376C13.8329 12.151 14.3695 11.3009 14.5648 10.3468C14.7601 9.39267 14.6006 8.40009 14.1163 7.55519L12.5611 4.84319C12.3549 4.4842 12.0788 4.17031 11.7489 3.92019C11.4191 3.67006 11.0423 3.48881 10.6411 3.38719ZM5.05065 7.95359C5.08265 6.71519 5.70985 5.83039 6.64745 5.30559C7.61065 4.76639 8.92585 4.60159 10.2475 4.93759C10.4411 4.9865 10.6229 5.0739 10.7821 5.19458C10.9412 5.31525 11.0745 5.46673 11.1739 5.63999L12.7275 8.35199C13.018 8.85872 13.1138 9.45403 12.9969 10.0263C12.88 10.5986 12.5583 11.1087 12.0923 11.4608L11.1307 12.1872C10.2987 12.8144 9.72265 13.8896 9.98505 15.0496C10.3403 16.6208 11.1259 18.1104 12.2683 19.232C13.1035 20.0512 14.2939 20.0992 15.2219 19.744L16.2875 19.336C16.8258 19.1299 17.4204 19.1245 17.9625 19.3208C18.5045 19.517 18.9578 19.9018 19.2395 20.4048L20.7643 23.1296C20.9563 23.472 20.9883 23.8816 20.8523 24.2496C20.3883 25.5056 19.5163 26.448 18.5403 26.8976C17.5851 27.3376 16.5051 27.3248 15.4827 26.6416C13.2891 25.1792 10.5707 22.672 8.07465 18.3968C5.57705 14.1088 4.98505 10.5344 5.05225 7.95359M19.3851 13.6016C19.3851 13.8138 19.3008 14.0173 19.1507 14.1673C19.0007 14.3173 18.7972 14.4016 18.5851 14.4016C18.3729 14.4016 18.1694 14.3173 18.0194 14.1673C17.8693 14.0173 17.7851 13.8138 17.7851 13.6016C17.7851 13.3894 17.8693 13.1859 18.0194 13.0359C18.1694 12.8859 18.3729 12.8016 18.5851 12.8016C18.7972 12.8016 19.0007 12.8859 19.1507 13.0359C19.3008 13.1859 19.3851 13.3894 19.3851 13.6016ZM20.9851 12.0016C20.9851 12.2138 20.9008 12.4172 20.7507 12.5673C20.6007 12.7173 20.3972 12.8016 20.1851 12.8016C19.9729 12.8016 19.7694 12.7173 19.6194 12.5673C19.4693 12.4172 19.3851 12.2138 19.3851 12.0016C19.3851 11.7894 19.4693 11.5859 19.6194 11.4359C19.7694 11.2859 19.9729 11.2016 20.1851 11.2016C20.3972 11.2016 20.6007 11.2859 20.7507 11.4359C20.9008 11.5859 20.9851 11.7894 20.9851 12.0016ZM22.5851 10.4016C22.5851 10.6138 22.5008 10.8172 22.3507 10.9673C22.2007 11.1173 21.9972 11.2016 21.7851 11.2016C21.5729 11.2016 21.3694 11.1173 21.2194 10.9673C21.0693 10.8172 20.9851 10.6138 20.9851 10.4016C20.9851 10.1894 21.0693 9.98594 21.2194 9.83591C21.3694 9.68588 21.5729 9.60159 21.7851 9.60159C21.9972 9.60159 22.2007 9.68588 22.3507 9.83591C22.5008 9.98594 22.5851 10.1894 22.5851 10.4016ZM28.1851 12.8016C27.9729 12.8016 27.7694 12.7173 27.6194 12.5673C27.4693 12.4172 27.3851 12.2138 27.3851 12.0016V5.92959L23.9515 9.36479C23.8772 9.43917 23.789 9.4982 23.6919 9.53849C23.5948 9.57879 23.4907 9.59956 23.3856 9.59964C23.2805 9.59971 23.1764 9.57908 23.0793 9.53892C22.9821 9.49877 22.8938 9.43987 22.8195 9.36559C22.7451 9.29132 22.6861 9.20312 22.6458 9.10603C22.6055 9.00895 22.5847 8.90488 22.5846 8.79976C22.5845 8.69464 22.6052 8.59054 22.6453 8.4934C22.6855 8.39626 22.7444 8.30797 22.8187 8.23359L26.2539 4.79839H20.1851C19.9729 4.79839 19.7694 4.71411 19.6194 4.56408C19.4693 4.41405 19.3851 4.21057 19.3851 3.99839C19.3851 3.78622 19.4693 3.58274 19.6194 3.43271C19.7694 3.28268 19.9729 3.19839 20.1851 3.19839H28.1851C28.3972 3.19839 28.6007 3.28268 28.7507 3.43271C28.9008 3.58274 28.9851 3.78622 28.9851 3.99839V11.9984C28.9851 12.2106 28.9008 12.414 28.7507 12.5641C28.6007 12.7141 28.3972 12.7984 28.1851 12.7984" fill="#4B5563"/>
</svg>
