<svg width="31" height="31" viewBox="0 0 31 31" fill="none" xmlns="http://www.w3.org/2000/svg">
<path d="M8.93915 16.1474L15.9645 23.1728C16.0902 23.2985 16.1561 23.4466 16.1621 23.6171C16.1673 23.7876 16.0984 23.9439 15.9555 24.086C15.8143 24.2238 15.6623 24.294 15.4995 24.2965C15.3376 24.2983 15.1852 24.2281 15.0423 24.086L7.18894 16.2327C7.07613 16.119 6.99691 16.0036 6.95127 15.8865C6.90563 15.7694 6.88281 15.6411 6.88281 15.5016C6.88281 15.3621 6.90563 15.2338 6.95127 15.1167C6.99691 14.9996 7.07613 14.8846 7.18894 14.7718L15.0423 6.91717C15.1628 6.79661 15.3096 6.73203 15.4827 6.72342C15.6567 6.7148 15.8147 6.77939 15.9568 6.91717C16.0989 7.05925 16.1699 7.21253 16.1699 7.377C16.1699 7.54233 16.0989 7.69604 15.9568 7.83812L8.93785 14.8557H23.8954C24.0796 14.8557 24.2333 14.9173 24.3565 15.0405C24.4796 15.1636 24.5412 15.3173 24.5412 15.5016C24.5412 15.6859 24.4796 15.8396 24.3565 15.9627C24.2333 16.0858 24.0796 16.1474 23.8954 16.1474H8.93915Z" fill="black"/>
</svg>
