<svg width="21" height="21" viewBox="0 0 21 21" fill="none" xmlns="http://www.w3.org/2000/svg">
<path d="M10.6073 0.65625C5.09337 0.65625 0.607422 5.14211 0.607422 10.656C0.607422 16.1702 5.09337 20.6562 10.6073 20.6562C16.1212 20.6562 20.607 16.1701 20.607 10.656C20.607 5.14211 16.1212 0.65625 10.6073 0.65625ZM10.6073 19.2228C5.8838 19.2228 2.04091 15.3797 2.04091 10.656C2.04091 5.93253 5.8838 2.08974 10.6073 2.08974C15.3308 2.08974 19.1736 5.93253 19.1736 10.656C19.1736 15.3797 15.3308 19.2228 10.6073 19.2228Z" fill="url(#paint0_linear_2352_7244)"/>
<path d="M15.7491 10.4886H11.0498V5.35178C11.0498 4.95594 10.729 4.63503 10.3331 4.63503C9.93722 4.63503 9.61631 4.95594 9.61631 5.35178V11.2054C9.61631 11.6012 9.93722 11.9221 10.3331 11.9221H15.7491C16.1451 11.9221 16.4659 11.6012 16.4659 11.2054C16.4659 10.8095 16.145 10.4886 15.7491 10.4886Z" fill="url(#paint1_linear_2352_7244)"/>
<defs>
<linearGradient id="paint0_linear_2352_7244" x1="20.1973" y1="27.8876" x2="0.540966" y2="26.8358" gradientUnits="userSpaceOnUse">
<stop stop-color="#32ABB1"/>
<stop offset="0.990045" stop-color="#3286BD"/>
</linearGradient>
<linearGradient id="paint1_linear_2352_7244" x1="20.1973" y1="27.8876" x2="0.540966" y2="26.8358" gradientUnits="userSpaceOnUse">
<stop stop-color="#32ABB1"/>
<stop offset="0.990045" stop-color="#3286BD"/>
</linearGradient>
</defs>
</svg>
