<svg width="12" height="12" viewBox="0 0 12 12" fill="none" xmlns="http://www.w3.org/2000/svg">
<path d="M6.8656 6.37785L11.5808 1.66261C11.7628 1.48685 11.7679 1.19685 11.5921 1.01486C11.4164 0.832874 11.1264 0.827828 10.9444 1.00359C10.9406 1.00727 10.9368 1.01102 10.9331 1.01486L6.21783 5.7301L1.50259 1.01484C1.3206 0.839075 1.0306 0.844121 0.854839 1.02611C0.683373 1.20364 0.683373 1.48508 0.854839 1.66261L5.57008 6.37785L0.854839 11.0931C0.675991 11.272 0.675991 11.562 0.854839 11.7408C1.03371 11.9197 1.32371 11.9197 1.50259 11.7408L6.21783 7.0256L10.9331 11.7408C11.1151 11.9166 11.4051 11.9116 11.5808 11.7296C11.7523 11.552 11.7523 11.2706 11.5808 11.0931L6.8656 6.37785Z" fill="#677294"/>
</svg>
