<svg width="66" height="66" viewBox="0 0 66 66" fill="none" xmlns="http://www.w3.org/2000/svg">
<circle cx="33" cy="33" r="33" fill="#E84236"/>
<g clip-path="url(#clip0_1169_1939)">
<path d="M17.7958 37.3081L23.1074 37.2426C24.2438 37.2253 25.1893 36.9588 25.2462 35.7636L25.435 33.4415C25.4396 31.5141 26.5427 31.0674 28.0212 30.7891L37.7931 31.0088C38.9294 30.9915 39.6912 31.634 39.6343 32.8292L39.4499 36.1148C39.3985 37.3126 40.339 37.5578 41.4753 37.5405L47.0022 37.2283C48.1385 37.211 48.7931 36.3948 48.85 35.1996C48.9584 32.8066 48.4341 30.539 47.0136 28.561C45.2754 26.1477 41.6951 25.2784 40.1962 24.8995C38.6972 24.5206 35.855 24.3161 32.8271 24.3522C29.7937 24.3857 27.3613 24.5193 25.8218 24.9426C24.2849 25.3605 20.2256 26.1906 18.2594 28.6447C16.652 30.6588 15.9691 33.3245 15.8607 35.7175C15.7848 36.9105 16.6565 37.3173 17.7958 37.3081Z" fill="white"/>
</g>
<defs>
<clipPath id="clip0_1169_1939">
<rect width="30.9773" height="30.9773" fill="white" transform="translate(54.1602 27.3359) rotate(120)"/>
</clipPath>
</defs>
</svg>
