<svg width="18" height="18" viewBox="0 0 18 18" fill="none" xmlns="http://www.w3.org/2000/svg">
<path d="M5.4 1.8V16.2H1.8V1.8H5.4ZM5.4 0H1.8C1.32261 0 0.864773 0.189642 0.527208 0.527208C0.189642 0.864773 0 1.32261 0 1.8V16.2C0 16.6774 0.189642 17.1352 0.527208 17.4728C0.864773 17.8104 1.32261 18 1.8 18H5.4C5.87739 18 6.33523 17.8104 6.67279 17.4728C7.01036 17.1352 7.2 16.6774 7.2 16.2V1.8C7.2 1.32261 7.01036 0.864773 6.67279 0.527208C6.33523 0.189642 5.87739 0 5.4 0ZM16.2 1.8V16.2H12.6V1.8H16.2ZM16.2 0H12.6C12.1226 0 11.6648 0.189642 11.3272 0.527208C10.9896 0.864773 10.8 1.32261 10.8 1.8V16.2C10.8 16.6774 10.9896 17.1352 11.3272 17.4728C11.6648 17.8104 12.1226 18 12.6 18H16.2C16.6774 18 17.1352 17.8104 17.4728 17.4728C17.8104 17.1352 18 16.6774 18 16.2V1.8C18 1.32261 17.8104 0.864773 17.4728 0.527208C17.1352 0.189642 16.6774 0 16.2 0Z" fill="#4B5563"/>
</svg>
