<svg width="81" height="74" viewBox="0 0 81 74" fill="none" xmlns="http://www.w3.org/2000/svg">
<rect x="0.5" y="-0.5" width="80" height="72" rx="14.5" transform="matrix(1 0 0 -1 0 72.5)" fill="white" fill-opacity="0.72" stroke="url(#paint0_linear_2359_10654)"/>
<circle cx="40.5" cy="37" r="25.5" fill="#D93025"/>
<path d="M48.2239 32.5158C50.3034 33.3859 51.1882 35.7845 50.5536 38.2363C50.4409 38.6716 50.1673 39.0486 49.7887 39.2905C49.4101 39.5323 48.9551 39.6207 48.5164 39.5377L46.3563 39.1297C46.0088 39.064 45.6897 38.8954 45.4398 38.6456C45.1898 38.3958 45.0205 38.0761 44.9535 37.7276L44.364 34.6596C44.3351 34.5081 44.2674 34.3671 44.1675 34.2503C44.0677 34.1335 43.9391 34.045 43.7945 33.9935L43.7051 33.963L43.4778 33.8913C43.2848 33.8333 43.0102 33.7558 42.6739 33.6773C42.006 33.521 41.0801 33.3572 40.0679 33.3365C39.0556 33.3158 38.1213 33.4412 37.4459 33.5695C37.0942 33.6367 36.7453 33.718 36.3999 33.8132L36.3067 33.8401C36.1598 33.886 36.027 33.9691 35.9211 34.0815C35.8152 34.1938 35.7399 34.3316 35.7025 34.4813L34.9402 37.5216C34.8535 37.8669 34.6662 38.1792 34.4024 38.4184C34.1386 38.6576 33.8102 38.8127 33.4594 38.8639L31.2678 39.1847C30.3551 39.3191 29.5017 38.7165 29.3204 37.8107C28.8243 35.3349 29.8527 32.9747 31.9845 32.1973C34.6015 31.2475 37.3663 30.7873 40.1412 30.8396C42.9207 30.8827 45.6623 31.451 48.2239 32.5158ZM42.7194 35.5321L43.2084 38.0789C43.3424 38.776 43.6811 39.4153 44.181 39.9149C44.6808 40.4145 45.3191 40.7517 46.014 40.883L48.1745 41.2903C49.057 41.4571 49.9723 41.2791 50.7338 40.7928C51.4953 40.3064 52.0456 39.5482 52.2727 38.6727C53.0604 35.6281 52.0367 32.1725 48.9188 30.8687C46.1512 29.7174 43.1882 29.102 40.1849 29.0548C37.1924 28.9987 34.2107 29.4952 31.3885 30.5197C28.1942 31.6869 26.9594 35.0966 27.5774 38.1758C27.7535 39.0568 28.2585 39.8345 28.9893 40.3501C29.72 40.8656 30.6213 41.0801 31.5093 40.9497L33.7009 40.6289C34.4026 40.5265 35.0595 40.2162 35.5873 39.7377C36.1151 39.2592 36.4897 38.6344 36.663 37.9434L37.2955 35.4201C37.4502 35.3843 37.6055 35.3516 37.7614 35.3221C38.505 35.1778 39.2607 35.11 40.0167 35.1198C40.7726 35.141 41.5238 35.2397 42.2586 35.4143C42.4127 35.4502 42.5661 35.4894 42.7186 35.5316" fill="white"/>
<defs>
<linearGradient id="paint0_linear_2359_10654" x1="79.3405" y1="99.3943" x2="-0.216635" y2="94.6709" gradientUnits="userSpaceOnUse">
<stop stop-color="#32ABB1"/>
<stop offset="0.990045" stop-color="#3286BD"/>
</linearGradient>
</defs>
</svg>
