<svg width="29" height="29" viewBox="0 0 29 29" fill="none" xmlns="http://www.w3.org/2000/svg">
<path fill-rule="evenodd" clip-rule="evenodd" d="M14.9647 4.28906C12.2573 4.28906 9.66073 5.36458 7.7463 7.27901C5.83187 9.19345 4.75635 11.79 4.75635 14.4974V20.6224C4.75635 21.3186 5.03291 21.9863 5.52519 22.4786C6.01748 22.9708 6.68515 23.2474 7.38135 23.2474H8.54801C9.24421 23.2474 9.91189 22.9708 10.4042 22.4786C10.8965 21.9863 11.173 21.3186 11.173 20.6224V16.5391C11.173 15.8429 10.8965 15.1752 10.4042 14.6829C9.91189 14.1906 9.24421 13.9141 8.54801 13.9141H7.38135C7.07646 13.9156 6.78868 13.9642 6.51801 14.0599C6.63176 11.8965 7.57128 9.85917 9.14287 8.36805C10.7144 6.87692 12.7983 6.04566 14.9647 6.04566C17.1311 6.04566 19.2149 6.87692 20.7865 8.36805C22.3581 9.85917 23.2976 11.8965 23.4113 14.0599C23.1335 13.9643 22.8418 13.9151 22.548 13.9141H21.3813C20.6852 13.9141 20.0175 14.1906 19.5252 14.6829C19.0329 15.1752 18.7563 15.8429 18.7563 16.5391V20.6224C18.7563 21.3186 19.0329 21.9863 19.5252 22.4786C20.0175 22.9708 20.6852 23.2474 21.3813 23.2474H22.548C23.2442 23.2474 23.9119 22.9708 24.4042 22.4786C24.8965 21.9863 25.173 21.3186 25.173 20.6224V14.4974C25.173 13.1568 24.909 11.8294 24.396 10.5908C23.8829 9.3523 23.131 8.22695 22.1831 7.27901C21.2351 6.33108 20.1098 5.57914 18.8712 5.06613C17.6327 4.55311 16.3053 4.28906 14.9647 4.28906ZM23.423 16.5227V20.6224C23.423 20.8545 23.3308 21.077 23.1667 21.2411C23.0026 21.4052 22.7801 21.4974 22.548 21.4974H21.3813C21.1493 21.4974 20.9267 21.4052 20.7626 21.2411C20.5985 21.077 20.5063 20.8545 20.5063 20.6224V16.5391C20.5063 16.307 20.5985 16.0844 20.7626 15.9203C20.9267 15.7563 21.1493 15.6641 21.3813 15.6641H22.548C22.7773 15.664 22.9974 15.754 23.161 15.9145C23.3247 16.0751 23.4187 16.2935 23.423 16.5227ZM8.54801 15.6641C8.78008 15.6641 9.00264 15.7563 9.16673 15.9203C9.33083 16.0844 9.42301 16.307 9.42301 16.5391V20.6224C9.42301 20.8545 9.33083 21.077 9.16673 21.2411C9.00264 21.4052 8.78008 21.4974 8.54801 21.4974H7.38135C7.14928 21.4974 6.92672 21.4052 6.76263 21.2411C6.59853 21.077 6.50635 20.8545 6.50635 20.6224V16.5391C6.50635 16.307 6.59853 16.0844 6.76263 15.9203C6.92672 15.7563 7.14928 15.6641 7.38135 15.6641H8.54801Z" fill="#8D8D8D"/>
</svg>
