<svg width="25" height="24" viewBox="0 0 25 24" fill="none" xmlns="http://www.w3.org/2000/svg">
<path d="M2.25 2L22.25 22" stroke="#4B5563" stroke-width="1.5" stroke-linecap="round" stroke-linejoin="round"/>
<path d="M19.1406 13.23C19.2128 12.824 19.2497 12.4124 19.2506 12V10" stroke="#4B5563" stroke-width="1.5" stroke-linecap="round" stroke-linejoin="round"/>
<path d="M5.24879 10V12C5.22844 13.3992 5.62791 14.7723 6.39562 15.9422C7.16334 17.1121 8.26406 18.0251 9.55574 18.5633C10.8474 19.1015 12.2707 19.2402 13.642 18.9616C15.0133 18.6829 16.2696 17.9997 17.2488 17" stroke="#4B5563" stroke-width="1.5" stroke-linecap="round" stroke-linejoin="round"/>
<path d="M15.2503 9.33755V4.99755C15.2463 4.32392 15.0156 3.67126 14.5955 3.14467C14.1754 2.61809 13.5902 2.24822 12.9343 2.09464C12.2784 1.94105 11.5899 2.01269 10.9797 2.29802C10.3695 2.58335 9.87302 3.06575 9.57031 3.66755" stroke="#4B5563" stroke-width="1.5" stroke-linecap="round" stroke-linejoin="round"/>
<path d="M9.25 9V12C9.25052 12.593 9.42675 13.1725 9.75643 13.6653C10.0861 14.1582 10.5545 14.5423 11.1023 14.7691C11.6502 14.996 12.2529 15.0554 12.8345 14.9399C13.4161 14.8243 13.9505 14.539 14.37 14.12" stroke="#4B5563" stroke-width="1.5" stroke-linecap="round" stroke-linejoin="round"/>
<path d="M12.25 19V22" stroke="#4B5563" stroke-width="1.5" stroke-linecap="round" stroke-linejoin="round"/>
</svg>
