<svg width="25" height="25" viewBox="0 0 25 25" fill="none" xmlns="http://www.w3.org/2000/svg">
<path d="M19.8916 15.9987C19.9796 16.0242 20.0683 16.0364 20.1555 16.0364C20.5646 16.0364 20.9415 15.7684 21.0614 15.3558C21.2906 14.5674 21.4068 13.7484 21.4068 12.9214C21.4068 12.4001 20.9842 11.9775 20.4629 11.9775C19.9416 11.9775 19.5191 12.4001 19.5191 12.9214C19.5191 13.57 19.4281 14.2118 19.2487 14.8288C19.1032 15.3294 19.391 15.8532 19.8916 15.9987Z" fill="url(#paint0_linear_570_950)"/>
<path d="M24.4335 23.3448L2.15817 1.06942C1.78959 0.700794 1.19198 0.700841 0.823346 1.06942C0.454718 1.438 0.454718 2.03562 0.823346 2.40424L7.67311 9.25401V12.9217C7.67311 15.6541 9.89607 17.877 12.6284 17.877C13.6404 17.877 14.6104 17.5735 15.4296 17.0105L16.7991 18.38C15.6161 19.2783 14.1813 19.7648 12.6756 19.7648C12.6677 19.7648 12.6599 19.7649 12.652 19.765C12.6442 19.7649 12.6363 19.7648 12.6284 19.7648C8.85517 19.7648 5.78537 16.695 5.78537 12.9217C5.78537 12.4004 5.3628 11.9778 4.8415 11.9778C4.3202 11.9778 3.89763 12.4004 3.89763 12.9217C3.89763 17.417 7.3126 21.1297 11.6846 21.6018V23.0683H8.90014C8.37884 23.0683 7.95627 23.4909 7.95627 24.0122C7.95627 24.5335 8.37884 24.956 8.90014 24.956H16.4511C16.9724 24.956 17.395 24.5335 17.395 24.0122C17.395 23.4909 16.9724 23.0683 16.4511 23.0683H13.5723V21.6071C15.2507 21.4361 16.8286 20.7864 18.1438 19.7247L23.0987 24.6796C23.283 24.8639 23.5245 24.956 23.7661 24.956C24.0077 24.956 24.2492 24.8639 24.4335 24.6796C24.8021 24.311 24.8021 23.7133 24.4335 23.3448ZM12.6284 15.9893C10.937 15.9893 9.56085 14.6132 9.56085 12.9217V11.1417L14.0567 15.6376C13.621 15.8673 13.1332 15.9893 12.6284 15.9893Z" fill="url(#paint1_linear_570_950)"/>
<path d="M8.60899 4.69889C9.07206 4.93835 9.64154 4.75723 9.88105 4.29421C10.3959 3.29899 11.449 2.68071 12.6294 2.68071C14.3209 2.68071 15.697 4.05683 15.697 5.74829V11.5531C15.697 12.0744 16.1196 12.497 16.6409 12.497C17.1622 12.497 17.5847 12.0744 17.5847 11.5531V5.74829C17.5847 3.01593 15.3618 0.792969 12.6294 0.792969C10.7404 0.792969 9.04478 1.8022 8.20436 3.42689C7.96485 3.8899 8.14602 4.45939 8.60899 4.69889Z" fill="url(#paint2_linear_570_950)"/>
<defs>
<linearGradient id="paint0_linear_570_950" x1="21.3618" y1="17.504" x2="19.1993" y2="17.4414" gradientUnits="userSpaceOnUse">
<stop stop-color="#32ABB1"/>
<stop offset="0.990045" stop-color="#3286BD"/>
</linearGradient>
<linearGradient id="paint1_linear_570_950" x1="24.2149" y1="33.6926" x2="0.466587" y2="32.4219" gradientUnits="userSpaceOnUse">
<stop stop-color="#32ABB1"/>
<stop offset="0.990045" stop-color="#3286BD"/>
</linearGradient>
<linearGradient id="paint2_linear_570_950" x1="17.3904" y1="16.7287" x2="8.05797" y2="16.324" gradientUnits="userSpaceOnUse">
<stop stop-color="#32ABB1"/>
<stop offset="0.990045" stop-color="#3286BD"/>
</linearGradient>
</defs>
</svg>
