<svg width="28" height="28" viewBox="0 0 28 28" fill="none" xmlns="http://www.w3.org/2000/svg">
<circle cx="14.1074" cy="14.1562" r="13" fill="white" stroke="url(#paint0_linear_2352_7275)"/>
<path d="M14.7523 14.1591L19.4676 9.44386C19.6495 9.2681 19.6546 8.9781 19.4788 8.79611C19.3031 8.61412 19.0131 8.60908 18.8311 8.78484C18.8273 8.78852 18.8235 8.79227 18.8198 8.79611L14.1045 13.5114L9.38931 8.79609C9.20732 8.62032 8.91732 8.62537 8.74156 8.80736C8.57009 8.98489 8.57009 9.26633 8.74156 9.44386L13.4568 14.1591L8.74156 18.8743C8.56271 19.0532 8.56271 19.3432 8.74156 19.5221C8.92043 19.7009 9.21043 19.7009 9.38931 19.5221L14.1045 14.8068L18.8198 19.5221C19.0018 19.6978 19.2918 19.6928 19.4675 19.5108C19.639 19.3333 19.639 19.0518 19.4675 18.8743L14.7523 14.1591Z" fill="#677294"/>
<defs>
<linearGradient id="paint0_linear_2352_7275" x1="27.0543" y1="37.4185" x2="0.517707" y2="35.9986" gradientUnits="userSpaceOnUse">
<stop stop-color="#32ABB1"/>
<stop offset="0.990045" stop-color="#3286BD"/>
</linearGradient>
</defs>
</svg>
