<svg width="26" height="26" viewBox="0 0 26 26" fill="none" xmlns="http://www.w3.org/2000/svg">
<g clip-path="url(#clip0_2359_10235)">
<path fill-rule="evenodd" clip-rule="evenodd" d="M15.0275 5.19025C15.0283 4.9027 14.9497 4.62052 14.8003 4.37484C14.6508 4.12916 14.4365 3.92952 14.1808 3.79796C13.9251 3.6664 13.638 3.60802 13.3513 3.62927C13.0645 3.65052 12.7892 3.75057 12.5557 3.91838L8.58691 6.7465H4.86816C3.83216 6.7465 2.83859 7.15805 2.10603 7.89062C1.37346 8.62318 0.961914 9.61675 0.961914 10.6528V15.3403C0.961914 16.3763 1.37346 17.3698 2.10603 18.1024C2.83859 18.835 3.83216 19.2465 4.86816 19.2465H8.58691L12.5557 22.0746C12.7893 22.2412 13.0643 22.3402 13.3505 22.361C13.6368 22.3817 13.9232 22.3233 14.1784 22.1921C14.4336 22.0609 14.6478 21.8621 14.7976 21.6173C14.9474 21.3725 15.0269 21.0913 15.0275 20.8043V5.17932V5.19025ZM4.87129 8.31525H8.59004C8.91553 8.3153 9.2329 8.21369 9.49785 8.02463L13.4666 5.1965V20.8215L9.49785 17.9934C9.2329 17.8043 8.91553 17.7027 8.59004 17.7028H4.87129C4.24969 17.7028 3.65355 17.4558 3.21401 17.0163C2.77447 16.5767 2.52754 15.9806 2.52754 15.359V10.6715C2.52754 10.0499 2.77447 9.45376 3.21401 9.01422C3.65355 8.57468 4.24969 8.32775 4.87129 8.32775V8.31525Z" fill="url(#paint0_linear_2359_10235)"/>
<path d="M18.9337 4.15868C18.9765 4.06542 19.0372 3.98149 19.1124 3.9117C19.1876 3.84191 19.2758 3.78761 19.372 3.75192C19.4682 3.71623 19.5705 3.69983 19.6731 3.70367C19.7756 3.70751 19.8764 3.73152 19.9696 3.77431C21.736 4.58664 23.2326 5.88817 24.2821 7.52477C25.3316 9.16137 25.8901 11.0645 25.8915 13.0087C25.8915 14.9462 25.3352 16.8524 24.2821 18.4931C23.2332 20.1301 21.7364 21.4316 19.9696 22.2431C19.7813 22.3295 19.5663 22.3375 19.372 22.2654C19.1778 22.1933 19.0201 22.047 18.9337 21.8587C18.8473 21.6703 18.8392 21.4554 18.9113 21.2611C18.9834 21.0668 19.1297 20.9091 19.3181 20.8227C20.8147 20.1427 22.08 19.0402 22.9587 17.6509C23.8448 16.2652 24.3154 14.6546 24.3149 13.0098C24.3143 11.365 23.8426 9.75474 22.9556 8.36962C22.0659 6.98385 20.7968 5.88288 19.2993 5.19774C19.206 5.15497 19.1221 5.09424 19.0523 5.01903C18.9825 4.94381 18.9282 4.85559 18.8925 4.75939C18.8569 4.66319 18.8405 4.56091 18.8443 4.45837C18.8481 4.35584 18.8721 4.25506 18.9149 4.16181L18.9337 4.15868Z" fill="url(#paint1_linear_2359_10235)"/>
<path d="M17.5272 8.54685C17.6308 8.36742 17.8015 8.23649 18.0016 8.18287C18.2017 8.12925 18.415 8.15732 18.5944 8.26092C19.426 8.74008 20.1168 9.42977 20.5972 10.2606C21.0776 11.0915 21.3308 12.0342 21.3313 12.9939C21.3318 13.9537 21.0795 14.8967 20.5999 15.728C20.1203 16.5593 19.4302 17.2497 18.5991 17.7297C18.4203 17.8267 18.2107 17.8501 18.0149 17.795C17.819 17.7399 17.6524 17.6106 17.5505 17.4345C17.4485 17.2585 17.4192 17.0496 17.4689 16.8524C17.5185 16.6551 17.6432 16.4849 17.8163 16.3781C18.4092 16.0347 18.9014 15.5413 19.2434 14.9476C19.5854 14.3538 19.7652 13.6805 19.7647 12.9953C19.7643 12.3097 19.5834 11.6364 19.2403 11.0428C18.8972 10.4493 18.4039 9.95655 17.81 9.61404C17.6306 9.51044 17.4997 9.3398 17.4461 9.13967C17.3924 8.93953 17.4205 8.72629 17.5241 8.54685H17.5272Z" fill="url(#paint2_linear_2359_10235)"/>
</g>
<defs>
<linearGradient id="paint0_linear_2359_10235" x1="14.7394" y1="29.1408" x2="0.897923" y2="28.5849" gradientUnits="userSpaceOnUse">
<stop stop-color="#32ABB1"/>
<stop offset="0.990045" stop-color="#3286BD"/>
</linearGradient>
<linearGradient id="paint1_linear_2359_10235" x1="25.7471" y1="29.0434" x2="18.8034" y2="28.9027" gradientUnits="userSpaceOnUse">
<stop stop-color="#32ABB1"/>
<stop offset="0.990045" stop-color="#3286BD"/>
</linearGradient>
<linearGradient id="paint2_linear_2359_10235" x1="21.2512" y1="21.3199" x2="17.3972" y2="21.2364" gradientUnits="userSpaceOnUse">
<stop stop-color="#32ABB1"/>
<stop offset="0.990045" stop-color="#3286BD"/>
</linearGradient>
<clipPath id="clip0_2359_10235">
<rect width="25" height="25" fill="white" transform="translate(0.964844 0.5)"/>
</clipPath>
</defs>
</svg>
