<svg width="20" height="19" viewBox="0 0 20 19" fill="none" xmlns="http://www.w3.org/2000/svg">
<path d="M18.7223 2.37479L10.3457 10.7506C10.7489 11.1 11.1756 11.4196 11.6258 11.7093L13.0983 10.2376L18.3946 11.4156V18.2081H17.6029C14.5552 18.2131 11.5714 17.3339 9.01331 15.6772C8.29486 15.2128 7.61524 14.691 6.9811 14.1168L3.35289 17.7442L2.23347 16.6248L17.6029 1.25537L18.7223 2.37479ZM8.10289 12.995C8.65696 13.4918 9.24909 13.9444 9.87385 14.3487C11.95 15.6925 14.3417 16.4696 16.8112 16.6026V12.6847L13.6026 11.9722L11.8815 13.694L11.3566 13.3956C10.5948 12.9638 9.8798 12.4541 9.2231 11.8748L8.10289 12.995ZM1.76956 1.58312H8.56206L9.73926 6.87937L8.26281 8.35662L8.49793 8.75562L7.13389 9.55916L6.27572 8.10329L8.00472 6.37508L7.29222 3.16645H3.37426C3.51396 5.75683 4.36204 8.25916 5.82606 10.4007L6.27256 11.0538L4.96472 11.9468L4.51822 11.2937C2.72222 8.66659 1.76393 5.55714 1.76956 2.37479V1.58312Z" fill="#D51F1F"/>
</svg>
