<svg width="25" height="24" viewBox="0 0 25 24" fill="none" xmlns="http://www.w3.org/2000/svg">
<path d="M21.9761 9L15.9761 3M21.9761 3L15.9761 9M10.1341 5.712L9.73212 4.806C9.46812 4.214 9.33712 3.918 9.14012 3.691C8.89366 3.40671 8.57201 3.19771 8.21212 3.088C7.92512 3 7.60012 3 6.95212 3C6.00412 3 5.53012 3 5.13212 3.182C4.64114 3.42054 4.2611 3.83927 4.07112 4.351C3.92812 4.764 3.96912 5.189 4.05112 6.04C4.92445 15.09 9.88612 20.0517 18.9361 20.925C19.7861 21.007 20.2121 21.048 20.6261 20.905C21.1373 20.715 21.5556 20.3354 21.7941 19.845C21.9761 19.446 21.9761 18.972 21.9761 18.024C21.9761 17.375 21.9761 17.051 21.8881 16.764C21.7784 16.4041 21.5694 16.0825 21.2851 15.836C21.0581 15.639 20.7621 15.508 20.1701 15.244L19.2641 14.842C18.6221 14.557 18.3021 14.414 17.9761 14.383C17.664 14.353 17.3492 14.3969 17.0571 14.511C16.7521 14.63 16.4821 14.854 15.9431 15.304C15.4061 15.751 15.1381 15.974 14.8101 16.094C14.495 16.203 14.1589 16.2376 13.8281 16.195C13.4831 16.145 13.2181 16.003 12.6891 15.72C11.0431 14.84 10.1361 13.933 9.25612 12.287C8.97312 11.757 8.83212 11.493 8.78112 11.147C8.73852 10.817 8.77275 10.4816 8.88112 10.167C9.00112 9.838 9.22512 9.57 9.67212 9.033C10.1221 8.493 10.3461 8.224 10.4651 7.919C10.5791 7.627 10.6231 7.312 10.5931 7C10.5621 6.675 10.4191 6.354 10.1341 5.712Z" stroke="white" stroke-width="1.5" stroke-linecap="round" stroke-linejoin="round"/>
</svg>
