<svg width="40" height="39" viewBox="0 0 40 39" fill="none" xmlns="http://www.w3.org/2000/svg">
<circle cx="20.4766" cy="19.5" r="19.5" fill="url(#paint0_linear_321_1684)"/>
<g clip-path="url(#clip0_321_1684)">
<path d="M13.4775 16.8751C13.4774 16.1499 13.6575 15.4361 14.0017 14.7978C14.346 14.1596 14.8434 13.6169 15.4494 13.2186C16.0554 12.8203 16.7508 12.5788 17.4733 12.516C18.1957 12.4531 18.9224 12.5708 19.5881 12.8585C20.2537 13.1462 20.8374 13.5948 21.2867 14.1641C21.736 14.7333 22.0367 15.4053 22.1618 16.1195C22.287 16.8338 22.2326 17.568 22.0036 18.2561C21.7746 18.9441 21.3782 19.5645 20.85 20.0613C21.8458 20.5448 22.7105 21.2612 23.3707 22.1499C24.0309 23.0385 24.4671 24.0732 24.6425 25.1663C24.6617 25.2879 24.6569 25.4122 24.6282 25.5319C24.5994 25.6517 24.5474 25.7646 24.475 25.8643C24.4026 25.9639 24.3114 26.0483 24.2064 26.1127C24.1014 26.1771 23.9847 26.2201 23.8631 26.2394C23.7414 26.2587 23.6172 26.2539 23.4974 26.2251C23.3777 26.1964 23.2647 26.1444 23.1651 26.072C23.0655 25.9996 22.981 25.9083 22.9167 25.8033C22.8523 25.6983 22.8092 25.5817 22.79 25.4601C22.6025 24.2854 22.0024 23.2161 21.0974 22.4442C20.1925 21.6722 19.0419 21.2481 17.8525 21.2481C16.663 21.2481 15.5124 21.6722 14.6075 22.4442C13.7025 23.2161 13.1024 24.2854 12.915 25.4601C12.8956 25.5817 12.8524 25.6983 12.788 25.8033C12.7236 25.9082 12.6391 25.9995 12.5394 26.0718C12.4397 26.1441 12.3267 26.1961 12.2069 26.2247C12.0871 26.2534 11.9628 26.2582 11.8412 26.2388C11.7196 26.2194 11.6029 26.1763 11.498 26.1118C11.393 26.0474 11.3018 25.9629 11.2294 25.8632C11.1571 25.7635 11.1052 25.6505 11.0765 25.5307C11.0479 25.4109 11.0431 25.2867 11.0625 25.1651C11.2372 24.0721 11.6732 23.0374 12.3335 22.1491C12.9937 21.2607 13.8587 20.5449 14.855 20.0626C14.42 19.6534 14.0733 19.1595 13.8364 18.6113C13.5995 18.0631 13.4774 17.4722 13.4775 16.8751ZM24.7275 15.0001C25.4537 15.0006 26.1642 15.2119 26.7727 15.6084C27.3812 16.0048 27.8615 16.5694 28.1554 17.2336C28.4492 17.8978 28.5439 18.633 28.428 19.3499C28.3121 20.0669 27.9906 20.7348 27.5025 21.2726C28.2637 21.6497 28.9401 22.1781 29.4903 22.8254C30.0405 23.4727 30.453 24.2254 30.7025 25.0375C30.752 25.1951 30.759 25.363 30.7227 25.5242C30.6863 25.6853 30.608 25.834 30.4957 25.9551C30.3833 26.0762 30.241 26.1655 30.083 26.2137C29.925 26.262 29.7571 26.2677 29.5962 26.2301C29.4354 26.1929 29.2872 26.1139 29.1667 26.001C29.0462 25.8882 28.9576 25.7456 28.91 25.5876C28.6856 24.863 28.2772 24.209 27.7247 23.6893C27.1722 23.1697 26.4944 22.8021 25.7575 22.6226C25.5528 22.5731 25.3706 22.4562 25.2405 22.2907C25.1103 22.1252 25.0397 21.9206 25.04 21.7101V21.2701C25.0398 21.0955 25.0885 20.9244 25.1803 20.776C25.2722 20.6276 25.4037 20.5078 25.56 20.4301C25.9389 20.2422 26.2432 19.9318 26.4235 19.5492C26.6038 19.1666 26.6494 18.7343 26.553 18.3225C26.4565 17.9107 26.2237 17.5436 25.8923 17.2809C25.5609 17.0181 25.1504 16.8751 24.7275 16.8751C24.4788 16.8751 24.2404 16.7763 24.0645 16.6005C23.8887 16.4246 23.79 16.1862 23.79 15.9376C23.79 15.6889 23.8887 15.4505 24.0645 15.2746C24.2404 15.0988 24.4788 15.0001 24.7275 15.0001ZM17.8525 14.3751C17.5195 14.3675 17.1885 14.4266 16.8787 14.5488C16.5689 14.6709 16.2866 14.8538 16.0485 15.0866C15.8103 15.3193 15.6211 15.5973 15.4919 15.9042C15.3626 16.2111 15.296 16.5408 15.2959 16.8738C15.2958 17.2068 15.3623 17.5365 15.4914 17.8434C15.6205 18.1504 15.8096 18.4285 16.0476 18.6614C16.2856 18.8943 16.5678 19.0773 16.8775 19.1996C17.1872 19.3219 17.5183 19.3812 17.8512 19.3738C18.5044 19.3594 19.126 19.0898 19.5829 18.6228C20.0398 18.1557 20.2958 17.5284 20.2959 16.875C20.2961 16.2217 20.0405 15.5942 19.5838 15.127C19.1271 14.6597 18.5056 14.3898 17.8525 14.3751Z" fill="white"/>
</g>
<defs>
<linearGradient id="paint0_linear_321_1684" x1="0.976562" y1="19.5" x2="39.9766" y2="19.5" gradientUnits="userSpaceOnUse">
<stop stop-color="#32ABB1"/>
<stop offset="1" stop-color="#3286BD"/>
</linearGradient>
<clipPath id="clip0_321_1684">
<rect width="20" height="20" fill="white" transform="translate(10.9766 10)"/>
</clipPath>
</defs>
</svg>
