<svg width="25" height="24" viewBox="0 0 25 24" fill="none" xmlns="http://www.w3.org/2000/svg">
<path d="M12.9766 7C12.4461 7 11.9374 6.78929 11.5623 6.41421C11.1873 6.03914 10.9766 5.53043 10.9766 5C10.9766 4.46957 11.1873 3.96086 11.5623 3.58579C11.9374 3.21071 12.4461 3 12.9766 3C13.507 3 14.0157 3.21071 14.3908 3.58579C14.7658 3.96086 14.9766 4.46957 14.9766 5C14.9766 5.53043 14.7658 6.03914 14.3908 6.41421C14.0157 6.78929 13.507 7 12.9766 7ZM12.9766 14C12.4461 14 11.9374 13.7893 11.5623 13.4142C11.1873 13.0391 10.9766 12.5304 10.9766 12C10.9766 11.4696 11.1873 10.9609 11.5623 10.5858C11.9374 10.2107 12.4461 10 12.9766 10C13.507 10 14.0157 10.2107 14.3908 10.5858C14.7658 10.9609 14.9766 11.4696 14.9766 12C14.9766 12.5304 14.7658 13.0391 14.3908 13.4142C14.0157 13.7893 13.507 14 12.9766 14ZM12.9766 21C12.4461 21 11.9374 20.7893 11.5623 20.4142C11.1873 20.0391 10.9766 19.5304 10.9766 19C10.9766 18.4696 11.1873 17.9609 11.5623 17.5858C11.9374 17.2107 12.4461 17 12.9766 17C13.507 17 14.0157 17.2107 14.3908 17.5858C14.7658 17.9609 14.9766 18.4696 14.9766 19C14.9766 19.5304 14.7658 20.0391 14.3908 20.4142C14.0157 20.7893 13.507 21 12.9766 21Z" fill="white"/>
</svg>
