<svg width="25" height="24" viewBox="0 0 25 24" fill="none" xmlns="http://www.w3.org/2000/svg">
<path fill-rule="evenodd" clip-rule="evenodd" d="M9.67656 6.5V12.5C9.67656 12.9334 9.76192 13.3625 9.92776 13.7629C10.0936 14.1632 10.3367 14.527 10.6431 14.8335C10.9495 15.1399 11.3133 15.383 11.7137 15.5488C12.1141 15.7146 12.5432 15.8 12.9766 15.8C13.4099 15.8 13.839 15.7146 14.2394 15.5488C14.6398 15.383 15.0036 15.1399 15.31 14.8335C15.6164 14.527 15.8595 14.1632 16.0254 13.7629C16.1912 13.3625 16.2766 12.9334 16.2766 12.5V6.5C16.2766 5.62479 15.9289 4.78542 15.31 4.16655C14.6911 3.54768 13.8518 3.2 12.9766 3.2C12.1013 3.2 11.262 3.54768 10.6431 4.16655C10.0242 4.78542 9.67656 5.62479 9.67656 6.5ZM13.5766 19.976V23H12.3766V19.976C10.4973 19.8252 8.74384 18.9722 7.4652 17.5868C6.18655 16.2014 5.47655 14.3853 5.47656 12.5V11H6.67656V12.5C6.67656 14.1709 7.34031 15.7733 8.52179 16.9548C9.70327 18.1363 11.3057 18.8 12.9766 18.8C14.6474 18.8 16.2499 18.1363 17.4313 16.9548C18.6128 15.7733 19.2766 14.1709 19.2766 12.5V11H20.4766V12.5C20.4766 14.3853 19.7666 16.2014 18.4879 17.5868C17.2093 18.9722 15.4558 19.8252 13.5766 19.976ZM8.47656 6.5C8.47656 5.30653 8.95067 4.16193 9.79458 3.31802C10.6385 2.47411 11.7831 2 12.9766 2C14.17 2 15.3146 2.47411 16.1585 3.31802C17.0025 4.16193 17.4766 5.30653 17.4766 6.5V12.5C17.4766 13.6935 17.0025 14.8381 16.1585 15.682C15.3146 16.5259 14.17 17 12.9766 17C11.7831 17 10.6385 16.5259 9.79458 15.682C8.95067 14.8381 8.47656 13.6935 8.47656 12.5V6.5Z" fill="white"/>
</svg>
