<svg width="17" height="15" viewBox="0 0 17 15" fill="none" xmlns="http://www.w3.org/2000/svg">
<path d="M8.47021 5.20637L10.7913 7.52742L10.8023 7.40584C10.8023 6.18635 9.81128 5.19531 8.59179 5.19531L8.47021 5.20637Z" fill="#677294"/>
<path d="M8.59155 3.7171C10.6252 3.7171 12.2758 5.36763 12.2758 7.40132C12.2758 7.87658 12.18 8.32974 12.0142 8.74605L14.1695 10.9013C15.2821 9.97289 16.1589 8.77185 16.7005 7.40132C15.4221 4.16659 12.2795 1.875 8.59158 1.875C7.55999 1.875 6.57264 2.0592 5.65527 2.39078L7.24685 3.97866C7.66312 3.81657 8.11628 3.7171 8.59155 3.7171Z" fill="#677294"/>
<path d="M1.22316 1.71291L2.90316 3.39291L3.23844 3.72819C2.02264 4.67872 1.06107 5.94241 0.486328 7.40502C1.76108 10.6398 4.90738 12.9313 8.59161 12.9313C9.73373 12.9313 10.8242 12.7103 11.8227 12.3087L12.1358 12.6219L14.2838 14.7734L15.2232 13.8377L2.16263 0.773438L1.22316 1.71291ZM5.29792 5.78398L6.43634 6.9224C6.40319 7.08083 6.38108 7.23923 6.38108 7.40502C6.38108 8.62451 7.37212 9.61555 8.59161 9.61555C8.7574 9.61555 8.91583 9.59345 9.07057 9.56029L10.209 10.6987C9.71898 10.9419 9.17374 11.0892 8.59161 11.0892C6.55792 11.0892 4.90738 9.43871 4.90738 7.40502C4.90738 6.82293 5.05476 6.27765 5.29792 5.78398Z" fill="#677294"/>
</svg>
