<svg width="20" height="22" viewBox="0 0 20 22" fill="none" xmlns="http://www.w3.org/2000/svg">
<path d="M14.5234 15.7266C14.9981 15.7266 15.3828 15.3418 15.3828 14.8672C15.3828 14.3926 14.9981 14.0078 14.5234 14.0078C14.0488 14.0078 13.6641 14.3926 13.6641 14.8672C13.6641 15.3418 14.0488 15.7266 14.5234 15.7266Z" fill="#898989"/>
<path d="M18.3906 15.5547C18.8653 15.5547 19.25 15.1699 19.25 14.6953V11.5156C19.25 9.62019 17.7079 8.07812 15.8125 8.07812H14.7797V5.04737C14.7797 2.26424 12.4666 0 9.62341 0C6.78025 0 4.46716 2.26424 4.46716 5.04737V8.07812H3.4375C1.54206 8.07812 0 9.62019 0 11.5156V18.5625C0 20.4579 1.54206 22 3.4375 22H15.8125C17.7079 22 19.25 20.4579 19.25 18.5625C19.25 18.0879 18.8653 17.7031 18.3906 17.7031C17.916 17.7031 17.5312 18.0879 17.5312 18.5625C17.5312 19.5102 16.7602 20.2812 15.8125 20.2812H3.4375C2.48978 20.2812 1.71875 19.5102 1.71875 18.5625V11.5156C1.71875 10.5679 2.48978 9.79688 3.4375 9.79688H15.8125C16.7602 9.79688 17.5312 10.5679 17.5312 11.5156V14.6953C17.5312 15.1699 17.916 15.5547 18.3906 15.5547ZM13.0609 8.07812H6.18591V5.04737C6.18591 3.21196 7.72797 1.71875 9.62341 1.71875C11.5188 1.71875 13.0609 3.21196 13.0609 5.04737V8.07812Z" fill="#898989"/>
<path d="M8.03516 15.7266C8.50978 15.7266 8.89453 15.3418 8.89453 14.8672C8.89453 14.3926 8.50978 14.0078 8.03516 14.0078C7.56054 14.0078 7.17578 14.3926 7.17578 14.8672C7.17578 15.3418 7.56054 15.7266 8.03516 15.7266Z" fill="#898989"/>
<path d="M4.8125 15.7266C5.28712 15.7266 5.67188 15.3418 5.67188 14.8672C5.67188 14.3926 5.28712 14.0078 4.8125 14.0078C4.33788 14.0078 3.95312 14.3926 3.95312 14.8672C3.95312 15.3418 4.33788 15.7266 4.8125 15.7266Z" fill="#898989"/>
<path d="M11.2578 15.7266C11.7324 15.7266 12.1172 15.3418 12.1172 14.8672C12.1172 14.3926 11.7324 14.0078 11.2578 14.0078C10.7832 14.0078 10.3984 14.3926 10.3984 14.8672C10.3984 15.3418 10.7832 15.7266 11.2578 15.7266Z" fill="#898989"/>
</svg>
