<svg width="22" height="22" viewBox="0 0 22 22" fill="none" xmlns="http://www.w3.org/2000/svg">
<g clip-path="url(#clip0_273_2403)">
<path d="M18.9062 19.9375V0.6875H3.09375V19.9375H0.6875V21.3125H21.3125V19.9375H18.9062ZM17.5312 19.9375H11.6875V17.1875H10.3125V19.9375H4.46875V2.0625H17.5312V19.9375Z" fill="#898989"/>
<path d="M6.875 13.0625H8.25V14.4375H6.875V13.0625ZM10.3125 13.0625H11.6875V14.4375H10.3125V13.0625ZM13.75 13.0625H15.125V14.4375H13.75V13.0625ZM6.875 8.9375H8.25V10.3125H6.875V8.9375ZM10.3125 8.9375H11.6875V10.3125H10.3125V8.9375ZM13.75 8.9375H15.125V10.3125H13.75V8.9375ZM6.875 4.8125H8.25V6.1875H6.875V4.8125ZM10.3125 4.8125H11.6875V6.1875H10.3125V4.8125ZM13.75 4.8125H15.125V6.1875H13.75V4.8125Z" fill="#898989"/>
</g>
<defs>
<clipPath id="clip0_273_2403">
<rect width="22" height="22" fill="white"/>
</clipPath>
</defs>
</svg>
