<svg width="32" height="32" viewBox="0 0 32 32" fill="none" xmlns="http://www.w3.org/2000/svg">
<path d="M11.6097 24.0932V20.3447H9.02094C8.67765 20.3447 8.34842 20.2083 8.10568 19.9656C7.86293 19.7228 7.72656 19.3936 7.72656 19.0503V9.98968C7.72656 9.6464 7.86293 9.31717 8.10568 9.07443C8.34842 8.83168 8.67765 8.69531 9.02094 8.69531H23.259C23.6023 8.69531 23.9316 8.83168 24.1743 9.07443C24.417 9.31717 24.5534 9.6464 24.5534 9.98968V19.0503C24.5534 19.3936 24.417 19.7228 24.1743 19.9656C23.9316 20.2083 23.6023 20.3447 23.259 20.3447H16.14L12.1624 24.3223C12.1171 24.3676 12.0594 24.3986 11.9966 24.4111C11.9337 24.4236 11.8686 24.4172 11.8094 24.3927C11.7502 24.3681 11.6996 24.3266 11.664 24.2732C11.6285 24.2199 11.6096 24.1573 11.6097 24.0932Z" stroke="white"/>
<path d="M11.6094 16.4612H20.67M11.6094 12.5781H20.67" stroke="white" stroke-linecap="round"/>
</svg>
