<svg width="40" height="41" viewBox="0 0 40 41" fill="none" xmlns="http://www.w3.org/2000/svg">
<circle cx="20" cy="20.9219" r="20" fill="white"/>
<path d="M12.4246 15.9002C12.0777 13.6315 13.6929 11.5902 16.1603 10.8412C16.5984 10.7083 17.0711 10.7461 17.4821 10.9468C17.8931 11.1475 18.2113 11.4961 18.3718 11.9214L19.163 14.0151C19.2903 14.3518 19.3131 14.7186 19.2285 15.0683C19.144 15.418 18.956 15.7347 18.6887 15.9778L16.3351 18.1175C16.2188 18.223 16.1322 18.3567 16.0836 18.5054C16.0351 18.6541 16.0264 18.8127 16.0583 18.9658L16.0793 19.0596L16.1375 19.2952C16.1894 19.4937 16.2677 19.7735 16.3779 20.1074C16.5964 20.7706 16.9451 21.6622 17.4641 22.5529C17.9831 23.4436 18.5876 24.1891 19.0574 24.7079C19.3023 24.9779 19.5581 25.238 19.824 25.4876L19.8969 25.5544C20.0146 25.6578 20.1573 25.7291 20.3111 25.7615C20.465 25.794 20.6246 25.7863 20.7746 25.7394L23.821 24.7892C24.1672 24.6813 24.5379 24.6784 24.8857 24.7808C25.2335 24.8833 25.5425 25.0863 25.7731 25.364L27.2144 27.0985C27.8153 27.8204 27.7443 28.8817 27.0532 29.5197C25.1649 31.2641 22.5682 31.6224 20.7618 30.1821C18.5482 28.4115 16.6817 26.2529 15.2553 23.8136C13.8184 21.3753 12.8581 18.6912 12.4246 15.9002ZM17.9658 19.084L19.9196 17.308C20.4544 16.8218 20.8303 16.1884 20.9994 15.489C21.1684 14.7895 21.1228 14.056 20.8684 13.3825L20.0763 11.2888C19.7531 10.4334 19.113 9.7324 18.2864 9.32862C17.4598 8.92484 16.5089 8.84872 15.6277 9.11577C12.5639 10.0462 10.1038 12.7688 10.6246 16.1701C11.0921 19.1859 12.129 22.0873 13.6811 24.7224C15.2196 27.3528 17.2327 29.6806 19.6201 31.5899C22.3288 33.7467 25.947 33.0112 28.2951 30.8409C28.9674 30.2204 29.3754 29.369 29.4358 28.4605C29.4962 27.552 29.2045 26.6549 28.6202 25.9524L27.1789 24.2179C26.7177 23.6624 26.0995 23.2562 25.4037 23.0513C24.7079 22.8465 23.9662 22.8523 23.2738 23.0682L20.7455 23.857C20.6322 23.7416 20.5214 23.624 20.4131 23.5041C19.8933 22.9345 19.4336 22.3137 19.041 21.6514C18.6585 20.9833 18.3458 20.2781 18.1078 19.547C18.0573 19.3939 18.0099 19.2399 17.9658 19.0849" fill="url(#paint0_linear_1254_1595)"/>
<defs>
<linearGradient id="paint0_linear_1254_1595" x1="29.0566" y1="41.5357" x2="10.4719" y2="40.7506" gradientUnits="userSpaceOnUse">
<stop stop-color="#32ABB1"/>
<stop offset="0.990045" stop-color="#3286BD"/>
</linearGradient>
</defs>
</svg>
