<svg width="25" height="25" viewBox="0 0 25 25" fill="none" xmlns="http://www.w3.org/2000/svg">
<path d="M6.98693 9.26744C6.74243 7.66837 7.88087 6.2296 9.61997 5.70166C9.92876 5.60799 10.262 5.63461 10.5516 5.77609C10.8413 5.91757 11.0656 6.16326 11.1787 6.46303L11.7364 7.9387C11.8261 8.17607 11.8421 8.43458 11.7826 8.68107C11.723 8.92756 11.5905 9.15079 11.4021 9.32214L9.74318 10.8302C9.66122 10.9046 9.60014 10.9988 9.56595 11.1036C9.53175 11.2085 9.5256 11.3203 9.5481 11.4281L9.56286 11.4943L9.60393 11.6603C9.64051 11.8002 9.6957 11.9974 9.77335 12.2328C9.92736 12.7003 10.1731 13.3287 10.5389 13.9565C10.9047 14.5843 11.3308 15.1097 11.662 15.4754C11.8346 15.6657 12.0148 15.849 12.2023 16.025L12.2537 16.072C12.3366 16.1449 12.4372 16.1952 12.5456 16.218C12.654 16.2409 12.7666 16.2355 12.8723 16.2024L15.0195 15.5327C15.2635 15.4566 15.5248 15.4546 15.77 15.5268C16.0151 15.599 16.2329 15.7421 16.3954 15.9378L17.4113 17.1603C17.8348 17.6692 17.7848 18.4172 17.2977 18.8669C15.9667 20.0964 14.1365 20.3489 12.8633 19.3338C11.3031 18.0858 9.98748 16.5643 8.98209 14.8451C7.96931 13.1264 7.29244 11.2346 6.98693 9.26744ZM10.8925 11.5115L12.2697 10.2597C12.6466 9.917 12.9116 9.47054 13.0307 8.97756C13.1499 8.48458 13.1177 7.96756 12.9384 7.49282L12.3801 6.01715C12.1523 5.41424 11.7011 4.92013 11.1185 4.63553C10.5359 4.35094 9.8657 4.29728 9.24456 4.48551C7.08512 5.14129 5.35115 7.06029 5.71822 9.45762C6.04773 11.5833 6.7786 13.6283 7.87253 15.4856C8.95693 17.3396 10.3758 18.9803 12.0586 20.326C13.9677 21.8462 16.518 21.3278 18.173 19.7981C18.6468 19.3608 18.9344 18.7607 18.977 18.1204C19.0196 17.48 18.8139 16.8477 18.4021 16.3525L17.3862 15.13C17.0612 14.7385 16.6255 14.4521 16.135 14.3078C15.6446 14.1634 15.1219 14.1675 14.6338 14.3197L12.8517 14.8756C12.772 14.7943 12.6939 14.7114 12.6175 14.6269C12.2511 14.2254 11.9271 13.7878 11.6504 13.3211C11.3808 12.8501 11.1604 12.3531 10.9926 11.8378C10.957 11.7299 10.9236 11.6213 10.8925 11.5121" fill="white"/>
</svg>
