<svg width="19" height="17" viewBox="0 0 19 17" fill="none" xmlns="http://www.w3.org/2000/svg">
<path d="M17.7066 1.32067H15.0653V0.69509C15.0653 0.311192 14.7541 0 14.3702 0C13.9863 0 13.6751 0.311192 13.6751 0.69509V1.32067H10.1997V0.69509C10.1997 0.311192 9.88847 0 9.50457 0C9.12068 0 8.80948 0.311192 8.80948 0.69509V1.32067H5.33403V0.69509C5.33403 0.311192 5.02284 0 4.63894 0C4.25505 0 3.94385 0.311192 3.94385 0.69509V1.32067H1.30251C0.918614 1.32067 0.607422 1.63186 0.607422 2.01576V15.7785C0.607422 16.1624 0.918614 16.4736 1.30251 16.4736H17.7066C18.0905 16.4736 18.4017 16.1624 18.4017 15.7785V2.01576C18.4017 1.63186 18.0905 1.32067 17.7066 1.32067ZM17.0115 15.0835H1.9976V6.81188H17.0115V15.0835ZM17.0115 5.4217H1.9976V2.71085H3.94385V3.33643C3.94385 3.72033 4.25505 4.03152 4.63894 4.03152C5.02284 4.03152 5.33403 3.72033 5.33403 3.33643V2.71085H8.80948V3.33643C8.80948 3.72033 9.12068 4.03152 9.50457 4.03152C9.88847 4.03152 10.1997 3.72033 10.1997 3.33643V2.71085H13.6751V3.33643C13.6751 3.72033 13.9863 4.03152 14.3702 4.03152C14.7541 4.03152 15.0653 3.72033 15.0653 3.33643V2.71085H17.0115V5.4217Z" fill="#677294"/>
</svg>
