<svg width="40" height="40" viewBox="0 0 40 40" fill="none" xmlns="http://www.w3.org/2000/svg">
<circle cx="20" cy="20" r="20" fill="white"/>
<path d="M15.1055 31.3612V26.8965H12.0221C11.6133 26.8965 11.2211 26.7341 10.932 26.4449C10.6429 26.1558 10.4805 25.7637 10.4805 25.3548V14.5632C10.4805 14.1543 10.6429 13.7621 10.932 13.473C11.2211 13.1839 11.6133 13.0215 12.0221 13.0215H28.9805C29.3893 13.0215 29.7815 13.1839 30.0706 13.473C30.3597 13.7621 30.5221 14.1543 30.5221 14.5632V25.3548C30.5221 25.7637 30.3597 26.1558 30.0706 26.4449C29.7815 26.7341 29.3893 26.8965 28.9805 26.8965H20.5013L15.7638 31.634C15.7099 31.6881 15.6411 31.7249 15.5663 31.7398C15.4914 31.7547 15.4138 31.7471 15.3433 31.7179C15.2728 31.6887 15.2125 31.6391 15.1702 31.5756C15.1279 31.5121 15.1053 31.4375 15.1055 31.3612Z" stroke="url(#paint0_linear_1254_1590)" stroke-width="1.3"/>
<path d="M15.1055 22.2715H25.8971M15.1055 17.6465H25.8971" stroke="url(#paint1_linear_1254_1590)" stroke-width="1.3" stroke-linecap="round"/>
<defs>
<linearGradient id="paint0_linear_1254_1590" x1="30.1115" y1="38.5179" x2="10.4221" y2="37.3903" gradientUnits="userSpaceOnUse">
<stop stop-color="#32ABB1"/>
<stop offset="0.990045" stop-color="#3286BD"/>
</linearGradient>
<linearGradient id="paint1_linear_1254_1590" x1="25.676" y1="23.9437" x2="15.2025" y2="22.6361" gradientUnits="userSpaceOnUse">
<stop stop-color="#32ABB1"/>
<stop offset="0.990045" stop-color="#3286BD"/>
</linearGradient>
</defs>
</svg>
