<svg width="16" height="12" viewBox="0 0 16 12" fill="none" xmlns="http://www.w3.org/2000/svg">
<path d="M11.0876 4.34487H12.9358M12.9358 4.34487H14.784M12.9358 4.34487V2.49665M12.9358 4.34487V6.19308M1.23047 10.5056V9.88951C1.23047 8.74576 1.68482 7.64886 2.49357 6.84011C3.30232 6.03136 4.39922 5.57701 5.54297 5.57701M5.54297 5.57701C6.68672 5.57701 7.78362 6.03136 8.59237 6.84011C9.40112 7.64886 9.85547 8.74576 9.85547 9.88951V10.5056M5.54297 5.57701C6.19654 5.57701 6.82334 5.31738 7.28548 4.85524C7.74763 4.39309 8.00725 3.76629 8.00725 3.11272C8.00725 2.45915 7.74763 1.83235 7.28548 1.37021C6.82334 0.908067 6.19654 0.648438 5.54297 0.648438C4.8894 0.648438 4.2626 0.908067 3.80046 1.37021C3.33831 1.83235 3.07868 2.45915 3.07868 3.11272C3.07868 3.76629 3.33831 4.39309 3.80046 4.85524C4.2626 5.31738 4.8894 5.57701 5.54297 5.57701Z" stroke="white" stroke-width="1.2" stroke-linecap="round" stroke-linejoin="round"/>
</svg>
