<svg width="14" height="15" viewBox="0 0 14 15" fill="none" xmlns="http://www.w3.org/2000/svg">
<path d="M4.2861 10.3237C2.85659 8.89138 1.75725 7.16409 1.06495 5.26261C0.684075 4.22302 1.03304 3.08106 1.81606 2.29804L2.30063 1.81413C2.43091 1.6836 2.58564 1.58004 2.75599 1.50938C2.92634 1.43872 3.10895 1.40234 3.29337 1.40234C3.47779 1.40234 3.66039 1.43872 3.83074 1.50938C4.00109 1.58004 4.15583 1.6836 4.2861 1.81413L5.42075 2.94878C5.55128 3.07905 5.65484 3.23379 5.7255 3.40414C5.79616 3.57449 5.83254 3.75709 5.83254 3.94151C5.83254 4.12593 5.79616 4.30854 5.7255 4.47889C5.65484 4.64924 5.55128 4.80397 5.42075 4.93425L5.14157 5.21342C5.02982 5.32515 4.94118 5.45779 4.8807 5.60377C4.82022 5.74976 4.7891 5.90623 4.7891 6.06424C4.7891 6.22226 4.82022 6.37873 4.8807 6.52471C4.94118 6.6707 5.02982 6.80334 5.14157 6.91506L7.69403 9.46818C7.80575 9.57993 7.93839 9.66857 8.08438 9.72905C8.23036 9.78953 8.38683 9.82066 8.54485 9.82066C8.70286 9.82066 8.85933 9.78953 9.00532 9.72905C9.1513 9.66857 9.28395 9.57993 9.39567 9.46818L9.67551 9.18901C9.80578 9.05847 9.96052 8.95491 10.1309 8.88425C10.3012 8.81359 10.4838 8.77722 10.6682 8.77722C10.8527 8.77722 11.0353 8.81359 11.2056 8.88425C11.376 8.95491 11.5307 9.05847 11.661 9.18901L12.7956 10.3237C12.9262 10.4539 13.0297 10.6087 13.1004 10.779C13.171 10.9494 13.2074 11.132 13.2074 11.3164C13.2074 11.5008 13.171 11.6834 13.1004 11.8538C13.0297 12.0241 12.9262 12.1789 12.7956 12.3091L12.3117 12.793C11.5287 13.5767 10.3867 13.9257 9.34714 13.5448C7.44566 12.8525 5.71838 11.7532 4.2861 10.3237Z" stroke="url(#paint0_linear_1169_2192)" stroke-width="1.5" stroke-linejoin="round"/>
<defs>
<linearGradient id="paint0_linear_1169_2192" x1="0.910156" y1="7.55096" x2="13.2074" y2="7.55096" gradientUnits="userSpaceOnUse">
<stop stop-color="#32ABB1"/>
<stop offset="1" stop-color="#3286BD"/>
</linearGradient>
</defs>
</svg>
