<svg width="25" height="22" viewBox="0 0 25 22" fill="none" xmlns="http://www.w3.org/2000/svg">
<path d="M17.8476 10.2767C16.8449 10.2767 15.8833 9.87842 15.1743 9.16944C14.4653 8.46045 14.067 7.49886 14.067 6.4962V1.45549H3.98561C3.31717 1.45549 2.67611 1.72103 2.20345 2.19368C1.73079 2.66634 1.46525 3.3074 1.46525 3.97584V17.8378C1.46525 18.5062 1.73079 19.1473 2.20345 19.6199C2.67611 20.0926 3.31717 20.3581 3.98561 20.3581H20.3679C21.0363 20.3581 21.6774 20.0926 22.1501 19.6199C22.6227 19.1473 22.8883 18.5062 22.8883 17.8378V10.2767H17.8476ZM15.3272 6.4962C15.3272 7.16464 15.5927 7.8057 16.0654 8.27835C16.5381 8.75101 17.1791 9.01655 17.8476 9.01655H22.3716L15.3272 1.97216V6.4962ZM3.98561 0.195312H15.3272L24.1484 9.01655V17.8378C24.1484 18.8404 23.7501 19.802 23.0411 20.511C22.3322 21.22 21.3706 21.6183 20.3679 21.6183H3.98561C2.98295 21.6183 2.02136 21.22 1.31237 20.511C0.603383 19.802 0.205078 18.8404 0.205078 17.8378V3.97584C0.205078 2.97318 0.603383 2.01159 1.31237 1.3026C2.02136 0.593617 2.98295 0.195313 3.98561 0.195312ZM3.98561 5.23602H11.5467V6.4962H3.98561V5.23602ZM3.98561 10.2767H11.5467V11.5369H3.98561V10.2767ZM3.98561 15.3174H20.3679V16.5776H3.98561V15.3174Z" fill="url(#paint0_linear_1169_2164)"/>
<defs>
<linearGradient id="paint0_linear_1169_2164" x1="0.205078" y1="10.9068" x2="24.1484" y2="10.9068" gradientUnits="userSpaceOnUse">
<stop stop-color="#32ABB1"/>
<stop offset="1" stop-color="#3286BD"/>
</linearGradient>
</defs>
</svg>
