<svg width="26" height="22" viewBox="0 0 26 22" fill="none" xmlns="http://www.w3.org/2000/svg">
<path d="M5.12946 19.1954L2.8145 21.5103C2.47124 21.8536 2.07455 21.9324 1.62441 21.7467C1.17428 21.5611 0.949219 21.2237 0.949219 20.7346V2.37119C0.949219 1.74535 1.15889 1.22322 1.57822 0.804787C1.99756 0.386356 2.5197 0.176687 3.14462 0.175781H23.209C23.8339 0.175781 24.356 0.38545 24.7754 0.804787C25.1947 1.22412 25.4039 1.74626 25.403 2.37119V17.0013C25.403 17.6263 25.1938 18.1484 24.7754 18.5677C24.3569 18.9871 23.8348 19.1963 23.209 19.1954H5.12946ZM4.54936 17.8368H23.209C23.4173 17.8368 23.6088 17.7499 23.7836 17.576C23.9584 17.4021 24.0454 17.2106 24.0445 17.0013V2.36983C24.0445 2.16152 23.9575 1.96996 23.7836 1.79516C23.6097 1.62037 23.4182 1.53342 23.209 1.53432H3.14327C2.93496 1.53432 2.7434 1.62127 2.5686 1.79516C2.3938 1.96906 2.30686 2.16061 2.30776 2.36983V20.0716L4.54936 17.8368ZM7.74194 10.7317C8.0227 10.7317 8.26724 10.6275 8.47555 10.4192C8.68386 10.2109 8.78801 9.96635 8.78801 9.68558C8.78801 9.40482 8.68386 9.16028 8.47555 8.95197C8.26724 8.74366 8.0227 8.6395 7.74194 8.6395C7.46117 8.6395 7.21663 8.74366 7.00832 8.95197C6.80001 9.16028 6.69586 9.40482 6.69586 9.68558C6.69586 9.96635 6.80001 10.2109 7.00832 10.4192C7.21663 10.6275 7.46117 10.7317 7.74194 10.7317ZM13.1761 10.7317C13.4569 10.7317 13.7014 10.6275 13.9097 10.4192C14.118 10.2109 14.2222 9.96635 14.2222 9.68558C14.2222 9.40482 14.118 9.16028 13.9097 8.95197C13.7014 8.74366 13.4569 8.6395 13.1761 8.6395C12.8953 8.6395 12.6508 8.74366 12.4425 8.95197C12.2342 9.16028 12.13 9.40482 12.13 9.68558C12.13 9.96635 12.2342 10.2109 12.4425 10.4192C12.6508 10.6275 12.8953 10.7317 13.1761 10.7317ZM18.6103 10.7317C18.891 10.7317 19.1356 10.6275 19.3439 10.4192C19.5522 10.2109 19.6564 9.96635 19.6564 9.68558C19.6564 9.40482 19.5522 9.16028 19.3439 8.95197C19.1356 8.74366 18.891 8.6395 18.6103 8.6395C18.3295 8.6395 18.085 8.74366 17.8767 8.95197C17.6684 9.16028 17.5642 9.40482 17.5642 9.68558C17.5642 9.96635 17.6684 10.2109 17.8767 10.4192C18.085 10.6275 18.3295 10.7317 18.6103 10.7317Z" fill="url(#paint0_linear_1169_2213)"/>
<defs>
<linearGradient id="paint0_linear_1169_2213" x1="0.949219" y1="11.0101" x2="25.403" y2="11.0101" gradientUnits="userSpaceOnUse">
<stop stop-color="#32ABB1"/>
<stop offset="1" stop-color="#3286BD"/>
</linearGradient>
</defs>
</svg>
