<svg width="29" height="29" viewBox="0 0 29 29" fill="none" xmlns="http://www.w3.org/2000/svg">
<g clip-path="url(#clip0_33_30672)">
<path d="M20.7122 27.4596C16.5309 27.4596 13.1289 24.0576 13.1289 19.8763C13.1289 15.695 16.5309 12.293 20.7122 12.293C24.8936 12.293 28.2956 15.695 28.2956 19.8763C28.2956 24.0576 24.8936 27.4596 20.7122 27.4596ZM20.7122 13.4596C17.1749 13.4596 14.2956 16.3378 14.2956 19.8763C14.2956 23.4148 17.1749 26.293 20.7122 26.293C24.2496 26.293 27.1289 23.4148 27.1289 19.8763C27.1289 16.3378 24.2496 13.4596 20.7122 13.4596Z" fill="#898989"/>
<path d="M19.5459 22.7823C19.3907 22.7823 19.2425 22.7205 19.1329 22.612L16.7995 20.2786C16.572 20.0511 16.572 19.6813 16.7995 19.4538C17.027 19.2263 17.3969 19.2263 17.6244 19.4538L19.5167 21.3461L23.1894 17.1485C23.4017 16.9046 23.7704 16.8825 24.0119 17.0936C24.2545 17.306 24.279 17.6746 24.0667 17.9173L19.9834 22.584C19.8772 22.7053 19.7255 22.7776 19.5645 22.7823C19.5587 22.7823 19.5529 22.7823 19.5459 22.7823Z" fill="#898989"/>
<path d="M10.2122 4.1263C9.89024 4.1263 9.62891 3.86497 9.62891 3.54297V2.3763C9.62891 2.0543 9.89024 1.79297 10.2122 1.79297C10.5342 1.79297 10.7956 2.0543 10.7956 2.3763V3.54297C10.7956 3.86497 10.5342 4.1263 10.2122 4.1263Z" fill="#898989"/>
<path d="M10.2122 15.7826C9.89024 15.7826 9.62891 15.5212 9.62891 15.1992V12.8659C9.62891 12.5439 9.89024 12.2826 10.2122 12.2826C10.5342 12.2826 10.7956 12.5439 10.7956 12.8659V15.1992C10.7956 15.5212 10.5342 15.7826 10.2122 15.7826ZM10.2122 9.94922C9.89024 9.94922 9.62891 9.68789 9.62891 9.36589V7.03255C9.62891 6.71055 9.89024 6.44922 10.2122 6.44922C10.5342 6.44922 10.7956 6.71055 10.7956 7.03255V9.36589C10.7956 9.68789 10.5342 9.94922 10.2122 9.94922Z" fill="#898989"/>
<path d="M10.2122 20.4544C9.89024 20.4544 9.62891 20.1931 9.62891 19.8711V18.7044C9.62891 18.3824 9.89024 18.1211 10.2122 18.1211C10.5342 18.1211 10.7956 18.3824 10.7956 18.7044V19.8711C10.7956 20.1931 10.5342 20.4544 10.2122 20.4544Z" fill="#898989"/>
<path d="M10.2135 20.4596H3.21354C1.60471 20.4596 0.296875 19.1506 0.296875 17.543V14.043C0.296875 13.721 0.558208 13.4596 0.880208 13.4596H1.46354C2.75037 13.4596 3.79687 12.4131 3.79687 11.1263C3.79687 9.83947 2.75037 8.79297 1.46354 8.79297H0.880208C0.558208 8.79297 0.296875 8.53163 0.296875 8.20964V4.70964C0.296875 3.10197 1.60471 1.79297 3.21354 1.79297H23.0469C24.6557 1.79297 25.9635 3.10197 25.9635 4.70964V8.20964C25.9635 8.53163 25.7022 8.79297 25.3802 8.79297H24.7969C24.2894 8.79297 23.8075 8.9528 23.405 9.25497C23.146 9.44747 22.7797 9.39497 22.5884 9.13714C22.3959 8.8793 22.4484 8.51413 22.7062 8.32047C23.3129 7.86663 24.0362 7.6263 24.7969 7.6263V4.70964C24.7969 3.7448 24.0117 2.95964 23.0469 2.95964H3.21354C2.24871 2.95964 1.46354 3.7448 1.46354 4.70964V7.6263C3.39321 7.6263 4.96354 9.19663 4.96354 11.1263C4.96354 13.056 3.39321 14.6263 1.46354 14.6263V17.543C1.46354 18.5078 2.24871 19.293 3.21354 19.293H10.2135C10.5355 19.293 10.7969 19.5543 10.7969 19.8763C10.7969 20.1983 10.5355 20.4596 10.2135 20.4596Z" fill="#898989"/>
</g>
<defs>
<clipPath id="clip0_33_30672">
<rect width="28" height="28" fill="white" transform="translate(0.296875 0.621094)"/>
</clipPath>
</defs>
</svg>
