<svg width="23" height="22" viewBox="0 0 23 22" fill="none" xmlns="http://www.w3.org/2000/svg">
<path d="M21.8644 5.85794V13.2908C21.8647 13.8766 21.7496 14.4567 21.5256 14.9979C21.3016 15.5392 20.9731 16.031 20.559 16.4452C20.1448 16.8595 19.6531 17.188 19.1119 17.4122C18.5707 17.6363 17.9907 17.7516 17.4049 17.7514H14.4315L11.979 20.2039C11.9122 20.2748 11.8315 20.3312 11.742 20.3698C11.6526 20.4084 11.5562 20.4283 11.4587 20.4283C11.3613 20.4283 11.2649 20.4084 11.1754 20.3698C11.0859 20.3312 11.0053 20.2748 10.9384 20.2039L8.48591 17.7514H5.51028C4.92456 17.7514 4.34457 17.6361 3.80344 17.4119C3.26232 17.1877 2.77066 16.8591 2.35654 16.4449C1.94242 16.0307 1.61396 15.5389 1.38992 14.9977C1.16587 14.4566 1.05063 13.8765 1.05078 13.2908V5.85794C1.05078 4.6752 1.52062 3.54091 2.35694 2.70459C3.19326 1.86828 4.32755 1.39844 5.51028 1.39844H17.4038C18.5865 1.39844 19.7208 1.86828 20.5571 2.70459C21.3934 3.54091 21.8644 4.6752 21.8644 5.85794Z" stroke="#808080" stroke-width="1.5" stroke-linecap="round" stroke-linejoin="round"/>
<path d="M11.4579 10.1697C11.5555 10.1697 11.6521 10.1505 11.7423 10.1132C11.8324 10.0758 11.9143 10.0211 11.9833 9.95208C12.0523 9.88308 12.1071 9.80117 12.1444 9.71101C12.1817 9.62086 12.201 9.52424 12.201 9.42666C12.201 9.32908 12.1817 9.23245 12.1444 9.1423C12.1071 9.05215 12.0523 8.97023 11.9833 8.90123C11.9143 8.83223 11.8324 8.7775 11.7423 8.74016C11.6521 8.70281 11.5555 8.68359 11.4579 8.68359C11.2608 8.68359 11.0718 8.76188 10.9325 8.90123C10.7931 9.04058 10.7148 9.22958 10.7148 9.42666C10.7148 9.62373 10.7931 9.81273 10.9325 9.95208C11.0718 10.0914 11.2608 10.1697 11.4579 10.1697ZM16.661 10.1697C16.7586 10.1697 16.8552 10.1505 16.9454 10.1132C17.0355 10.0758 17.1175 10.0211 17.1865 9.95208C17.2555 9.88308 17.3102 9.80117 17.3475 9.71101C17.3849 9.62086 17.4041 9.52424 17.4041 9.42666C17.4041 9.32908 17.3849 9.23245 17.3475 9.1423C17.3102 9.05215 17.2555 8.97023 17.1865 8.90123C17.1175 8.83223 17.0355 8.7775 16.9454 8.74016C16.8552 8.70281 16.7586 8.68359 16.661 8.68359C16.464 8.68359 16.275 8.76188 16.1356 8.90123C15.9963 9.04058 15.918 9.22958 15.918 9.42666C15.918 9.62373 15.9963 9.81273 16.1356 9.95208C16.275 10.0914 16.464 10.1697 16.661 10.1697ZM6.25478 10.1697C6.35236 10.1697 6.44899 10.1505 6.53914 10.1132C6.62929 10.0758 6.71121 10.0211 6.78021 9.95208C6.84921 9.88308 6.90394 9.80117 6.94128 9.71101C6.97862 9.62086 6.99784 9.52424 6.99784 9.42666C6.99784 9.32908 6.97862 9.23245 6.94128 9.1423C6.90394 9.05215 6.84921 8.97023 6.78021 8.90123C6.71121 8.83223 6.62929 8.7775 6.53914 8.74016C6.44899 8.70281 6.35236 8.68359 6.25478 8.68359C6.05771 8.68359 5.86871 8.76188 5.72936 8.90123C5.59001 9.04058 5.51172 9.22958 5.51172 9.42666C5.51172 9.62373 5.59001 9.81273 5.72936 9.95208C5.86871 10.0914 6.05771 10.1697 6.25478 10.1697Z" stroke="#808080" stroke-width="1.5" stroke-linecap="round" stroke-linejoin="round"/>
</svg>
