<svg width="25" height="24" viewBox="0 0 25 24" fill="none" xmlns="http://www.w3.org/2000/svg">
<path d="M8.58465 9.97432C8.58465 9.71739 8.68672 9.47099 8.86839 9.28931C9.05007 9.10764 9.29648 9.00557 9.5534 9.00557H15.3659C15.6228 9.00557 15.8692 9.10764 16.0509 9.28931C16.2326 9.47099 16.3347 9.71739 16.3347 9.97432C16.3347 10.2312 16.2326 10.4777 16.0509 10.6593C15.8692 10.841 15.6228 10.9431 15.3659 10.9431H9.5534C9.29648 10.9431 9.05007 10.841 8.86839 10.6593C8.68672 10.4777 8.58465 10.2312 8.58465 9.97432ZM9.5534 12.8806C9.29648 12.8806 9.05007 12.9826 8.86839 13.1643C8.68672 13.346 8.58465 13.5924 8.58465 13.8493C8.58465 14.1062 8.68672 14.3527 8.86839 14.5343C9.05007 14.716 9.29648 14.8181 9.5534 14.8181H13.4284C13.6853 14.8181 13.9317 14.716 14.1134 14.5343C14.2951 14.3527 14.3972 14.1062 14.3972 13.8493C14.3972 13.5924 14.2951 13.346 14.1134 13.1643C13.9317 12.9826 13.6853 12.8806 13.4284 12.8806H9.5534ZM0.834653 11.9118C0.835148 9.35247 1.68023 6.86482 3.2388 4.83477C4.79737 2.80472 6.98231 1.34574 9.45467 0.684165C11.927 0.0225907 14.5486 0.195402 16.9127 1.17579C19.2769 2.15618 21.2514 3.88934 22.53 6.10642C23.8086 8.32349 24.3198 10.9005 23.9844 13.4378C23.6489 15.9751 22.4855 18.3307 20.6746 20.1393C18.8638 21.9479 16.5067 23.1084 13.969 23.4407C11.4313 23.773 8.85488 23.2585 6.6394 21.9771L2.10953 23.4884C1.94217 23.5443 1.76273 23.5534 1.59058 23.5147C1.41842 23.4761 1.26009 23.3912 1.13266 23.2691C1.00524 23.1471 0.913567 22.9926 0.867535 22.8222C0.821503 22.6519 0.822862 22.4722 0.871466 22.3026L2.25097 17.4763C1.321 15.7691 0.834047 13.8559 0.834653 11.9118ZM12.4597 2.22432C10.7492 2.22421 9.0692 2.67698 7.59044 3.5366C6.11168 4.39622 4.88688 5.63204 4.04054 7.11845C3.1942 8.60485 2.75651 10.2888 2.77194 11.9992C2.78737 13.7096 3.25538 15.3854 4.1284 16.8563C4.19557 16.9699 4.23881 17.0961 4.25547 17.227C4.27213 17.358 4.26186 17.4909 4.22528 17.6178L3.23909 21.0665L6.45147 19.997C6.58789 19.9515 6.73275 19.9369 6.87551 19.9543C7.01828 19.9718 7.15537 20.0207 7.27684 20.0978C8.54643 20.9012 9.9855 21.3984 11.4803 21.5499C12.9751 21.7015 14.4847 21.5032 15.8897 20.9709C17.2947 20.4386 18.5566 19.5867 19.5757 18.4827C20.5948 17.3787 21.3432 16.0528 21.7616 14.6098C22.1801 13.1668 22.2571 11.6462 21.9867 10.1683C21.7163 8.69033 21.1058 7.29555 20.2035 6.09418C19.3013 4.8928 18.1319 3.91776 16.7879 3.24613C15.4439 2.57449 13.9621 2.22467 12.4597 2.22432Z" fill="#898989"/>
</svg>
