<svg width="23" height="23" viewBox="0 0 23 23" fill="none" xmlns="http://www.w3.org/2000/svg">
<path d="M13.7385 2.43744C13.7682 2.32639 13.8195 2.22228 13.8895 2.13107C13.9594 2.03985 14.0467 1.96331 14.1462 1.90582C14.2457 1.84833 14.3556 1.81102 14.4696 1.79601C14.5836 1.78101 14.6994 1.78861 14.8104 1.81837C16.4325 2.2416 17.9125 3.08958 19.0979 4.27497C20.2833 5.46037 21.1312 6.94033 21.5545 8.56244C21.5842 8.67346 21.5918 8.78927 21.5768 8.90324C21.5618 9.0172 21.5245 9.1271 21.467 9.22664C21.4095 9.32618 21.333 9.41342 21.2418 9.48337C21.1506 9.55332 21.0464 9.60461 20.9354 9.63431C20.8615 9.65376 20.7854 9.66368 20.709 9.66384C20.5162 9.66384 20.3288 9.60014 20.1759 9.48265C20.023 9.36517 19.9132 9.20047 19.8635 9.01415C19.5184 7.68997 18.8263 6.4818 17.8587 5.51418C16.891 4.54655 15.6829 3.85448 14.3587 3.50931C14.2475 3.47973 14.1433 3.42852 14.052 3.35862C13.9606 3.28872 13.884 3.2015 13.8264 3.10195C13.7688 3.00239 13.7314 2.89246 13.7163 2.77844C13.7012 2.66441 13.7088 2.54854 13.7385 2.43744ZM13.4837 7.00931C14.992 7.41181 15.961 8.38087 16.3635 9.88915C16.4132 10.0755 16.523 10.2402 16.6759 10.3577C16.8288 10.4751 17.0162 10.5388 17.209 10.5388C17.2854 10.5387 17.3615 10.5288 17.4354 10.5093C17.5464 10.4796 17.6506 10.4283 17.7418 10.3584C17.833 10.2884 17.9095 10.2012 17.967 10.1016C18.0245 10.0021 18.0618 9.8922 18.0768 9.77824C18.0918 9.66427 18.0842 9.54846 18.0545 9.43744C17.4945 7.34181 16.031 5.87837 13.9354 5.31837C13.7112 5.25847 13.4723 5.2901 13.2714 5.4063C13.0705 5.5225 12.924 5.71375 12.8641 5.93798C12.8042 6.16221 12.8358 6.40106 12.952 6.60197C13.0682 6.80288 13.2594 6.94941 13.4837 7.00931ZM22.4459 17.4382C22.2508 18.9203 21.523 20.2807 20.3983 21.2653C19.2735 22.25 17.8288 22.7915 16.334 22.7888C7.64962 22.7888 0.583994 15.7232 0.583994 7.03884C0.581315 5.544 1.12287 4.0993 2.10752 2.97457C3.09216 1.84984 4.45256 1.12199 5.93462 0.926966C6.3094 0.881205 6.68892 0.957878 7.01654 1.14554C7.34416 1.3332 7.6023 1.62179 7.75243 1.96822L10.0624 7.12525V7.13837C10.1774 7.40356 10.2248 7.69308 10.2006 7.98108C10.1764 8.26908 10.0812 8.5466 9.92353 8.78884C9.90384 8.81837 9.88306 8.84572 9.86118 8.87306L7.58399 11.5724C8.40321 13.2371 10.1445 14.9631 11.831 15.7845L14.4932 13.5193C14.5193 13.4973 14.5467 13.4769 14.5752 13.4581C14.8173 13.2966 15.0958 13.1981 15.3855 13.1713C15.6752 13.1446 15.967 13.1905 16.2345 13.3049L16.2487 13.3115L21.4013 15.6204C21.7484 15.77 22.0377 16.0279 22.226 16.3556C22.4142 16.6832 22.4914 17.0631 22.4459 17.4382ZM20.709 17.2195H20.697L15.5563 14.9171L12.8931 17.1823C12.8673 17.2042 12.8403 17.2247 12.8121 17.2435C12.5603 17.4115 12.2692 17.5113 11.9672 17.5332C11.6653 17.5551 11.3629 17.4982 11.0895 17.3682C9.04087 16.3784 6.99884 14.3517 6.0079 12.3249C5.87668 12.0535 5.8178 11.7528 5.83696 11.452C5.85613 11.1511 5.95268 10.8603 6.11728 10.6077C6.13578 10.5781 6.15663 10.5499 6.17962 10.5235L8.45899 7.82087L6.16212 2.68025C6.16168 2.67588 6.16168 2.67149 6.16212 2.66712C5.10146 2.80548 4.12761 3.32574 3.42294 4.13047C2.71828 4.9352 2.33113 5.9692 2.33399 7.03884C2.33805 10.7506 3.81434 14.3092 6.43898 16.9339C9.06361 19.5585 12.6222 21.0348 16.334 21.0388C17.403 21.0425 18.4367 20.6567 19.2419 19.9536C20.0471 19.2504 20.5686 18.2781 20.709 17.2184V17.2195Z" fill="#808080"/>
</svg>
