<svg width="40" height="40" viewBox="0 0 40 40" fill="none" xmlns="http://www.w3.org/2000/svg">
<path d="M11.6744 3.125C7.56436 3.125 3.64769 5.94167 3.78269 10.405C3.89519 14.1592 4.78936 19.1825 7.84769 24.4792C10.3379 28.8076 13.7687 32.5213 17.8869 35.3458C21.6319 37.9075 26.226 36.1267 28.4235 32.5308C28.8908 31.7654 29.1076 30.8733 29.0436 29.9788C28.9797 29.0843 28.6382 28.232 28.0669 27.5408L25.8669 24.8842C25.3482 24.2573 24.665 23.7875 23.8941 23.5276C23.1232 23.2676 22.295 23.2278 21.5027 23.4125L18.6519 24.0783C18.0119 24.2275 17.4719 24.0858 17.1527 23.7642C15.741 22.3408 14.1244 19.8667 13.4385 17.945C13.276 17.4908 13.4452 16.8867 14.0369 16.3942L15.9735 14.78C16.6581 14.2096 17.1522 13.4438 17.3898 12.585C17.6273 11.7261 17.5969 10.8153 17.3027 9.97417L15.9302 6.055C15.6306 5.19882 15.0723 4.45693 14.3325 3.932C13.5927 3.40707 12.7081 3.12506 11.801 3.125H11.6744ZM5.86436 10.3417C5.77602 7.39333 8.36852 5.20833 11.6735 5.20833H11.801C12.2763 5.20829 12.7398 5.35601 13.1274 5.63102C13.5149 5.90603 13.8074 6.29474 13.9644 6.74333L15.336 10.6625C15.49 11.1029 15.5059 11.5799 15.3816 12.0296C15.2572 12.4793 14.9986 12.8804 14.6402 13.1792L12.7035 14.7933C11.6752 15.65 10.9285 17.1133 11.476 18.645C12.2735 20.8792 14.0652 23.61 15.6744 25.2317C16.6377 26.2025 17.991 26.3717 19.1244 26.1067L21.976 25.4417C22.3911 25.3448 22.8251 25.3656 23.229 25.5017C23.633 25.6379 23.9909 25.8841 24.2627 26.2125L26.4619 28.8692C27.0669 29.6008 27.1402 30.635 26.6452 31.4442C24.8952 34.3083 21.5669 35.3392 19.0635 33.6258C15.2027 30.9776 11.9863 27.4957 9.65185 23.4375C6.79685 18.4933 5.96852 13.82 5.86436 10.3417Z" fill="url(#paint0_linear_115_1405)"/>
<path d="M33.9963 7.83364C33.9688 8.0513 33.8559 8.24912 33.6825 8.38356L23.7975 16.0472L30.6789 16.918C30.8965 16.9455 31.0943 17.0584 31.2287 17.2318C31.3632 17.4051 31.4232 17.6248 31.3957 17.8424C31.3681 18.0601 31.2553 18.2579 31.0819 18.3923C30.9085 18.5267 30.6888 18.5868 30.4712 18.5592L21.6086 17.4377C21.1556 17.3804 20.8345 16.9662 20.8918 16.5133L22.0133 7.65063C22.0408 7.43299 22.1537 7.2352 22.3271 7.10078C22.5004 6.96636 22.7201 6.90631 22.9377 6.93386C23.1554 6.9614 23.3532 7.07427 23.4876 7.24764C23.622 7.421 23.6821 7.64067 23.6545 7.85831L22.7837 14.7397L27.7262 10.9078L32.6687 7.076C32.8421 6.94157 33.0618 6.88151 33.2794 6.90906C33.4971 6.9366 33.6949 7.04949 33.8294 7.22288C33.9638 7.39627 34.0239 7.61597 33.9963 7.83364Z" fill="url(#paint1_linear_115_1405)"/>
<defs>
<linearGradient id="paint0_linear_115_1405" x1="3.7793" y1="19.8396" x2="29.0546" y2="19.8396" gradientUnits="userSpaceOnUse">
<stop stop-color="#3286BD"/>
<stop offset="1" stop-color="#32ABB1"/>
</linearGradient>
<linearGradient id="paint1_linear_115_1405" x1="21.5356" y1="11.4257" x2="33.3525" y2="12.9211" gradientUnits="userSpaceOnUse">
<stop stop-color="#3286BD"/>
<stop offset="1" stop-color="#32ABB1"/>
</linearGradient>
</defs>
</svg>
