<svg width="24" height="25" viewBox="0 0 24 25" fill="none" xmlns="http://www.w3.org/2000/svg">
<path fill-rule="evenodd" clip-rule="evenodd" d="M16 14.4141C17.3261 14.4141 18.5979 14.9408 19.5355 15.8785C20.4732 16.8162 21 18.088 21 19.4141V21.4141C21 21.6793 20.8946 21.9336 20.7071 22.1212C20.5196 22.3087 20.2652 22.4141 20 22.4141C19.7348 22.4141 19.4804 22.3087 19.2929 22.1212C19.1054 21.9336 19 21.6793 19 21.4141V19.4141C19 18.6184 18.6839 17.8554 18.1213 17.2927C17.5587 16.7301 16.7956 16.4141 16 16.4141H8C7.20435 16.4141 6.44129 16.7301 5.87868 17.2927C5.31607 17.8554 5 18.6184 5 19.4141V21.4141C5 21.6793 4.89464 21.9336 4.70711 22.1212C4.51957 22.3087 4.26522 22.4141 4 22.4141C3.73478 22.4141 3.48043 22.3087 3.29289 22.1212C3.10536 21.9336 3 21.6793 3 21.4141V19.4141C3 18.088 3.52678 16.8162 4.46447 15.8785C5.40215 14.9408 6.67392 14.4141 8 14.4141H16ZM20 8.41406C20.2652 8.41406 20.5196 8.51942 20.7071 8.70696C20.8946 8.89449 21 9.14885 21 9.41406V10.4141H22C22.2652 10.4141 22.5196 10.5194 22.7071 10.707C22.8946 10.8945 23 11.1488 23 11.4141C23 11.6793 22.8946 11.9336 22.7071 12.1212C22.5196 12.3087 22.2652 12.4141 22 12.4141H21V13.4141C21 13.6793 20.8946 13.9336 20.7071 14.1212C20.5196 14.3087 20.2652 14.4141 20 14.4141C19.7348 14.4141 19.4804 14.3087 19.2929 14.1212C19.1054 13.9336 19 13.6793 19 13.4141V12.4141H18C17.7348 12.4141 17.4804 12.3087 17.2929 12.1212C17.1054 11.9336 17 11.6793 17 11.4141C17 11.1488 17.1054 10.8945 17.2929 10.707C17.4804 10.5194 17.7348 10.4141 18 10.4141H19V9.41406C19 9.14885 19.1054 8.89449 19.2929 8.70696C19.4804 8.51942 19.7348 8.41406 20 8.41406ZM12 2.41406C13.3261 2.41406 14.5979 2.94085 15.5355 3.87853C16.4732 4.81621 17 6.08798 17 7.41406C17 8.74014 16.4732 10.0119 15.5355 10.9496C14.5979 11.8873 13.3261 12.4141 12 12.4141C10.6739 12.4141 9.40215 11.8873 8.46447 10.9496C7.52678 10.0119 7 8.74014 7 7.41406C7 6.08798 7.52678 4.81621 8.46447 3.87853C9.40215 2.94085 10.6739 2.41406 12 2.41406ZM12 4.41406C11.606 4.41406 11.2159 4.49166 10.8519 4.64242C10.488 4.79319 10.1573 5.01417 9.87868 5.29274C9.6001 5.57132 9.37913 5.90204 9.22836 6.26601C9.0776 6.62999 9 7.0201 9 7.41406C9 7.80803 9.0776 8.19814 9.22836 8.56211C9.37913 8.92609 9.6001 9.25681 9.87868 9.53538C10.1573 9.81396 10.488 10.0349 10.8519 10.1857C11.2159 10.3365 11.606 10.4141 12 10.4141C12.7956 10.4141 13.5587 10.098 14.1213 9.53538C14.6839 8.97277 15 8.20971 15 7.41406C15 6.61841 14.6839 5.85535 14.1213 5.29274C13.5587 4.73013 12.7956 4.41406 12 4.41406Z" fill="white"/>
</svg>
