<svg width="24" height="25" viewBox="0 0 24 25" fill="none" xmlns="http://www.w3.org/2000/svg">
<path d="M11.3137 3.53469C11.7759 3.06077 12.3275 2.68332 12.9366 2.42425C13.5458 2.16518 14.2003 2.02964 14.8622 2.02549C15.5241 2.02134 16.1803 2.14867 16.7926 2.40009C17.405 2.65151 17.9613 3.02201 18.4293 3.49011C18.8974 3.9582 19.2678 4.51457 19.5191 5.12695C19.7704 5.73932 19.8977 6.3955 19.8934 7.05743C19.8892 7.71935 19.7536 8.37385 19.4944 8.98295C19.2352 9.59205 18.8577 10.1436 18.3837 10.6057L10.6067 18.3837C10.329 18.666 9.99817 18.8906 9.63324 19.0444C9.26832 19.1982 8.87655 19.2783 8.48053 19.2799C8.08451 19.2816 7.69208 19.2048 7.32588 19.0541C6.95968 18.9033 6.62695 18.6815 6.34689 18.4015C6.06683 18.1215 5.84497 17.7889 5.69413 17.4227C5.54328 17.0565 5.46642 16.6641 5.46798 16.2681C5.46955 15.8721 5.54951 15.4803 5.70325 15.1153C5.85699 14.7504 6.08146 14.4195 6.36373 14.1417L14.1417 6.36369L15.5557 7.77769L7.77773 15.5557C7.68222 15.6479 7.60604 15.7583 7.55363 15.8803C7.50122 16.0023 7.47364 16.1335 7.47248 16.2663C7.47133 16.3991 7.49663 16.5307 7.54691 16.6536C7.59719 16.7765 7.67144 16.8882 7.76534 16.9821C7.85923 17.076 7.97088 17.1502 8.09378 17.2005C8.21667 17.2508 8.34835 17.2761 8.48113 17.2749C8.61391 17.2738 8.74513 17.2462 8.86714 17.1938C8.98914 17.1414 9.09949 17.0652 9.19173 16.9697L16.9707 9.19169C17.2493 8.91309 17.4703 8.58235 17.6211 8.21834C17.7719 7.85433 17.8495 7.46419 17.8495 7.07019C17.8495 6.67619 17.7719 6.28605 17.6211 5.92204C17.4703 5.55804 17.2493 5.22729 16.9707 4.94869C16.6921 4.67009 16.3614 4.44909 15.9974 4.29832C15.6334 4.14754 15.2432 4.06994 14.8492 4.06994C14.4552 4.06994 14.0651 4.14754 13.7011 4.29832C13.3371 4.44909 13.0063 4.67009 12.7277 4.94869L4.94973 12.7277C4.03894 13.6707 3.53497 14.9337 3.54636 16.2447C3.55775 17.5557 4.0836 18.8097 5.01064 19.7368C5.93768 20.6638 7.19174 21.1897 8.50273 21.2011C9.81371 21.2125 11.0767 20.7085 12.0197 19.7977L20.5057 11.3127L21.9197 12.7277L13.4347 21.2127C12.1219 22.5255 10.3413 23.263 8.48473 23.263C6.62812 23.263 4.84755 22.5255 3.53473 21.2127C2.22191 19.8999 1.48438 18.1193 1.48438 16.2627C1.48437 14.4061 2.22191 12.6255 3.53473 11.3127L11.3137 3.53469Z" fill="white"/>
</svg>
