<svg width="20" height="21" viewBox="0 0 20 21" fill="none" xmlns="http://www.w3.org/2000/svg">
<path d="M16.7443 2.38398H14.7744V1.39902C14.7744 1.1378 14.6706 0.887267 14.4859 0.702551C14.3012 0.517835 14.0507 0.414063 13.7895 0.414062C13.5282 0.414063 13.2777 0.517835 13.093 0.702551C12.9083 0.887267 12.8045 1.1378 12.8045 1.39902V2.38398H6.89473V1.39902C6.89473 1.1378 6.79095 0.887267 6.60624 0.702551C6.42152 0.517835 6.17099 0.414063 5.90977 0.414062C5.64854 0.414063 5.39801 0.517835 5.21329 0.702551C5.02858 0.887267 4.9248 1.1378 4.9248 1.39902V2.38398H2.95488C2.1712 2.38398 1.41961 2.6953 0.865465 3.24945C0.311317 3.8036 0 4.55518 0 5.33887V17.1584C0 17.9421 0.311317 18.6937 0.865465 19.2478C1.41961 19.802 2.1712 20.1133 2.95488 20.1133H16.7443C17.528 20.1133 18.2796 19.802 18.8338 19.2478C19.3879 18.6937 19.6992 17.9421 19.6992 17.1584V5.33887C19.6992 4.55518 19.3879 3.8036 18.8338 3.24945C18.2796 2.6953 17.528 2.38398 16.7443 2.38398ZM17.7293 17.1584C17.7293 17.4196 17.6255 17.6702 17.4408 17.8549C17.2561 18.0396 17.0056 18.1434 16.7443 18.1434H2.95488C2.69365 18.1434 2.44313 18.0396 2.25841 17.8549C2.07369 17.6702 1.96992 17.4196 1.96992 17.1584V10.2637H17.7293V17.1584ZM17.7293 8.29375H1.96992V5.33887C1.96992 5.07764 2.07369 4.82711 2.25841 4.64239C2.44313 4.45768 2.69365 4.35391 2.95488 4.35391H4.9248V5.33887C4.9248 5.60009 5.02858 5.85062 5.21329 6.03534C5.39801 6.22006 5.64854 6.32383 5.90977 6.32383C6.17099 6.32383 6.42152 6.22006 6.60624 6.03534C6.79095 5.85062 6.89473 5.60009 6.89473 5.33887V4.35391H12.8045V5.33887C12.8045 5.60009 12.9083 5.85062 13.093 6.03534C13.2777 6.22006 13.5282 6.32383 13.7895 6.32383C14.0507 6.32383 14.3012 6.22006 14.4859 6.03534C14.6706 5.85062 14.7744 5.60009 14.7744 5.33887V4.35391H16.7443C17.0056 4.35391 17.2561 4.45768 17.4408 4.64239C17.6255 4.82711 17.7293 5.07764 17.7293 5.33887V8.29375Z" fill="#BDBDBD"/>
</svg>
