<svg width="24" height="25" viewBox="0 0 24 25" fill="none" xmlns="http://www.w3.org/2000/svg">
<path d="M13 5.41406V7.41406M13 17.4141V19.4141M13 11.4141V13.4141M2 9.41406C2.79565 9.41406 3.55871 9.73013 4.12132 10.2927C4.68393 10.8554 5 11.6184 5 12.4141C5 13.2097 4.68393 13.9728 4.12132 14.5354C3.55871 15.098 2.79565 15.4141 2 15.4141V17.4141C2 17.9445 2.21071 18.4532 2.58579 18.8283C2.96086 19.2033 3.46957 19.4141 4 19.4141H20C20.5304 19.4141 21.0391 19.2033 21.4142 18.8283C21.7893 18.4532 22 17.9445 22 17.4141V15.4141C21.2044 15.4141 20.4413 15.098 19.8787 14.5354C19.3161 13.9728 19 13.2097 19 12.4141C19 11.6184 19.3161 10.8554 19.8787 10.2927C20.4413 9.73013 21.2044 9.41406 22 9.41406V7.41406C22 6.88363 21.7893 6.37492 21.4142 5.99985C21.0391 5.62478 20.5304 5.41406 20 5.41406H4C3.46957 5.41406 2.96086 5.62478 2.58579 5.99985C2.21071 6.37492 2 6.88363 2 7.41406V9.41406Z" stroke="white" stroke-width="2" stroke-linecap="round" stroke-linejoin="round"/>
</svg>
