<svg width="24" height="25" viewBox="0 0 24 25" fill="none" xmlns="http://www.w3.org/2000/svg">
<path d="M2 6.41406C2 5.3532 2.42143 4.33578 3.17157 3.58564C3.92172 2.83549 4.93913 2.41406 6 2.41406H18C19.0609 2.41406 20.0783 2.83549 20.8284 3.58564C21.5786 4.33578 22 5.3532 22 6.41406V14.4141C22 15.4749 21.5786 16.4923 20.8284 17.2425C20.0783 17.9926 19.0609 18.4141 18 18.4141H13.302L7.554 22.2461C7.40341 22.3463 7.22846 22.4038 7.04778 22.4124C6.86711 22.421 6.68747 22.3805 6.528 22.2951C6.36853 22.2098 6.23521 22.0827 6.14223 21.9276C6.04925 21.7724 6.00009 21.5949 6 21.4141V18.4141C4.93913 18.4141 3.92172 17.9926 3.17157 17.2425C2.42143 16.4923 2 15.4749 2 14.4141V6.41406ZM6 4.41406C5.46957 4.41406 4.96086 4.62478 4.58579 4.99985C4.21071 5.37492 4 5.88363 4 6.41406V14.4141C4 14.9445 4.21071 15.4532 4.58579 15.8283C4.96086 16.2033 5.46957 16.4141 6 16.4141H7C7.26522 16.4141 7.51957 16.5194 7.70711 16.707C7.89464 16.8945 8 17.1488 8 17.4141V19.5461L12.446 16.5821C12.6101 16.4727 12.8028 16.4142 13 16.4141H18C18.5304 16.4141 19.0391 16.2033 19.4142 15.8283C19.7893 15.4532 20 14.9445 20 14.4141V6.41406C20 5.88363 19.7893 5.37492 19.4142 4.99985C19.0391 4.62478 18.5304 4.41406 18 4.41406H6Z" fill="white"/>
</svg>
