<svg width="26" height="27" viewBox="0 0 26 27" fill="none" xmlns="http://www.w3.org/2000/svg">
<path fill-rule="evenodd" clip-rule="evenodd" d="M6.4675 6.38919C7.98362 5.19156 10.2456 4.47656 13 4.47656C13.5015 4.47572 14.0026 4.50067 14.5015 4.55131C14.8196 4.57755 15.1353 4.47796 15.3807 4.27393C15.6262 4.06991 15.7818 3.77774 15.8142 3.46021C15.8465 3.14268 15.753 2.82513 15.5537 2.5758C15.3545 2.32647 15.0653 2.16526 14.7485 2.12681C14.1674 2.06902 13.5839 2.03974 13 2.03906C9.85888 2.03906 7.01512 2.85156 4.95625 4.47656C2.899 6.10156 1.625 8.53906 1.625 11.7891C1.625 15.2292 3.05175 17.7593 5.32512 19.3778L5.12525 21.7893C5.07939 22.3407 5.19979 22.8933 5.47092 23.3756C5.74205 23.858 6.15148 24.248 6.64639 24.4955C7.1413 24.7429 7.699 24.8364 8.24756 24.7639C8.79612 24.6914 9.31038 24.4562 9.724 24.0887L12.6003 21.5342C12.7313 21.5374 12.8646 21.5391 13 21.5391C16.1411 21.5391 18.9849 20.7266 21.0437 19.1016C23.101 17.4766 24.375 15.0391 24.375 11.7891C24.375 11.4658 24.2466 11.1558 24.018 10.9273C23.7895 10.6987 23.4795 10.5703 23.1562 10.5703C22.833 10.5703 22.523 10.6987 22.2945 10.9273C22.0659 11.1558 21.9375 11.4658 21.9375 11.7891C21.9375 14.3289 20.9788 16.0466 19.5325 17.1889C18.0164 18.3866 15.7544 19.1016 13 19.1016C12.883 19.1016 12.7676 19.1005 12.6539 19.0983L12.1745 19.0869L11.6951 19.0772L11.3376 19.3941L8.10388 22.2671C8.05425 22.3107 7.99272 22.3385 7.92718 22.3469C7.86164 22.3553 7.79508 22.3439 7.73605 22.3142C7.67702 22.2846 7.62821 22.2379 7.59588 22.1803C7.56355 22.1226 7.54919 22.0567 7.55463 21.9908L7.813 18.8887L7.86987 18.1981L7.30437 17.7951L6.7405 17.3921C5.1285 16.2464 4.0625 14.4671 4.0625 11.7891C4.0625 9.24919 5.02125 7.53156 6.4675 6.38919ZM20.3125 9.35156C21.1745 9.35156 22.0011 9.00915 22.6106 8.39966C23.2201 7.79017 23.5625 6.96352 23.5625 6.10156C23.5625 5.23961 23.2201 4.41296 22.6106 3.80347C22.0011 3.19397 21.1745 2.85156 20.3125 2.85156C19.4505 2.85156 18.6239 3.19397 18.0144 3.80347C17.4049 4.41296 17.0625 5.23961 17.0625 6.10156C17.0625 6.96352 17.4049 7.79017 18.0144 8.39966C18.6239 9.00915 19.4505 9.35156 20.3125 9.35156Z" fill="white"/>
</svg>
