<svg width="24" height="25" viewBox="0 0 24 25" fill="none" xmlns="http://www.w3.org/2000/svg">
<g clip-path="url(#clip0_33_21614)">
<path d="M11.9995 7.41358L15.9995 11.4136M11.9995 7.41358L7.99952 11.5806M11.9995 7.41358V16.4136M11.5755 1.83758C11.688 1.72522 11.8405 1.66211 11.9995 1.66211C12.1585 1.66211 12.311 1.72522 12.4235 1.83758L22.5755 11.9896C22.6879 12.1021 22.751 12.2546 22.751 12.4136C22.751 12.5726 22.6879 12.7251 22.5755 12.8376L12.4235 22.9896C12.311 23.1019 12.1585 23.1651 11.9995 23.1651C11.8405 23.1651 11.688 23.1019 11.5755 22.9896L1.42352 12.8376C1.31116 12.7251 1.24805 12.5726 1.24805 12.4136C1.24805 12.2546 1.31116 12.1021 1.42352 11.9896L11.5755 1.83758Z" stroke="white" stroke-width="1.5" stroke-linecap="round" stroke-linejoin="round"/>
</g>
<defs>
<clipPath id="clip0_33_21614">
<rect width="24" height="24" fill="white" transform="translate(0 0.414062)"/>
</clipPath>
</defs>
</svg>
