<svg width="52" height="52" viewBox="0 0 52 52" fill="none" xmlns="http://www.w3.org/2000/svg">
<circle cx="26" cy="26" r="26" fill="url(#paint0_linear_667_1338)"/>
<path d="M26 25.6484V26.3568M26 20.3359V21.0443M26 30.9609V31.6693M35.9167 35.9193C36.6681 35.9193 37.3888 35.6208 37.9201 35.0894C38.4515 34.5581 38.75 33.8374 38.75 33.0859V28.8359C37.9986 28.8359 37.2779 28.5374 36.7465 28.0061C36.2152 27.4747 35.9167 26.7541 35.9167 26.0026C35.9167 25.2512 36.2152 24.5305 36.7465 23.9991C37.2779 23.4678 37.9986 23.1693 38.75 23.1693V18.9193C38.75 18.1678 38.4515 17.4472 37.9201 16.9158C37.3888 16.3844 36.6681 16.0859 35.9167 16.0859H16.0833C15.3319 16.0859 14.6112 16.3844 14.0799 16.9158C13.5485 17.4472 13.25 18.1678 13.25 18.9193V23.1693C14.0014 23.1693 14.7221 23.4678 15.2535 23.9991C15.7848 24.5305 16.0833 25.2512 16.0833 26.0026C16.0833 26.7541 15.7848 27.4747 15.2535 28.0061C14.7221 28.5374 14.0014 28.8359 13.25 28.8359V33.0859C13.25 33.8374 13.5485 34.5581 14.0799 35.0894C14.6112 35.6208 15.3319 35.9193 16.0833 35.9193H35.9167Z" stroke="white" stroke-width="2" stroke-linecap="round" stroke-linejoin="round"/>
<defs>
<linearGradient id="paint0_linear_667_1338" x1="0" y1="26" x2="52" y2="26" gradientUnits="userSpaceOnUse">
<stop stop-color="#4E71E7"/>
<stop offset="1" stop-color="#44A8E4"/>
</linearGradient>
</defs>
</svg>
