<svg width="32" height="32" viewBox="0 0 32 32" fill="none" xmlns="http://www.w3.org/2000/svg">
<path d="M24.1108 15.1517V9.26756C24.1108 9.02929 24.0163 8.80085 23.8478 8.63273L16.1541 0.93883C15.9857 0.770479 15.7573 0.675781 15.5193 0.675781H1.57414C1.07821 0.675781 0.67627 1.07772 0.67627 1.57366V30.4254C0.67627 30.9213 1.07821 31.3232 1.57414 31.3232H23.2129C27.6852 31.3232 31.3237 27.6847 31.3237 23.2124C31.3237 19.0436 28.1622 15.5999 24.1108 15.1517ZM16.4171 3.74142L21.0452 8.36945H16.4171V3.74142ZM2.47202 29.5275V2.47153H14.6214V9.26732C14.6214 9.76326 15.0233 10.1652 15.5193 10.1652H22.3151V15.1517C18.2636 15.5999 15.1021 19.0436 15.1021 23.2124C15.1021 25.7616 16.2846 28.0395 18.1294 29.5275H2.47202ZM23.2129 29.5275C19.7309 29.5275 16.8979 26.6945 16.8979 23.2124C16.8979 19.7304 19.7309 16.8974 23.2129 16.8974C26.695 16.8974 29.528 19.7304 29.528 23.2124C29.528 26.6945 26.695 29.5275 23.2129 29.5275Z" fill="url(#paint0_linear_1_56017)"/>
<path d="M25.619 22.3145H24.1125V20.808C24.1125 20.3123 23.7106 19.9102 23.2146 19.9102C22.7187 19.9102 22.3168 20.3123 22.3168 20.808V22.3145H20.8105C20.3145 22.3145 19.9126 22.7165 19.9126 23.2124C19.9126 23.7084 20.3145 24.1103 20.8105 24.1103H22.3168V25.6168C22.3168 26.1125 22.7187 26.5147 23.2146 26.5147C23.7106 26.5147 24.1125 26.1125 24.1125 25.6168V24.1103H25.619C26.1149 24.1103 26.5169 23.7084 26.5169 23.2124C26.5169 22.7165 26.1149 22.3145 25.619 22.3145Z" fill="url(#paint1_linear_1_56017)"/>
<defs>
<linearGradient id="paint0_linear_1_56017" x1="0.67627" y1="15.9995" x2="31.3237" y2="15.9995" gradientUnits="userSpaceOnUse">
<stop stop-color="#32ABB1"/>
<stop offset="1" stop-color="#3286BD"/>
</linearGradient>
<linearGradient id="paint1_linear_1_56017" x1="19.9126" y1="23.2124" x2="26.5169" y2="23.2124" gradientUnits="userSpaceOnUse">
<stop stop-color="#32ABB1"/>
<stop offset="1" stop-color="#3286BD"/>
</linearGradient>
</defs>
</svg>
