<svg width="38" height="38" viewBox="0 0 38 38" fill="none" xmlns="http://www.w3.org/2000/svg">
<path d="M17.7625 25.3773V20.2429H12.6281C11.8178 20.2429 11.1611 19.5862 11.1611 18.7759C11.1611 17.9659 11.8178 17.3089 12.6281 17.3089H17.7625V12.1745C17.7625 11.3645 18.4192 10.7075 19.2295 10.7075C20.0398 10.7075 20.6965 11.3645 20.6965 12.1745V17.3089H25.8309C26.6412 17.3089 27.2979 17.9659 27.2979 18.7759C27.2979 19.5862 26.6412 20.2429 25.8309 20.2429H20.6965V25.3773C20.6965 26.1876 20.0398 26.8443 19.2295 26.8443C18.4192 26.8443 17.7625 26.1876 17.7625 25.3773ZM32.5071 5.49974C28.9606 1.9532 24.245 0 19.2295 0C14.214 0 9.49843 1.9532 5.95189 5.49974C2.40535 9.04628 0.452148 13.7618 0.452148 18.7773C0.452148 23.7929 2.40535 28.5084 5.95189 32.0549C9.49843 35.6015 14.214 37.5547 19.2295 37.5547C22.6631 37.5547 26.0229 36.6189 28.9454 34.8485C29.6385 34.4288 29.8599 33.5268 29.4402 32.834C29.0204 32.1409 28.1182 31.9194 27.4254 32.3392C24.9613 33.8317 22.1271 34.6207 19.2295 34.6207C10.4935 34.6207 3.38611 27.5133 3.38611 18.7773C3.38611 10.0414 10.4935 2.93396 19.2295 2.93396C27.9655 2.93396 35.0729 10.0414 35.0729 18.7773C35.0729 21.9013 34.144 24.9418 32.3865 27.5709C31.9361 28.2442 32.1171 29.1554 32.7907 29.6058C33.4641 30.0559 34.3752 29.8748 34.8256 29.2015C36.9066 26.0885 38.0068 22.4838 38.0068 18.7773C38.0068 13.7618 36.0536 9.04628 32.5071 5.49974Z" fill="url(#paint0_linear_1_54288)"/>
<defs>
<linearGradient id="paint0_linear_1_54288" x1="0.452148" y1="18.7773" x2="38.0068" y2="18.7773" gradientUnits="userSpaceOnUse">
<stop stop-color="#32ABB1"/>
<stop offset="1" stop-color="#3286BD"/>
</linearGradient>
</defs>
</svg>
