<svg width="33" height="35" viewBox="0 0 33 35" fill="none" xmlns="http://www.w3.org/2000/svg">
<path d="M9.13281 15.6188H7.53125C7.27639 15.6188 7.03198 15.5175 6.85177 15.3373C6.67155 15.1571 6.57031 14.9127 6.57031 14.6579C6.57031 14.403 6.67155 14.1586 6.85177 13.9784C7.03198 13.7982 7.27639 13.6969 7.53125 13.6969H12.6562C12.9111 13.6969 13.1555 13.7982 13.3357 13.9784C13.5159 14.1586 13.6172 14.403 13.6172 14.6579C13.6172 14.9127 13.5159 15.1571 13.3357 15.3373C13.1555 15.5175 12.9111 15.6188 12.6562 15.6188H11.0547V22.3454C11.0547 22.6002 10.9534 22.8446 10.7732 23.0248C10.593 23.205 10.3486 23.3063 10.0938 23.3063C9.83889 23.3063 9.59448 23.205 9.41426 23.0248C9.23405 22.8446 9.13281 22.6002 9.13281 22.3454V15.6188ZM32.8359 12.8545V22.3454C32.8362 23.9049 32.2385 25.4051 31.1659 26.5373C30.0934 27.6694 28.6276 28.3473 27.0703 28.4313C26.3575 30.3184 25.0868 31.9437 23.4274 33.0907C21.7679 34.2377 19.7985 34.8521 17.7812 34.8521C15.764 34.8521 13.7946 34.2377 12.1351 33.0907C10.4757 31.9437 9.20503 30.3184 8.49219 28.4313H2.40625C1.81158 28.4313 1.24128 28.1951 0.820784 27.7746C0.400292 27.3541 0.164062 26.7838 0.164062 26.1891V10.8141C0.164062 10.2194 0.400292 9.64913 0.820784 9.22863C1.24128 8.80814 1.81158 8.57191 2.40625 8.57191H11.9099C11.5215 7.13443 11.6736 5.60442 12.3373 4.27151C13.0011 2.93859 14.1305 1.89527 15.5117 1.33902C16.8929 0.782779 18.4302 0.752215 19.8324 1.25312C21.2347 1.75402 22.4046 2.75163 23.1209 4.05711C24.0823 3.51761 25.2001 3.32517 26.2866 3.51207C27.3731 3.69896 28.3623 4.25383 29.0882 5.08359C29.8141 5.91334 30.2326 6.9675 30.2734 8.06922C30.3143 9.17094 29.975 10.2532 29.3125 11.1344H31.1191C31.5746 11.1357 32.011 11.3174 32.3328 11.6398C32.6546 11.9622 32.8355 12.399 32.8359 12.8545ZM23.7743 5.92133C23.8361 6.26759 23.8672 6.61862 23.8672 6.97035C23.8675 8.51716 23.2788 10.0061 22.2208 11.1344H25.4688C25.9239 11.1348 26.3728 11.0275 26.7785 10.8211C27.1842 10.6147 27.5353 10.3152 27.803 9.94706C28.0707 9.57891 28.2475 9.1526 28.3187 8.70302C28.39 8.25344 28.3538 7.79337 28.2131 7.36047C28.0724 6.92757 27.8312 6.53414 27.5092 6.21239C27.1872 5.89064 26.7936 5.64971 26.3606 5.50932C25.9276 5.36893 25.4675 5.33308 25.018 5.40469C24.5684 5.4763 24.1422 5.65334 23.7743 5.92133ZM13.9375 8.57191H17.7812C18.32 8.57255 18.8404 8.76712 19.2475 9.12003C19.6545 9.47294 19.9209 9.9606 19.9978 10.4938C20.67 10.071 21.2073 9.46478 21.5463 8.74668C21.8853 8.02858 22.0119 7.22851 21.9111 6.44083C21.8104 5.65314 21.4865 4.91069 20.9777 4.301C20.4689 3.69132 19.7964 3.23984 19.0395 2.99979C18.2825 2.75974 17.4727 2.74114 16.7055 2.94618C15.9384 3.15122 15.2458 3.57135 14.7095 4.15703C14.1733 4.74271 13.8157 5.46951 13.6789 6.25174C13.5421 7.03397 13.6318 7.839 13.9375 8.57191ZM2.40625 26.5094H17.7812C17.8662 26.5094 17.9477 26.4757 18.0077 26.4156C18.0678 26.3555 18.1016 26.2741 18.1016 26.1891V10.8141C18.1016 10.7291 18.0678 10.6477 18.0077 10.5876C17.9477 10.5275 17.8662 10.4938 17.7812 10.4938H2.40625C2.3213 10.4938 2.23982 10.5275 2.17975 10.5876C2.11968 10.6477 2.08594 10.7291 2.08594 10.8141V26.1891C2.08594 26.2741 2.11968 26.3555 2.17975 26.4156C2.23982 26.4757 2.3213 26.5094 2.40625 26.5094ZM25.7891 24.9079V13.3766C25.7891 13.2916 25.7553 13.2102 25.6952 13.1501C25.6352 13.09 25.5537 13.0563 25.4688 13.0563H20.0234V26.1891C20.0234 26.7838 19.7872 27.3541 19.3667 27.7746C18.9462 28.1951 18.3759 28.4313 17.7812 28.4313H10.5902C11.3864 30.0562 12.7094 31.3635 14.3436 32.1403C15.9778 32.9171 17.827 33.1175 19.5897 32.7088C21.3524 32.3002 22.9247 31.3066 24.0505 29.89C25.1763 28.4734 25.7891 26.7173 25.7891 24.9079ZM30.9141 13.0563H27.6853C27.701 13.1624 27.7096 13.2694 27.7109 13.3766V24.9079C27.7106 25.4151 27.6721 25.9215 27.5956 26.4229C28.5333 26.2285 29.3752 25.7168 29.9797 24.974C30.5841 24.2313 30.9141 23.303 30.9141 22.3454V13.0563Z" fill="url(#paint0_linear_1169_1446)"/>
<defs>
<linearGradient id="paint0_linear_1169_1446" x1="0.164062" y1="17.8753" x2="32.8359" y2="17.8753" gradientUnits="userSpaceOnUse">
<stop stop-color="#32ABB1"/>
<stop offset="1" stop-color="#3286BD"/>
</linearGradient>
</defs>
</svg>
