<svg width="16" height="21" viewBox="0 0 16 21" fill="none" xmlns="http://www.w3.org/2000/svg">
<path fill-rule="evenodd" clip-rule="evenodd" d="M4.7 4.5V10.5C4.7 10.9334 4.78536 11.3625 4.9512 11.7629C5.11704 12.1632 5.36011 12.527 5.66655 12.8335C5.97298 13.1399 6.33677 13.383 6.73714 13.5488C7.13752 13.7146 7.56664 13.8 8 13.8C8.43336 13.8 8.86248 13.7146 9.26286 13.5488C9.66323 13.383 10.027 13.1399 10.3335 12.8335C10.6399 12.527 10.883 12.1632 11.0488 11.7629C11.2146 11.3625 11.3 10.9334 11.3 10.5V4.5C11.3 3.62479 10.9523 2.78542 10.3335 2.16655C9.71458 1.54768 8.87521 1.2 8 1.2C7.12479 1.2 6.28542 1.54768 5.66655 2.16655C5.04768 2.78542 4.7 3.62479 4.7 4.5ZM8.6 17.976V21H7.4V17.976C5.52078 17.8252 3.76728 16.9722 2.48864 15.5868C1.20999 14.2014 0.49999 12.3853 0.5 10.5V9H1.7V10.5C1.7 12.1709 2.36375 13.7733 3.54523 14.9548C4.72671 16.1363 6.32914 16.8 8 16.8C9.67086 16.8 11.2733 16.1363 12.4548 14.9548C13.6363 13.7733 14.3 12.1709 14.3 10.5V9H15.5V10.5C15.5 12.3853 14.79 14.2014 13.5114 15.5868C12.2327 16.9722 10.4792 17.8252 8.6 17.976ZM3.5 4.5C3.5 3.30653 3.97411 2.16193 4.81802 1.31802C5.66193 0.474106 6.80653 0 8 0C9.19347 0 10.3381 0.474106 11.182 1.31802C12.0259 2.16193 12.5 3.30653 12.5 4.5V10.5C12.5 11.6935 12.0259 12.8381 11.182 13.682C10.3381 14.5259 9.19347 15 8 15C6.80653 15 5.66193 14.5259 4.81802 13.682C3.97411 12.8381 3.5 11.6935 3.5 10.5V4.5Z" fill="black"/>
</svg>
