<svg width="39" height="39" viewBox="0 0 39 39" fill="none" xmlns="http://www.w3.org/2000/svg">
<circle cx="19.5" cy="19.5" r="19.5" fill="url(#paint0_linear_78_1706)"/>
<path d="M26.9971 25.2763C26.9029 25.6986 26.6694 26.0769 26.3341 26.3503C25.9678 26.7218 25.5314 27.0168 25.0501 27.2182C24.5688 27.4196 24.0523 27.5233 23.5306 27.5233H23.2869C22.1919 27.4639 21.1197 27.1867 20.1331 26.7081H20.1256C19.8969 26.6016 19.6606 26.4951 19.4319 26.3653C18.2802 25.7196 17.2238 24.9169 16.2931 23.9803C15.0853 22.8458 14.0941 21.5009 13.3681 20.0113C12.9823 19.195 12.7248 18.324 12.6046 17.4291C12.428 16.4923 12.5342 15.5242 12.9099 14.6481C13.147 14.2528 13.4367 13.8915 13.7709 13.5741C13.9213 13.404 14.1051 13.2668 14.311 13.1711C14.5168 13.0753 14.7402 13.0231 14.9671 13.0176C15.214 13.0449 15.4529 13.1209 15.6701 13.2413C15.8873 13.3617 16.0784 13.524 16.2324 13.7188C16.5751 14.0916 16.9936 14.4801 17.3371 14.8386L17.8096 15.3036C18.0871 15.5496 18.2589 15.8931 18.2896 16.2636C18.2896 16.6033 18.1644 16.9311 17.9386 17.1853C17.7924 17.3631 17.6372 17.5334 17.4736 17.6953L17.3214 17.8551C17.2329 17.9376 17.1654 18.0396 17.1234 18.1528C17.0859 18.2643 17.0709 18.3786 17.0784 18.4956C17.1991 18.8188 17.3889 19.1128 17.6334 19.3566C18.0151 19.8741 18.3961 20.3241 18.7846 20.8116C19.4873 21.6274 20.3213 22.3201 21.2521 22.8613C21.3474 22.9311 21.4569 22.9776 21.5731 22.9978C21.6736 23.0053 21.7756 22.9903 21.8701 22.9528C22.1364 22.7961 22.3726 22.5951 22.5706 22.3581C22.8369 22.032 23.2192 21.8218 23.6371 21.7716C24.0393 21.7771 24.423 21.9416 24.7044 22.2291C24.8566 22.3581 25.0239 22.5336 25.1844 22.7016L25.4124 22.9371L25.6486 23.1658L26.0529 23.5768C26.2939 23.7908 26.5199 24.0196 26.7309 24.2631C26.9424 24.5556 27.0376 24.9178 26.9971 25.2763ZM24.2626 20.0571C24.1115 20.0555 23.9671 19.9948 23.8602 19.888C23.7534 19.7811 23.6927 19.6367 23.6911 19.4856C23.6919 19.0542 23.6075 18.6268 23.4428 18.2281C23.2781 17.8294 23.0362 17.4671 22.7312 17.162C22.4261 16.857 22.0638 16.6151 21.6651 16.4504C21.2664 16.2857 20.839 16.2013 20.4076 16.2021C20.2561 16.2021 20.1107 16.1419 20.0035 16.0347C19.8963 15.9275 19.8361 15.7821 19.8361 15.6306C19.8361 15.479 19.8963 15.3336 20.0035 15.2265C20.1107 15.1193 20.2561 15.0591 20.4076 15.0591C20.9892 15.0582 21.5652 15.1721 22.1026 15.3942C22.6401 15.6164 23.1284 15.9424 23.5396 16.3536C23.9508 16.7648 24.2769 17.2531 24.499 17.7906C24.7211 18.328 24.835 18.904 24.8341 19.4856C24.8343 19.5607 24.8197 19.6351 24.791 19.7045C24.7624 19.7739 24.7203 19.837 24.6672 19.8901C24.6141 19.9432 24.551 19.9853 24.4816 20.014C24.4121 20.0426 24.3377 20.0573 24.2626 20.0571Z" fill="white"/>
<path d="M26.9061 19.7902C26.7551 19.7886 26.6108 19.728 26.504 19.6213C26.3971 19.5147 26.3363 19.3704 26.3346 19.2194C26.3358 18.4844 26.192 17.7563 25.9115 17.0768C25.631 16.3974 25.2193 15.7799 24.6999 15.2597C24.1805 14.7396 23.5636 14.3269 22.8846 14.0454C22.2055 13.7639 21.4777 13.6191 20.7426 13.6192C20.6658 13.622 20.5893 13.6093 20.5176 13.5818C20.4459 13.5544 20.3804 13.5127 20.3252 13.4594C20.2699 13.4061 20.2259 13.3422 20.1959 13.2715C20.1659 13.2009 20.1504 13.1249 20.1504 13.0481C20.1504 12.9713 20.1659 12.8953 20.1959 12.8246C20.2259 12.7539 20.2699 12.69 20.3252 12.6367C20.3804 12.5834 20.4459 12.5418 20.5176 12.5143C20.5893 12.4869 20.6658 12.4742 20.7426 12.4769C21.6277 12.4769 22.5041 12.6514 23.3217 12.9903C24.1393 13.3293 24.8821 13.826 25.5076 14.4522C26.1331 15.0784 26.629 15.8218 26.9671 16.6398C27.3051 17.4578 27.4786 18.3344 27.4776 19.2194C27.4778 19.2945 27.4631 19.3689 27.4345 19.4384C27.4058 19.5078 27.3638 19.5709 27.3106 19.624C27.2575 19.6771 27.1945 19.7192 27.125 19.7478C27.0556 19.7765 26.9812 19.7904 26.9061 19.7902Z" fill="white"/>
<defs>
<linearGradient id="paint0_linear_78_1706" x1="0" y1="19.5" x2="39" y2="19.5" gradientUnits="userSpaceOnUse">
<stop stop-color="#32ABB1"/>
<stop offset="1" stop-color="#3286BD"/>
</linearGradient>
</defs>
</svg>
