<svg width="39" height="39" viewBox="0 0 39 39" fill="none" xmlns="http://www.w3.org/2000/svg">
<circle cx="19.5" cy="19.5" r="19.5" fill="url(#paint0_linear_101_1814)"/>
<path d="M12.2086 16.3331C12.2088 15.464 12.4336 14.6097 12.8613 13.8532C13.2889 13.0966 13.9049 12.4634 14.6494 12.0151C15.3939 11.5668 16.2417 11.3185 17.1105 11.2944C17.9792 11.2703 18.8394 11.4712 19.6076 11.8776C20.3759 12.2839 21.026 12.882 21.495 13.6137C21.9639 14.3454 22.2358 15.1859 22.2841 16.0536C22.3325 16.9213 22.1557 17.7868 21.771 18.5661C21.3862 19.3454 20.8066 20.012 20.0883 20.5012C21.6351 21.0685 22.9768 22.0858 23.9407 23.4221C24.9045 24.7585 25.4464 26.3526 25.4966 27.9995C25.4945 28.1771 25.4238 28.3469 25.2994 28.4736C25.1749 28.6003 25.0064 28.674 24.8289 28.6793C24.6514 28.6847 24.4787 28.6212 24.3469 28.5022C24.2151 28.3832 24.1344 28.2179 24.1216 28.0408C24.067 26.2546 23.3191 24.5599 22.0363 23.3157C20.7536 22.0716 19.0368 21.3758 17.2498 21.3758C15.4628 21.3758 13.746 22.0716 12.4633 23.3157C11.1805 24.5599 10.4326 26.2546 10.378 28.0408C10.3688 28.2203 10.2897 28.3891 10.1576 28.5109C10.0255 28.6328 9.85091 28.6981 9.67123 28.6929C9.49156 28.6876 9.3211 28.6122 9.19637 28.4827C9.07164 28.3533 9.00256 28.1802 9.00393 28.0004C9.05393 26.3534 9.59573 24.759 10.5596 23.4225C11.5234 22.086 12.8652 21.0686 14.4123 20.5012C13.7331 20.0386 13.1773 19.4171 12.7932 18.6906C12.4091 17.9642 12.2084 17.1548 12.2086 16.3331ZM17.2503 12.6664C16.2778 12.6664 15.3452 13.0527 14.6575 13.7404C13.9699 14.428 13.5836 15.3606 13.5836 16.3331C13.5836 17.3056 13.9699 18.2382 14.6575 18.9258C15.3452 19.6135 16.2778 19.9998 17.2503 19.9998C18.2227 19.9998 19.1554 19.6135 19.843 18.9258C20.5306 18.2382 20.9169 17.3056 20.9169 16.3331C20.9169 15.3606 20.5306 14.428 19.843 13.7404C19.1554 13.0527 18.2227 12.6664 17.2503 12.6664ZM24.8494 16.3331C24.7144 16.3331 24.5818 16.3423 24.4516 16.3606C24.3607 16.3769 24.2675 16.3747 24.1775 16.3541C24.0875 16.3336 24.0025 16.2951 23.9277 16.2411C23.8529 16.187 23.7897 16.1184 23.742 16.0393C23.6942 15.9603 23.6629 15.8725 23.6498 15.7811C23.6368 15.6897 23.6423 15.5966 23.666 15.5074C23.6897 15.4181 23.7311 15.3346 23.7878 15.2617C23.8445 15.1888 23.9153 15.1281 23.9959 15.0832C24.0766 15.0383 24.1655 15.0101 24.2573 15.0003C25.169 14.8684 26.0986 15.0435 26.8999 15.4979C27.7012 15.9524 28.3286 16.6603 28.6835 17.5104C29.0383 18.3605 29.1005 19.3044 28.8601 20.1937C28.6197 21.0829 28.0904 21.867 27.3556 22.4225C28.4358 22.9062 29.3529 23.6921 29.9964 24.6854C30.6399 25.6788 30.9821 26.8371 30.9819 28.0206C30.9819 28.2029 30.9095 28.3778 30.7806 28.5067C30.6516 28.6357 30.4768 28.7081 30.2944 28.7081C30.1121 28.7081 29.9372 28.6357 29.8083 28.5067C29.6794 28.3778 29.6069 28.2029 29.6069 28.0206C29.6073 26.9976 29.2778 26.0018 28.6676 25.1808C28.0573 24.3598 27.1986 23.7574 26.2189 23.4629L25.7294 23.3163V21.7799L26.1053 21.5883C26.6624 21.3061 27.1081 20.8444 27.3705 20.2777C27.633 19.711 27.6968 19.0724 27.5516 18.465C27.4065 17.8576 27.0608 17.3169 26.5706 16.9301C26.0803 16.5432 25.4739 16.3329 24.8494 16.3331Z" fill="white"/>
<defs>
<linearGradient id="paint0_linear_101_1814" x1="0" y1="19.5" x2="39" y2="19.5" gradientUnits="userSpaceOnUse">
<stop stop-color="#32ABB1"/>
<stop offset="1" stop-color="#3286BD"/>
</linearGradient>
</defs>
</svg>
