<svg width="39" height="39" viewBox="0 0 39 39" fill="none" xmlns="http://www.w3.org/2000/svg">
<circle cx="19.5" cy="19.5" r="19.5" fill="url(#paint0_linear_101_1812)"/>
<path d="M22.7 10C24.38 10 25.22 10 25.862 10.34C26.4313 10.6435 26.8902 11.1191 27.173 11.699C27.5 12.364 27.5 13.235 27.5 14.978V25.022C27.5 26.765 27.5 27.636 27.173 28.302C26.8902 28.8819 26.4313 29.3575 25.862 29.661C25.22 30 24.38 30 22.7 30H17.3C15.62 30 14.78 30 14.138 29.66C13.5687 29.3565 13.1098 28.8809 12.827 28.301C12.5 27.636 12.5 26.765 12.5 25.022V14.978C12.5 13.235 12.5 12.364 12.827 11.698C13.11 11.1185 13.5688 10.6432 14.138 10.34C14.78 10 15.62 10 17.3 10H22.7Z" stroke="white" stroke-width="1.5" stroke-linecap="round" stroke-linejoin="round"/>
<path d="M17.5 29V23.5C17.5 22.9696 17.7107 22.4609 18.0858 22.0858C18.4609 21.7107 18.9696 21.5 19.5 21.5H20.5C21.0304 21.5 21.5391 21.7107 21.9142 22.0858C22.2893 22.4609 22.5 22.9696 22.5 23.5V29M18 14H16M18 18H16M24 14H22M24 18H22" stroke="white" stroke-width="1.5" stroke-linecap="round" stroke-linejoin="round"/>
<defs>
<linearGradient id="paint0_linear_101_1812" x1="0" y1="19.5" x2="39" y2="19.5" gradientUnits="userSpaceOnUse">
<stop stop-color="#32ABB1"/>
<stop offset="1" stop-color="#3286BD"/>
</linearGradient>
</defs>
</svg>
