<svg width="55" height="55" viewBox="0 0 55 55" fill="none" xmlns="http://www.w3.org/2000/svg">
<circle cx="27.5" cy="27.5" r="27.5" fill="url(#paint0_linear_101_1815)"/>
<path d="M24.9587 14.0064L24.6662 13.9464C23.845 13.8054 23.0015 13.8724 22.2128 14.1413C21.4241 14.4103 20.7153 14.8725 20.1512 15.4858C17.8637 17.9814 16.75 21.8289 16.75 27.0039C16.75 32.1696 17.86 36.0133 20.14 38.5071C20.7402 39.1623 21.5047 39.6453 22.3541 39.906C23.2036 40.1668 24.1074 40.1958 24.9719 39.9902L26.0537 39.7333C26.9073 39.5331 27.6591 39.0298 28.1695 38.3169C28.6799 37.6041 28.9142 36.7302 28.8287 35.8577L28.5944 33.5664C28.5149 32.8143 28.2018 32.106 27.699 31.541C27.1962 30.976 26.5291 30.5827 25.7912 30.4164L23.4475 29.8802L23.395 29.8614L23.3313 29.7414C23.2695 29.6145 23.2181 29.4829 23.1775 29.3477C23.0162 28.8227 22.9281 28.0352 22.9281 27.0039C22.9281 25.6071 23.0912 24.6714 23.3519 24.2496C23.3984 24.1745 23.4724 24.1207 23.5581 24.0996L25.7894 23.5914C26.5284 23.4256 27.1968 23.0321 27.7004 22.4663C28.204 21.9005 28.5173 21.191 28.5962 20.4377L28.8306 18.1352C28.916 17.2605 28.6801 16.3847 28.167 15.6712C27.654 14.9577 26.8988 14.4553 26.0425 14.2577L24.9587 14.0064ZM18.7375 27.0039C18.7375 22.2752 19.7181 18.8852 21.6212 16.8114C22.2962 16.0746 23.2975 15.7277 24.28 15.8796L24.5069 15.9227L25.5869 16.1739C26.3969 16.3614 26.9387 17.1171 26.8562 17.9364L26.62 20.2389C26.5832 20.5808 26.4406 20.9026 26.212 21.1594C25.9834 21.4163 25.6803 21.5953 25.345 21.6714L23.1137 22.1833C22.8145 22.2521 22.5319 22.3795 22.2822 22.5581C22.0324 22.7367 21.8206 22.963 21.6587 23.2239C21.1619 24.0302 20.9462 25.2733 20.9462 27.0039C20.9462 29.6364 21.4356 31.2302 22.7575 31.7233L22.9375 31.7796L25.3469 32.3346C25.6822 32.4107 25.9853 32.5897 26.2139 32.8466C26.4424 33.1034 26.5851 33.4252 26.6219 33.7671L26.8562 36.0583C26.8958 36.4552 26.7895 36.853 26.5573 37.1773C26.3251 37.5016 25.9829 37.7303 25.5944 37.8208L24.5125 38.0758C23.9938 38.1982 23.4518 38.1803 22.9423 38.0237C22.4328 37.8672 21.9743 37.5778 21.6137 37.1852C19.7144 35.1096 18.7375 31.7252 18.7375 27.0039ZM35.2281 19.7739C35.0521 19.5979 34.8133 19.499 34.5644 19.499C34.3154 19.499 34.0767 19.5979 33.9006 19.7739C33.7246 19.95 33.6257 20.1887 33.6257 20.4377C33.6257 20.6866 33.7246 20.9254 33.9006 21.1014L37.9244 25.1252H28.9375C28.6889 25.1252 28.4504 25.224 28.2746 25.3998C28.0988 25.5756 28 25.814 28 26.0627C28 26.3113 28.0988 26.5498 28.2746 26.7256C28.4504 26.9014 28.6889 27.0002 28.9375 27.0002H37.9244L33.8987 31.0239C33.7227 31.2 33.6238 31.4387 33.6238 31.6877C33.6238 31.9366 33.7227 32.1754 33.8987 32.3514C34.0748 32.5275 34.3135 32.6264 34.5625 32.6264C34.8115 32.6264 35.0502 32.5275 35.2262 32.3514L40.8512 26.7264C40.9386 26.6394 41.0078 26.5359 41.0551 26.422C41.1023 26.3081 41.1267 26.186 41.1267 26.0627C41.1267 25.9394 41.1023 25.8173 41.0551 25.7034C41.0078 25.5895 40.9386 25.486 40.8512 25.3989L35.2281 19.7739Z" fill="white"/>
<defs>
<linearGradient id="paint0_linear_101_1815" x1="0" y1="27.5" x2="55" y2="27.5" gradientUnits="userSpaceOnUse">
<stop stop-color="#32ABB1"/>
<stop offset="1" stop-color="#3286BD"/>
</linearGradient>
</defs>
</svg>
