<svg width="16" height="16" viewBox="0 0 16 16" fill="none" xmlns="http://www.w3.org/2000/svg">
<path d="M7.35518 5.70469C7.22425 5.7947 7.11928 5.91756 7.05081 6.06094C6.99271 6.16759 6.8955 6.24753 6.77963 6.28393C6.66376 6.32032 6.5383 6.31033 6.42965 6.25604C6.32101 6.20176 6.23768 6.10744 6.19721 5.99293C6.15673 5.87843 6.16228 5.75268 6.21268 5.64219C6.33768 5.39094 6.53331 5.12594 6.83581 4.92469C7.14081 4.72031 7.52643 4.60156 7.99893 4.60156C8.41018 4.60156 8.85456 4.72344 9.20768 4.98844C9.40455 5.13235 9.56421 5.3212 9.67335 5.53928C9.7825 5.75735 9.83798 5.99834 9.83518 6.24219C9.83518 6.88781 9.51456 7.31719 9.19331 7.62656C9.07456 7.74094 8.94393 7.85031 8.83143 7.94406L8.73956 8.02094C8.64269 8.09925 8.55181 8.1847 8.46768 8.27656V9.13281C8.46768 9.25713 8.4183 9.37636 8.33039 9.46427C8.24248 9.55218 8.12325 9.60156 7.99893 9.60156C7.87461 9.60156 7.75538 9.55218 7.66748 9.46427C7.57957 9.37636 7.53018 9.25713 7.53018 9.13281V8.21219C7.53018 8.06406 7.57206 7.89719 7.68456 7.75219C7.82206 7.57719 7.98831 7.42906 8.13331 7.30594L8.24768 7.21031L8.24831 7.20969C8.35581 7.12031 8.45081 7.04094 8.54206 6.95219C8.77206 6.73031 8.89768 6.52969 8.89768 6.24219C8.90061 6.14388 8.87907 6.04638 8.835 5.95845C8.79092 5.87052 8.7257 5.79492 8.64518 5.73844C8.47768 5.61281 8.23893 5.53906 7.99893 5.53906C7.69018 5.53906 7.49018 5.61469 7.35518 5.70469ZM8.62393 11.1641C8.62393 11.3298 8.55808 11.4888 8.44087 11.606C8.32366 11.7232 8.16469 11.7891 7.99893 11.7891C7.83317 11.7891 7.6742 11.7232 7.55699 11.606C7.43978 11.4888 7.37393 11.3298 7.37393 11.1641C7.37393 10.9983 7.43978 10.8393 7.55699 10.7221C7.6742 10.6049 7.83317 10.5391 7.99893 10.5391C8.16469 10.5391 8.32366 10.6049 8.44087 10.7221C8.55808 10.8393 8.62393 10.9983 8.62393 11.1641Z" fill="url(#paint0_linear_2095_8732)"/>
<path d="M7.99902 1.16406C11.7959 1.16406 14.874 4.24219 14.874 8.03906C14.874 11.8359 11.7959 14.9141 7.99902 14.9141C4.20215 14.9141 1.12402 11.8359 1.12402 8.03906C1.12402 4.24219 4.20215 1.16406 7.99902 1.16406ZM2.06152 8.03906C2.06152 9.61379 2.68708 11.124 3.80058 12.2375C4.91407 13.351 6.4243 13.9766 7.99902 13.9766C9.57375 13.9766 11.084 13.351 12.1975 12.2375C13.311 11.124 13.9365 9.61379 13.9365 8.03906C13.9365 6.46434 13.311 4.95411 12.1975 3.84062C11.084 2.72712 9.57375 2.10156 7.99902 2.10156C6.4243 2.10156 4.91407 2.72712 3.80058 3.84062C2.68708 4.95411 2.06152 6.46434 2.06152 8.03906Z" fill="url(#paint1_linear_2095_8732)"/>
<defs>
<linearGradient id="paint0_linear_2095_8732" x1="9.7602" y1="14.3878" x2="6.15061" y2="14.2893" gradientUnits="userSpaceOnUse">
<stop stop-color="#32ABB1"/>
<stop offset="0.990045" stop-color="#3286BD"/>
</linearGradient>
<linearGradient id="paint1_linear_2095_8732" x1="14.5923" y1="19.8856" x2="1.07834" y2="19.1625" gradientUnits="userSpaceOnUse">
<stop stop-color="#32ABB1"/>
<stop offset="0.990045" stop-color="#3286BD"/>
</linearGradient>
</defs>
</svg>
