<svg width="27" height="27" viewBox="0 0 27 27" fill="none" xmlns="http://www.w3.org/2000/svg">
<path d="M12.5836 23.5153V21.345H21.2646V13.6406C21.2646 11.5246 20.5278 9.72977 19.0542 8.25616C17.5806 6.78255 15.7854 6.04539 13.6687 6.04466C11.552 6.04394 9.75717 6.78111 8.28428 8.25616C6.81139 9.73122 6.07423 11.526 6.07278 13.6406V20.2599H4.98765C4.39082 20.2599 3.88009 20.0476 3.45544 19.6229C3.03079 19.1983 2.81811 18.6872 2.81738 18.0896V15.9194C2.81738 15.5396 2.91251 15.1826 3.10277 14.8483C3.29303 14.5141 3.55961 14.2472 3.90252 14.0475L3.9839 12.6097C4.12858 11.3799 4.48595 10.2405 5.05601 9.19155C5.62607 8.14258 6.34045 7.22926 7.19915 6.45159C8.05785 5.67391 9.04315 5.06804 10.155 4.63399C11.2669 4.19994 12.4382 3.98291 13.6687 3.98291C14.8992 3.98291 16.0658 4.19994 17.1683 4.63399C18.2708 5.06804 19.2564 5.66957 20.1252 6.43856C20.9941 7.20756 21.7085 8.11618 22.2684 9.16442C22.8283 10.2127 23.19 11.352 23.3535 12.5826L23.4349 13.9933C23.7785 14.156 24.0455 14.4002 24.2357 14.7257C24.426 15.0513 24.5208 15.3949 24.52 15.7566V18.2524C24.52 18.6141 24.4253 18.9577 24.2357 19.2833C24.0462 19.6088 23.7792 19.853 23.4349 20.0157V21.345C23.4349 21.9419 23.2226 22.4529 22.7979 22.8783C22.3733 23.3037 21.8622 23.516 21.2646 23.5153H12.5836ZM10.4133 15.9194C10.1059 15.9194 9.84832 15.8152 9.6407 15.6068C9.43307 15.3985 9.3289 15.141 9.32818 14.8342C9.32745 14.5275 9.43163 14.27 9.6407 14.0616C9.84976 13.8533 10.1073 13.7491 10.4133 13.7491C10.7193 13.7491 10.9772 13.8533 11.187 14.0616C11.3968 14.27 11.5006 14.5275 11.4984 14.8342C11.4963 15.141 11.3921 15.3989 11.1859 15.6079C10.9797 15.817 10.7222 15.9208 10.4133 15.9194ZM16.9241 15.9194C16.6166 15.9194 16.3591 15.8152 16.1515 15.6068C15.9439 15.3985 15.8397 15.141 15.839 14.8342C15.8382 14.5275 15.9424 14.27 16.1515 14.0616C16.3606 13.8533 16.6181 13.7491 16.9241 13.7491C17.2301 13.7491 17.488 13.8533 17.6978 14.0616C17.9076 14.27 18.0114 14.5275 18.0092 14.8342C18.0071 15.141 17.9029 15.3989 17.6967 15.6079C17.4905 15.817 17.233 15.9208 16.9241 15.9194ZM7.18504 14.2374C7.05844 12.3203 7.63718 10.6746 8.92125 9.30006C10.2053 7.92556 11.8059 7.23831 13.723 7.23831C15.3326 7.23831 16.748 7.74904 17.9691 8.77051C19.1902 9.79199 19.927 11.0992 20.1795 12.6922C18.5337 12.6734 17.0192 12.2299 15.6361 11.3618C14.2529 10.4937 13.1902 9.31814 12.4479 7.83513C12.1586 9.28197 11.5484 10.5707 10.6173 11.7015C9.68627 12.8322 8.54218 13.6775 7.18504 14.2374Z" fill="#32ABB1"/>
</svg>
