<svg width="51" height="51" viewBox="0 0 51 51" fill="none" xmlns="http://www.w3.org/2000/svg">
<circle opacity="0.1" cx="25.2682" cy="25.2682" r="25.2682" fill="#22C55E"/>
<path d="M28.5844 15.6764C28.619 15.5469 28.6789 15.4254 28.7605 15.319C28.8421 15.2126 28.9438 15.1233 29.0599 15.0563C29.176 14.9892 29.3042 14.9457 29.4372 14.9282C29.5701 14.9107 29.7052 14.9195 29.8347 14.9543C31.7268 15.4479 33.4532 16.4371 34.8359 17.8198C36.2186 19.2026 37.2078 20.9289 37.7015 22.821C37.7362 22.9505 37.745 23.0856 37.7275 23.2186C37.71 23.3515 37.6665 23.4797 37.5995 23.5958C37.5324 23.7119 37.4431 23.8137 37.3367 23.8953C37.2303 23.9769 37.1089 24.0367 36.9793 24.0713C36.8931 24.094 36.8044 24.1056 36.7152 24.1058C36.4903 24.1058 36.2717 24.0315 36.0934 23.8944C35.915 23.7574 35.7869 23.5653 35.729 23.3479C35.3264 21.8033 34.5191 20.394 33.3904 19.2653C32.2617 18.1366 30.8524 17.3293 29.3078 16.9267C29.1781 16.8922 29.0566 16.8325 28.95 16.7509C28.8435 16.6694 28.7541 16.5676 28.6869 16.4515C28.6197 16.3354 28.576 16.2072 28.5585 16.0742C28.5409 15.9411 28.5497 15.806 28.5844 15.6764ZM28.2871 21.0093C30.0465 21.4789 31.1769 22.6092 31.6464 24.3686C31.7043 24.5859 31.8324 24.778 32.0107 24.9151C32.1891 25.0521 32.4077 25.1264 32.6326 25.1264C32.7217 25.1263 32.8105 25.1147 32.8967 25.092C33.0262 25.0574 33.1477 24.9975 33.2541 24.9159C33.3605 24.8343 33.4497 24.7326 33.5168 24.6165C33.5839 24.5003 33.6274 24.3722 33.6449 24.2392C33.6624 24.1063 33.6535 23.9712 33.6188 23.8417C32.9656 21.3972 31.2585 19.6901 28.814 19.0369C28.5525 18.967 28.2739 19.0039 28.0395 19.1395C27.8052 19.275 27.6342 19.4981 27.5644 19.7597C27.4945 20.0212 27.5314 20.2998 27.6669 20.5342C27.8025 20.7686 28.0256 20.9395 28.2871 21.0093ZM38.7413 33.1744C38.5138 34.9032 37.6648 36.49 36.3528 37.6386C35.0408 38.7871 33.3556 39.4188 31.6119 39.4157C21.4819 39.4157 13.24 31.1739 13.24 21.0438C13.2369 19.3001 13.8686 17.6149 15.0171 16.3029C16.1657 14.991 17.7526 14.142 19.4814 13.9145C19.9185 13.8611 20.3612 13.9505 20.7434 14.1694C21.1255 14.3883 21.4267 14.725 21.6018 15.1291L24.2963 21.1446V21.1599C24.4304 21.4692 24.4858 21.8069 24.4575 22.1429C24.4292 22.4788 24.3182 22.8026 24.1343 23.0851C24.1113 23.1196 24.0871 23.1515 24.0616 23.1834L21.4053 26.3321C22.3609 28.2739 24.392 30.2872 26.3593 31.2453L29.4647 28.6031C29.4952 28.5774 29.5271 28.5536 29.5604 28.5316C29.8427 28.3433 30.1676 28.2284 30.5055 28.1972C30.8434 28.166 31.1838 28.2196 31.4958 28.353L31.5124 28.3607L37.5228 31.0539C37.9277 31.2284 38.2651 31.5293 38.4847 31.9115C38.7044 32.2937 38.7943 32.7368 38.7413 33.1744ZM36.7152 32.9192H36.7012L30.7048 30.2336L27.5982 32.8758C27.5681 32.9014 27.5366 32.9253 27.5038 32.9473C27.21 33.1432 26.8704 33.2597 26.5182 33.2852C26.166 33.3107 25.8132 33.2443 25.4943 33.0927C23.1047 31.9381 20.7227 29.574 19.5668 27.2099C19.4138 26.8933 19.3451 26.5425 19.3674 26.1916C19.3898 25.8406 19.5024 25.5014 19.6944 25.2068C19.716 25.1722 19.7403 25.1393 19.7671 25.1086L22.426 21.956L19.7467 15.9596C19.7462 15.9545 19.7462 15.9494 19.7467 15.9443C18.5095 16.1057 17.3735 16.7126 16.5516 17.6513C15.7296 18.59 15.278 19.7961 15.2813 21.0438C15.2861 25.3735 17.0081 29.5245 20.0697 32.586C23.1312 35.6476 27.2822 37.3697 31.6119 37.3744C32.8589 37.3787 34.0647 36.9287 35.0039 36.1085C35.9432 35.2883 36.5515 34.1541 36.7152 32.9179V32.9192Z" fill="#3DBC6D"/>
</svg>
