<svg width="27" height="27" viewBox="0 0 27 27" fill="none" xmlns="http://www.w3.org/2000/svg">
<path d="M14.7757 5.40006C14.8034 5.29678 14.8511 5.19995 14.9161 5.11511C14.9812 5.03026 15.0623 4.95907 15.1549 4.9056C15.2475 4.85213 15.3497 4.81742 15.4557 4.80347C15.5617 4.78951 15.6694 4.79658 15.7727 4.82427C17.2814 5.21791 18.658 6.00663 19.7605 7.10918C20.8631 8.21174 21.6518 9.58827 22.0455 11.097C22.0731 11.2003 22.0802 11.308 22.0662 11.414C22.0523 11.52 22.0176 11.6222 21.9641 11.7148C21.9106 11.8074 21.8395 11.8885 21.7546 11.9536C21.6698 12.0186 21.5729 12.0663 21.4697 12.094C21.4009 12.1121 21.3301 12.1213 21.2591 12.1214C21.0797 12.1214 20.9054 12.0622 20.7632 11.9529C20.621 11.8436 20.5189 11.6905 20.4727 11.5172C20.1516 10.2855 19.5079 9.16179 18.6079 8.26179C17.7079 7.36178 16.5842 6.71808 15.3526 6.39703C15.2492 6.36951 15.1522 6.32188 15.0673 6.25687C14.9823 6.19186 14.911 6.11073 14.8575 6.01813C14.8039 5.92554 14.7691 5.82329 14.7551 5.71723C14.741 5.61118 14.7481 5.5034 14.7757 5.40006ZM14.5387 9.65243C15.9416 10.0268 16.8429 10.9281 17.2173 12.331C17.2635 12.5043 17.3656 12.6575 17.5078 12.7668C17.65 12.876 17.8243 12.9353 18.0037 12.9353C18.0748 12.9351 18.1455 12.9259 18.2143 12.9078C18.3175 12.8802 18.4144 12.8325 18.4992 12.7674C18.5841 12.7024 18.6552 12.6212 18.7087 12.5286C18.7622 12.4361 18.7969 12.3338 18.8109 12.2278C18.8248 12.1218 18.8177 12.0141 18.7901 11.9109C18.2692 9.96169 16.908 8.60053 14.9589 8.07966C14.7503 8.02395 14.5281 8.05337 14.3413 8.16144C14.1544 8.26952 14.0181 8.44741 13.9624 8.65597C13.9067 8.86453 13.9361 9.08668 14.0442 9.27356C14.1523 9.46043 14.3301 9.59671 14.5387 9.65243ZM22.8746 19.3525C22.6932 20.731 22.0162 21.9963 20.9701 22.9121C19.9239 23.828 18.5802 24.3317 17.1898 24.3292C9.11237 24.3292 2.54054 17.7573 2.54054 9.67989C2.53804 8.28953 3.04175 6.94579 3.95758 5.89966C4.87341 4.85353 6.13874 4.17655 7.51722 3.99516C7.86581 3.95259 8.21881 4.02391 8.52354 4.19845C8.82826 4.373 9.06836 4.64142 9.208 4.96364L11.3566 9.76026V9.77247C11.4635 10.0191 11.5076 10.2884 11.4851 10.5563C11.4625 10.8242 11.374 11.0823 11.2274 11.3076C11.209 11.3351 11.1897 11.3605 11.1694 11.3859L9.05133 13.8967C9.8133 15.445 11.4329 17.0503 13.0016 17.8143L15.4777 15.7075C15.502 15.687 15.5275 15.668 15.554 15.6505C15.7791 15.5003 16.0381 15.4087 16.3076 15.3838C16.577 15.359 16.8484 15.4017 17.0972 15.5081L17.1105 15.5142L21.903 17.6617C22.2258 17.8009 22.4949 18.0408 22.67 18.3455C22.8451 18.6503 22.9169 19.0036 22.8746 19.3525ZM21.2591 19.149H21.2479L16.4665 17.0076L13.9894 19.1144C13.9654 19.1349 13.9403 19.1539 13.9141 19.1714C13.6799 19.3277 13.4091 19.4205 13.1283 19.4408C12.8474 19.4612 12.5661 19.4083 12.3118 19.2874C10.4064 18.3667 8.50707 16.4816 7.58538 14.5966C7.46334 14.3441 7.40857 14.0644 7.42639 13.7846C7.44422 13.5048 7.53403 13.2343 7.68712 12.9994C7.70433 12.9718 7.72372 12.9456 7.7451 12.9211L9.86518 10.4073L7.72883 5.62591C7.72842 5.62185 7.72842 5.61776 7.72883 5.6137C6.74229 5.74239 5.8365 6.22629 5.18108 6.97478C4.52566 7.72326 4.16557 8.68501 4.16824 9.67989C4.172 13.1323 5.54513 16.4422 7.98633 18.8834C10.4275 21.3246 13.7374 22.6977 17.1898 22.7015C18.1841 22.7049 19.1456 22.3461 19.8945 21.6921C20.6434 21.0381 21.1285 20.1337 21.2591 19.148V19.149Z" fill="#C88317"/>
</svg>
