<svg width="51" height="51" viewBox="0 0 51 51" fill="none" xmlns="http://www.w3.org/2000/svg">
<circle cx="25.5444" cy="25.318" r="25.2682" fill="#F4F7FF"/>
<g clip-path="url(#clip0_109_1127)">
<path d="M34.9462 31.2318C34.946 31.2318 34.946 31.2318 34.9462 31.2318L31.3306 28.8558C30.4698 28.2903 29.3526 28.3395 28.5503 28.9779C27.8474 29.5372 26.8387 29.48 26.2036 28.8449L22.5326 25.1739C21.8977 24.539 21.8405 23.5301 22.3997 22.8275C23.0382 22.025 23.0872 20.9075 22.5217 20.0469L20.1457 16.4313C19.7303 15.7992 19.0859 15.4209 18.3311 15.366C17.5763 15.3116 16.8842 15.5928 16.3821 16.1585C13.599 19.2924 13.7416 24.0696 16.7066 27.0345L24.3431 34.6711C25.8858 36.2138 27.919 36.9922 29.9564 36.9922C31.8344 36.9922 33.7158 36.3305 35.2192 34.9957C35.7847 34.4933 36.0661 33.801 36.0115 33.0464C35.9567 32.2918 35.5784 31.6474 34.9462 31.2318ZM34.2903 33.9498C31.7092 36.242 27.7742 36.1244 25.3319 33.6821L17.6954 26.0456C15.2532 23.6034 15.1355 19.6683 17.4277 17.0872C17.6219 16.8685 17.8636 16.7579 18.1475 16.7579C18.1745 16.7579 18.202 16.759 18.23 16.761C18.5495 16.7841 18.8008 16.9317 18.9768 17.1996L21.3528 20.815C21.5892 21.1749 21.5704 21.623 21.3052 21.9565C20.3027 23.2163 20.4053 25.0246 21.5436 26.1629L25.2146 29.8339C26.353 30.9723 28.1612 31.0748 29.4211 30.0723C29.7545 29.8069 30.2026 29.7884 30.5623 30.0248L34.1779 32.4008C34.4457 32.5767 34.5932 32.828 34.6163 33.1475C34.6396 33.4672 34.5298 33.7371 34.2903 33.9498Z" fill="#6F8CA9"/>
<path d="M38.0559 13.3282C37.9195 13.192 37.7408 13.124 37.5621 13.124C37.3829 13.124 37.2035 13.1925 37.0669 13.3295L29.2636 21.1528L29.2638 18.6253C29.2638 18.2392 28.9507 17.9261 28.5646 17.9261C28.1783 17.9261 27.8652 18.2392 27.8652 18.6253L27.865 22.8443C27.865 23.0297 27.9386 23.2077 28.0699 23.3388C28.201 23.47 28.3788 23.5437 28.5642 23.5437H32.7834C33.1697 23.5437 33.4828 23.2306 33.4828 22.8443C33.4828 22.4582 33.1697 22.1451 32.7834 22.1451H30.2495L38.0572 14.3172C38.33 14.0436 38.3295 13.6009 38.0559 13.3282Z" fill="#6F8CA9"/>
</g>
<defs>
<clipPath id="clip0_109_1127">
<rect width="23.8729" height="23.8729" fill="white" transform="translate(14.385 13.0737)"/>
</clipPath>
</defs>
</svg>
