<svg width="51" height="52" viewBox="0 0 51 52" fill="none" xmlns="http://www.w3.org/2000/svg">
<circle opacity="0.1" cx="25.5459" cy="26.0817" r="25.2682" fill="#4C4C70"/>
<path d="M31.7487 26.8672C32.9286 26.867 34.0763 26.4822 35.0178 25.7711C35.9593 25.06 36.6434 24.0613 36.9663 22.9265C37.2892 21.7916 37.2334 20.5824 36.8073 19.4822C36.3812 18.3819 35.6081 17.4505 34.6051 16.8292C33.602 16.2078 32.4238 15.9304 31.2489 16.0389C30.074 16.1474 28.9665 16.6359 28.0942 17.4304C27.2219 18.225 26.6324 19.2822 26.415 20.4419C26.1976 21.6016 26.3642 22.8005 26.8895 23.857C26.9885 24.049 27.0144 24.2703 26.9622 24.4799L26.6388 25.6877C26.6068 25.8072 26.6068 25.9331 26.6389 26.0527C26.6709 26.1723 26.7339 26.2813 26.8214 26.3688C26.909 26.4564 27.018 26.5193 27.1376 26.5514C27.2571 26.5834 27.383 26.5834 27.5026 26.5514L28.7104 26.2281C28.9199 26.1759 29.1413 26.2017 29.3332 26.3008C30.0838 26.6736 30.9106 26.8675 31.7487 26.8672Z" stroke="black" stroke-width="1.6277"/>
<path d="M29.1907 31.7971L29.6845 31.2773L28.5039 30.1553L28.0101 30.6773L29.1907 31.7971ZM31.3111 31.0571L33.3837 32.2518L34.1965 30.84L32.1228 29.6464L31.3111 31.0571ZM33.7841 34.7248L32.2432 36.3471L33.4228 37.4691L34.9636 35.8468L33.7841 34.7248ZM31.3154 36.8679C29.7583 37.0209 25.6944 36.8907 21.2845 32.2485L20.1049 33.3684C24.911 38.4284 29.4957 38.6844 31.4749 38.488L31.3154 36.8679ZM21.2845 32.2485C17.0785 27.8201 16.3732 24.084 16.2853 22.4454L14.6597 22.5333C14.7683 24.5408 15.619 28.6459 20.1049 33.3684L21.2845 32.2485ZM22.7776 25.0454L23.088 24.7177L21.9084 23.5968L21.597 23.9245L22.7776 25.0454ZM23.3332 20.6376L21.9648 18.7039L20.6356 19.6436L22.0028 21.5784L23.3332 20.6376ZM17.3324 18.285L15.6309 20.0799L16.8116 21.2008L18.5152 19.4071L17.3324 18.285ZM22.1873 24.4844C21.992 24.2962 21.7949 24.1099 21.5959 23.9256L21.5937 23.9277L21.5905 23.931L21.5362 23.9939C21.43 24.1348 21.3458 24.291 21.2866 24.4573C21.1803 24.7557 21.1239 25.1507 21.1955 25.6433C21.3366 26.6113 21.9714 27.9123 23.6284 29.6583L24.809 28.5363C23.2594 26.9053 22.8774 25.9016 22.8058 25.4068C22.7711 25.168 22.8058 25.0432 22.8199 25.0031L22.8286 24.9825C22.817 25.0008 22.8035 25.0179 22.7885 25.0335L22.783 25.0389L22.7798 25.0422L22.7787 25.0432C22.7787 25.0432 22.7765 25.0454 22.1873 24.4844ZM23.6284 29.6583C25.281 31.3989 26.5289 32.0814 27.4806 32.2366C27.97 32.3158 28.366 32.2518 28.6655 32.1335C28.8317 32.0687 28.986 31.9771 29.1224 31.8622L29.1614 31.8253L29.1766 31.8101L29.1875 31.7993C29.1875 31.7971 29.1907 31.7971 28.6004 31.2361C28.0101 30.6762 28.0112 30.6751 28.0112 30.674L28.0134 30.6729L28.0155 30.6697L28.021 30.6642L28.0318 30.6534L28.072 30.6187C28.0828 30.6129 28.0814 30.6132 28.0676 30.6197C28.0459 30.6284 27.9483 30.6631 27.7421 30.6295C27.3059 30.5579 26.364 30.1738 24.809 28.5363L23.6284 29.6583ZM21.9648 18.7039C20.8645 17.1478 18.6639 16.8841 17.3335 18.2861L18.512 19.4071C19.0795 18.8102 20.08 18.8569 20.6356 19.6436L21.9648 18.7039ZM16.2853 22.4454C16.2614 22.0114 16.4513 21.5784 16.8116 21.2008L15.6309 20.0799C15.0493 20.6919 14.6066 21.5415 14.6597 22.5333L16.2853 22.4454ZM32.2421 36.3482C31.9394 36.6672 31.6236 36.8376 31.3154 36.8679L31.4749 38.488C32.2855 38.4088 32.942 37.9759 33.4228 37.4691L32.2421 36.3482ZM23.088 24.7188C24.1395 23.612 24.2122 21.8833 23.3332 20.6387L22.0039 21.5784C22.4618 22.2262 22.3913 23.0889 21.9084 23.5968L23.088 24.7188ZM33.3837 32.2518C34.2746 32.7651 34.4493 34.026 33.7841 34.7259L34.9636 35.8468C36.3797 34.3559 35.9674 31.8601 34.1965 30.84L33.3837 32.2518ZM29.6845 31.2773C30.1023 30.8368 30.7544 30.738 31.3111 31.0581L32.1228 29.6475C30.9302 28.9617 29.4533 29.1592 28.5039 30.1575L29.6845 31.2773Z" fill="black"/>
</svg>
