<svg width="52" height="51" viewBox="0 0 52 51" fill="none" xmlns="http://www.w3.org/2000/svg">
<circle opacity="0.1" cx="26.2213" cy="25.2994" r="25.2682" fill="#F05B5B"/>
<g clip-path="url(#clip0_109_1129)">
<path d="M38.5164 29.6704L32.4191 26.9511C32.1515 26.8318 31.8382 26.8922 31.6337 27.1024C31.2284 27.5192 30.2713 28.4972 29.6861 29.0728C28.6301 28.3375 27.563 27.45 26.5523 26.4679L38.7266 14.2697C38.9996 13.9962 38.9996 13.5523 38.7266 13.2788C38.4534 13.0051 38.0106 13.0051 37.7374 13.2788L25.5633 25.4768C24.592 24.4727 23.7079 23.4051 22.9678 22.3417C23.6738 21.6278 24.9178 20.3976 24.9333 20.3823C25.1404 20.1775 25.1994 19.8657 25.0812 19.599L22.3797 13.5025C22.2406 13.1883 21.8942 13.0215 21.5623 13.1093L16.8692 14.348C15.4449 14.7114 14.7497 16.2056 15.1896 17.636C16.1374 20.7185 17.7557 24.7838 21.892 29.1553L15.2637 35.7965C14.9907 36.0701 14.9907 36.5137 15.2637 36.7874C15.5369 37.0612 15.9797 37.0612 16.2529 36.7874L22.8806 30.1466C26.6617 33.7469 30.1495 35.5567 34.3778 36.8619C35.7904 37.2977 37.2927 36.619 37.6591 35.1797L38.9078 30.4913C38.9964 30.1584 38.8304 29.8104 38.5164 29.6704ZM16.5262 17.2234C16.3259 16.5711 16.5652 15.8707 17.216 15.7059C17.2182 15.7054 17.2204 15.7048 17.2226 15.7041L21.343 14.6165L23.6068 19.7253C23.0278 20.2995 21.8943 21.4262 21.5605 21.7798C21.3375 22.016 21.306 22.3749 21.4845 22.6465C22.334 23.9398 23.3942 25.2501 24.5739 26.4679L22.8815 28.1638C18.4429 23.4557 17.1076 19.114 16.5262 17.2234ZM36.3064 34.8226C36.3057 34.8255 36.3049 34.8284 36.3042 34.8313C36.1394 35.4841 35.4392 35.723 34.7896 35.5224C32.5859 34.8421 28.5483 33.5955 23.8701 29.1551L25.5631 27.459C26.7881 28.6512 28.0962 29.7139 29.3783 30.5553C29.6433 30.7293 29.9917 30.703 30.228 30.4913C30.5966 30.1608 31.7217 29.016 32.2948 28.4297L37.4025 30.7075L36.3064 34.8226Z" fill="#DA4848"/>
</g>
<defs>
<clipPath id="clip0_109_1129">
<rect width="23.8729" height="23.8729" fill="white" transform="translate(15.0596 13.041)"/>
</clipPath>
</defs>
</svg>
