<svg width="31" height="31" viewBox="0 0 31 31" fill="none" xmlns="http://www.w3.org/2000/svg">
<path d="M15.5718 11.6365C14.6983 11.6365 13.9893 12.3455 13.9893 13.219V13.3545C13.9893 13.6063 13.8893 13.8478 13.7112 14.0259C13.5331 14.2039 13.2916 14.304 13.0398 14.304C12.788 14.304 12.5465 14.2039 12.3684 14.0259C12.1904 13.8478 12.0903 13.6063 12.0903 13.3545V13.219C12.0903 12.2957 12.4571 11.4101 13.11 10.7572C13.7629 10.1043 14.6485 9.73755 15.5718 9.73755H15.7187C16.3997 9.73786 17.0644 9.94671 17.6232 10.336C18.182 10.7253 18.6083 11.2764 18.8446 11.9151C19.0809 12.5539 19.1159 13.2497 18.945 13.909C18.7741 14.5682 18.4054 15.1594 17.8886 15.6029L16.9137 16.4384C16.7914 16.5446 16.6932 16.6756 16.6255 16.8227C16.5578 16.9699 16.5223 17.1297 16.5213 17.2917V17.9665C16.5213 18.2183 16.4213 18.4598 16.2432 18.6379C16.0651 18.8159 15.8236 18.916 15.5718 18.916C15.32 18.916 15.0785 18.8159 14.9004 18.6379C14.7223 18.4598 14.6223 18.2183 14.6223 17.9665V17.2917C14.6223 16.4093 15.0072 15.5712 15.6769 14.9977L16.653 14.1622C16.8757 13.9713 17.0346 13.7167 17.1083 13.4328C17.1819 13.1489 17.1669 12.8492 17.0651 12.5741C16.9633 12.299 16.7797 12.0616 16.539 11.894C16.2983 11.7264 16.012 11.6365 15.7187 11.6365H15.5718ZM15.5718 22.0809C15.9076 22.0809 16.2296 21.9475 16.467 21.7101C16.7044 21.4727 16.8378 21.1507 16.8378 20.8149C16.8378 20.4792 16.7044 20.1572 16.467 19.9198C16.2296 19.6823 15.9076 19.549 15.5718 19.549C15.236 19.549 14.914 19.6823 14.6766 19.9198C14.4392 20.1572 14.3058 20.4792 14.3058 20.8149C14.3058 21.1507 14.4392 21.4727 14.6766 21.7101C14.914 21.9475 15.236 22.0809 15.5718 22.0809Z" fill="#CE3838"/>
<path d="M4.49561 15.7439C4.49561 12.806 5.66268 9.98841 7.7401 7.911C9.81751 5.83358 12.6351 4.6665 15.573 4.6665C18.5109 4.6665 21.3285 5.83358 23.4059 7.911C25.4833 9.98841 26.6504 12.806 26.6504 15.7439C26.6504 18.6818 25.4833 21.4994 23.4059 23.5768C21.3285 25.6542 18.5109 26.8213 15.573 26.8213C12.6351 26.8213 9.81751 25.6542 7.7401 23.5768C5.66268 21.4994 4.49561 18.6818 4.49561 15.7439ZM15.573 6.56549C14.3677 6.56549 13.1741 6.80289 12.0606 7.26415C10.947 7.72541 9.93518 8.40149 9.08288 9.25378C8.23059 10.1061 7.55451 11.1179 7.09325 12.2315C6.63199 13.345 6.39459 14.5386 6.39459 15.7439C6.39459 16.9492 6.63199 18.1427 7.09325 19.2563C7.55451 20.3699 8.23059 21.3817 9.08288 22.234C9.93518 23.0863 10.947 23.7624 12.0606 24.2236C13.1741 24.6849 14.3677 24.9223 15.573 24.9223C18.0073 24.9223 20.3418 23.9553 22.0631 22.234C23.7844 20.5127 24.7514 18.1782 24.7514 15.7439C24.7514 13.3096 23.7844 10.9751 22.0631 9.25378C20.3418 7.53249 18.0073 6.56549 15.573 6.56549Z" fill="#CE3838"/>
</svg>
