<svg width="51" height="51" viewBox="0 0 51 51" fill="none" xmlns="http://www.w3.org/2000/svg">
<circle opacity="0.1" cx="25.4921" cy="25.318" r="25.2682" fill="#1ABFDC"/>
<g clip-path="url(#clip0_109_1128)">
<path d="M37.821 14.9892V19.2496C37.821 19.8033 37.3721 20.252 36.8186 20.252C36.2649 20.252 35.8161 19.8033 35.8161 19.2496V15.4045L29.6582 21.5622C29.4626 21.758 29.2059 21.8559 28.9494 21.8559C28.693 21.8559 28.4363 21.758 28.2407 21.5622C27.8491 21.1709 27.8491 20.5361 28.2407 20.1447L34.3984 13.9868H30.5533C29.9996 13.9868 29.5509 13.5381 29.5509 12.9844C29.5509 12.4309 29.9996 11.9819 30.5533 11.9819H34.8137C36.4718 11.9819 37.821 13.3311 37.821 14.9892ZM36.6543 30.0514C35.2542 28.7015 34.0812 27.9222 32.9629 27.599C31.4219 27.1536 29.9944 27.5587 28.7206 28.8027C28.7186 28.8047 28.7168 28.8064 28.7149 28.8084L27.3583 30.1548C26.5156 29.6816 24.8776 28.6398 23.0862 26.8483L22.9542 26.7164C21.1745 24.9367 20.1262 23.2895 19.6493 22.4435L20.9946 21.088C20.9965 21.0861 20.9983 21.0841 21.0002 21.0824C22.2443 19.8084 22.6494 18.3811 22.2039 16.84C21.8807 15.7217 21.1015 14.5487 19.7515 13.1486C19.0619 12.4338 18.1357 12.0203 17.143 11.9845C16.1504 11.9488 15.1969 12.2942 14.4574 12.9579L14.4286 12.9838C14.4153 12.9957 14.4024 13.0081 14.3896 13.0208C12.9181 14.4923 12.1467 16.5524 12.1588 18.9784C12.1794 23.0994 14.4443 27.8122 18.2175 31.5854C18.2206 31.5888 18.224 31.5919 18.2271 31.595C18.9362 32.3032 19.7415 33.0041 20.6208 33.6782C21.0602 34.015 21.6892 33.932 22.0262 33.4926C22.3631 33.0533 22.2799 32.424 21.8406 32.0872C21.0269 31.4633 20.2848 30.8176 19.635 30.1677C19.6321 30.1646 19.6287 30.1615 19.6258 30.1585C16.2232 26.752 14.1815 22.5698 14.1635 18.9682C14.1543 17.1 14.7162 15.5406 15.7891 14.4567L15.7968 14.4496C16.5255 13.7957 17.6286 13.8355 18.3082 14.5403C20.9035 17.2318 20.7156 18.5023 19.5688 19.6784L17.7106 21.5505C17.4193 21.8442 17.338 22.2867 17.5064 22.6645C17.5536 22.7705 18.6946 25.2924 21.5369 28.1345L21.6689 28.2662C24.5105 31.1081 27.0325 32.2492 27.1384 32.2965C27.5163 32.4647 27.9588 32.3837 28.2524 32.0921L30.1242 30.2343C31.3003 29.0874 32.5709 28.8992 35.2626 31.4946C35.9675 32.1742 36.0072 33.2774 35.3533 34.006L35.3462 34.0138C34.2712 35.0779 32.7283 35.6394 30.8803 35.6394C30.865 35.6394 30.8498 35.6394 30.8347 35.6392C29.3575 35.632 27.6469 35.2271 25.8881 34.4684C25.3796 34.2489 24.7899 34.4835 24.5706 34.9918C24.3514 35.5002 24.5857 36.0899 25.094 36.3092C27.127 37.1862 29.0552 37.6353 30.8245 37.6441C30.8433 37.6443 30.8621 37.6443 30.8809 37.6443C33.2824 37.6443 35.322 36.8735 36.7821 35.4133C36.7949 35.4006 36.8072 35.3876 36.8192 35.3741L36.8452 35.3454C37.5087 34.6061 37.8543 33.6524 37.8185 32.6599C37.7826 31.6673 37.3691 30.7408 36.6543 30.0514Z" fill="#4C8D94"/>
</g>
<defs>
<clipPath id="clip0_109_1128">
<rect width="25.6624" height="25.6624" fill="white" transform="translate(12.1594 11.9832)"/>
</clipPath>
</defs>
</svg>
