<svg width="19" height="18" viewBox="0 0 19 18" fill="none" xmlns="http://www.w3.org/2000/svg">
<g clip-path="url(#clip0_1_2590)">
<path d="M9.59732 -0.00585938C4.7993 -0.00585938 0.91626 3.87674 0.91626 8.6752C0.91626 13.4731 4.79886 17.3563 9.59732 17.3563C14.3953 17.3563 18.2784 13.4737 18.2784 8.6752C18.2784 3.87719 14.3958 -0.00585938 9.59732 -0.00585938ZM9.59732 16.1449C5.4785 16.1449 2.12757 12.7941 2.12757 8.6752C2.12757 4.55634 5.4785 1.20545 9.59732 1.20545C13.7162 1.20545 17.0671 4.55634 17.0671 8.6752C17.0671 12.7941 13.7162 16.1449 9.59732 16.1449Z" fill="#A3A3A3"/>
<path d="M9.34696 10.9749C8.86703 10.9749 8.47852 11.3748 8.47852 11.8547C8.47852 12.3232 8.8556 12.7346 9.34696 12.7346C9.83832 12.7346 10.2268 12.3232 10.2268 11.8547C10.2268 11.3748 9.82686 10.9749 9.34696 10.9749Z" fill="#A3A3A3"/>
<path d="M9.49452 4.32324C7.95186 4.32324 7.24341 5.23743 7.24341 5.85447C7.24341 6.30012 7.62049 6.50582 7.92901 6.50582C8.54608 6.50582 8.2947 5.62591 9.46023 5.62591C10.0316 5.62591 10.4887 5.87732 10.4887 6.40297C10.4887 7.02 9.84874 7.37423 9.47166 7.69417C9.14025 7.9798 8.70606 8.44834 8.70606 9.43106C8.70606 10.0252 8.86605 10.1967 9.33453 10.1967C9.89442 10.1967 10.0087 9.94528 10.0087 9.72812C10.0087 9.13394 10.0201 8.79114 10.6486 8.29978C10.9571 8.05983 11.9284 7.28277 11.9284 6.20866C11.9284 5.13455 10.9571 4.32324 9.49452 4.32324Z" fill="#A3A3A3"/>
</g>
<defs>
<clipPath id="clip0_1_2590">
<rect width="17.3621" height="17.3621" fill="white" transform="translate(0.917725)"/>
</clipPath>
</defs>
</svg>
