<svg width="52" height="51" viewBox="0 0 52 51" fill="none" xmlns="http://www.w3.org/2000/svg">
<circle opacity="0.1" cx="25.9518" cy="25.318" r="25.2682" fill="#F8831B"/>
<g clip-path="url(#clip0_109_1130)">
<path d="M26.198 9.81226C17.5272 9.81226 10.4507 16.8893 10.4507 25.5596C10.4507 34.2305 17.5277 41.307 26.198 41.307C34.8689 41.307 41.9454 34.2299 41.9454 25.5596C41.9454 16.8888 34.8684 9.81226 26.198 9.81226ZM26.198 39.4616C18.5325 39.4616 12.2961 33.2252 12.2961 25.5596C12.2961 17.894 18.5325 11.6577 26.198 11.6577C33.8636 11.6577 40.1 17.894 40.1 25.5596C40.1 33.2252 33.8636 39.4616 26.198 39.4616Z" fill="#D97C1E"/>
<path d="M18.3665 34.3097C18.8761 34.3097 19.2892 33.8966 19.2892 33.3871C19.2892 32.8775 18.8761 32.4644 18.3665 32.4644C17.857 32.4644 17.4438 32.8775 17.4438 33.3871C17.4438 33.8966 17.857 34.3097 18.3665 34.3097Z" fill="#D97C1E"/>
<path d="M34.0311 18.6528C34.5407 18.6528 34.9538 18.2397 34.9538 17.7301C34.9538 17.2205 34.5407 16.8074 34.0311 16.8074C33.5215 16.8074 33.1084 17.2205 33.1084 17.7301C33.1084 18.2397 33.5215 18.6528 34.0311 18.6528Z" fill="#D97C1E"/>
<path d="M17.7141 17.0776C17.3538 17.438 17.3538 18.0222 17.7141 18.3825C18.0744 18.7429 18.6586 18.7429 19.019 18.3825C19.3793 18.0222 19.3793 17.438 19.019 17.0776C18.6587 16.7173 18.0744 16.7173 17.7141 17.0776Z" fill="#D97C1E"/>
<path d="M33.3787 32.7346C33.0183 33.095 33.0183 33.6791 33.3787 34.0395C33.739 34.3998 34.3232 34.3998 34.6835 34.0395C35.0439 33.6791 35.0439 33.095 34.6835 32.7346C34.3232 32.3743 33.7389 32.3743 33.3787 32.7346Z" fill="#D97C1E"/>
<path d="M26.1969 17.2499C26.7064 17.2499 27.1196 16.8367 27.1196 16.3272V14.4818C27.1196 13.9722 26.7064 13.5591 26.1969 13.5591C25.6873 13.5591 25.2742 13.9722 25.2742 14.4818V16.3272C25.2742 16.8367 25.6873 17.2499 26.1969 17.2499Z" fill="#D97C1E"/>
<path d="M26.1969 33.8586C25.6873 33.8586 25.2742 34.2718 25.2742 34.7813V36.6267C25.2742 37.1363 25.6873 37.5494 26.1969 37.5494C26.7064 37.5494 27.1196 37.1363 27.1196 36.6267V34.7813C27.1196 34.2718 26.7064 33.8586 26.1969 33.8586Z" fill="#D97C1E"/>
<path d="M17.8922 25.5584C17.8922 25.0489 17.4791 24.6357 16.9695 24.6357H15.1241C14.6145 24.6357 14.2014 25.0489 14.2014 25.5584C14.2014 26.068 14.6145 26.4811 15.1241 26.4811H16.9695C17.4791 26.4811 17.8922 26.068 17.8922 25.5584Z" fill="#D97C1E"/>
<path d="M34.5027 25.5584C34.5027 26.068 34.9158 26.4811 35.4254 26.4811H37.2708C37.7804 26.4811 38.1935 26.068 38.1935 25.5584C38.1935 25.0489 37.7804 24.6357 37.2708 24.6357H35.4254C34.9158 24.6357 34.5027 25.0489 34.5027 25.5584Z" fill="#D97C1E"/>
<path d="M27.1196 25.1741V20.0201C27.1196 19.5105 26.7064 19.0974 26.1969 19.0974C25.6873 19.0974 25.2742 19.5105 25.2742 20.0201V25.5563C25.2742 25.801 25.3714 26.0357 25.5445 26.2088L31.0806 31.7449C31.4409 32.1052 32.0252 32.1053 32.3855 31.7449C32.7459 31.3846 32.7459 30.8004 32.3855 30.4401L27.1196 25.1741Z" fill="#D97C1E"/>
</g>
<defs>
<clipPath id="clip0_109_1130">
<rect width="31.4947" height="31.4947" fill="white" transform="translate(10.4497 9.81763)"/>
</clipPath>
</defs>
</svg>
