<svg width="44" height="44" viewBox="0 0 44 44" fill="none" xmlns="http://www.w3.org/2000/svg">
<circle cx="22" cy="22" r="22" fill="#E4F9FE"/>
<g clip-path="url(#clip0_126_1173)">
<path d="M19.7336 24.8738H14.5774C13.1558 24.8738 11.9993 26.0303 11.9993 27.4519V30.8894C11.9993 32.311 13.1558 33.4675 14.5774 33.4675H19.7336C21.1552 33.4675 22.3118 32.311 22.3118 30.8894V27.4519C22.3118 26.0303 21.1552 24.8738 19.7336 24.8738ZM20.593 30.8894C20.593 31.3633 20.2075 31.7488 19.7336 31.7488H14.5774C14.1035 31.7488 13.718 31.3633 13.718 30.8894V27.4519C13.718 26.978 14.1035 26.5925 14.5774 26.5925H19.7336C20.2075 26.5925 20.593 26.978 20.593 27.4519V30.8894ZM31.4211 11.4675H26.2649C24.8433 11.4675 23.6868 12.6241 23.6868 14.0457V17.4832C23.6868 18.9047 24.8433 20.0613 26.2649 20.0613H31.4211C32.8427 20.0613 33.9993 18.9047 33.9993 17.4832V14.0457C33.9993 12.6241 32.8427 11.4675 31.4211 11.4675ZM32.2805 17.4832C32.2805 17.957 31.895 18.3425 31.4211 18.3425H26.2649C25.791 18.3425 25.4055 17.957 25.4055 17.4832V14.0457C25.4055 13.5718 25.791 13.1863 26.2649 13.1863H31.4211C31.895 13.1863 32.2805 13.5718 32.2805 14.0457V17.4832ZM31.4211 21.4363H26.2649C24.8433 21.4363 23.6868 22.5928 23.6868 24.0144V30.8894C23.6868 32.311 24.8433 33.4675 26.2649 33.4675H31.4211C32.8427 33.4675 33.9993 32.311 33.9993 30.8894V24.0144C33.9993 22.5928 32.8427 21.4363 31.4211 21.4363ZM32.2805 30.8894C32.2805 31.3633 31.895 31.7488 31.4211 31.7488H26.2649C25.791 31.7488 25.4055 31.3633 25.4055 30.8894V24.0144C25.4055 23.5405 25.791 23.155 26.2649 23.155H31.4211C31.895 23.155 32.2805 23.5405 32.2805 24.0144V30.8894ZM19.7336 11.4675H14.5774C13.1558 11.4675 11.9993 12.6241 11.9993 14.0457V20.9207C11.9993 22.3422 13.1558 23.4988 14.5774 23.4988H19.7336C21.1552 23.4988 22.3118 22.3422 22.3118 20.9207V14.0457C22.3118 12.6241 21.1552 11.4675 19.7336 11.4675ZM20.593 20.9207C20.593 21.3945 20.2075 21.78 19.7336 21.78H14.5774C14.1035 21.78 13.718 21.3945 13.718 20.9207V14.0457C13.718 13.5718 14.1035 13.1863 14.5774 13.1863H19.7336C20.2075 13.1863 20.593 13.5718 20.593 14.0457V20.9207Z" fill="#2D83C3"/>
</g>
<defs>
<clipPath id="clip0_126_1173">
<rect width="22" height="22" fill="white" transform="translate(12 11.4712)"/>
</clipPath>
</defs>
</svg>
