<svg width="56" height="56" viewBox="0 0 56 56" fill="none" xmlns="http://www.w3.org/2000/svg">
<circle cx="27.75" cy="28.2129" r="27.75" fill="url(#paint0_linear_630_4971)"/>
<path d="M40.1848 16.1992H28.7168C27.7251 16.1992 26.9185 17.0058 26.9185 17.9927V18.3818C26.1546 18.211 25.367 18.1208 24.5699 18.1208C18.4729 18.1208 13.5146 23.0791 13.5146 29.1761C13.5146 35.2731 18.4729 40.2266 24.5699 40.2266C30.6669 40.2266 35.6204 35.2683 35.6204 29.1761C35.6204 27.8665 35.3974 26.6044 34.9561 25.404H36.1376L37.822 27.0837C37.9121 27.1785 38.0355 27.226 38.1588 27.226C38.2205 27.226 38.2822 27.2118 38.3391 27.188C38.5194 27.1169 38.6333 26.9413 38.6333 26.7515V25.404H40.1848C41.1765 25.404 41.9831 24.5974 41.9831 23.6058V17.9927C41.9831 17.0058 41.1765 16.1992 40.1848 16.1992ZM30.1877 22.059C29.9267 22.059 29.7132 21.8502 29.7132 21.5845C29.7132 21.3235 29.9267 21.11 30.1877 21.11H38.714C38.9749 21.11 39.1884 21.3235 39.1884 21.5845C39.1884 21.8502 38.9749 22.059 38.714 22.059H30.1877ZM38.714 20.0425H30.1877C29.9267 20.0425 29.7132 19.8289 29.7132 19.568C29.7132 19.307 29.9267 19.0935 30.1877 19.0935H38.714C38.9749 19.0935 39.1884 19.307 39.1884 19.568C39.1884 19.8289 38.9749 20.0425 38.714 20.0425ZM28.7168 25.404H31.5115C32.0666 26.4194 32.3892 27.5439 32.4604 28.7016H31.1081C30.8472 28.7016 30.6337 28.9151 30.6337 29.1761C30.6337 29.437 30.8472 29.6506 31.1081 29.6506H32.4509C32.3465 31.4251 31.6585 33.0858 30.4771 34.4143L29.5281 33.4653C29.3431 33.2803 29.0442 33.2803 28.8591 33.4653C28.6741 33.6504 28.6741 33.954 28.8591 34.1391L29.8081 35.0833C28.4748 36.2695 26.8189 36.9575 25.0444 37.0618V35.7191C25.0444 35.4581 24.8309 35.2446 24.5699 35.2446C24.3042 35.2446 24.0954 35.4581 24.0954 35.7191V37.0618C22.3209 36.9575 20.6602 36.2695 19.327 35.0833L20.2759 34.1391C20.4609 33.954 20.4609 33.6504 20.2759 33.4653C20.0909 33.2803 19.7919 33.2803 19.6069 33.4653L18.6579 34.4143C17.4765 33.0858 16.7885 31.4251 16.6841 29.6506H18.0269C18.2879 29.6506 18.5014 29.437 18.5014 29.1761C18.5014 28.9151 18.2879 28.7016 18.0269 28.7016H16.6841C16.7885 26.9271 17.4765 25.2664 18.6579 23.9379L19.6069 24.8821C19.697 24.977 19.8204 25.0244 19.939 25.0244C20.0624 25.0244 20.1858 24.977 20.2759 24.8821C20.4609 24.697 20.4609 24.3981 20.2759 24.2131L19.327 23.2641C20.6602 22.0827 22.3209 21.3947 24.0954 21.2903V22.6331C24.0954 22.894 24.3042 23.1076 24.5699 23.1076C24.8309 23.1076 25.0444 22.894 25.0444 22.6331V21.2856C25.6802 21.3235 26.3112 21.4374 26.9185 21.6272V23.6058C26.9185 24.5974 27.7251 25.404 28.7168 25.404ZM24.5699 39.2776C18.9948 39.2776 14.4636 34.7464 14.4636 29.1761C14.4636 23.6058 18.9948 19.0698 24.5699 19.0698C25.367 19.0698 26.1546 19.1694 26.9185 19.3545V20.6356C26.1594 20.4268 25.3765 20.3177 24.5794 20.3177H24.5557C22.2023 20.3224 19.9912 21.2381 18.3211 22.8988C18.3163 22.9035 18.3068 22.9035 18.3021 22.9083C18.2973 22.9178 18.2973 22.9225 18.2926 22.9273C16.6319 24.5974 15.7115 26.8132 15.7115 29.1666C15.7115 29.1666 15.7067 29.1713 15.7067 29.1761C15.7067 29.1808 15.7115 29.1808 15.7115 29.1856C15.7115 31.539 16.6319 33.75 18.2926 35.4202C18.2973 35.4249 18.2973 35.4344 18.3021 35.4391C18.3068 35.4439 18.3163 35.4486 18.3211 35.4534C19.9912 37.114 22.2023 38.0298 24.5557 38.0298C24.5604 38.0298 24.5652 38.0345 24.5699 38.0345C24.5699 38.0345 24.5746 38.0298 24.5794 38.0298C26.9328 38.0298 29.1438 37.114 30.814 35.4534C30.8187 35.4439 30.8282 35.4439 30.833 35.4391C30.8377 35.4344 30.8377 35.4297 30.8424 35.4202C32.5031 33.7548 33.4236 31.539 33.4236 29.1856C33.4236 29.1808 33.4283 29.1808 33.4283 29.1761C33.4283 29.1713 33.4236 29.1666 33.4236 29.1619C33.4236 27.8618 33.1294 26.576 32.5743 25.404H33.9313C34.4152 26.5949 34.6714 27.8618 34.6714 29.1761C34.6714 34.7464 30.1402 39.2776 24.5699 39.2776Z" fill="white"/>
<path d="M25.6543 28.6983H25.0417V27.1952C25.0417 26.9333 24.8292 26.7207 24.5672 26.7207C24.3053 26.7207 24.0928 26.9333 24.0928 27.1952V29.1728C24.0928 29.4347 24.3053 29.6473 24.5672 29.6473H25.6543C25.9162 29.6473 26.1287 29.4347 26.1287 29.1728C26.1287 28.9109 25.9162 28.6983 25.6543 28.6983Z" fill="white"/>
<defs>
<linearGradient id="paint0_linear_630_4971" x1="27.75" y1="0.462891" x2="27.75" y2="55.9629" gradientUnits="userSpaceOnUse">
<stop stop-color="#7C4BEF"/>
<stop offset="1" stop-color="#3CBCE2"/>
</linearGradient>
</defs>
</svg>
