<svg width="56" height="56" viewBox="0 0 56 56" fill="none" xmlns="http://www.w3.org/2000/svg">
<circle cx="27.75" cy="28.211" r="27.75" fill="url(#paint0_linear_1072_6171)"/>
<path d="M40.1858 16.1992H28.7178C27.7261 16.1992 26.9195 17.0058 26.9195 17.9927V18.3818C26.1556 18.211 25.368 18.1208 24.5709 18.1208C18.4739 18.1208 13.5156 23.0791 13.5156 29.1761C13.5156 35.2731 18.4739 40.2266 24.5709 40.2266C30.6679 40.2266 35.6214 35.2683 35.6214 29.1761C35.6214 27.8665 35.3984 26.6044 34.9571 25.404H36.1385L37.8229 27.0837C37.9131 27.1785 38.0364 27.226 38.1598 27.226C38.2215 27.226 38.2832 27.2118 38.3401 27.188C38.5204 27.1169 38.6343 26.9413 38.6343 26.7515V25.404H40.1858C41.1775 25.404 41.9841 24.5974 41.9841 23.6058V17.9927C41.9841 17.0058 41.1775 16.1992 40.1858 16.1992ZM30.1886 22.059C29.9277 22.059 29.7142 21.8502 29.7142 21.5845C29.7142 21.3235 29.9277 21.11 30.1886 21.11H38.7149C38.9759 21.11 39.1894 21.3235 39.1894 21.5845C39.1894 21.8502 38.9759 22.059 38.7149 22.059H30.1886ZM38.7149 20.0425H30.1886C29.9277 20.0425 29.7142 19.8289 29.7142 19.568C29.7142 19.307 29.9277 19.0935 30.1886 19.0935H38.7149C38.9759 19.0935 39.1894 19.307 39.1894 19.568C39.1894 19.8289 38.9759 20.0425 38.7149 20.0425ZM28.7178 25.404H31.5124C32.0676 26.4194 32.3902 27.5439 32.4614 28.7016H31.1091C30.8482 28.7016 30.6347 28.9151 30.6347 29.1761C30.6347 29.437 30.8482 29.6506 31.1091 29.6506H32.4519C32.3475 31.4251 31.6595 33.0858 30.4781 34.4143L29.5291 33.4653C29.3441 33.2803 29.0452 33.2803 28.8601 33.4653C28.6751 33.6504 28.6751 33.954 28.8601 34.1391L29.8091 35.0833C28.4758 36.2695 26.8199 36.9575 25.0453 37.0618V35.7191C25.0453 35.4581 24.8318 35.2446 24.5709 35.2446C24.3052 35.2446 24.0964 35.4581 24.0964 35.7191V37.0618C22.3219 36.9575 20.6612 36.2695 19.3279 35.0833L20.2769 34.1391C20.4619 33.954 20.4619 33.6504 20.2769 33.4653C20.0918 33.2803 19.7929 33.2803 19.6079 33.4653L18.6589 34.4143C17.4775 33.0858 16.7895 31.4251 16.6851 29.6506H18.0279C18.2888 29.6506 18.5023 29.437 18.5023 29.1761C18.5023 28.9151 18.2888 28.7016 18.0279 28.7016H16.6851C16.7895 26.9271 17.4775 25.2664 18.6589 23.9379L19.6079 24.8821C19.698 24.977 19.8214 25.0244 19.94 25.0244C20.0634 25.0244 20.1867 24.977 20.2769 24.8821C20.4619 24.697 20.4619 24.3981 20.2769 24.2131L19.3279 23.2641C20.6612 22.0827 22.3219 21.3947 24.0964 21.2903V22.6331C24.0964 22.894 24.3052 23.1076 24.5709 23.1076C24.8318 23.1076 25.0453 22.894 25.0453 22.6331V21.2856C25.6811 21.3235 26.3122 21.4374 26.9195 21.6272V23.6058C26.9195 24.5974 27.7261 25.404 28.7178 25.404ZM24.5709 39.2776C18.9958 39.2776 14.4646 34.7464 14.4646 29.1761C14.4646 23.6058 18.9958 19.0698 24.5709 19.0698C25.368 19.0698 26.1556 19.1694 26.9195 19.3545V20.6356C26.1604 20.4268 25.3775 20.3177 24.5804 20.3177H24.5566C22.2032 20.3224 19.9922 21.2381 18.322 22.8988C18.3173 22.9035 18.3078 22.9035 18.3031 22.9083C18.2983 22.9178 18.2983 22.9225 18.2936 22.9273C16.6329 24.5974 15.7124 26.8132 15.7124 29.1666C15.7124 29.1666 15.7077 29.1713 15.7077 29.1761C15.7077 29.1808 15.7124 29.1808 15.7124 29.1856C15.7124 31.539 16.6329 33.75 18.2936 35.4202C18.2983 35.4249 18.2983 35.4344 18.3031 35.4391C18.3078 35.4439 18.3173 35.4486 18.322 35.4534C19.9922 37.114 22.2032 38.0298 24.5566 38.0298C24.5614 38.0298 24.5661 38.0345 24.5709 38.0345C24.5709 38.0345 24.5756 38.0298 24.5804 38.0298C26.9338 38.0298 29.1448 37.114 30.815 35.4534C30.8197 35.4439 30.8292 35.4439 30.8339 35.4391C30.8387 35.4344 30.8387 35.4297 30.8434 35.4202C32.5041 33.7548 33.4246 31.539 33.4246 29.1856C33.4246 29.1808 33.4293 29.1808 33.4293 29.1761C33.4293 29.1713 33.4246 29.1666 33.4246 29.1619C33.4246 27.8618 33.1304 26.576 32.5752 25.404H33.9322C34.4162 26.5949 34.6724 27.8618 34.6724 29.1761C34.6724 34.7464 30.1412 39.2776 24.5709 39.2776Z" fill="white"/>
<path d="M25.6552 28.6964H25.0427V27.1932C25.0427 26.9313 24.8301 26.7188 24.5682 26.7188C24.3063 26.7188 24.0938 26.9313 24.0938 27.1932V29.1708C24.0938 29.4327 24.3063 29.6453 24.5682 29.6453H25.6552C25.9172 29.6453 26.1297 29.4327 26.1297 29.1708C26.1297 28.9089 25.9172 28.6964 25.6552 28.6964Z" fill="white"/>
<defs>
<linearGradient id="paint0_linear_1072_6171" x1="0" y1="28.211" x2="55.5" y2="28.211" gradientUnits="userSpaceOnUse">
<stop stop-color="#32ABB1"/>
<stop offset="1" stop-color="#3286BD"/>
</linearGradient>
</defs>
</svg>
