<svg width="59" height="59" viewBox="0 0 59 59" fill="none" xmlns="http://www.w3.org/2000/svg">
<circle cx="29.6772" cy="29.4155" r="28.9546" fill="url(#paint0_linear_1072_6162)"/>
<path d="M31.1263 13.8511C30.8715 13.6437 30.4972 13.6853 30.291 13.939L26.0968 19.1277C25.8907 19.3832 25.9305 19.7574 26.1853 19.963C26.2952 20.0521 26.4271 20.0955 26.5584 20.0955C26.7319 20.0955 26.9036 20.02 27.0206 19.8751L31.2148 14.6863C31.421 14.4309 31.3812 14.0566 31.1263 13.8511Z" fill="white"/>
<path d="M34.0925 24.0405L33.3351 24.978C33.1289 25.2334 33.1687 25.6077 33.4236 25.8132C33.5335 25.9024 33.6654 25.9457 33.7967 25.9457C33.9702 25.9457 34.1418 25.8703 34.2589 25.7253L35.0163 24.7878C35.2225 24.5324 35.1827 24.1581 34.9278 23.9526C34.673 23.7458 34.2993 23.7862 34.0925 24.0405Z" fill="white"/>
<path d="M35.891 23.3523C36.0645 23.3523 36.2362 23.2768 36.3532 23.1319L38.4503 20.5381C38.6565 20.2826 38.6167 19.9084 38.3618 19.7028C38.107 19.4955 37.7327 19.5365 37.5259 19.7907L35.4288 22.3845C35.2227 22.64 35.2625 23.0142 35.5174 23.2198C35.6273 23.3089 35.7603 23.3523 35.891 23.3523Z" fill="white"/>
<path d="M31.3072 21.027C31.0524 20.8197 30.6775 20.8607 30.4719 21.115L29.7145 22.0518C29.5077 22.3073 29.5475 22.6816 29.8024 22.8871C29.9123 22.9762 30.0442 23.0196 30.1755 23.0196C30.349 23.0196 30.5206 22.9441 30.6377 22.7992L31.3951 21.8623C31.6019 21.6069 31.5621 21.2326 31.3072 21.027Z" fill="white"/>
<path d="M32.2732 20.4269C32.4467 20.4269 32.6184 20.3515 32.7354 20.2065L34.8326 17.6121C35.0387 17.3567 34.9989 16.9824 34.744 16.7768C34.4892 16.5695 34.1149 16.6111 33.9088 16.8648L31.8116 19.4591C31.6055 19.7146 31.6453 20.0889 31.9002 20.2944C32.0101 20.3835 32.142 20.4269 32.2732 20.4269Z" fill="white"/>
<path d="M16.9811 24.307V40.3252C16.9811 41.296 17.3571 42.2067 18.0403 42.8899C18.7229 43.5731 19.6342 43.9498 20.6056 43.9498H39.9406C40.2686 43.9498 40.5347 43.6842 40.5347 43.3557V32.7459L42.1079 30.8027C42.314 30.5478 42.2528 30.1569 41.9979 29.9502C41.2441 29.34 41.1258 28.2315 41.7348 27.4788C42.3407 26.7255 43.4493 26.609 44.2471 27.2483C44.5026 27.4366 44.862 27.3903 45.0616 27.1431L47.6964 23.8816C47.9025 23.6267 47.8627 23.2525 47.6079 23.0469L29.5335 8.43719C29.2786 8.22985 28.9049 8.27085 28.6982 8.52511L26.0581 11.7872C25.9589 11.9096 25.9232 12.0748 25.9399 12.2322C25.9565 12.3896 26.0462 12.5417 26.1692 12.6403C26.5351 12.9344 26.7638 13.3532 26.8137 13.8196C26.8637 14.2854 26.7276 14.744 26.4318 15.1093C26.1371 15.4729 25.7183 15.7011 25.2525 15.7504C24.7861 15.7991 24.3269 15.6636 23.9295 15.3428C23.6734 15.145 23.3075 15.1872 23.1037 15.4397L20.4683 18.7018C20.2622 18.9566 20.302 19.3309 20.5569 19.5365L21.9583 20.6694H20.6056C18.6071 20.6694 16.9805 22.3007 16.9805 24.3058L16.9811 24.307ZM39.3471 42.7616H20.6062C19.9521 42.7616 19.3396 42.5085 18.8809 42.0499C18.4223 41.5912 18.1692 40.9781 18.1692 40.3252V26.994C18.1817 27.0053 18.196 27.0124 18.2084 27.0231C18.3564 27.1526 18.5114 27.2703 18.6754 27.373C18.7009 27.3891 18.7265 27.4039 18.7526 27.4188C18.9207 27.5186 19.0942 27.6065 19.2754 27.6778C19.2992 27.6873 19.3229 27.6944 19.3467 27.7033C19.5338 27.7728 19.7263 27.8293 19.9236 27.8667C19.9396 27.8697 19.9556 27.8709 19.9717 27.8738C20.1796 27.9107 20.3911 27.9321 20.6062 27.9321H39.3471V42.7616ZM40.5353 30.8579V30.0108C40.6244 30.1712 40.729 30.3244 40.849 30.4694L40.5353 30.8579ZM23.6889 16.6064C24.2027 16.8803 24.7838 16.9968 25.3778 16.932C26.1591 16.8494 26.8619 16.468 27.3556 15.8573C27.8516 15.2448 28.0791 14.4761 27.996 13.6931C27.9336 13.1097 27.7043 12.5696 27.3205 12.1169L29.2489 9.73408L46.4007 23.5976L44.4771 25.9793C43.2544 25.3341 41.7051 25.6211 40.8116 26.7332C40.6975 26.8746 40.5983 27.0231 40.5145 27.1776C40.5104 27.1633 40.5009 27.1514 40.4961 27.1372C40.4872 27.1122 40.4759 27.0908 40.4634 27.0677C40.442 27.0267 40.4171 26.9892 40.3868 26.9542C40.3702 26.9346 40.3541 26.9162 40.3351 26.8989C40.2989 26.8663 40.2591 26.8413 40.2157 26.8182C40.1955 26.8075 40.1783 26.7944 40.1569 26.7861C40.0897 26.7599 40.0185 26.7427 39.9424 26.7427H39.4155L42.071 23.4586C42.2772 23.2032 42.2374 22.8289 41.9825 22.6233C41.7276 22.4166 41.3534 22.457 41.1466 22.7112L37.8869 26.7427H31.3615L21.7664 18.9857L23.6895 16.6053L23.6889 16.6064ZM29.4717 26.7433H20.6062C19.9574 26.7433 19.3437 26.4896 18.8809 26.0316C18.4223 25.573 18.1692 24.9599 18.1692 24.307C18.1692 22.9572 19.2623 21.8587 20.6062 21.8587H23.4287L29.4717 26.7433Z" fill="white"/>
<defs>
<linearGradient id="paint0_linear_1072_6162" x1="0.722656" y1="29.4155" x2="58.6318" y2="29.4155" gradientUnits="userSpaceOnUse">
<stop stop-color="#32ABB1"/>
<stop offset="1" stop-color="#3286BD"/>
</linearGradient>
</defs>
</svg>
