<svg width="55" height="55" viewBox="0 0 55 55" fill="none" xmlns="http://www.w3.org/2000/svg">
<circle cx="27.4985" cy="27.5181" r="26.854" fill="url(#paint0_linear_1072_6155)"/>
<path fill-rule="evenodd" clip-rule="evenodd" d="M16.4782 21.5276C16.4782 21.1219 16.8071 20.793 17.2128 20.793H37.7829C38.1886 20.793 38.5176 21.1219 38.5176 21.5276C38.5176 23.5563 40.1622 25.2008 42.1908 25.2008C42.5965 25.2008 42.9255 25.5298 42.9255 25.9355V33.282C42.9255 33.6876 42.5965 34.0166 42.1908 34.0166C40.1622 34.0166 38.5176 35.6612 38.5176 37.6898C38.5176 38.0955 38.1886 38.4245 37.7829 38.4245H17.2128C16.8071 38.4245 16.4782 38.0955 16.4782 37.6898C16.4782 35.6612 14.8336 34.0166 12.805 34.0166C12.3992 34.0166 12.0703 33.6876 12.0703 33.282V25.9355C12.0703 25.5298 12.3992 25.2008 12.805 25.2008C14.8336 25.2008 16.4782 23.5563 16.4782 21.5276ZM17.8954 22.2623C17.5733 24.5144 15.7918 26.2959 13.5396 26.6181V32.5993C15.7918 32.9215 17.5733 34.7031 17.8954 36.9552H37.1003C37.4225 34.7031 39.204 32.9215 41.4562 32.5993V26.6181C39.204 26.2959 37.4225 24.5144 37.1003 22.2623H17.8954Z" fill="white"/>
<path fill-rule="evenodd" clip-rule="evenodd" d="M20.8867 26.6721C20.8867 26.2665 21.2156 25.9375 21.6214 25.9375H29.22C30.1941 25.9375 31.1284 26.3245 31.8172 27.0133L33.8952 29.0912C34.0329 29.229 34.1104 29.4159 34.1104 29.6107V32.5493C34.1104 32.955 33.7814 33.284 33.3757 33.284H21.6214C21.2156 33.284 20.8867 32.955 20.8867 32.5493V26.6721ZM22.356 27.4068V31.8147H32.6411V29.915L30.7783 28.0523C30.365 27.6389 29.8044 27.4068 29.22 27.4068H22.356Z" fill="white"/>
<path fill-rule="evenodd" clip-rule="evenodd" d="M26.7624 16.815L32.8548 10.7227L33.8938 11.7616L27.2819 18.3734C27.1441 18.5112 26.9572 18.5886 26.7624 18.5886C26.5676 18.5886 26.3807 18.5112 26.243 18.3734L23.3047 15.4348L24.3437 14.3959L26.7624 16.815Z" fill="white"/>
<defs>
<linearGradient id="paint0_linear_1072_6155" x1="0.644531" y1="27.5181" x2="54.3525" y2="27.5181" gradientUnits="userSpaceOnUse">
<stop stop-color="#32ABB1"/>
<stop offset="1" stop-color="#3286BD"/>
</linearGradient>
</defs>
</svg>
