<svg width="55" height="55" viewBox="0 0 55 55" fill="none" xmlns="http://www.w3.org/2000/svg">
<circle cx="27.5005" cy="27.5181" r="26.854" fill="url(#paint0_linear_630_4955)"/>
<path fill-rule="evenodd" clip-rule="evenodd" d="M16.4811 21.5276C16.4811 21.1219 16.81 20.793 17.2158 20.793H37.7859C38.1915 20.793 38.5205 21.1219 38.5205 21.5276C38.5205 23.5563 40.1651 25.2008 42.1937 25.2008C42.5994 25.2008 42.9284 25.5298 42.9284 25.9355V33.282C42.9284 33.6876 42.5994 34.0166 42.1937 34.0166C40.1651 34.0166 38.5205 35.6612 38.5205 37.6898C38.5205 38.0955 38.1915 38.4245 37.7859 38.4245H17.2158C16.81 38.4245 16.4811 38.0955 16.4811 37.6898C16.4811 35.6612 14.8366 34.0166 12.8079 34.0166C12.4022 34.0166 12.0732 33.6876 12.0732 33.282V25.9355C12.0732 25.5298 12.4022 25.2008 12.8079 25.2008C14.8366 25.2008 16.4811 23.5563 16.4811 21.5276ZM17.8983 22.2623C17.5762 24.5144 15.7947 26.2959 13.5425 26.6181V32.5993C15.7947 32.9215 17.5762 34.7031 17.8983 36.9552H37.1032C37.4254 34.7031 39.207 32.9215 41.4591 32.5993V26.6181C39.207 26.2959 37.4254 24.5144 37.1032 22.2623H17.8983Z" fill="white"/>
<path fill-rule="evenodd" clip-rule="evenodd" d="M20.8887 26.6721C20.8887 26.2665 21.2176 25.9375 21.6233 25.9375H29.2219C30.1961 25.9375 31.1304 26.3245 31.8192 27.0133L33.8972 29.0912C34.0349 29.229 34.1123 29.4159 34.1123 29.6107V32.5493C34.1123 32.955 33.7833 33.284 33.3777 33.284H21.6233C21.2176 33.284 20.8887 32.955 20.8887 32.5493V26.6721ZM22.358 27.4068V31.8147H32.643V29.915L30.7802 28.0523C30.3669 27.6389 29.8064 27.4068 29.2219 27.4068H22.358Z" fill="white"/>
<path fill-rule="evenodd" clip-rule="evenodd" d="M26.7663 16.815L32.8587 10.7227L33.8977 11.7616L27.2859 18.3734C27.148 18.5112 26.9611 18.5886 26.7663 18.5886C26.5715 18.5886 26.3846 18.5112 26.2469 18.3734L23.3086 15.4348L24.3476 14.3959L26.7663 16.815Z" fill="white"/>
<defs>
<linearGradient id="paint0_linear_630_4955" x1="27.5005" y1="0.664062" x2="27.5005" y2="54.3721" gradientUnits="userSpaceOnUse">
<stop stop-color="#7C4BEF"/>
<stop offset="1" stop-color="#3CBCE2"/>
</linearGradient>
</defs>
</svg>
