<svg width="59" height="59" viewBox="0 0 59 59" fill="none" xmlns="http://www.w3.org/2000/svg">
<circle cx="29.6772" cy="29.4175" r="28.9546" fill="url(#paint0_linear_630_4962)"/>
<path d="M31.1283 13.8511C30.8734 13.6437 30.4991 13.6853 30.293 13.939L26.0988 19.1277C25.8926 19.3832 25.9324 19.7574 26.1873 19.963C26.2972 20.0521 26.4291 20.0955 26.5604 20.0955C26.7338 20.0955 26.9055 20.02 27.0226 19.8751L31.2168 14.6863C31.4229 14.4309 31.3831 14.0566 31.1283 13.8511Z" fill="white"/>
<path d="M34.0925 24.0405L33.3351 24.978C33.1289 25.2334 33.1687 25.6077 33.4236 25.8132C33.5335 25.9024 33.6654 25.9457 33.7967 25.9457C33.9702 25.9457 34.1418 25.8703 34.2589 25.7253L35.0163 24.7878C35.2225 24.5324 35.1827 24.1581 34.9278 23.9526C34.673 23.7458 34.2993 23.7862 34.0925 24.0405Z" fill="white"/>
<path d="M35.894 23.3503C36.0674 23.3503 36.2391 23.2749 36.3562 23.1299L38.4533 20.5361C38.6594 20.2807 38.6196 19.9064 38.3648 19.7009C38.1099 19.4935 37.7356 19.5345 37.5289 19.7888L35.4318 22.3826C35.2256 22.638 35.2654 23.0123 35.5203 23.2178C35.6302 23.307 35.7633 23.3503 35.894 23.3503Z" fill="white"/>
<path d="M31.3101 21.027C31.0553 20.8197 30.6804 20.8607 30.4749 21.115L29.7174 22.0518C29.5107 22.3073 29.5505 22.6816 29.8053 22.8871C29.9152 22.9762 30.0471 23.0196 30.1784 23.0196C30.3519 23.0196 30.5236 22.9441 30.6406 22.7992L31.3981 21.8623C31.6048 21.6069 31.565 21.2326 31.3101 21.027Z" fill="white"/>
<path d="M32.2762 20.4269C32.4497 20.4269 32.6213 20.3515 32.7384 20.2065L34.8355 17.6121C35.0416 17.3567 35.0018 16.9824 34.747 16.7768C34.4921 16.5695 34.1178 16.6111 33.9117 16.8648L31.8146 19.4591C31.6084 19.7146 31.6482 20.0889 31.9031 20.2944C32.013 20.3835 32.1449 20.4269 32.2762 20.4269Z" fill="white"/>
<path d="M16.983 24.307V40.3252C16.983 41.296 17.3591 42.2067 18.0423 42.8899C18.7249 43.5731 19.6362 43.9498 20.6075 43.9498H39.9426C40.2705 43.9498 40.5367 43.6842 40.5367 43.3557V32.7459L42.1098 30.8027C42.316 30.5478 42.2548 30.1569 41.9999 29.9502C41.246 29.34 41.1278 28.2315 41.7367 27.4788C42.3427 26.7255 43.4512 26.609 44.2491 27.2483C44.5046 27.4366 44.864 27.3903 45.0636 27.1431L47.6984 23.8816C47.9045 23.6267 47.8647 23.2525 47.6098 23.0469L29.5354 8.43719C29.2806 8.22985 28.9069 8.27085 28.7001 8.52511L26.06 11.7872C25.9608 11.9096 25.9252 12.0748 25.9418 12.2322C25.9584 12.3896 26.0481 12.5417 26.1711 12.6403C26.5371 12.9344 26.7658 13.3532 26.8157 13.8196C26.8656 14.2854 26.7296 14.744 26.4337 15.1093C26.139 15.4729 25.7202 15.7011 25.2544 15.7504C24.7881 15.7991 24.3289 15.6636 23.9314 15.3428C23.6754 15.145 23.3094 15.1872 23.1056 15.4397L20.4703 18.7018C20.2641 18.9566 20.3039 19.3309 20.5588 19.5365L21.9603 20.6694H20.6075C18.609 20.6694 16.9824 22.3007 16.9824 24.3058L16.983 24.307ZM39.3491 42.7616H20.6081C19.954 42.7616 19.3415 42.5085 18.8829 42.0499C18.4243 41.5912 18.1712 40.9781 18.1712 40.3252V26.994C18.1837 27.0053 18.1979 27.0124 18.2104 27.0231C18.3583 27.1526 18.5134 27.2703 18.6773 27.373C18.7029 27.3891 18.7284 27.4039 18.7546 27.4188C18.9227 27.5186 19.0962 27.6065 19.2774 27.6778C19.3011 27.6873 19.3249 27.6944 19.3487 27.7033C19.5358 27.7728 19.7283 27.8293 19.9255 27.8667C19.9416 27.8697 19.9576 27.8709 19.9736 27.8738C20.1816 27.9107 20.3931 27.9321 20.6081 27.9321H39.3491V42.7616ZM40.5373 30.8579V30.0108C40.6264 30.1712 40.7309 30.3244 40.8509 30.4694L40.5373 30.8579ZM23.6908 16.6064C24.2047 16.8803 24.7857 16.9968 25.3798 16.932C26.161 16.8494 26.8638 16.468 27.3575 15.8573C27.8536 15.2448 28.0811 14.4761 27.9979 13.6931C27.9356 13.1097 27.7062 12.5696 27.3225 12.1169L29.2509 9.73408L46.4027 23.5976L44.479 25.9793C43.2564 25.3341 41.707 25.6211 40.8135 26.7332C40.6994 26.8746 40.6002 27.0231 40.5165 27.1776C40.5123 27.1633 40.5028 27.1514 40.4981 27.1372C40.4891 27.1122 40.4779 27.0908 40.4654 27.0677C40.444 27.0267 40.419 26.9892 40.3887 26.9542C40.3721 26.9346 40.3561 26.9162 40.3371 26.8989C40.3008 26.8663 40.261 26.8413 40.2176 26.8182C40.1974 26.8075 40.1802 26.7944 40.1588 26.7861C40.0917 26.7599 40.0204 26.7427 39.9444 26.7427H39.4174L42.073 23.4586C42.2791 23.2032 42.2393 22.8289 41.9845 22.6233C41.7296 22.4166 41.3553 22.457 41.1486 22.7112L37.8888 26.7427H31.3634L21.7684 18.9857L23.6914 16.6053L23.6908 16.6064ZM29.4736 26.7433H20.6081C19.9594 26.7433 19.3457 26.4896 18.8829 26.0316C18.4243 25.573 18.1712 24.9599 18.1712 24.307C18.1712 22.9572 19.2643 21.8587 20.6081 21.8587H23.4306L29.4736 26.7433Z" fill="white"/>
<defs>
<linearGradient id="paint0_linear_630_4962" x1="29.6772" y1="0.462891" x2="29.6772" y2="58.3721" gradientUnits="userSpaceOnUse">
<stop stop-color="#7C4BEF"/>
<stop offset="1" stop-color="#3CBCE2"/>
</linearGradient>
</defs>
</svg>
