<svg width="58" height="59" viewBox="0 0 58 59" fill="none" xmlns="http://www.w3.org/2000/svg">
<circle cx="29.0454" cy="29.4174" r="28.9546" fill="url(#paint0_linear_639_627)"/>
<g clip-path="url(#clip0_639_627)">
<path d="M24.8002 38.3932C24.8002 36.9368 25.9852 35.7529 27.4406 35.7529C28.896 35.7529 30.081 36.9368 30.081 38.3932V38.9213H33.7975C35.2529 38.9213 36.4379 37.7374 36.4379 36.2809V19.3826C36.4379 17.9261 35.2529 16.7422 33.7975 16.7422H30.081V17.2703C30.081 18.7267 28.896 19.9106 27.4406 19.9106C25.9852 19.9106 24.8002 18.7267 24.8002 17.2703V16.7422H21.1238C19.6684 16.7422 18.4834 17.9261 18.4834 19.3826V36.2809C18.4834 37.7374 19.6684 38.9213 21.1238 38.9213H24.8002V38.3932ZM21.1238 37.8652C20.2503 37.8652 19.5395 37.1544 19.5395 36.2809V19.3826C19.5395 18.5091 20.2503 17.7983 21.1238 17.7983H23.7821C24.0387 19.5875 25.5818 20.9668 27.4406 20.9668C29.2994 20.9668 30.8424 19.5875 31.0991 17.7983H33.7965C34.6699 17.7983 35.3807 18.5091 35.3807 19.3826V36.2809C35.3807 37.1544 34.6699 37.8652 33.7965 37.8652H31.0991C30.8424 36.076 29.2994 34.6967 27.4406 34.6967C25.5818 34.6967 24.0387 36.076 23.7821 37.8652H21.1238ZM39.6064 22.0229V36.2809C39.6064 39.4832 37.0008 42.0897 33.7975 42.0897H22.708V41.0336H33.7975C36.4179 41.0336 38.5502 38.9012 38.5502 36.2809V22.0229H39.6064Z" fill="white"/>
</g>
<defs>
<linearGradient id="paint0_linear_639_627" x1="29.0454" y1="0.462891" x2="29.0454" y2="58.372" gradientUnits="userSpaceOnUse">
<stop stop-color="#7C4BEF"/>
<stop offset="1" stop-color="#3CBCE2"/>
</linearGradient>
<clipPath id="clip0_639_627">
<rect width="25.3476" height="25.3476" fill="white" transform="translate(16.3711 16.7422)"/>
</clipPath>
</defs>
</svg>
