<svg width="208" height="73" viewBox="0 0 208 73" fill="none" xmlns="http://www.w3.org/2000/svg">
<path d="M47.4541 55.7255L41.185 66.6464H11.8699L0 45.9576L11.208 26.4346H30.5817L33.8976 32.2185H14.5112L8.89128 42.012L14.5175 51.8184H41.045L43.1262 48.193L47.4541 55.7255Z" fill="url(#paint0_linear_630_7462)"/>
<path d="M70.6146 66.6533H58.7892L32.3954 20.6512H8.88477L11.8697 15.4502H41.2422L70.6146 66.6533Z" fill="url(#paint1_linear_630_7462)"/>
<path d="M70.5637 15.4502L58.4392 36.5873L54.1113 29.0484L61.9143 15.4502H70.5637Z" fill="url(#paint2_linear_630_7462)"/>
<path d="M70.6151 6.58496H62.5576V11.786L70.6151 14.2968V6.58496Z" fill="url(#paint3_linear_630_7462)"/>
<path opacity="0.2" d="M8.89128 42.0061L14.5175 51.8189L0 45.9581L11.208 26.4287H30.5817L33.8976 32.2126H14.5112L8.89128 42.0061Z" fill="url(#paint4_linear_630_7462)"/>
<path opacity="0.2" d="M47.4543 55.7254L41.1853 66.6463H11.8701L37.2265 58.4605L41.0452 51.8119L43.1264 48.1865L47.4543 55.7254Z" fill="url(#paint5_linear_630_7462)"/>
<path opacity="0.2" d="M70.6146 66.6533H58.7893L41.2422 15.4502L70.6146 66.6533Z" fill="url(#paint6_linear_630_7462)"/>
<path opacity="0.2" d="M32.3954 20.6512H8.88477L11.8697 15.4502L32.3954 20.6512Z" fill="url(#paint7_linear_630_7462)"/>
<path opacity="0.2" d="M61.9143 15.4502L58.4392 36.5873L54.1113 29.0484L61.9143 15.4502Z" fill="url(#paint8_linear_630_7462)"/>
<path d="M82.3196 72.7182L81.123 73V0.288234L82.3196 0V72.7182Z" fill="#231F20"/>
<path d="M115.949 7.1416H109.337L93.0625 45.6048H99.9808L112.589 14.277L125.242 45.6048H132.268L115.949 7.1416Z" fill="#231F20"/>
<path d="M161.399 32.9609C166.3 30.9305 169.087 26.639 169.087 20.8231C169.087 12.2914 163.2 7.1416 153.71 7.1416H138.817V45.6048H145.538V34.3957H153.71C154.169 34.3957 154.633 34.3957 155.092 34.3316L162.474 45.6048H169.698L161.399 32.9609ZM153.379 28.5157H145.538V13.1753H153.379C159.267 13.1753 162.322 15.9808 162.322 20.8231C162.322 25.6398 159.267 28.5157 153.379 28.5157Z" fill="#231F20"/>
<path d="M193.985 39.8786C186.494 39.8786 181.071 34.2869 181.071 26.3701C181.071 18.4532 186.494 12.8423 193.985 12.8423C197.765 12.8423 201.011 14.3219 203.653 17.3515L208 13.0216C204.639 8.84545 199.567 6.59082 193.679 6.59082C182.586 6.59082 174.306 14.8791 174.306 26.3765C174.306 37.8482 182.586 46.1365 193.635 46.1365C199.567 46.1365 204.639 43.9011 208 39.7249L203.653 35.3245C201.011 38.399 197.765 39.8786 193.985 39.8786Z" fill="#231F20"/>
<path d="M93.1387 55.4629V65.9418H94.9653V55.4629H93.1387Z" fill="#231F20"/>
<path d="M106.53 55.4629V62.5534L101.095 55.4629H99.5928V65.9418H101.407V58.8448L106.842 65.9418H108.344V55.4629H106.53Z" fill="#231F20"/>
<path d="M120.061 55.4629L116.751 63.5462L113.474 55.4629H111.494L115.797 65.9418H117.598L121.887 55.4629H120.061Z" fill="#231F20"/>
<path d="M124.897 59.8184V61.4197H131.485V59.8184H124.897ZM124.897 55.4629V57.0962H132.089V55.4629H124.897ZM124.897 64.3085V65.9418H132.287V64.3085H124.897Z" fill="#231F20"/>
<path d="M143.227 55.4629V62.5534L137.792 55.4629H136.29V65.9418H138.104V58.8448L143.539 65.9418H145.041V55.4629H143.227Z" fill="#231F20"/>
<path d="M148.39 55.4629V57.109H151.648V65.9418H153.481V57.109H156.74V55.4629H148.39Z" fill="#231F20"/>
<path d="M164.441 55.4629H162.64L158.21 65.9418H160.094L163.531 57.4101L166.974 65.9418H168.883L164.441 55.4629Z" fill="#231F20"/>
<path d="M176.413 55.4629H172.11V65.9418H176.413C179.608 65.9418 181.784 63.8473 181.784 60.7023C181.784 57.5638 179.608 55.4629 176.413 55.4629ZM176.33 64.2957H173.937V57.109H176.33C178.526 57.109 179.945 58.531 179.945 60.7023C179.939 62.8737 178.526 64.2957 176.33 64.2957Z" fill="#231F20"/>
<path d="M190.3 55.3154C187.245 55.3154 184.992 57.6021 184.992 60.7022C184.992 63.7959 187.239 66.0826 190.3 66.0826C193.349 66.0826 195.602 63.8151 195.602 60.7022C195.602 57.5893 193.349 55.3154 190.3 55.3154ZM190.3 64.3852C188.314 64.3852 186.838 62.8415 186.838 60.7086C186.838 58.5629 188.314 57.0256 190.3 57.0256C192.28 57.0256 193.756 58.5693 193.756 60.7086C193.756 62.8415 192.28 64.3852 190.3 64.3852Z" fill="#231F20"/>
<path d="M205.658 62.4958C206.994 61.9449 207.752 60.7728 207.752 59.1907C207.752 56.8656 206.148 55.4629 203.564 55.4629H199.51V65.9418H201.343V62.8865H203.57C203.698 62.8865 203.819 62.8865 203.946 62.8673L205.957 65.9354H207.93L205.658 62.4958ZM203.481 61.2852H201.336V57.109H203.481C205.085 57.109 205.913 57.8712 205.913 59.1907C205.906 60.5038 205.085 61.2852 203.481 61.2852Z" fill="#231F20"/>
<defs>
<linearGradient id="paint0_linear_630_7462" x1="0.0339223" y1="18.596" x2="54.5536" y2="89.5823" gradientUnits="userSpaceOnUse">
<stop stop-color="#6416EC"/>
<stop offset="1" stop-color="#33E0E0"/>
</linearGradient>
<linearGradient id="paint1_linear_630_7462" x1="16.1127" y1="6.24734" x2="70.6324" y2="77.2338" gradientUnits="userSpaceOnUse">
<stop stop-color="#6416EC"/>
<stop offset="1" stop-color="#33E0E0"/>
</linearGradient>
<linearGradient id="paint2_linear_630_7462" x1="52.7941" y1="3.20174" x2="68.9424" y2="35.0259" gradientUnits="userSpaceOnUse">
<stop stop-color="#6416EC"/>
<stop offset="1" stop-color="#33E0E0"/>
</linearGradient>
<linearGradient id="paint3_linear_630_7462" x1="61.4019" y1="-1.16622" x2="77.5501" y2="30.658" gradientUnits="userSpaceOnUse">
<stop stop-color="#6416EC"/>
<stop offset="1" stop-color="#33E0E0"/>
</linearGradient>
<linearGradient id="paint4_linear_630_7462" x1="7.54206" y1="49.3943" x2="29.2558" y2="20.7223" gradientUnits="userSpaceOnUse">
<stop stop-color="white"/>
<stop offset="1" stop-color="#474EFF" stop-opacity="0"/>
</linearGradient>
<linearGradient id="paint5_linear_630_7462" x1="18.3541" y1="64.0809" x2="41.445" y2="57.7021" gradientUnits="userSpaceOnUse">
<stop stop-color="white"/>
<stop offset="1" stop-color="#474EFF" stop-opacity="0"/>
</linearGradient>
<linearGradient id="paint6_linear_630_7462" x1="47.0841" y1="25.0192" x2="62.3726" y2="60.6902" gradientUnits="userSpaceOnUse">
<stop stop-color="white"/>
<stop offset="1" stop-color="#474EFF" stop-opacity="0"/>
</linearGradient>
<linearGradient id="paint7_linear_630_7462" x1="11.351" y1="18.057" x2="28.1031" y2="18.1521" gradientUnits="userSpaceOnUse">
<stop stop-color="white"/>
<stop offset="1" stop-color="#474EFF" stop-opacity="0"/>
</linearGradient>
<linearGradient id="paint8_linear_630_7462" x1="58.1157" y1="21.5823" x2="56.0803" y2="34.4875" gradientUnits="userSpaceOnUse">
<stop stop-color="white"/>
<stop offset="1" stop-color="#474EFF" stop-opacity="0"/>
</linearGradient>
</defs>
</svg>
