<svg width="53" height="47" viewBox="0 0 53 47" fill="none" xmlns="http://www.w3.org/2000/svg">
<path d="M0 23.5C0 10.5213 10.5213 0 23.5 0H53V47H23.5C10.5213 47 0 36.4787 0 23.5Z" fill="url(#paint0_linear_672_1670)"/>
<path d="M21.636 23.293C21.4486 23.4805 21.3433 23.7348 21.3433 24C21.3433 24.2652 21.4486 24.5195 21.636 24.707L27.293 30.364C27.3853 30.4595 27.4956 30.5357 27.6176 30.5881C27.7396 30.6405 27.8709 30.6681 28.0036 30.6692C28.1364 30.6704 28.2681 30.6451 28.391 30.5948C28.5139 30.5445 28.6256 30.4703 28.7194 30.3764C28.8133 30.2825 28.8876 30.1708 28.9379 30.0479C28.9882 29.9251 29.0135 29.7934 29.0123 29.6606C29.0111 29.5278 28.9836 29.3966 28.9311 29.2746C28.8787 29.1526 28.8026 29.0422 28.707 28.95L24.757 25L38 25C38.2653 25 38.5196 24.8946 38.7072 24.7071C38.8947 24.5196 39 24.2652 39 24C39 23.7348 38.8947 23.4804 38.7072 23.2929C38.5196 23.1054 38.2653 23 38 23L24.757 23L28.707 19.05C28.8892 18.8614 28.99 18.6088 28.9877 18.3466C28.9854 18.0844 28.8803 17.8336 28.6949 17.6482C28.5095 17.4628 28.2586 17.3576 27.9964 17.3553C27.7343 17.353 27.4817 17.4538 27.293 17.636L21.636 23.293Z" fill="white"/>
<defs>
<linearGradient id="paint0_linear_672_1670" x1="0" y1="23.5" x2="53" y2="23.5" gradientUnits="userSpaceOnUse">
<stop stop-color="#32ABB1"/>
<stop offset="1" stop-color="#3286BD"/>
</linearGradient>
</defs>
</svg>
