<svg width="18" height="18" viewBox="0 0 18 18" fill="none" xmlns="http://www.w3.org/2000/svg">
<path opacity="0.8" fill-rule="evenodd" clip-rule="evenodd" d="M14 8.00002C16.21 8.00002 18 9.78998 18 12V18H0V14C0 11.79 1.79002 9.99998 3.99998 9.99998H7.53998C8.22998 8.79998 9.51998 8.00002 11 8.00002H14ZM14 9.99998H11C9.9 9.99998 9 10.9 9 12V16H16V12C16 10.9 15.1 9.99998 14 9.99998ZM6.99998 12H3.99998C2.90002 12 2.00002 12.9 2.00002 14V16H6.99998V12ZM5.00002 3C6.654 3 8.00002 4.34602 8.00002 6C8.00002 7.65398 6.654 9 5.00002 9C3.34598 9 2.00002 7.65398 2.00002 6C2.00002 4.34602 3.34598 3 5.00002 3ZM5.00002 4.875C4.38 4.875 3.87502 5.379 3.87502 6C3.87502 6.621 4.38 7.125 5.00002 7.125C5.62003 7.125 6.12502 6.621 6.12502 6C6.12502 5.379 5.61998 4.875 5.00002 4.875ZM12.5 0C14.43 0 16 1.56998 16 3.50002C16 5.43005 14.43 6.99998 12.5 6.99998C10.57 6.99998 9 5.43 9 3.50002C9 1.56998 10.57 0 12.5 0ZM12.5 2.00002C11.673 2.00002 11 2.673 11 3.50002C11 4.32698 11.673 5.00002 12.5 5.00002C13.327 5.00002 14 4.32698 14 3.50002C14 2.673 13.327 2.00002 12.5 2.00002Z" fill="#555555"/>
</svg>
