<svg width="20" height="20" viewBox="0 0 20 20" fill="none" xmlns="http://www.w3.org/2000/svg">
<g opacity="0.8">
<path d="M18.1187 18.75V10.6125C18.1187 10.275 17.8438 9.99375 17.5 9.99375H12.5V7.5H13.75V8.24375C13.75 8.525 13.975 8.75 14.25 8.75H16.3688C16.65 8.75 16.875 8.525 16.875 8.25V3.00625C16.875 2.725 16.65 2.5 16.375 2.5H14.2562C13.975 2.5 13.75 2.725 13.75 3.00625V3.75H12.5V1.825C12.5 1.50625 12.2437 1.25 11.925 1.25H2.45C2.13125 1.25 1.875 1.50625 1.875 1.825V18.7375H3.1125V15.6438C3.1125 15.2875 3.4 15 3.75625 15H10.6062C10.9625 15 11.25 15.2875 11.25 15.6438V18.75H10.6313V15.8438C10.6313 15.725 10.5375 15.625 10.4125 15.625H8.9875C8.86875 15.625 8.76875 15.7188 8.76875 15.8438V18.75H6.875H18.1187ZM12.5 16.8813V15H13.4375C13.6125 15 13.75 15.1438 13.75 15.3125V16.5625C13.75 16.7375 13.6125 16.875 13.4375 16.8813H12.5ZM12.5 13.7563V11.875H13.4375C13.6125 11.875 13.75 12.0188 13.75 12.1875V13.4375C13.75 13.6125 13.6125 13.75 13.4375 13.7563H12.5ZM13.75 6.875H12.5V4.375H13.75V6.875ZM16.875 12.1875V13.4375C16.875 13.6125 16.7375 13.75 16.5625 13.7563H15.3C15.125 13.7563 14.9875 13.6125 14.9875 13.4438V12.1875C14.9875 12.0125 15.1312 11.875 15.3 11.875H16.5625C16.7375 11.875 16.875 12.0188 16.875 12.1875ZM16.875 15.3125V16.5625C16.875 16.7375 16.7375 16.875 16.5625 16.8813H15.3C15.125 16.8813 14.9875 16.7375 14.9875 16.5688V15.3125C14.9875 15.1375 15.1312 15 15.3 15H16.5625C16.7375 15 16.875 15.1438 16.875 15.3125ZM8.13125 2.8125V4.0625C8.13125 4.2375 7.99375 4.375 7.81875 4.375H6.55625C6.38125 4.375 6.24375 4.23125 6.24375 4.0625V2.8125C6.24375 2.6375 6.3875 2.5 6.55625 2.5H7.81875C7.99375 2.5 8.13125 2.64375 8.13125 2.8125ZM8.13125 7.1875C8.13125 7.3625 7.99375 7.5 7.81875 7.5H6.55625C6.38125 7.5 6.24375 7.35625 6.24375 7.1875V5.9375C6.24375 5.7625 6.3875 5.625 6.55625 5.625H7.81875C7.99375 5.625 8.13125 5.76875 8.13125 5.9375V7.1875ZM8.13125 9.0625V10.3125C8.13125 10.4875 7.99375 10.625 7.81875 10.6313H6.55625C6.38125 10.6313 6.24375 10.4875 6.24375 10.3188V9.0625C6.24375 8.8875 6.3875 8.75 6.55625 8.75H7.81875C7.99375 8.75 8.13125 8.89375 8.13125 9.0625ZM8.13125 12.1875V13.4375C8.13125 13.6125 7.99375 13.75 7.81875 13.7563H6.55625C6.38125 13.7563 6.24375 13.6125 6.24375 13.4438V12.1875C6.24375 12.0125 6.3875 11.875 6.55625 11.875H7.81875C7.99375 11.875 8.13125 12.0188 8.13125 12.1875ZM11.2625 13.4375C11.2625 13.6125 11.1188 13.75 10.95 13.7563H9.6875C9.5125 13.7563 9.375 13.6125 9.375 13.4438V12.1875C9.375 12.0125 9.51875 11.875 9.6875 11.875H10.95C11.125 11.875 11.2625 12.0188 11.2625 12.1875V13.4375ZM11.2625 9.0625V10.3125C11.2625 10.4875 11.1188 10.625 10.95 10.6313H9.6875C9.5125 10.6313 9.375 10.4875 9.375 10.3188V9.0625C9.375 8.8875 9.51875 8.75 9.6875 8.75H10.95C11.125 8.75 11.2625 8.89375 11.2625 9.0625ZM11.2625 7.1875C11.2625 7.3625 11.1188 7.5 10.95 7.5H9.6875C9.5125 7.5 9.375 7.35625 9.375 7.1875V5.9375C9.375 5.7625 9.5125 5.625 9.6875 5.625H10.95C11.125 5.625 11.2625 5.76875 11.2625 5.9375V7.1875ZM11.2625 2.8125V4.0625C11.2625 4.2375 11.1188 4.375 10.95 4.375H9.6875C9.5125 4.375 9.375 4.2375 9.375 4.0625V2.8125C9.375 2.6375 9.5125 2.5 9.6875 2.5H10.95C11.125 2.5 11.2625 2.64375 11.2625 2.8125ZM5.00625 13.4375C5.00625 13.6125 4.86875 13.75 4.69375 13.7563H3.43125C3.25625 13.7563 3.11875 13.6125 3.11875 13.4438V12.1875C3.11875 12.0125 3.2625 11.875 3.43125 11.875H4.69375C4.86875 11.875 5.00625 12.0188 5.00625 12.1875V13.4375ZM5.00625 9.0625V10.3125C5.00625 10.4875 4.86875 10.625 4.69375 10.6313H3.43125C3.25625 10.6313 3.11875 10.4875 3.11875 10.3188V9.0625C3.11875 8.8875 3.2625 8.75 3.43125 8.75H4.69375C4.86875 8.75 5.00625 8.89375 5.00625 9.0625ZM5.00625 7.1875C5.00625 7.3625 4.86875 7.5 4.69375 7.5H3.43125C3.25625 7.5 3.11875 7.35625 3.11875 7.1875V5.9375C3.11875 5.7625 3.2625 5.625 3.43125 5.625H4.69375C4.86875 5.625 5.00625 5.76875 5.00625 5.9375V7.1875ZM5.00625 2.8125V4.0625C5.00625 4.2375 4.86875 4.375 4.69375 4.375H3.43125C3.25625 4.375 3.11875 4.23125 3.11875 4.0625V2.8125C3.11875 2.6375 3.2625 2.5 3.43125 2.5H4.69375C4.86875 2.5 5.00625 2.64375 5.00625 2.8125Z" fill="#555555"/>
<path d="M8.125 18.75H6.2625V15.8438C6.2625 15.7188 6.3625 15.625 6.48125 15.625H7.90625C8.025 15.625 8.125 15.7188 8.125 15.8438V18.75ZM5.6125 15.8438V18.75H3.75V15.8438C3.75 15.7188 3.84375 15.625 3.96875 15.625H5.39375C5.51875 15.625 5.6125 15.725 5.6125 15.8438Z" fill="#555555"/>
</g>
</svg>
