<svg width="20" height="20" viewBox="0 0 20 20" fill="none" xmlns="http://www.w3.org/2000/svg">
<path d="M19.4487 6.7839L17.6387 4.97388C17.4927 4.82982 17.2979 4.7457 17.093 4.7381C16.888 4.73051 16.6876 4.8 16.5313 4.93287C16.29 5.13825 15.9803 5.24549 15.6637 5.23333C15.3471 5.22118 15.0466 5.09052 14.8217 4.86724C14.5986 4.64243 14.468 4.342 14.4558 4.02547C14.4437 3.70894 14.5508 3.39939 14.7561 3.15812C14.889 3.00183 14.9585 2.80143 14.9509 2.59644C14.9433 2.39144 14.8592 2.19673 14.7151 2.0507L12.9034 0.23863C12.7503 0.0858219 12.5429 0 12.3265 0C12.1102 0 11.9028 0.0858219 11.7497 0.23863L8.86421 3.12367C8.6861 3.30248 8.55176 3.52006 8.4717 3.75941C8.45611 3.80543 8.43014 3.84724 8.39578 3.8816C8.36142 3.91596 8.31961 3.94193 8.27359 3.95752C8.03414 4.03757 7.81652 4.17207 7.63785 4.35045L0.23863 11.7497C0.0858219 11.9028 0 12.1102 0 12.3265C0 12.5429 0.0858219 12.7503 0.23863 12.9034L2.0507 14.7135C2.19673 14.8575 2.39144 14.9416 2.59644 14.9492C2.80143 14.9568 3.00183 14.8873 3.15812 14.7545C3.39884 14.5474 3.7089 14.439 4.02618 14.4509C4.34346 14.4628 4.64452 14.5942 4.86904 14.8187C5.09355 15.0432 5.22492 15.3443 5.23683 15.6616C5.24875 15.9788 5.14032 16.2889 4.93328 16.5296C4.80041 16.6859 4.73092 16.8863 4.73851 17.0913C4.74611 17.2963 4.83023 17.491 4.97429 17.637L6.78431 19.4471C6.93741 19.5999 7.14489 19.6857 7.3612 19.6857C7.57751 19.6857 7.78498 19.5999 7.93808 19.4471L15.3373 12.0478C15.5156 11.8693 15.6501 11.6518 15.7302 11.4125C15.7457 11.3663 15.7717 11.3244 15.8062 11.29C15.8406 11.2555 15.8826 11.2295 15.9287 11.214C16.168 11.134 16.3854 10.9996 16.5641 10.8215L19.4491 7.93603C19.6014 7.78294 19.6868 7.57579 19.6867 7.35988C19.6866 7.14397 19.6011 6.93688 19.4487 6.7839ZM10.082 5.56779C10.021 5.62874 9.94868 5.6771 9.86905 5.71009C9.78942 5.74307 9.70407 5.76005 9.61788 5.76005C9.53168 5.76005 9.44634 5.74307 9.36671 5.71009C9.28708 5.6771 9.21473 5.62874 9.15379 5.56779L8.6817 5.0957C8.56162 4.97201 8.49504 4.80604 8.49634 4.63366C8.49763 4.46127 8.56671 4.29632 8.68863 4.17446C8.81055 4.05259 8.97553 3.98358 9.14792 3.98236C9.3203 3.98114 9.48624 4.0478 9.60988 4.16793L10.082 4.63961C10.1429 4.70055 10.1913 4.7729 10.2243 4.85253C10.2573 4.93216 10.2742 5.01751 10.2742 5.1037C10.2742 5.18989 10.2573 5.27524 10.2243 5.35487C10.1913 5.4345 10.1429 5.50685 10.082 5.56779ZM11.8867 7.37248C11.7636 7.49545 11.5967 7.56454 11.4228 7.56454C11.2488 7.56454 11.0819 7.49545 10.9589 7.37248L10.5077 6.92131C10.3846 6.79822 10.3155 6.63128 10.3155 6.45721C10.3155 6.28315 10.3846 6.11621 10.5077 5.99312C10.6308 5.87004 10.7977 5.80089 10.9718 5.80089C11.1459 5.80089 11.3128 5.87004 11.4359 5.99312L11.8871 6.44429C11.9482 6.50523 11.9968 6.57764 12.0299 6.65736C12.063 6.73709 12.0801 6.82258 12.0802 6.90892C12.0802 6.99525 12.0632 7.08075 12.0301 7.16051C11.9971 7.24027 11.9486 7.31272 11.8875 7.37371L11.8867 7.37248ZM13.6913 9.17717C13.6304 9.23812 13.5581 9.28647 13.4784 9.31946C13.3988 9.35245 13.3134 9.36943 13.2273 9.36943C13.1411 9.36943 13.0557 9.35245 12.9761 9.31946C12.8965 9.28647 12.8241 9.23812 12.7632 9.17717L12.312 8.72599C12.1919 8.6023 12.1253 8.43633 12.1266 8.26395C12.1279 8.09157 12.197 7.92662 12.3189 7.80475C12.4408 7.68288 12.6058 7.61388 12.7782 7.61266C12.9506 7.61143 13.1165 7.67809 13.2402 7.79822L13.6913 8.24939C13.7527 8.31023 13.8014 8.38257 13.8347 8.46228C13.868 8.54199 13.8853 8.62749 13.8855 8.71388C13.8856 8.80027 13.8688 8.88584 13.8358 8.9657C13.8029 9.04555 13.7545 9.11811 13.6934 9.17922L13.6913 9.17717ZM15.5137 11.004C15.4527 11.065 15.3804 11.1133 15.3007 11.1463C15.2211 11.1793 15.1358 11.1963 15.0496 11.1963C14.9634 11.1963 14.878 11.1793 14.7984 11.1463C14.7188 11.1133 14.6464 11.065 14.5855 11.004L14.1163 10.5323C14.054 10.4716 14.0045 10.399 13.9705 10.319C13.9366 10.2389 13.9189 10.1529 13.9185 10.0659C13.9181 9.97892 13.9349 9.89272 13.9681 9.81233C14.0013 9.73194 14.0502 9.65894 14.1118 9.59759C14.1735 9.53624 14.2467 9.48775 14.3272 9.45496C14.4078 9.42216 14.4941 9.4057 14.581 9.40654C14.668 9.40737 14.7539 9.42549 14.8339 9.45984C14.9138 9.49418 14.986 9.54407 15.0465 9.6066L15.5161 10.0779C15.5771 10.1388 15.6254 10.2112 15.6583 10.2909C15.6913 10.3705 15.7082 10.4559 15.7082 10.542C15.7081 10.6282 15.6911 10.7136 15.6581 10.7932C15.6251 10.8728 15.5767 10.9451 15.5157 11.0061L15.5137 11.004Z" fill="#555555"/>
</svg>
