<svg width="38" height="33" viewBox="0 0 38 33" fill="none" xmlns="http://www.w3.org/2000/svg">
<path d="M0 16.5C0 7.3873 7.3873 0 16.5 0H38V33H16.5C7.3873 33 0 25.6127 0 16.5Z" fill="url(#paint0_linear_674_1671)"/>
<path d="M29.3644 16.293C29.5519 16.4805 29.6572 16.7348 29.6572 17C29.6572 17.2652 29.5519 17.5195 29.3644 17.707L23.7074 23.364C23.6152 23.4595 23.5048 23.5357 23.3828 23.5881C23.2608 23.6405 23.1296 23.6681 22.9968 23.6692C22.8641 23.6704 22.7324 23.6451 22.6095 23.5948C22.4866 23.5445 22.3749 23.4703 22.281 23.3764C22.1872 23.2825 22.1129 23.1708 22.0626 23.0479C22.0123 22.9251 21.987 22.7934 21.9882 22.6606C21.9893 22.5278 22.0169 22.3966 22.0693 22.2746C22.1217 22.1526 22.1979 22.0422 22.2934 21.95L26.2434 18L13.0004 18C12.7352 18 12.4809 17.8946 12.2933 17.7071C12.1058 17.5196 12.0004 17.2652 12.0004 17C12.0004 16.7348 12.1058 16.4804 12.2933 16.2929C12.4809 16.1054 12.7352 16 13.0004 16L26.2434 16L22.2934 12.05C22.1113 11.8614 22.0105 11.6088 22.0128 11.3466C22.015 11.0844 22.1202 10.8336 22.3056 10.6482C22.491 10.4628 22.7418 10.3576 23.004 10.3553C23.2662 10.353 23.5188 10.4538 23.7074 10.636L29.3644 16.293Z" fill="white"/>
<defs>
<linearGradient id="paint0_linear_674_1671" x1="0" y1="16.5" x2="38" y2="16.5" gradientUnits="userSpaceOnUse">
<stop stop-color="#32ABB1"/>
<stop offset="1" stop-color="#3286BD"/>
</linearGradient>
</defs>
</svg>
