<svg width="17" height="16" viewBox="0 0 17 16" fill="none" xmlns="http://www.w3.org/2000/svg">
<path d="M1.61338 1.20857L1.43701 1.33834C0.956761 1.71619 0.578838 2.20835 0.337761 2.76986C0.0966842 3.33137 0.000136108 3.94433 0.056935 4.55276C0.291826 7.02423 1.83938 9.52083 4.65685 12.0633C7.46922 14.6011 10.1072 15.8851 12.5851 15.869C13.2367 15.8641 13.8752 15.6852 14.4345 15.3508C14.9938 15.0164 15.4536 14.5386 15.7664 13.9669L16.158 13.2517C16.4695 12.6889 16.5655 12.032 16.4281 11.4036C16.2907 10.7752 15.9293 10.2183 15.4113 9.83686L14.0487 8.8388C13.6002 8.51255 13.0607 8.33503 12.5061 8.33119C11.9515 8.32734 11.4096 8.49737 10.9566 8.81737L9.5132 9.82994L9.4772 9.84932L9.38054 9.82507C9.3155 9.80958 9.21886 9.773 9.09064 9.71533C8.72559 9.54519 8.25355 9.20628 7.69209 8.69964C6.93158 8.01337 6.50233 7.4649 6.40069 7.11574C6.38196 7.0544 6.39023 6.98777 6.42137 6.93068L7.2399 5.46535C7.512 4.98156 7.62556 4.42462 7.56459 3.87292C7.50362 3.32121 7.27119 2.80252 6.90002 2.38982L5.76251 1.13C5.32824 0.65383 4.73552 0.351964 4.095 0.28075C3.45449 0.209536 2.80994 0.373841 2.28168 0.742992L1.61338 1.20857ZM5.63329 10.9812C3.05877 8.658 1.6949 6.45864 1.50085 4.4037C1.43129 3.67418 1.73434 2.95865 2.29971 2.49835L2.43465 2.39602L3.10204 1.93146C3.34198 1.76288 3.63518 1.68763 3.92666 1.71981C4.21813 1.75199 4.48785 1.8894 4.68524 2.10626L5.82274 3.36608C5.99079 3.55405 6.09592 3.78982 6.12344 4.04045C6.15097 4.29108 6.09951 4.54405 5.97626 4.76401L5.15875 6.23026C5.0492 6.42697 4.9797 6.64342 4.95425 6.86714C4.9288 7.09085 4.94792 7.31738 5.01049 7.53367C5.20533 8.20029 5.7762 8.92842 6.71842 9.77865C8.15166 11.072 9.25978 11.5885 10.1777 11.1111L10.2967 11.0407L11.7826 10.0017C11.9888 9.85654 12.2352 9.77946 12.4873 9.78118C12.7394 9.7829 12.9847 9.86334 13.1889 10.0113L14.5505 11.0084C14.786 11.1819 14.9503 11.4351 15.0128 11.7209C15.0753 12.0066 15.0317 12.3054 14.8901 12.5613L14.4984 13.2765C14.3102 13.6191 14.0342 13.9053 13.6987 14.1058C13.3631 14.3063 12.9803 14.4138 12.5894 14.4172C10.5253 14.4326 8.20372 13.3007 5.63329 10.9812Z" fill="black"/>
</svg>
