<svg width="24" height="24" viewBox="0 0 24 24" fill="none" xmlns="http://www.w3.org/2000/svg">
<path fill-rule="evenodd" clip-rule="evenodd" d="M14.4361 2.30241C9.99001 1.18531 5.35367 3.23426 3.18649 7.27398C1.01931 11.3137 1.87631 16.3096 5.26591 19.3962C8.65552 22.4827 13.7097 22.8693 17.5293 20.3343C17.9895 20.029 18.1149 19.4083 17.8095 18.9482C17.5042 18.488 16.8835 18.3625 16.4234 18.6679C13.3676 20.696 9.3242 20.3867 6.61247 17.9174C3.90073 15.4481 3.21512 11.4513 4.9489 8.21946C6.68267 4.98761 10.3918 3.34843 13.9488 4.24212C17.5058 5.13581 19.9996 8.3335 20 12.001C20 13.8262 19.4251 14.7509 18.375 14.7509C17.3249 14.7509 16.75 13.8262 16.75 12.0009V8.25095L16.7432 8.13433C16.6855 7.63699 16.2628 7.25095 15.75 7.25095C15.2378 7.25095 14.8155 7.63602 14.7569 8.13246C13.9796 7.57747 13.0279 7.25095 12 7.25095C9.3766 7.25095 7.24995 9.3776 7.24995 12.0009C7.24995 14.6243 9.3766 16.7509 12 16.7509C13.3913 16.7509 14.6429 16.1528 15.5116 15.1995C16.113 16.1735 17.0691 16.7509 18.375 16.7509C20.7811 16.7509 22 14.7904 22 12.0009C21.9996 7.41654 18.8823 3.4195 14.4361 2.30241ZM14.75 12.0009C14.75 10.4822 13.5187 9.25095 12 9.25095C10.4812 9.25095 9.24995 10.4822 9.24995 12.0009C9.24995 13.5197 10.4812 14.7509 12 14.7509C13.5187 14.7509 14.75 13.5197 14.75 12.0009Z" fill="url(#paint0_linear_1169_1418)"/>
<defs>
<linearGradient id="paint0_linear_1169_1418" x1="1.99805" y1="12.0013" x2="22" y2="12.0013" gradientUnits="userSpaceOnUse">
<stop stop-color="#32ABB1"/>
<stop offset="1" stop-color="#3286BD"/>
</linearGradient>
</defs>
</svg>
