<svg width="44" height="44" viewBox="0 0 44 44" fill="none" xmlns="http://www.w3.org/2000/svg">
<rect width="44" height="44" rx="14" fill="white"/>
<path fill-rule="evenodd" clip-rule="evenodd" d="M21.5 13C16.8056 13 13 16.8056 13 21.5C13 26.1944 16.8056 30 21.5 30C23.4845 30 25.3102 29.3199 26.7567 28.18L27.1601 28.5742L30.2929 31.7071L30.3871 31.7903C30.7794 32.0953 31.3466 32.0676 31.7071 31.7071C32.0976 31.3166 32.0976 30.6834 31.7071 30.2929L28.5661 27.1518L28.1721 26.7668C29.3167 25.3187 30 23.4892 30 21.5C30 16.8056 26.1944 13 21.5 13ZM21.5 15C25.0899 15 28 17.9101 28 21.5C28 25.0899 25.0899 28 21.5 28C17.9101 28 15 25.0899 15 21.5C15 17.9101 17.9101 15 21.5 15Z" fill="#0A1629"/>
</svg>
