<svg width="16" height="20" viewBox="0 0 16 20" fill="none" xmlns="http://www.w3.org/2000/svg">
<path d="M10.0971 19.2031H3.27734C1.70225 19.2031 0.420898 17.9218 0.420898 16.3467V6.67047C0.420898 5.09538 1.70225 3.81403 3.27734 3.81403H10.0971C11.6722 3.81403 12.9536 5.09538 12.9536 6.67047V16.3467C12.9536 17.9218 11.6722 19.2031 10.0971 19.2031ZM3.27734 5.24225C2.48987 5.24225 1.84912 5.883 1.84912 6.67047V16.3467C1.84912 17.1342 2.48987 17.7749 3.27734 17.7749H10.0971C10.8846 17.7749 11.5253 17.1342 11.5253 16.3467V6.67047C11.5253 5.883 10.8846 5.24225 10.0971 5.24225H3.27734ZM15.81 14.5614V3.77832C15.81 2.20323 14.5286 0.921875 12.9536 0.921875H5.02692C4.63248 0.921875 4.31281 1.24155 4.31281 1.63599C4.31281 2.03042 4.63248 2.3501 5.02692 2.3501H12.9536C13.741 2.3501 14.3818 2.99085 14.3818 3.77832V14.5614C14.3818 14.9558 14.7015 15.2755 15.0959 15.2755C15.4903 15.2755 15.81 14.9558 15.81 14.5614Z" fill="url(#paint0_linear_1164_1931)"/>
<defs>
<linearGradient id="paint0_linear_1164_1931" x1="0.420898" y1="10.0625" x2="15.81" y2="10.0625" gradientUnits="userSpaceOnUse">
<stop stop-color="#32ABB1"/>
<stop offset="1" stop-color="#3286BD"/>
</linearGradient>
</defs>
</svg>
