<svg width="16" height="19" viewBox="0 0 16 19" fill="none" xmlns="http://www.w3.org/2000/svg">
<path d="M3.5343 18.9453C3.0543 18.9453 2.64573 18.7657 2.30859 18.4066C1.97145 18.0474 1.80287 17.6125 1.80287 17.1019V2.9656H0.731445V1.8242H5.01716V0.945312H11.4457V1.8242H15.7314V2.9656H14.66V17.1019C14.66 17.627 14.495 18.0657 14.165 18.418C13.835 18.7703 13.4229 18.9461 12.9286 18.9453H3.5343ZM13.5886 2.9656H2.8743V17.1019C2.8743 17.3066 2.93609 17.4748 3.05966 17.6064C3.18323 17.7381 3.34145 17.8039 3.5343 17.8039H12.9297C13.0939 17.8039 13.245 17.7309 13.3829 17.5848C13.5207 17.4387 13.5893 17.2773 13.5886 17.1008V2.9656ZM5.88287 15.5211H6.9543V5.24842H5.88287V15.5211ZM9.50859 15.5211H10.58V5.24842H9.50859V15.5211Z" fill="#E33629"/>
</svg>
