<svg width="18" height="13" viewBox="0 0 18 13" fill="none" xmlns="http://www.w3.org/2000/svg">
<path d="M8.77669 3.99219C9.40658 3.99219 10.0107 4.24241 10.4561 4.68781C10.9015 5.13321 11.1517 5.7373 11.1517 6.36719C11.1517 6.99708 10.9015 7.60117 10.4561 8.04657C10.0107 8.49197 9.40658 8.74219 8.77669 8.74219C8.1468 8.74219 7.54271 8.49197 7.09731 8.04657C6.65191 7.60117 6.40169 6.99708 6.40169 6.36719C6.40169 5.7373 6.65191 5.13321 7.09731 4.68781C7.54271 4.24241 8.1468 3.99219 8.77669 3.99219ZM8.77669 0.429688C12.735 0.429688 16.1154 2.89177 17.485 6.36719C16.1154 9.8426 12.735 12.3047 8.77669 12.3047C4.81836 12.3047 1.43794 9.8426 0.0683594 6.36719C1.43794 2.89177 4.81836 0.429688 8.77669 0.429688ZM1.79419 6.36719C2.43406 7.67368 3.42764 8.77445 4.66199 9.54435C5.89633 10.3142 7.32192 10.7224 8.77669 10.7224C10.2315 10.7224 11.6571 10.3142 12.8914 9.54435C14.1257 8.77445 15.1193 7.67368 15.7592 6.36719C15.1193 5.06069 14.1257 3.95993 12.8914 3.19003C11.6571 2.42013 10.2315 2.01198 8.77669 2.01198C7.32192 2.01198 5.89633 2.42013 4.66199 3.19003C3.42764 3.95993 2.43406 5.06069 1.79419 6.36719Z" fill="url(#paint0_linear_1_2150)"/>
<defs>
<linearGradient id="paint0_linear_1_2150" x1="0.0683594" y1="6.36719" x2="17.485" y2="6.36719" gradientUnits="userSpaceOnUse">
<stop stop-color="#3286BD"/>
<stop offset="1" stop-color="#32ABB1"/>
</linearGradient>
</defs>
</svg>
