<svg width="34" height="27" viewBox="0 0 34 27" fill="none" xmlns="http://www.w3.org/2000/svg">
<g clip-path="url(#clip0_630_4723)">
<path d="M11.9 13.5C15.6559 13.5 18.7 10.4783 18.7 6.75C18.7 3.02168 15.6559 0 11.9 0C8.14406 0 5.1 3.02168 5.1 6.75C5.1 10.4783 8.14406 13.5 11.9 13.5ZM16.66 15.1875H15.7728C14.5934 15.7254 13.2812 16.0312 11.9 16.0312C10.5188 16.0312 9.21188 15.7254 8.02719 15.1875H7.14C3.19812 15.1875 0 18.3621 0 22.275V24.4688C0 25.8662 1.14219 27 2.55 27H17.1541C17.0266 26.6414 16.9734 26.2617 17.0159 25.8768L17.3772 22.6652L17.4409 22.0799L17.8606 21.6633L21.9672 17.5869C20.6656 16.1262 18.7797 15.1875 16.66 15.1875ZM19.0666 22.8498L18.7053 26.0666C18.6469 26.6045 19.1038 27.058 19.6403 26.9947L22.8756 26.6361L30.2016 19.3641L26.3925 15.583L19.0666 22.8498ZM33.6281 14.1803L31.6147 12.1816C31.1206 11.6912 30.3131 11.6912 29.8191 12.1816L27.8109 14.175L27.5931 14.3912L31.4075 18.1723L33.6281 15.968C34.1222 15.4723 34.1222 14.676 33.6281 14.1803Z" fill="#3F8CFF"/>
</g>
<defs>
<clipPath id="clip0_630_4723">
<rect width="34" height="27" fill="white"/>
</clipPath>
</defs>
</svg>
