<svg width="30" height="30" viewBox="0 0 30 30" fill="none" xmlns="http://www.w3.org/2000/svg">
<g clip-path="url(#clip0_630_4468)">
<path d="M12.1875 22.5002C12.1875 23.824 12.4369 25.0877 12.8906 26.2502H4.05778e-07C-0.000686668 23.4863 0.871172 20.7927 2.49129 18.5535C4.11141 16.3142 6.39709 14.6435 9.0225 13.7796C7.767 12.9593 6.78626 11.7814 6.20695 10.3981C5.62763 9.01474 5.47635 7.4895 5.77263 6.01932C6.0689 4.54915 6.79914 3.20156 7.86903 2.15059C8.93892 1.09962 10.2993 0.393535 11.7745 0.12353C13.2498 -0.146475 14.7721 0.0319967 16.1449 0.635897C17.5176 1.2398 18.6778 2.24139 19.4756 3.51132C20.2734 4.78126 20.6721 6.26121 20.6203 7.76005C20.5685 9.25889 20.0686 10.7078 19.185 11.9196C18.6544 12.6452 17.9062 13.1515 17.1581 13.6577C16.8994 13.829 16.6456 14.0052 16.3969 14.1865C15.0919 15.1446 14.0309 16.3964 13.2996 17.8408C12.5683 19.2851 12.1873 20.8813 12.1875 22.5002Z" fill="#3F8CFF"/>
<path fill-rule="evenodd" clip-rule="evenodd" d="M30 22.5C30 24.4891 29.2098 26.3968 27.8033 27.8033C26.3968 29.2098 24.4891 30 22.5 30C20.5109 30 18.6032 29.2098 17.1967 27.8033C15.7902 26.3968 15 24.4891 15 22.5C15 20.5109 15.7902 18.6032 17.1967 17.1967C18.6032 15.7902 20.5109 15 22.5 15C24.4891 15 26.3968 15.7902 27.8033 17.1967C29.2098 18.6032 30 20.5109 30 22.5ZM21.0938 18.75V21.0938H18.75V23.9062H21.0938V26.25H23.9062V23.9062H26.25V21.0938H23.9062V18.75H21.0938Z" fill="#3F8CFF"/>
</g>
<defs>
<clipPath id="clip0_630_4468">
<rect width="30" height="30" fill="white"/>
</clipPath>
</defs>
</svg>
