<svg width="28" height="28" viewBox="0 0 28 28" fill="none" xmlns="http://www.w3.org/2000/svg">
<path d="M25.2757 27.4051C25.834 27.4051 26.3694 27.1833 26.7642 26.7886C27.1589 26.3938 27.3807 25.8584 27.3807 25.3001V20.3885C27.3807 19.8303 27.1589 19.2949 26.7642 18.9001C26.3694 18.5054 25.834 18.2836 25.2757 18.2836C23.6339 18.2836 22.02 18.031 20.4764 17.5118C20.1073 17.3953 19.7134 17.3821 19.3374 17.4736C18.9614 17.5651 18.6176 17.7579 18.3434 18.031L16.3226 20.0518C12.8315 18.1466 9.96221 15.2774 8.05709 11.7862L10.0638 9.77951C10.6392 9.23222 10.8497 8.4183 10.5971 7.63245C10.0919 6.10284 9.8393 4.48903 9.8393 2.84715C9.8393 2.28888 9.61753 1.75348 9.22277 1.35872C8.82801 0.96396 8.2926 0.742188 7.73433 0.742188H2.82274C2.26447 0.742188 1.72906 0.96396 1.3343 1.35872C0.939546 1.75348 0.717773 2.28888 0.717773 2.84715C0.717773 16.3891 11.7338 27.4051 25.2757 27.4051ZM2.82274 2.1455H7.73433C7.92042 2.1455 8.09889 2.21942 8.23048 2.35101C8.36206 2.4826 8.43599 2.66106 8.43599 2.84715C8.43599 4.64339 8.71665 6.39753 9.26394 8.06747C9.33411 8.26394 9.32007 8.5446 9.09554 8.76913L6.33102 11.5196C8.64648 16.0523 12.0425 19.4483 16.5892 21.7919L19.3257 19.0273C19.5221 18.8309 19.7888 18.7747 20.0414 18.8449C21.7253 19.4062 23.4795 19.6869 25.2757 19.6869C25.4618 19.6869 25.6403 19.7608 25.7719 19.8924C25.9035 20.024 25.9774 20.2025 25.9774 20.3885V25.3001C25.9774 25.4862 25.9035 25.6647 25.7719 25.7963C25.6403 25.9279 25.4618 26.0018 25.2757 26.0018C12.5056 26.0018 2.12108 15.6173 2.12108 2.84715C2.12108 2.66106 2.19501 2.4826 2.3266 2.35101C2.45818 2.21942 2.63665 2.1455 2.82274 2.1455Z" fill="white"/>
</svg>
