<svg width="38" height="38" viewBox="0 0 38 38" fill="none" xmlns="http://www.w3.org/2000/svg">
<path d="M28.1057 17.73C28.1053 15.6057 27.2612 13.5686 25.7591 12.0665C24.257 10.5644 22.2199 9.72034 20.0956 9.71992M33.5967 17.1695C33.5967 15.4864 33.2652 13.8198 32.621 12.2649C31.9769 10.7099 31.0328 9.29707 29.8426 8.10702C28.6524 6.91697 27.2394 5.97302 25.6844 5.32907C24.1293 4.68513 22.4627 4.3538 20.7796 4.354M19.8407 32.0101C19.3657 31.7932 18.8923 31.5763 18.4189 31.3182C16.0966 30.0062 13.9633 28.3848 12.0776 26.4985C9.63402 24.1972 7.62631 21.4734 6.15119 18.4583C5.36207 16.8388 4.829 15.1066 4.57102 13.3236C4.22297 11.522 4.42261 9.65742 5.14419 7.97034C5.58935 7.24515 6.12691 6.58091 6.74335 5.99434C6.9935 5.71446 7.29761 5.48801 7.63744 5.32857C7.97727 5.16913 8.34581 5.07999 8.72094 5.0665C9.50152 5.18367 10.2093 5.59217 10.6969 6.21125C11.7641 7.39717 12.9089 8.46434 14.0346 9.59009C14.4779 9.97009 14.755 10.5084 14.8057 11.0911C14.7867 11.5819 14.5983 12.049 14.2721 12.4148C13.8969 12.8898 13.4424 13.3236 13.0086 13.7764C12.7463 14.0291 12.5456 14.3387 12.422 14.6814C12.2985 15.024 12.2554 15.3905 12.2961 15.7524C12.5684 16.5995 13.0355 17.3722 13.6594 18.0055C14.4078 19.0266 15.192 20.0211 16.0106 20.9869C17.5373 22.7481 19.3458 24.2435 21.3623 25.4123C21.6415 25.6232 21.9716 25.7563 22.319 25.798C22.6664 25.8397 23.0186 25.7886 23.3399 25.6498C24.0096 25.2746 24.6065 24.779 25.0974 24.1884C25.5226 23.6711 26.1313 23.3381 26.7963 23.259C27.3884 23.2907 27.9458 23.544 28.3574 23.9715C28.8894 24.4243 29.3439 24.9579 29.8379 25.4519C30.3319 25.9459 30.7277 26.3022 31.1425 26.755C31.6397 27.1941 32.1068 27.6617 32.5438 28.1578C32.8826 28.5964 33.0457 29.1474 32.9982 29.6984C32.8217 30.3582 32.4416 30.9455 31.912 31.3768C31.1662 32.1522 30.2601 32.7556 29.257 33.1447C28.2539 33.5339 27.178 33.6994 26.1044 33.6298C23.9304 33.5092 21.8004 32.9587 19.8407 32.0101Z" stroke="url(#paint0_linear_273_3549)" stroke-width="2" stroke-miterlimit="10" stroke-linecap="round"/>
<defs>
<linearGradient id="paint0_linear_273_3549" x1="4.4043" y1="18.9997" x2="33.5967" y2="18.9997" gradientUnits="userSpaceOnUse">
<stop stop-color="#32ABB1"/>
<stop offset="1" stop-color="#3286BD"/>
</linearGradient>
</defs>
</svg>
