<svg width="32" height="33" viewBox="0 0 32 33" fill="none" xmlns="http://www.w3.org/2000/svg">
<ellipse cx="16.1212" cy="16.0312" rx="15.5" ry="16" fill="white"/>
<path d="M21.907 19.1673C20.9404 18.3406 19.9595 17.8399 19.0048 18.6653L18.4347 19.1642C18.0176 19.5264 17.2421 21.2185 14.2438 17.7693C11.2461 14.3246 13.03 13.7882 13.4477 13.4292L14.0209 12.9297C14.9706 12.1024 14.6122 11.0609 13.9272 9.9888L13.5139 9.33944C12.8258 8.26986 12.0766 7.56742 11.1244 8.39349L10.6099 8.84305C10.189 9.14962 9.01267 10.1462 8.72733 12.0393C8.38391 14.3108 9.46723 16.912 11.9492 19.7661C14.428 22.6215 16.855 24.0557 19.154 24.0307C21.0647 24.0101 22.2185 22.9849 22.5794 22.6121L23.0958 22.1619C24.0455 21.3365 23.4554 20.496 22.4883 19.6675L21.907 19.1673Z" fill="#328ABC"/>
</svg>
