<svg width="37" height="27" viewBox="0 0 37 27" fill="none" xmlns="http://www.w3.org/2000/svg">
<path d="M0 0L0.578125 1.14822L0 2.34863V3.54905L2.3125 6.3674L0 9.18576V10.8559L2.3125 13.3611L0 15.8663V17.5365L2.3125 20.3548L0 23.1732V26.7222L1.58984 26.3047L3.25195 26.7222H4.91406L8.81641 25.0521L12.7188 26.7222H15.0312L18.5 25.0521L21.9688 26.7222H24.2812L28.1836 25.0521L32.0859 26.7222H37L36.4219 25.574L37 24.3736V23.1732L34.6875 20.3548L37 17.5365V15.8663L34.6875 13.3611L37 10.8559V9.18576L34.6875 6.3674L37 3.54905V0L35.4102 0.417535L33.748 0H32.0859L28.1836 1.67014L24.2812 0H21.9688L18.5 1.67014L15.0312 0H12.7188L8.81641 1.67014L4.91406 0H0Z" fill="#EEEEEE"/>
<path d="M24.2812 0V5.63672L32.0859 0H24.2812ZM37 3.54905L29.1953 9.18576H37V3.54905ZM0 9.18576H7.80469L0 3.54905V9.18576ZM4.91406 0L12.7188 5.63672V0H4.91406ZM12.7188 26.7222V21.0855L4.91406 26.7222H12.7188ZM0 23.1732L7.80469 17.5365H0V23.1732ZM37 17.5365H29.1953L37 23.1732V17.5365ZM32.0859 26.7222L24.2812 21.0855V26.7222H32.0859Z" fill="#0052B4"/>
<path d="M0 0V2.34863L9.4668 9.18576H12.7188L0 0ZM15.0312 0V10.8559H0V15.8663H15.0312V26.7222H21.9688V15.8663H37V10.8559H21.9688V0H15.0312ZM33.748 0L24.2812 6.83713V9.18576L37 0H33.748ZM12.7188 17.5365L0 26.7222H3.25195L12.7188 19.8851V17.5365ZM24.2812 17.5365L37 26.7222V24.3736L27.5332 17.5365H24.2812Z" fill="#D80027"/>
</svg>
