<svg width="29" height="29" viewBox="0 0 29 29" fill="none" xmlns="http://www.w3.org/2000/svg">
<path d="M5.24414 22.1908C5.24414 19.1094 11.4069 17.4146 14.4883 17.4146C17.5697 17.4146 23.7324 19.1094 23.7324 22.1908V23.7314H5.24414M19.1104 9.86523C19.1104 11.0911 18.6234 12.2667 17.7566 13.1335C16.8898 14.0003 15.7141 14.4873 14.4883 14.4873C13.2624 14.4873 12.0868 14.0003 11.22 13.1335C10.3532 12.2667 9.86621 11.0911 9.86621 9.86523C9.86621 8.63939 10.3532 7.46374 11.22 6.59694C12.0868 5.73013 13.2624 5.24316 14.4883 5.24316C15.7141 5.24316 16.8898 5.73013 17.7566 6.59694C18.6234 7.46374 19.1104 8.63939 19.1104 9.86523ZM0.62207 3.70247V25.2721C0.62207 26.0894 0.946715 26.8731 1.52459 27.451C2.10246 28.0289 2.88622 28.3535 3.70345 28.3535H25.2731C26.0903 28.3535 26.8741 28.0289 27.452 27.451C28.0298 26.8731 28.3545 26.0894 28.3545 25.2721V3.70247C28.3545 2.88524 28.0298 2.10148 27.452 1.52361C26.8741 0.945738 26.0903 0.621094 25.2731 0.621094H3.70345C2.88622 0.621094 2.10246 0.945738 1.52459 1.52361C0.946715 2.10148 0.62207 2.88524 0.62207 3.70247Z" fill="url(#paint0_linear_199_5571)"/>
<defs>
<linearGradient id="paint0_linear_199_5571" x1="0.62207" y1="14.4873" x2="28.3545" y2="14.4873" gradientUnits="userSpaceOnUse">
<stop stop-color="#32ABB1"/>
<stop offset="1" stop-color="#3286BD"/>
</linearGradient>
</defs>
</svg>
