<svg width="20" height="20" viewBox="0 0 20 20" fill="none" xmlns="http://www.w3.org/2000/svg">
<path d="M18.7914 8.80845H10.7794V0.796532C10.7794 0.386811 10.4473 0.0546875 10.0376 0.0546875C9.62788 0.0546875 9.29575 0.386811 9.29575 0.796532V8.80845H1.28384C0.874116 8.80845 0.541992 9.14057 0.541992 9.55029C0.541992 9.96001 0.874116 10.2921 1.28384 10.2921H9.29575V18.3041C9.29575 18.7138 9.62788 19.0459 10.0376 19.0459C10.4473 19.0459 10.7794 18.7138 10.7794 18.3041V10.2921H18.7914C19.2011 10.2921 19.5332 9.96001 19.5332 9.55029C19.5332 9.14057 19.2011 8.80845 18.7914 8.80845Z" fill="white"/>
</svg>
