<svg width="35" height="28" viewBox="0 0 35 28" fill="none" xmlns="http://www.w3.org/2000/svg">
<g clip-path="url(#clip0_1_5354)">
<path d="M12.5582 13.8906C16.3141 13.8906 19.3582 10.8689 19.3582 7.14062C19.3582 3.4123 16.3141 0.390625 12.5582 0.390625C8.80227 0.390625 5.7582 3.4123 5.7582 7.14062C5.7582 10.8689 8.80227 13.8906 12.5582 13.8906ZM17.3182 15.5781H16.431C15.2516 16.116 13.9395 16.4219 12.5582 16.4219C11.177 16.4219 9.87008 16.116 8.68539 15.5781H7.7982C3.85633 15.5781 0.658203 18.7527 0.658203 22.6656V24.8594C0.658203 26.2568 1.80039 27.3906 3.2082 27.3906H17.8123C17.6848 27.032 17.6316 26.6523 17.6741 26.2674L18.0354 23.0559L18.0991 22.4705L18.5188 22.0539L22.6254 17.9775C21.3238 16.5168 19.4379 15.5781 17.3182 15.5781ZM19.7248 23.2404L19.3635 26.4572C19.3051 26.9951 19.762 27.4486 20.2985 27.3854L23.5338 27.0268L30.8598 19.7547L27.0507 15.9736L19.7248 23.2404ZM34.2863 14.5709L32.2729 12.5723C31.7788 12.0818 30.9713 12.0818 30.4773 12.5723L28.4691 14.5656L28.2513 14.7818L32.0657 18.5629L34.2863 16.3586C34.7804 15.8629 34.7804 15.0666 34.2863 14.5709Z" fill="url(#paint0_linear_1_5354)"/>
</g>
<defs>
<linearGradient id="paint0_linear_1_5354" x1="0.658203" y1="13.8909" x2="34.6569" y2="13.8909" gradientUnits="userSpaceOnUse">
<stop stop-color="#32ABB1"/>
<stop offset="1" stop-color="#3286BD"/>
</linearGradient>
<clipPath id="clip0_1_5354">
<rect width="34" height="27" fill="white" transform="translate(0.658203 0.390625)"/>
</clipPath>
</defs>
</svg>
