<svg width="48" height="47" viewBox="0 0 48 47" fill="none" xmlns="http://www.w3.org/2000/svg">
<circle cx="23.7307" cy="23.6585" r="23.3303" fill="white"/>
<path d="M24.2758 26.9933C24.1311 26.9933 23.9955 26.9708 23.8689 26.926C23.7423 26.8811 23.6247 26.8041 23.5162 26.6949L19.6097 22.7884C19.3927 22.5714 19.2885 22.3182 19.2972 22.0288C19.3059 21.7394 19.4101 21.4862 19.6097 21.2692C19.8267 21.0522 20.0846 20.9393 20.3834 20.9306C20.6822 20.922 20.9397 21.0258 21.156 21.2421L23.1907 23.2767V15.518C23.1907 15.2105 23.2948 14.953 23.5032 14.7454C23.7115 14.5378 23.9691 14.4336 24.2758 14.4329C24.5825 14.4321 24.8404 14.5363 25.0495 14.7454C25.2586 14.9545 25.3624 15.212 25.3609 15.518V23.2767L27.3955 21.2421C27.6126 21.025 27.8705 20.9209 28.1692 20.9296C28.468 20.9382 28.7256 21.0514 28.9419 21.2692C29.1408 21.4862 29.245 21.7394 29.2544 22.0288C29.2638 22.3182 29.1596 22.5714 28.9419 22.7884L25.0354 26.6949C24.9269 26.8034 24.8093 26.8804 24.6827 26.926C24.5561 26.9716 24.4205 26.994 24.2758 26.9933ZM17.765 31.795C17.1682 31.795 16.6574 31.5827 16.2328 31.158C15.8081 30.7334 15.5954 30.2223 15.5947 29.6247V27.4545C15.5947 27.147 15.6989 26.8895 15.9072 26.6818C16.1156 26.4742 16.3731 26.37 16.6799 26.3693C16.9866 26.3686 17.2445 26.4728 17.4536 26.6818C17.6626 26.8909 17.7664 27.1484 17.765 27.4545V29.6247H30.7866V27.4545C30.7866 27.147 30.8908 26.8895 31.0991 26.6818C31.3074 26.4742 31.565 26.37 31.8717 26.3693C32.1784 26.3686 32.4363 26.4728 32.6454 26.6818C32.8545 26.8909 32.9583 27.1484 32.9568 27.4545V29.6247C32.9568 30.2215 32.7445 30.7326 32.3199 31.158C31.8952 31.5834 31.3841 31.7957 30.7866 31.795H17.765Z" fill="url(#paint0_linear_103_1126)"/>
<defs>
<linearGradient id="paint0_linear_103_1126" x1="24.2758" y1="14.4329" x2="24.2758" y2="31.795" gradientUnits="userSpaceOnUse">
<stop stop-color="#32ABB1"/>
<stop offset="1" stop-color="#3286BD"/>
</linearGradient>
</defs>
</svg>
