<svg width="51" height="51" viewBox="0 0 51 51" fill="none" xmlns="http://www.w3.org/2000/svg">
<circle cx="25.7101" cy="25.2682" r="25.2682" fill="white"/>
<path d="M17.9745 24.4095C17.8953 25.9244 17.9865 27.5369 16.6333 28.5515C16.3222 28.7843 16.0698 29.0865 15.8961 29.4341C15.7224 29.7816 15.6322 30.165 15.6328 30.5535C15.6328 31.6354 16.4814 32.5578 17.5861 32.5578H33.212C34.3166 32.5578 35.1652 31.6354 35.1652 30.5535C35.1652 29.7657 34.7941 29.0235 34.1647 28.5515C32.8115 27.5369 32.9027 25.9244 32.8235 24.4095C32.7258 22.5063 31.901 20.7132 30.5194 19.4006C29.1377 18.0881 27.3047 17.3562 25.399 17.3562C23.4933 17.3562 21.6603 18.0881 20.2787 19.4006C18.897 20.7132 18.0722 22.5063 17.9745 24.4095Z" stroke="#6B7280" stroke-width="1.6277" stroke-linecap="round" stroke-linejoin="round"/>
<path d="M28.6556 32.5552C28.6556 33.4185 28.3126 34.2466 27.7021 34.8571C27.0916 35.4676 26.2636 35.8106 25.4002 35.8106C24.5368 35.8106 23.7088 35.4676 23.0983 34.8571C22.4878 34.2466 22.1448 33.4185 22.1448 32.5552M23.7725 15.3287C23.7725 16.2272 24.5017 17.3633 25.4002 17.3633C26.2987 17.3633 27.0279 16.2272 27.0279 15.3287C27.0279 14.4302 26.2987 14.1079 25.4002 14.1079C24.5017 14.1079 23.7725 14.4302 23.7725 15.3287Z" stroke="#6B7280" stroke-width="1.6277" stroke-linecap="round" stroke-linejoin="round"/>
</svg>
