<svg width="51" height="51" viewBox="0 0 51 51" fill="none" xmlns="http://www.w3.org/2000/svg">
<circle cx="25.5607" cy="25.2682" r="25.2682" fill="white"/>
<path d="M36.3242 25.6317L38.0408 27.1604C38.3578 27.425 38.5697 27.7943 38.6379 28.2015C38.7062 28.6087 38.6264 29.0269 38.413 29.3803L36.3431 32.9162C36.1826 33.1869 35.9533 33.4103 35.6785 33.5638C35.4005 33.7176 35.0884 33.7992 34.7708 33.8012C34.5737 33.8024 34.3777 33.7729 34.1897 33.7138L31.9926 32.9884C31.6077 33.2353 31.2077 33.4562 30.7924 33.6511L30.331 35.8786C30.2456 36.2884 30.0174 36.6545 29.6872 36.9117C29.3528 37.1735 28.9382 37.3117 28.5136 37.3029H24.2276C23.8031 37.3117 23.3885 37.1735 23.0541 36.9117C22.7246 36.6542 22.4971 36.2881 22.4122 35.8786L21.9489 33.6511C21.5391 33.4536 21.1415 33.2316 20.7582 32.9865L18.5535 33.7138C18.3655 33.7729 18.1694 33.8024 17.9724 33.8012C17.6554 33.7989 17.344 33.7173 17.0666 33.5638C16.7921 33.4108 16.5628 33.1881 16.4019 32.9181L14.258 29.3803C14.0351 29.0237 13.9499 28.598 14.0185 28.183C14.087 27.768 14.3045 27.3923 14.6302 27.1262L16.345 24.9595V24.2873L14.6283 22.7586C14.3113 22.494 14.0995 22.1247 14.0312 21.7175C13.9629 21.3103 14.0427 20.8921 14.2561 20.5387L16.4 17.0028C16.5606 16.7321 16.7899 16.5087 17.0647 16.3552C17.3421 16.2017 17.6535 16.1201 17.9705 16.1178C18.1658 16.1055 18.3618 16.1235 18.5516 16.171L20.7126 16.9306C21.0988 16.6837 21.4988 16.4628 21.9128 16.2679L22.3761 14.0404C22.461 13.6309 22.6885 13.2648 23.018 13.0073C23.3524 12.7455 23.767 12.6073 24.1916 12.6161H28.4415C28.8661 12.6073 29.2807 12.7455 29.6151 13.0073C29.9474 13.2675 30.1752 13.634 30.2569 14.0404L30.7203 16.2679C31.1317 16.4641 31.5286 16.6856 31.9109 16.9325L34.1175 16.2071C34.3624 16.1274 34.6212 16.0995 34.8775 16.1249C35.1337 16.1504 35.3819 16.2289 35.6063 16.3552C35.8817 16.5109 36.1096 16.735 36.271 17.0009L38.413 20.5387C38.6389 20.8923 38.7284 21.316 38.6648 21.7308C38.6012 22.1456 38.3889 22.5231 38.0674 22.7928L36.3242 24.2778V25.6317Z" stroke="#6B7280" stroke-width="1.6277"/>
<path d="M31.085 24.9657C31.085 26.2248 30.5848 27.4324 29.6945 28.3227C28.8042 29.213 27.5966 29.7132 26.3375 29.7132C25.0784 29.7132 23.8709 29.213 22.9806 28.3227C22.0903 27.4324 21.5901 26.2248 21.5901 24.9657C21.5901 23.7066 22.0903 22.4991 22.9806 21.6088C23.8709 20.7184 25.0784 20.2183 26.3375 20.2183C27.5966 20.2183 28.8042 20.7184 29.6945 21.6088C30.5848 22.4991 31.085 23.7066 31.085 24.9657Z" stroke="#6B7280" stroke-width="1.6277"/>
</svg>
