<svg width="20" height="19" viewBox="0 0 20 19" fill="none" xmlns="http://www.w3.org/2000/svg">
<path d="M9.87573 0.98584C9.97808 0.778573 10.2496 0.752384 10.3943 0.907715L10.448 0.98584L12.907 5.96826L13.0232 6.20361L13.283 6.2417L18.78 7.04053C19.0089 7.0738 19.1177 7.32463 19.0144 7.51025L18.9568 7.58447L14.9792 11.4624L14.7908 11.646L14.8357 11.9048L15.7742 17.3804C15.8122 17.6029 15.5737 17.8665 15.2419 17.7095L10.3376 15.1313L10.1033 15.0083L9.86987 15.1323L5.01147 17.7163C4.8067 17.8238 4.57196 17.6852 4.54663 17.4741L4.54956 17.3804L5.48804 11.9048L5.53198 11.646L5.34351 11.4624L1.36694 7.58447C1.17769 7.39997 1.28213 7.07856 1.5437 7.04053L1.54272 7.03955L7.03979 6.2417L7.30054 6.20361L7.41675 5.96826L9.87573 0.98584Z" stroke="#707B9B"/>
</svg>
