<svg width="20" height="23" viewBox="0 0 20 23" fill="none" xmlns="http://www.w3.org/2000/svg">
<path d="M16.754 3.20471H13.588V2.14936C13.588 1.33468 12.9252 0.671875 12.1105 0.671875H7.88912C7.07444 0.671875 6.41164 1.33468 6.41164 2.14936V3.20471H3.24559C1.96537 3.20471 0.923828 4.24625 0.923828 5.52648V6.87732C0.923828 7.22702 1.20734 7.51053 1.55704 7.51053H2.25851L3.71185 20.2273C3.84592 21.4006 4.83761 22.2854 6.01858 22.2854H13.9811C15.162 22.2854 16.1537 21.4006 16.2878 20.2273L17.7411 7.51053H18.4426C18.7923 7.51053 19.0758 7.22702 19.0758 6.87732V5.52648C19.0758 4.24625 18.0343 3.20471 16.754 3.20471ZM7.67806 2.14936C7.67806 2.03298 7.77274 1.93829 7.88912 1.93829H12.1105C12.2269 1.93829 12.3216 2.03298 12.3216 2.14936V3.20471H7.67806V2.14936ZM15.0296 20.0835C14.9687 20.6168 14.5179 21.019 13.9811 21.019H6.01858C5.48179 21.019 5.03099 20.6168 4.97007 20.0835L3.53315 7.51053H16.4665L15.0296 20.0835ZM17.8094 6.24411H2.19025V5.52648C2.19025 4.94456 2.66367 4.47113 3.24559 4.47113H16.754C17.336 4.47113 17.8094 4.94456 17.8094 5.52648V6.24411Z" fill="#E50404"/>
</svg>
