<svg width="17" height="15" viewBox="0 0 17 15" fill="none" xmlns="http://www.w3.org/2000/svg">
<path d="M14.385 0.0517578H2.57668C1.58008 0.0517578 0.769287 0.862554 0.769287 1.85915V4.26901C0.769287 4.60175 1.03901 4.87147 1.37175 4.87147H1.97422V12.7035C1.97422 13.7001 2.78501 14.5109 3.78161 14.5109H13.18C14.1766 14.5109 14.9874 13.7001 14.9874 12.7035V4.87147H15.5899C15.9226 4.87147 16.1924 4.60175 16.1924 4.26901V1.85915C16.1924 0.862554 15.3816 0.0517578 14.385 0.0517578ZM13.7825 12.7035C13.7825 13.0357 13.5122 13.306 13.18 13.306H3.78161C3.44941 13.306 3.17914 13.0357 3.17914 12.7035V4.87147H13.7825V12.7035ZM14.9874 3.66654H1.97422V1.85915C1.97422 1.52695 2.24448 1.25669 2.57668 1.25669H14.385C14.7172 1.25669 14.9874 1.52695 14.9874 1.85915V3.66654Z" fill="#677294"/>
<path d="M7.27605 7.28159H9.6859C10.0186 7.28159 10.2884 7.01187 10.2884 6.67912C10.2884 6.34638 10.0186 6.07666 9.6859 6.07666H7.27605C6.94331 6.07666 6.67358 6.34638 6.67358 6.67912C6.67358 7.01187 6.94331 7.28159 7.27605 7.28159Z" fill="#677294"/>
</svg>
