<svg width="20" height="21" viewBox="0 0 20 21" fill="none" xmlns="http://www.w3.org/2000/svg">
<path d="M19.52 0.386015C19.2826 0.163369 18.9097 0.175351 18.687 0.41277L14.6454 4.72269C14.6411 4.71767 14.637 4.71252 14.6327 4.70749C13.9169 3.86833 13.0097 3.26156 12.0058 2.93665V1.99456C12.0058 1.0197 11.2126 0.226583 10.2378 0.226583C9.26292 0.226583 8.46981 1.0197 8.46981 1.99456V2.92926C6.06454 3.68246 4.3445 5.94676 4.3445 8.5557V15.7072L0.92874 19.3497C0.706093 19.5871 0.718076 19.9601 0.955495 20.1827C1.19284 20.4053 1.5658 20.3934 1.78848 20.156L3.82444 17.9849H7.88045C7.88045 19.2847 8.93793 20.3422 10.2377 20.3422C11.5376 20.3422 12.595 19.2847 12.595 17.9849H16.7203C17.0458 17.9849 17.3096 17.721 17.3096 17.3956C17.3096 17.0701 17.0458 16.8062 16.7203 16.8062H16.131V8.78365C16.131 7.70122 15.8522 6.64417 15.3321 5.71339L19.5467 1.21901C19.7694 0.981625 19.7574 0.608662 19.52 0.386015ZM9.64842 1.99456C9.64842 1.6696 9.91279 1.40523 10.2377 1.40523C10.5627 1.40523 10.8271 1.6696 10.8271 1.99456V2.69137C10.8229 2.69098 10.8188 2.69043 10.8147 2.69004C10.4207 2.65248 10.0308 2.65342 9.64842 2.69063V1.99456ZM10.7028 3.86334C11.9525 3.9825 13.0599 4.63378 13.8308 5.59128L5.52448 14.4489H5.52315V8.5557C5.52315 5.84646 7.8408 3.5906 10.7028 3.86334ZM10.2377 19.1635C9.58783 19.1635 9.05909 18.5955 9.05909 17.9456H11.4164C11.4164 18.5955 10.8876 19.1635 10.2377 19.1635ZM5.52315 16.8062V16.1734L6.035 15.6276H14.9523V16.8062H5.52315ZM14.9523 8.78365V14.4489H7.14029L14.4752 6.62723C14.7806 7.28299 14.9523 8.01623 14.9523 8.78365Z" fill="#677294"/>
</svg>
