<svg width="21" height="21" viewBox="0 0 21 21" fill="none" xmlns="http://www.w3.org/2000/svg">
<path d="M15.817 20.8265C18.1402 20.8265 20.0304 18.9183 20.0304 16.573C20.0304 14.3497 18.2995 12.5233 16.1145 12.3702C15.3607 10.2159 13.3204 8.74805 11.0016 8.74805H6.18629C3.19922 8.74805 0.769043 11.1782 0.769043 14.1653V15.971H11.6467C11.6185 16.1677 11.6035 16.3686 11.6035 16.573C11.6035 18.9183 13.4937 20.8265 15.817 20.8265ZM15.817 13.5634C17.4764 13.5634 18.8265 14.9135 18.8265 16.573C18.8265 18.2546 17.4764 19.6227 15.817 19.6227C14.1575 19.6227 12.8074 18.2546 12.8074 16.573C12.8074 14.9135 14.1575 13.5634 15.817 13.5634ZM1.97288 14.7672V14.1653C1.97288 11.842 3.86301 9.95188 6.18629 9.95188H11.0016C12.6956 9.95188 14.198 10.9589 14.8601 12.4692C13.5999 12.763 12.5552 13.6239 12.0106 14.7672H1.97288Z" fill="#677294"/>
<path d="M14.7895 14.6943L13.9382 15.5456L14.9657 16.5731L13.9382 17.6007L14.7895 18.4519L15.817 17.4243L16.8445 18.4519L17.6957 17.6007L16.6682 16.5731L17.6957 15.5456L16.8445 14.6943L15.817 15.7219L14.7895 14.6943Z" fill="#677294"/>
<path d="M8.59403 8.74821C10.9173 8.74821 12.8074 6.85807 12.8074 4.53479C12.8074 2.1894 10.9173 0.28125 8.59403 0.28125C6.27075 0.28125 4.38062 2.1894 4.38062 4.53479C4.38062 6.85807 6.27075 8.74821 8.59403 8.74821ZM8.59403 7.54437C6.93455 7.54437 5.58445 6.19428 5.58445 4.53479C5.58445 2.8532 6.93455 1.48508 8.59403 1.48508C10.2535 1.48508 11.6036 2.8532 11.6036 4.53479C11.6036 6.19428 10.2535 7.54437 8.59403 7.54437Z" fill="#677294"/>
</svg>
