<svg width="34" height="38" viewBox="0 0 34 38" fill="none" xmlns="http://www.w3.org/2000/svg">
<path d="M8.36379 34.6883C8.44075 34.7329 8.52811 34.7564 8.61704 34.7564C8.70598 34.7564 8.79334 34.7329 8.8703 34.6883L15.6709 30.7493C15.7475 30.7049 15.8112 30.6412 15.8555 30.5645L29.6083 6.74761C30.1956 5.73066 30.3548 4.52207 30.051 3.38771C29.7471 2.25336 29.0051 1.28617 27.9882 0.6989C27.4846 0.408116 26.9287 0.219358 26.3522 0.143405C25.7758 0.0674525 25.19 0.105792 24.6283 0.256234C23.4939 0.560066 22.5267 1.30207 21.9395 2.31902L21.7292 2.68324L19.1177 1.17542C19.0602 1.14219 18.9966 1.12062 18.9308 1.11194C18.8649 1.10326 18.7979 1.10765 18.7338 1.12485C18.6696 1.14205 18.6094 1.17172 18.5567 1.21218C18.504 1.25264 18.4598 1.30308 18.4266 1.36064L8.45925 18.6242C8.42603 18.6818 8.40448 18.7453 8.39581 18.8112C8.38714 18.877 8.39153 18.944 8.40873 19.0081C8.42593 19.0723 8.4556 19.1325 8.49605 19.1852C8.5365 19.2379 8.58693 19.2821 8.64447 19.3153C8.70201 19.3485 8.76552 19.3701 8.83139 19.3788C8.89726 19.3874 8.96419 19.383 9.02836 19.3658C9.09254 19.3486 9.15269 19.319 9.2054 19.2785C9.25811 19.2381 9.30233 19.1876 9.33554 19.1301L19.0498 2.30457L21.2233 3.55982L8.18883 26.1378C8.14453 26.2145 8.12115 26.3015 8.12105 26.3901L8.11079 34.2497C8.11069 34.3386 8.13403 34.4259 8.17845 34.5029C8.22286 34.5799 8.28679 34.6439 8.36379 34.6883ZM14.4052 30.3126L10.0001 32.8642L11.4964 30.2734C11.5635 30.1572 11.5817 30.0191 11.547 29.8895C11.5122 29.7599 11.4274 29.6494 11.3112 29.5824C11.1951 29.5153 11.057 29.4971 10.9274 29.5318C10.7978 29.5666 10.6873 29.6513 10.6202 29.7675L9.12511 32.3562L9.13175 27.2668L14.4052 30.3126ZM15.2313 29.6213L9.31791 26.2056L10.2129 24.6549L16.1267 28.0704L15.2313 29.6213ZM22.816 2.82488C23.271 2.04269 24.017 1.47233 24.8911 1.23839C25.7652 1.00445 26.6963 1.12595 27.4812 1.57635C28.2633 2.03136 28.8337 2.77722 29.068 3.65119C29.3022 4.52517 29.1814 5.45633 28.7317 6.24153L28.5215 6.60553L22.6055 3.18954L22.816 2.82488ZM28.0158 7.48204L16.633 27.1941L10.7191 23.7785L22.0995 4.06583L28.0158 7.48204ZM20.2904 36.6018C20.2904 36.736 20.2371 36.8647 20.1422 36.9595C20.0473 37.0544 19.9187 37.1077 19.7845 37.1077H1.06445C0.930291 37.1077 0.801624 37.0544 0.706757 36.9595C0.61189 36.8647 0.558594 36.736 0.558594 36.6018C0.558594 36.4677 0.61189 36.339 0.706757 36.2441C0.801624 36.1493 0.930291 36.096 1.06445 36.096H19.7844C19.8509 36.096 19.9167 36.109 19.978 36.1345C20.0394 36.1599 20.0952 36.1971 20.1422 36.2441C20.1892 36.2911 20.2264 36.3469 20.2518 36.4082C20.2773 36.4696 20.2904 36.5354 20.2904 36.6018ZM26.7571 21.3906C25.4353 21.3905 24.1432 21.7823 23.0442 22.5164C21.9451 23.2506 21.0884 24.2942 20.5824 25.5153C20.0765 26.7363 19.944 28.08 20.2017 29.3764C20.4593 30.6727 21.0957 31.8636 22.0301 32.7983C22.9646 33.7331 24.1553 34.3697 25.4516 34.6277C26.7479 34.8858 28.0916 34.7536 29.3128 34.248C30.534 33.7424 31.5778 32.886 32.3123 31.7871C33.0468 30.6882 33.4389 29.3962 33.4391 28.0745C33.4374 26.3026 32.7329 24.6038 31.4802 23.3507C30.2275 22.0977 28.5289 21.3927 26.7571 21.3905V21.3906ZM26.7571 33.7444C25.6354 33.7446 24.5388 33.4122 23.6061 32.7891C22.6733 32.1661 21.9463 31.2804 21.517 30.2442C21.0876 29.2079 20.9752 28.0676 21.194 26.9674C21.4127 25.8673 21.9529 24.8567 22.746 24.0636C23.5392 23.2704 24.5497 22.7303 25.6499 22.5115C26.75 22.2927 27.8903 22.4051 28.9266 22.8344C29.9628 23.2638 30.8485 23.9908 31.4716 24.9235C32.0946 25.8563 32.4271 26.9528 32.4269 28.0745C32.4251 29.5777 31.8272 31.0188 30.7643 32.0817C29.7014 33.1446 28.2602 33.7425 26.7571 33.7442V33.7444ZM30.8148 28.0745C30.8148 28.2087 30.7615 28.3373 30.6667 28.4322C30.5718 28.5271 30.4431 28.5804 30.309 28.5804H27.263V31.6242C27.263 31.7583 27.2097 31.887 27.1148 31.9819C27.02 32.0767 26.8913 32.13 26.7571 32.13C26.623 32.13 26.4943 32.0767 26.3994 31.9819C26.3046 31.887 26.2513 31.7583 26.2513 31.6242V28.5804H23.2072C23.0731 28.5804 22.9444 28.5271 22.8495 28.4322C22.7547 28.3373 22.7014 28.2087 22.7014 28.0745C22.7014 27.9403 22.7547 27.8117 22.8495 27.7168C22.9444 27.6219 23.0731 27.5686 23.2072 27.5686H26.2511V24.5225C26.2511 24.3883 26.3044 24.2597 26.3993 24.1648C26.4941 24.0699 26.6228 24.0166 26.757 24.0166C26.8911 24.0166 27.0198 24.0699 27.1147 24.1648C27.2095 24.2597 27.2628 24.3883 27.2628 24.5225V27.5686H30.3088C30.3752 27.5686 30.441 27.5817 30.5024 27.6071C30.5638 27.6325 30.6196 27.6697 30.6666 27.7167C30.7136 27.7637 30.7509 27.8195 30.7763 27.8809C30.8017 27.9422 30.8148 28.008 30.8148 28.0745Z" fill="url(#paint0_linear_33_21300)"/>
<defs>
<linearGradient id="paint0_linear_33_21300" x1="0.558594" y1="18.6066" x2="33.4391" y2="18.6066" gradientUnits="userSpaceOnUse">
<stop stop-color="#32ABB1"/>
<stop offset="1" stop-color="#3286BD"/>
</linearGradient>
</defs>
</svg>
