<svg width="25" height="25" viewBox="0 0 25 25" fill="none" xmlns="http://www.w3.org/2000/svg">
<g opacity="0.5">
<path d="M21.9431 5.41406C21.9931 4.70406 21.9331 4.25306 21.6311 3.92106C21.1711 3.41406 20.3551 3.41406 18.7251 3.41406H7.19307C5.56307 3.41406 4.74807 3.41406 4.28707 3.92106C3.82607 4.42906 3.92707 5.21506 4.12907 6.78706C4.18907 7.24606 4.28707 7.50706 4.58607 7.86306C5.55507 9.01306 7.32807 11.0601 9.81607 12.9201C10.0441 13.0901 10.1931 13.3681 10.2181 13.6751C10.4981 17.1001 10.7551 19.4401 10.8921 20.5921C10.9631 21.1961 11.6331 21.6611 12.1851 21.2701C13.1121 20.6151 14.8451 19.8801 15.0731 18.6581C15.1581 18.2081 15.2731 17.4941 15.4041 16.4141" stroke="black" stroke-width="1.5" stroke-linecap="round" stroke-linejoin="round"/>
<path d="M15.972 6.41406L15.472 8.49806L16.302 7.98006C16.9119 7.51579 17.6574 7.26459 18.424 7.26506C20.376 7.26506 21.959 8.86506 21.959 10.8401C21.959 12.8141 20.376 14.4141 18.424 14.4141C16.714 14.4141 15.287 13.1861 14.959 11.5541" stroke="black" stroke-width="1.5" stroke-linecap="round" stroke-linejoin="round"/>
</g>
</svg>
