<svg width="26" height="30" viewBox="0 0 26 30" fill="none" xmlns="http://www.w3.org/2000/svg">
<path d="M1.12109 0.890625H24.4544V28.8906H1.12109V0.890625Z" stroke="url(#paint0_linear_1072_5433)" stroke-width="1.5" stroke-miterlimit="10" stroke-linecap="round" stroke-linejoin="round"/>
<path d="M1.12109 14.8893H6.95443M1.12109 14.8893V20.7227H6.95443M1.12109 14.8893V9.05599M6.95443 14.8893V20.7227M6.95443 14.8893H12.7878M6.95443 14.8893V9.05599M6.95443 20.7227H12.7878M12.7878 14.8893V20.7227M12.7878 14.8893H18.6211M12.7878 14.8893V9.05599M12.7878 20.7227H18.6211M18.6211 14.8893V20.7227M18.6211 14.8893H24.4544M18.6211 14.8893V9.05599M18.6211 20.7227H24.4544V14.8893M24.4544 14.8893V9.05599M1.12109 9.05599H6.95443M1.12109 9.05599V3.22266H6.95443M6.95443 9.05599H12.7878M6.95443 9.05599V3.22266M12.7878 9.05599H18.6211M12.7878 9.05599V3.22266M18.6211 9.05599H24.4544M18.6211 9.05599V3.22266M24.4544 9.05599V3.22266H18.6211M6.95443 3.22266H12.7878M12.7878 3.22266H18.6211M3.45443 23.056H8.12109V28.8893H3.45443V23.056ZM17.4544 23.056H22.1211V28.8893H17.4544V23.056ZM10.4544 23.056H15.1211V28.8893H10.4544V23.056Z" stroke="url(#paint1_linear_1072_5433)" stroke-width="1.5" stroke-miterlimit="10" stroke-linecap="round" stroke-linejoin="round"/>
<defs>
<linearGradient id="paint0_linear_1072_5433" x1="1.12109" y1="14.8906" x2="24.4544" y2="14.8906" gradientUnits="userSpaceOnUse">
<stop stop-color="#32ABB1"/>
<stop offset="1" stop-color="#3286BD"/>
</linearGradient>
<linearGradient id="paint1_linear_1072_5433" x1="1.12109" y1="16.056" x2="24.4544" y2="16.056" gradientUnits="userSpaceOnUse">
<stop stop-color="#32ABB1"/>
<stop offset="1" stop-color="#3286BD"/>
</linearGradient>
</defs>
</svg>
