<svg width="38" height="37" viewBox="0 0 38 37" fill="none" xmlns="http://www.w3.org/2000/svg">
<g clip-path="url(#clip0_1310_8778)">
<path d="M20.139 13.8698H15.514C15.3096 13.8698 15.1135 13.7886 14.9689 13.644C14.8244 13.4995 14.7432 13.3034 14.7432 13.099C14.7432 12.8945 14.8244 12.6985 14.9689 12.5539C15.1135 12.4093 15.3096 12.3281 15.514 12.3281H20.139C20.3434 12.3281 20.5395 12.4093 20.6841 12.5539C20.8286 12.6985 20.9098 12.8945 20.9098 13.099C20.9098 13.3034 20.8286 13.4995 20.6841 13.644C20.5395 13.7886 20.3434 13.8698 20.139 13.8698Z" fill="url(#paint0_linear_1310_8778)"/>
<path d="M17.8265 16.1768C17.7253 16.1768 17.625 16.1569 17.5314 16.1182C17.4379 16.0795 17.3529 16.0227 17.2813 15.9511C17.2097 15.8795 17.1529 15.7945 17.1142 15.701C17.0755 15.6074 17.0556 15.5072 17.0557 15.4059V10.7786C17.0557 10.5742 17.1369 10.3781 17.2814 10.2336C17.426 10.089 17.6221 10.0078 17.8265 10.0078C18.0309 10.0078 18.227 10.089 18.3716 10.2336C18.5161 10.3781 18.5973 10.5742 18.5973 10.7786V15.4059C18.5974 15.5072 18.5775 15.6074 18.5388 15.701C18.5001 15.7945 18.4433 15.8795 18.3717 15.9511C18.3001 16.0227 18.2151 16.0795 18.1216 16.1182C18.028 16.1569 17.9277 16.1768 17.8265 16.1768Z" fill="url(#paint1_linear_1310_8778)"/>
<path d="M15.5137 4.61979H13.972C13.7676 4.61979 13.5715 4.53858 13.4269 4.39402C13.2824 4.24946 13.2012 4.0534 13.2012 3.84896C13.2012 3.64452 13.2824 3.44846 13.4269 3.3039C13.5715 3.15934 13.7676 3.07812 13.972 3.07812H15.5137C15.7181 3.07812 15.9142 3.15934 16.0587 3.3039C16.2033 3.44846 16.2845 3.64452 16.2845 3.84896C16.2845 4.0534 16.2033 4.24946 16.0587 4.39402C15.9142 4.53858 15.7181 4.61979 15.5137 4.61979Z" fill="url(#paint2_linear_1310_8778)"/>
<path d="M23.252 4.61979C23.0468 4.61994 22.8499 4.53902 22.7041 4.39464C22.5583 4.25026 22.4755 4.05413 22.4737 3.84896C22.4728 3.74811 22.4918 3.64809 22.5298 3.55465C22.5677 3.46121 22.6238 3.37621 22.6948 3.30455C22.7657 3.23289 22.8502 3.17599 22.9432 3.13713C23.0363 3.09827 23.1361 3.07821 23.237 3.07812H23.252C23.4565 3.07812 23.6525 3.15934 23.7971 3.3039C23.9416 3.44846 24.0229 3.64452 24.0229 3.84896C24.0229 4.0534 23.9416 4.24946 23.7971 4.39402C23.6525 4.53858 23.4565 4.61979 23.252 4.61979Z" fill="url(#paint3_linear_1310_8778)"/>
<path d="M14.7428 33.9115C14.4379 33.9115 14.1399 33.821 13.8863 33.6516C13.6328 33.4822 13.4352 33.2415 13.3185 32.9598C13.2018 32.6781 13.1713 32.3681 13.2308 32.069C13.2903 31.77 13.4371 31.4953 13.6527 31.2797C13.8683 31.0641 14.143 30.9172 14.4421 30.8577C14.7411 30.7983 15.0511 30.8288 15.3328 30.9455C15.6145 31.0622 15.8553 31.2598 16.0247 31.5133C16.1941 31.7668 16.2845 32.0649 16.2845 32.3698C16.2841 32.7785 16.1215 33.1704 15.8325 33.4595C15.5435 33.7485 15.1516 33.9111 14.7428 33.9115Z" fill="url(#paint4_linear_1310_8778)"/>
<path d="M28.6182 18.4922C27.7034 18.4922 26.8092 18.2209 26.0487 17.7127C25.2881 17.2045 24.6953 16.4822 24.3452 15.6371C23.9952 14.792 23.9036 13.8621 24.082 12.9649C24.2605 12.0677 24.701 11.2436 25.3478 10.5968C25.9946 9.95 26.8187 9.50951 27.7159 9.33106C28.613 9.1526 29.543 9.24419 30.3881 9.59425C31.2332 9.9443 31.9555 10.5371 32.4637 11.2977C32.9719 12.0583 33.2432 12.9525 33.2432 13.8672C33.2418 15.0934 32.7541 16.269 31.8871 17.1361C31.02 18.0031 29.8444 18.4909 28.6182 18.4922ZM28.6182 10.7839C28.0083 10.7839 27.4122 10.9647 26.9052 11.3035C26.3981 11.6423 26.0029 12.1238 25.7695 12.6872C25.5362 13.2507 25.4751 13.8706 25.5941 14.4687C25.713 15.0668 26.0067 15.6162 26.4379 16.0474C26.8691 16.4786 27.4185 16.7723 28.0166 16.8913C28.6147 17.0102 29.2347 16.9492 29.7981 16.7158C30.3615 16.4824 30.8431 16.0872 31.1819 15.5802C31.5207 15.0731 31.7015 14.477 31.7015 13.8672C31.7006 13.0497 31.3754 12.266 30.7974 11.688C30.2193 11.1099 29.4356 10.7848 28.6182 10.7839Z" fill="url(#paint5_linear_1310_8778)"/>
<path d="M23.9935 36.9922H5.49349C4.67603 36.9913 3.89231 36.6661 3.31428 36.0881C2.73624 35.51 2.41109 34.7263 2.41016 33.9089V3.07552C2.41109 2.25806 2.73624 1.47434 3.31428 0.896307C3.89231 0.318272 4.67603 -0.00687811 5.49349 -0.0078125H23.9935C24.811 -0.00687811 25.5947 0.318272 26.1727 0.896307C26.7507 1.47434 27.0759 2.25806 27.0768 3.07552V7.35576C27.0768 7.5602 26.9956 7.75626 26.8511 7.90082C26.7065 8.04538 26.5104 8.12659 26.306 8.12659C26.1016 8.12659 25.9055 8.04538 25.7609 7.90082C25.6164 7.75626 25.5352 7.5602 25.5352 7.35576V3.07552C25.5347 2.66677 25.3722 2.27488 25.0832 1.98585C24.7941 1.69682 24.4022 1.53426 23.9935 1.53385H5.49349C5.08474 1.53426 4.69285 1.69682 4.40382 1.98585C4.11479 2.27488 3.95223 2.66677 3.95182 3.07552V33.9089C3.95223 34.3176 4.11479 34.7095 4.40382 34.9985C4.69285 35.2876 5.08474 35.4501 5.49349 35.4505H23.9935C24.4022 35.4501 24.7941 35.2876 25.0832 34.9985C25.3722 34.7095 25.5347 34.3176 25.5352 33.9089V30.0547C25.5352 29.8502 25.6164 29.6542 25.7609 29.5096C25.9055 29.3651 26.1016 29.2839 26.306 29.2839C26.5104 29.2839 26.7065 29.3651 26.8511 29.5096C26.9956 29.6542 27.0768 29.8502 27.0768 30.0547V33.9089C27.0759 34.7263 26.7507 35.51 26.1727 36.0881C25.5947 36.6661 24.811 36.9913 23.9935 36.9922Z" fill="url(#paint6_linear_1310_8778)"/>
<path d="M35.556 27.744H21.681C21.5797 27.744 21.4795 27.7241 21.3859 27.6854C21.2924 27.6467 21.2074 27.5899 21.1358 27.5183C21.0642 27.4467 21.0074 27.3617 20.9687 27.2682C20.93 27.1746 20.9101 27.0744 20.9102 26.9731V23.9094C20.9128 23.4241 21.0279 22.9461 21.2462 22.5128C21.4646 22.0794 21.7804 21.7026 22.1688 21.4117C24.0406 20.0426 26.2995 19.3047 28.6185 19.3047C30.9375 19.3047 33.1964 20.0426 35.0682 21.4117C35.4566 21.7026 35.7724 22.0794 35.9907 22.5128C36.2091 22.9461 36.3241 23.4241 36.3268 23.9094V26.9731C36.3269 27.0744 36.307 27.1746 36.2683 27.2682C36.2295 27.3617 36.1728 27.4467 36.1012 27.5183C36.0296 27.5899 35.9446 27.6467 35.851 27.6854C35.7575 27.7241 35.6572 27.744 35.556 27.744ZM22.4518 26.2023H34.7852V23.9094C34.7833 23.6635 34.7245 23.4215 34.6132 23.2023C34.5019 22.9831 34.3412 22.7928 34.1438 22.6462C32.5404 21.4731 30.6052 20.8407 28.6185 20.8407C26.6317 20.8407 24.6966 21.4731 23.0932 22.6462C22.8958 22.7928 22.7351 22.9831 22.6238 23.2023C22.5125 23.4215 22.4536 23.6635 22.4518 23.9094V26.2023Z" fill="url(#paint7_linear_1310_8778)"/>
</g>
<defs>
<linearGradient id="paint0_linear_1310_8778" x1="17.8265" y1="12.3281" x2="17.8265" y2="13.8698" gradientUnits="userSpaceOnUse">
<stop stop-color="#32ABB1"/>
<stop offset="1" stop-color="#3286BD"/>
</linearGradient>
<linearGradient id="paint1_linear_1310_8778" x1="17.8265" y1="10.0078" x2="17.8265" y2="16.1768" gradientUnits="userSpaceOnUse">
<stop stop-color="#32ABB1"/>
<stop offset="1" stop-color="#3286BD"/>
</linearGradient>
<linearGradient id="paint2_linear_1310_8778" x1="14.7428" y1="3.07812" x2="14.7428" y2="4.61979" gradientUnits="userSpaceOnUse">
<stop stop-color="#32ABB1"/>
<stop offset="1" stop-color="#3286BD"/>
</linearGradient>
<linearGradient id="paint3_linear_1310_8778" x1="23.2482" y1="3.07812" x2="23.2482" y2="4.61979" gradientUnits="userSpaceOnUse">
<stop stop-color="#32ABB1"/>
<stop offset="1" stop-color="#3286BD"/>
</linearGradient>
<linearGradient id="paint4_linear_1310_8778" x1="14.7428" y1="30.8281" x2="14.7428" y2="33.9115" gradientUnits="userSpaceOnUse">
<stop stop-color="#32ABB1"/>
<stop offset="1" stop-color="#3286BD"/>
</linearGradient>
<linearGradient id="paint5_linear_1310_8778" x1="28.6182" y1="9.24219" x2="28.6182" y2="18.4922" gradientUnits="userSpaceOnUse">
<stop stop-color="#32ABB1"/>
<stop offset="1" stop-color="#3286BD"/>
</linearGradient>
<linearGradient id="paint6_linear_1310_8778" x1="14.7435" y1="-0.0078125" x2="14.7435" y2="36.9922" gradientUnits="userSpaceOnUse">
<stop stop-color="#32ABB1"/>
<stop offset="1" stop-color="#3286BD"/>
</linearGradient>
<linearGradient id="paint7_linear_1310_8778" x1="28.6185" y1="19.3047" x2="28.6185" y2="27.744" gradientUnits="userSpaceOnUse">
<stop stop-color="#32ABB1"/>
<stop offset="1" stop-color="#3286BD"/>
</linearGradient>
<clipPath id="clip0_1310_8778">
<rect width="37" height="37" fill="white" transform="translate(0.868164 -0.0078125)"/>
</clipPath>
</defs>
</svg>
