<svg width="35" height="35" viewBox="0 0 35 35" fill="none" xmlns="http://www.w3.org/2000/svg">
<path d="M16.1719 23.7956V19.1471H11.5234C10.7899 19.1471 10.1953 18.5526 10.1953 17.819C10.1953 17.0857 10.7899 16.4909 11.5234 16.4909H16.1719V11.8425C16.1719 11.1091 16.7664 10.5143 17.5 10.5143C18.2336 10.5143 18.8281 11.1091 18.8281 11.8425V16.4909H23.4766C24.2101 16.4909 24.8047 17.0857 24.8047 17.819C24.8047 18.5526 24.2101 19.1471 23.4766 19.1471H18.8281V23.7956C18.8281 24.5292 18.2336 25.1237 17.5 25.1237C16.7664 25.1237 16.1719 24.5292 16.1719 23.7956ZM29.5208 5.79948C26.31 2.58864 22.0408 0.820312 17.5 0.820312C12.9592 0.820312 8.69002 2.58864 5.47917 5.79948C2.26833 9.01033 0.5 13.2795 0.5 17.8203C0.5 22.3611 2.26833 26.6303 5.47917 29.8411C8.69002 33.052 12.9592 34.8203 17.5 34.8203C20.6086 34.8203 23.6504 33.9731 26.2962 32.3703C26.9237 31.9903 27.1242 31.1737 26.7442 30.5464C26.3642 29.919 25.5473 29.7184 24.9201 30.0985C22.6893 31.4497 20.1233 32.1641 17.5 32.1641C9.59091 32.1641 3.15625 25.7294 3.15625 17.8203C3.15625 9.91122 9.59091 3.47656 17.5 3.47656C25.4091 3.47656 31.8438 9.91122 31.8438 17.8203C31.8438 20.6485 31.0028 23.4013 29.4116 25.7815C29.0038 26.3911 29.1678 27.216 29.7776 27.6238C30.3872 28.0313 31.2121 27.8674 31.6199 27.2578C33.5039 24.4394 34.5 21.1759 34.5 17.8203C34.5 13.2795 32.7317 9.01033 29.5208 5.79948Z" fill="url(#paint0_linear_1257_4049)"/>
<defs>
<linearGradient id="paint0_linear_1257_4049" x1="0.5" y1="17.8203" x2="34.5" y2="17.8203" gradientUnits="userSpaceOnUse">
<stop stop-color="#32ABB1"/>
<stop offset="1" stop-color="#3286BD"/>
</linearGradient>
</defs>
</svg>
