<svg width="16" height="16" viewBox="0 0 16 16" fill="none" xmlns="http://www.w3.org/2000/svg">
<g clip-path="url(#clip0_1310_8881)">
<path d="M8.37988 0.15625C4.23464 0.15625 0.879883 3.51063 0.879883 7.65625C0.879883 11.8014 4.23426 15.1562 8.37988 15.1562C12.5251 15.1562 15.8799 11.8019 15.8799 7.65625C15.8799 3.51106 12.5255 0.15625 8.37988 0.15625ZM9.15007 10.6334C9.15007 10.8704 8.80454 11.1073 8.38003 11.1073C7.93577 11.1073 7.61989 10.8704 7.61989 10.6334V6.87209C7.61989 6.59567 7.9358 6.40806 8.38003 6.40806C8.80454 6.40806 9.15007 6.59567 9.15007 6.87209V10.6334ZM8.38006 5.49988C7.92593 5.49988 7.57056 5.16423 7.57056 4.78905C7.57056 4.41391 7.92596 4.08812 8.38006 4.08812C8.82432 4.08812 9.17975 4.41391 9.17975 4.78905C9.17975 5.16423 8.82429 5.49988 8.38006 5.49988Z" fill="#979797"/>
</g>
<defs>
<clipPath id="clip0_1310_8881">
<rect width="15" height="15" fill="white" transform="translate(0.879883 0.15625)"/>
</clipPath>
</defs>
</svg>
